<?xml version="1.0" encoding="UTF-8"?>
<svg xmlns="http://www.w3.org/2000/svg"
     xmlns:xlink="http://www.w3.org/1999/xlink"
     xmlns:gadfly="http://www.gadflyjl.org/ns"
     version="1.2"
     width="141.42mm" height="100mm" viewBox="0 0 141.42 100"
     stroke="none"
     fill="#000000"
     stroke-width="0.3"
     font-size="3.88"
>
<defs>
  <marker id="arrow" markerWidth="15" markerHeight="7" refX="5" refY="3.5" orient="auto" markerUnits="strokeWidth">
    <path d="M0,0 L15,3.5 L0,7 z" stroke="context-stroke" fill="context-stroke"/>
  </marker>
</defs>
<g class="plotroot xscalable yscalable" id="img-f8e6b4d1-1">
  <g font-size="3.88" font-family="'PT Sans','Helvetica Neue','Helvetica',sans-serif" fill="#564A55" stroke="#000000" stroke-opacity="0.000" id="img-f8e6b4d1-2">
    <g transform="translate(78.86,88.39)">
      <g class="primitive">
        <text text-anchor="middle" dy="0.6em">time</text>
      </g>
    </g>
  </g>
  <g class="guide xlabels" font-size="2.82" font-family="'PT Sans Caption','Helvetica Neue','Helvetica',sans-serif" fill="#6C606B" id="img-f8e6b4d1-3">
    <g transform="translate(23.3,81.72)">
      <g class="primitive">
        <text text-anchor="middle" dy="0.6em">0</text>
      </g>
    </g>
    <g transform="translate(60.34,81.72)">
      <g class="primitive">
        <text text-anchor="middle" dy="0.6em">50</text>
      </g>
    </g>
    <g transform="translate(97.38,81.72)">
      <g class="primitive">
        <text text-anchor="middle" dy="0.6em">100</text>
      </g>
    </g>
    <g transform="translate(134.42,81.72)">
      <g class="primitive">
        <text text-anchor="middle" dy="0.6em">150</text>
      </g>
    </g>
  </g>
  <g clip-path="url(#img-f8e6b4d1-4)">
    <g id="img-f8e6b4d1-5">
      <g pointer-events="visible" stroke-width="0.3" fill="#000000" fill-opacity="0.000" stroke="#000000" stroke-opacity="0.000" class="guide background" id="img-f8e6b4d1-6">
        <g transform="translate(78.86,42.86)" id="img-f8e6b4d1-7">
          <path d="M-57.56,-37.86 L57.56,-37.86 57.56,37.86 -57.56,37.86  z" class="primitive"/>
        </g>
      </g>
      <g class="guide ygridlines xfixed" stroke-dasharray="0.5,0.5" stroke-width="0.2" stroke="#D0D0E0" id="img-f8e6b4d1-8">
        <g transform="translate(78.86,78.71)" id="img-f8e6b4d1-9">
          <path fill="none" d="M-57.56,0 L57.56,0 " class="primitive"/>
        </g>
        <g transform="translate(78.86,64.37)" id="img-f8e6b4d1-10">
          <path fill="none" d="M-57.56,0 L57.56,0 " class="primitive"/>
        </g>
        <g transform="translate(78.86,50.03)" id="img-f8e6b4d1-11">
          <path fill="none" d="M-57.56,0 L57.56,0 " class="primitive"/>
        </g>
        <g transform="translate(78.86,35.69)" id="img-f8e6b4d1-12">
          <path fill="none" d="M-57.56,0 L57.56,0 " class="primitive"/>
        </g>
        <g transform="translate(78.86,21.34)" id="img-f8e6b4d1-13">
          <path fill="none" d="M-57.56,0 L57.56,0 " class="primitive"/>
        </g>
        <g transform="translate(78.86,7)" id="img-f8e6b4d1-14">
          <path fill="none" d="M-57.56,0 L57.56,0 " class="primitive"/>
        </g>
      </g>
      <g class="guide xgridlines yfixed" stroke-dasharray="0.5,0.5" stroke-width="0.2" stroke="#D0D0E0" id="img-f8e6b4d1-15">
        <g transform="translate(23.3,42.86)" id="img-f8e6b4d1-16">
          <path fill="none" d="M0,-37.86 L0,37.86 " class="primitive"/>
        </g>
        <g transform="translate(60.34,42.86)" id="img-f8e6b4d1-17">
          <path fill="none" d="M0,-37.86 L0,37.86 " class="primitive"/>
        </g>
        <g transform="translate(97.38,42.86)" id="img-f8e6b4d1-18">
          <path fill="none" d="M0,-37.86 L0,37.86 " class="primitive"/>
        </g>
        <g transform="translate(134.42,42.86)" id="img-f8e6b4d1-19">
          <path fill="none" d="M0,-37.86 L0,37.86 " class="primitive"/>
        </g>
      </g>
      <g class="plotpanel" id="img-f8e6b4d1-20">
        <metadata>
          <boundingbox value="21.304999999999993mm 5.0mm 115.11635623730952mm 75.715mm"/>
          <unitbox value="-2.6998725494498266 2569.7204211113435 155.39974509889964 -2639.4408422226875"/>
        </metadata>
        <g stroke-width="0.3" fill="#000000" fill-opacity="0.000" class="geometry" id="img-f8e6b4d1-21">
          <g class="color_RGB{N0f8}(0.502,0.502,0.502)" stroke-dasharray="none" stroke="#808080" id="img-f8e6b4d1-22">
            <g transform="translate(68.12,77.56)" id="img-f8e6b4d1-23">
              <path fill="none" d="M-44.08,1.15 L-43.34,1.15 -42.59,1.15 -41.85,1.12 -41.11,1.09 -40.37,1.04 -39.63,0.98 -38.89,0.89 -38.15,0.83 -37.41,0.75 -36.67,0.72 -35.93,0.69 -35.19,0.61 -34.45,0.61 -33.71,0.49 -32.96,0.49 -32.22,0.4 -31.48,0.35 -30.74,0.29 -30,0.26 -29.26,0.2 -28.52,0.15 -27.78,0.09 -27.04,0.09 -26.3,0.06 -25.56,0.06 -24.82,0.06 -24.08,0.03 -23.33,0 -22.59,0 -21.85,0 -21.11,0 -20.37,-0.03 -19.63,-0.05 -18.89,-0.05 -18.15,-0.05 -17.41,-0.05 -16.67,-0.05 -15.93,-0.05 -15.19,-0.05 -14.45,-0.05 -13.7,-0.05 -12.96,-0.05 -12.22,-0.05 -11.48,-0.05 -10.74,-0.05 -10,-0.05 -9.26,-0.05 -8.52,-0.05 -7.78,-0.08 -7.04,-0.08 -6.3,-0.08 -5.56,-0.08 -4.82,-0.08 -4.07,-0.14 -3.33,-0.14 -2.59,-0.14 -1.85,-0.2 -1.11,-0.2 -0.37,-0.2 0.37,-0.2 1.11,-0.2 1.85,-0.2 2.59,-0.2 3.33,-0.2 4.07,-0.23 4.82,-0.23 5.56,-0.23 6.3,-0.23 7.04,-0.23 7.78,-0.23 8.52,-0.23 9.26,-0.23 10,-0.23 10.74,-0.23 11.48,-0.23 12.22,-0.23 12.96,-0.23 13.7,-0.23 14.45,-0.23 15.19,-0.23 15.93,-0.23 16.67,-0.23 17.41,-0.23 18.15,-0.23 18.89,-0.23 19.63,-0.23 20.37,-0.23 21.11,-0.23 21.85,-0.23 22.59,-0.23 23.33,-0.23 24.08,-0.23 24.82,-0.23 25.56,-0.23 26.3,-0.23 27.04,-0.23 27.78,-0.23 28.52,-0.23 29.26,-0.23 30,-0.23 30.74,-0.23 31.48,-0.23 32.22,-0.23 32.96,-0.23 33.71,-0.23 34.45,-0.23 35.19,-0.23 35.93,-0.23 36.67,-0.23 37.41,-0.23 38.15,-0.23 38.89,-0.23 39.63,-0.23 40.37,-0.23 41.11,-0.23 41.85,-0.23 42.59,-0.23 43.34,-0.23 44.08,-0.23 " class="primitive"/>
            </g>
          </g>
        </g>
        <g stroke-width="0.3" fill="#000000" fill-opacity="0.000" class="geometry" id="img-f8e6b4d1-24">
          <g class="color_RGB{N0f8}(0.0,0.0,1.0)" stroke-dasharray="none" stroke="#0000FF" id="img-f8e6b4d1-25">
            <g transform="translate(68.12,20.61)" id="img-f8e6b4d1-26">
              <path fill="none" d="M-44.08,58.05 L-43.34,57.85 -42.59,57.7 -41.85,56.79 -41.11,55.44 -40.37,53.23 -39.63,50.25 -38.89,47.09 -38.15,43.22 -37.41,39.35 -36.67,36.28 -35.93,33.44 -35.19,30.88 -34.45,28.5 -33.71,26.44 -32.96,24.26 -32.22,22.05 -31.48,19.67 -30.74,17.89 -30,16.17 -29.26,14.59 -28.52,12.61 -27.78,11.09 -27.04,10 -26.3,8.31 -25.56,7.25 -24.82,5.73 -24.08,4.43 -23.33,3.11 -22.59,2.45 -21.85,1.77 -21.11,0.62 -20.37,0.16 -19.63,-0.73 -18.89,-1.5 -18.15,-2.31 -17.41,-2.88 -16.67,-3.4 -15.93,-3.83 -15.19,-4.29 -14.45,-5.06 -13.7,-5.49 -12.96,-5.72 -12.22,-6.01 -11.48,-6.38 -10.74,-6.87 -10,-7.1 -9.26,-7.36 -8.52,-7.73 -7.78,-7.87 -7.04,-8.1 -6.3,-8.3 -5.56,-8.53 -4.82,-8.9 -4.07,-9.16 -3.33,-9.34 -2.59,-9.48 -1.85,-9.68 -1.11,-9.82 -0.37,-10.05 0.37,-10.17 1.11,-10.22 1.85,-10.28 2.59,-10.37 3.33,-10.4 4.07,-10.51 4.82,-10.54 5.56,-10.74 6.3,-10.83 7.04,-10.88 7.78,-10.88 8.52,-10.94 9.26,-11 10,-11.14 10.74,-11.14 11.48,-11.23 12.22,-11.26 12.96,-11.29 13.7,-11.34 14.45,-11.34 15.19,-11.34 15.93,-11.34 16.67,-11.34 17.41,-11.4 18.15,-11.4 18.89,-11.49 19.63,-11.49 20.37,-11.52 21.11,-11.54 21.85,-11.57 22.59,-11.57 23.33,-11.57 24.08,-11.57 24.82,-11.57 25.56,-11.63 26.3,-11.63 27.04,-11.66 27.78,-11.66 28.52,-11.66 29.26,-11.66 30,-11.66 30.74,-11.66 31.48,-11.66 32.22,-11.66 32.96,-11.66 33.71,-11.69 34.45,-11.69 35.19,-11.69 35.93,-11.69 36.67,-11.69 37.41,-11.69 38.15,-11.69 38.89,-11.69 39.63,-11.69 40.37,-11.69 41.11,-11.69 41.85,-11.69 42.59,-11.69 43.34,-11.69 44.08,-11.69 " class="primitive"/>
            </g>
          </g>
        </g>
        <g stroke-width="0.3" fill="#000000" fill-opacity="0.000" class="geometry" id="img-f8e6b4d1-27">
          <g class="color_RGB{N0f8}(0.0,0.502,0.0)" stroke-dasharray="none" stroke="#008000" id="img-f8e6b4d1-28">
            <g transform="translate(68.12,75.68)" id="img-f8e6b4d1-29">
              <path fill="none" d="M-44.08,-67.27 L-43.34,-62.83 -42.59,-55.34 -41.85,-46.36 -41.11,-35.78 -40.37,-22.24 -39.63,-8.09 -38.89,-0.32 -38.15,2.32 -37.41,2.81 -36.67,2.75 -35.93,2.86 -35.19,2.92 -34.45,2.92 -33.71,2.81 -32.96,2.78 -32.22,2.75 -31.48,2.86 -30.74,2.81 -30,2.72 -29.26,2.84 -28.52,2.89 -27.78,2.98 -27.04,2.92 -26.3,2.86 -25.56,2.86 -24.82,2.81 -24.08,2.81 -23.33,2.81 -22.59,2.89 -21.85,2.84 -21.11,2.81 -20.37,2.89 -19.63,2.92 -18.89,2.84 -18.15,2.86 -17.41,2.84 -16.67,2.89 -15.93,2.81 -15.19,2.75 -14.45,2.69 -13.7,2.69 -12.96,2.75 -12.22,2.78 -11.48,2.78 -10.74,2.75 -10,2.69 -9.26,2.72 -8.52,2.78 -7.78,2.81 -7.04,2.81 -6.3,2.81 -5.56,2.81 -4.82,2.84 -4.07,2.78 -3.33,2.75 -2.59,2.72 -1.85,2.72 -1.11,2.72 -0.37,2.69 0.37,2.69 1.11,2.72 1.85,2.69 2.59,2.66 3.33,2.63 4.07,2.63 4.82,2.61 5.56,2.63 6.3,2.61 7.04,2.58 7.78,2.55 8.52,2.55 9.26,2.55 10,2.55 10.74,2.52 11.48,2.55 12.22,2.52 12.96,2.52 13.7,2.52 14.45,2.52 15.19,2.55 15.93,2.55 16.67,2.55 17.41,2.55 18.15,2.52 18.89,2.52 19.63,2.52 20.37,2.52 21.11,2.52 21.85,2.52 22.59,2.52 23.33,2.52 24.08,2.52 24.82,2.52 25.56,2.52 26.3,2.52 27.04,2.52 27.78,2.52 28.52,2.52 29.26,2.52 30,2.52 30.74,2.52 31.48,2.52 32.22,2.52 32.96,2.52 33.71,2.52 34.45,2.52 35.19,2.52 35.93,2.52 36.67,2.52 37.41,2.52 38.15,2.52 38.89,2.52 39.63,2.52 40.37,2.52 41.11,2.52 41.85,2.52 42.59,2.52 43.34,2.52 44.08,2.52 " class="primitive"/>
            </g>
          </g>
        </g>
        <g stroke-width="0.3" fill="#000000" fill-opacity="0.000" class="geometry" id="img-f8e6b4d1-30">
          <g class="color_RGB{N0f8}(1.0,0.0,0.0)" stroke-dasharray="none" stroke="#FF0000" id="img-f8e6b4d1-31">
            <g transform="translate(68.12,69.29)" id="img-f8e6b4d1-32">
              <path fill="none" d="M-44.08,8.07 L-43.34,3.83 -42.59,-3.51 -41.85,-11.55 -41.11,-20.75 -40.37,-32.03 -39.63,-43.13 -38.89,-47.66 -38.15,-46.37 -37.41,-42.9 -36.67,-39.74 -35.93,-36.99 -35.19,-34.41 -34.45,-32.03 -33.71,-29.73 -32.96,-27.52 -32.22,-25.2 -31.48,-22.88 -30.74,-20.98 -30,-19.15 -29.26,-17.63 -28.52,-15.65 -27.78,-14.16 -27.04,-13.01 -26.3,-11.23 -25.56,-10.17 -24.82,-8.59 -24.08,-7.27 -23.33,-5.92 -22.59,-5.35 -21.85,-4.6 -21.11,-3.43 -20.37,-3.03 -19.63,-2.14 -18.89,-1.28 -18.15,-0.5 -17.41,0.1 -16.67,0.56 -15.93,1.08 -15.19,1.59 -14.45,2.42 -13.7,2.85 -12.96,3.03 -12.22,3.28 -11.48,3.66 -10.74,4.17 -10,4.46 -9.26,4.69 -8.52,5.01 -7.78,5.15 -7.04,5.38 -6.3,5.58 -5.56,5.81 -4.82,6.15 -4.07,6.53 -3.33,6.73 -2.59,6.9 -1.85,7.16 -1.11,7.3 -0.37,7.56 0.37,7.67 1.11,7.7 1.85,7.79 2.59,7.9 3.33,7.96 4.07,8.1 4.82,8.16 5.56,8.33 6.3,8.45 7.04,8.53 7.78,8.56 8.52,8.62 9.26,8.68 10,8.82 10.74,8.85 11.48,8.91 12.22,8.96 12.96,8.99 13.7,9.05 14.45,9.05 15.19,9.02 15.93,9.02 16.67,9.02 17.41,9.08 18.15,9.11 18.89,9.19 19.63,9.19 20.37,9.22 21.11,9.25 21.85,9.28 22.59,9.28 23.33,9.28 24.08,9.28 24.82,9.28 25.56,9.34 26.3,9.34 27.04,9.37 27.78,9.37 28.52,9.37 29.26,9.37 30,9.37 30.74,9.37 31.48,9.37 32.22,9.37 32.96,9.37 33.71,9.39 34.45,9.39 35.19,9.39 35.93,9.39 36.67,9.39 37.41,9.39 38.15,9.39 38.89,9.39 39.63,9.39 40.37,9.39 41.11,9.39 41.85,9.39 42.59,9.39 43.34,9.39 44.08,9.39 " class="primitive"/>
            </g>
          </g>
        </g>
      </g>
    </g>
  </g>
  <g class="guide ylabels" font-size="2.82" font-family="'PT Sans Caption','Helvetica Neue','Helvetica',sans-serif" fill="#6C606B" id="img-f8e6b4d1-33">
    <g transform="translate(20.3,78.71)" id="img-f8e6b4d1-34">
      <g class="primitive">
        <text text-anchor="end" dy="0.35em">0</text>
      </g>
    </g>
    <g transform="translate(20.3,64.37)" id="img-f8e6b4d1-35">
      <g class="primitive">
        <text text-anchor="end" dy="0.35em">500</text>
      </g>
    </g>
    <g transform="translate(20.3,50.03)" id="img-f8e6b4d1-36">
      <g class="primitive">
        <text text-anchor="end" dy="0.35em">1000</text>
      </g>
    </g>
    <g transform="translate(20.3,35.69)" id="img-f8e6b4d1-37">
      <g class="primitive">
        <text text-anchor="end" dy="0.35em">1500</text>
      </g>
    </g>
    <g transform="translate(20.3,21.34)" id="img-f8e6b4d1-38">
      <g class="primitive">
        <text text-anchor="end" dy="0.35em">2000</text>
      </g>
    </g>
    <g transform="translate(20.3,7)" id="img-f8e6b4d1-39">
      <g class="primitive">
        <text text-anchor="end" dy="0.35em">2500</text>
      </g>
    </g>
  </g>
  <g font-size="3.88" font-family="'PT Sans','Helvetica Neue','Helvetica',sans-serif" fill="#564A55" stroke="#000000" stroke-opacity="0.000" id="img-f8e6b4d1-40">
    <g transform="translate(8.81,40.86)" id="img-f8e6b4d1-41">
      <g class="primitive">
        <text text-anchor="middle" dy="0.35em" transform="rotate(-90,0, 2)">inf</text>
      </g>
    </g>
  </g>
</g>
<defs>
  <clipPath id="img-f8e6b4d1-4">
    <path d="M21.3,5 L136.42,5 136.42,80.72 21.3,80.72 " />
  </clipPath>
</defs>
</svg>
