<?xml version="1.0" encoding="UTF-8"?>
<svg xmlns="http://www.w3.org/2000/svg"
     xmlns:xlink="http://www.w3.org/1999/xlink"
     xmlns:gadfly="http://www.gadflyjl.org/ns"
     version="1.2"
     width="141.42mm" height="100mm" viewBox="0 0 141.42 100"
     stroke="none"
     fill="#000000"
     stroke-width="0.3"
     font-size="3.88"
>
<defs>
  <marker id="arrow" markerWidth="15" markerHeight="7" refX="5" refY="3.5" orient="auto" markerUnits="strokeWidth">
    <path d="M0,0 L15,3.5 L0,7 z" stroke="context-stroke" fill="context-stroke"/>
  </marker>
</defs>
<g class="plotroot xscalable yscalable" id="img-7028f863-1">
  <g font-size="3.88" font-family="'PT Sans','Helvetica Neue','Helvetica',sans-serif" fill="#564A55" stroke="#000000" stroke-opacity="0.000" id="img-7028f863-2">
    <g transform="translate(78.86,88.39)">
      <g class="primitive">
        <text text-anchor="middle" dy="0.6em">time</text>
      </g>
    </g>
  </g>
  <g class="guide xlabels" font-size="2.82" font-family="'PT Sans Caption','Helvetica Neue','Helvetica',sans-serif" fill="#6C606B" id="img-7028f863-3">
    <g transform="translate(23.3,81.72)">
      <g class="primitive">
        <text text-anchor="middle" dy="0.6em">0</text>
      </g>
    </g>
    <g transform="translate(78.86,81.72)">
      <g class="primitive">
        <text text-anchor="middle" dy="0.6em">50</text>
      </g>
    </g>
    <g transform="translate(134.42,81.72)">
      <g class="primitive">
        <text text-anchor="middle" dy="0.6em">100</text>
      </g>
    </g>
  </g>
  <g clip-path="url(#img-7028f863-4)">
    <g id="img-7028f863-5">
      <g pointer-events="visible" stroke-width="0.3" fill="#000000" fill-opacity="0.000" stroke="#000000" stroke-opacity="0.000" class="guide background" id="img-7028f863-6">
        <g transform="translate(78.86,42.86)" id="img-7028f863-7">
          <path d="M-57.56,-37.86 L57.56,-37.86 57.56,37.86 -57.56,37.86  z" class="primitive"/>
        </g>
      </g>
      <g class="guide ygridlines xfixed" stroke-dasharray="0.5,0.5" stroke-width="0.2" stroke="#D0D0E0" id="img-7028f863-8">
        <g transform="translate(78.86,78.71)" id="img-7028f863-9">
          <path fill="none" d="M-57.56,0 L57.56,0 " class="primitive"/>
        </g>
        <g transform="translate(78.86,64.37)" id="img-7028f863-10">
          <path fill="none" d="M-57.56,0 L57.56,0 " class="primitive"/>
        </g>
        <g transform="translate(78.86,50.03)" id="img-7028f863-11">
          <path fill="none" d="M-57.56,0 L57.56,0 " class="primitive"/>
        </g>
        <g transform="translate(78.86,35.69)" id="img-7028f863-12">
          <path fill="none" d="M-57.56,0 L57.56,0 " class="primitive"/>
        </g>
        <g transform="translate(78.86,21.34)" id="img-7028f863-13">
          <path fill="none" d="M-57.56,0 L57.56,0 " class="primitive"/>
        </g>
        <g transform="translate(78.86,7)" id="img-7028f863-14">
          <path fill="none" d="M-57.56,0 L57.56,0 " class="primitive"/>
        </g>
      </g>
      <g class="guide xgridlines yfixed" stroke-dasharray="0.5,0.5" stroke-width="0.2" stroke="#D0D0E0" id="img-7028f863-15">
        <g transform="translate(23.3,42.86)" id="img-7028f863-16">
          <path fill="none" d="M0,-37.86 L0,37.86 " class="primitive"/>
        </g>
        <g transform="translate(78.86,42.86)" id="img-7028f863-17">
          <path fill="none" d="M0,-37.86 L0,37.86 " class="primitive"/>
        </g>
        <g transform="translate(134.42,42.86)" id="img-7028f863-18">
          <path fill="none" d="M0,-37.86 L0,37.86 " class="primitive"/>
        </g>
      </g>
      <g class="plotpanel" id="img-7028f863-19">
        <metadata>
          <boundingbox value="21.304999999999993mm 5.0mm 115.11635623730952mm 75.715mm"/>
          <unitbox value="-1.7999150329665508 2569.7204211113435 103.59983006593309 -2639.4408422226875"/>
        </metadata>
        <g stroke-width="0.3" fill="#000000" fill-opacity="0.000" class="geometry" id="img-7028f863-20">
          <g class="color_RGB{N0f8}(0.502,0.502,0.502)" stroke-dasharray="none" stroke="#808080" id="img-7028f863-21">
            <g transform="translate(79.42,71.52)" id="img-7028f863-22">
              <path fill="none" d="M-55,7.2 L-53.89,7.2 -52.78,7.2 -51.67,7.17 -50.56,7.17 -49.45,7.17 -48.34,7.17 -47.22,7.11 -46.11,7.11 -45,7.11 -43.89,7.08 -42.78,7.05 -41.67,7.02 -40.56,7 -39.45,6.97 -38.34,6.91 -37.22,6.91 -36.11,6.88 -35,6.8 -33.89,6.71 -32.78,6.68 -31.67,6.62 -30.56,6.54 -29.45,6.48 -28.33,6.45 -27.22,6.36 -26.11,6.28 -25,6.28 -23.89,6.16 -22.78,6.14 -21.67,6.05 -20.56,5.88 -19.45,5.79 -18.33,5.68 -17.22,5.62 -16.11,5.45 -15,5.19 -13.89,5.16 -12.78,4.99 -11.67,4.84 -10.56,4.59 -9.44,4.47 -8.33,4.3 -7.22,4.16 -6.11,4.04 -5,3.73 -3.89,3.52 -2.78,3.18 -1.67,3.01 -0.56,2.84 0.56,2.66 1.67,2.41 2.78,2.09 3.89,1.83 5,1.52 6.11,1.29 7.22,1.12 8.33,0.74 9.44,0.46 10.56,0.34 11.67,-0.12 12.78,-0.52 13.89,-0.86 15,-1.35 16.11,-1.58 17.22,-2.13 18.33,-2.24 19.45,-2.79 20.56,-3.07 21.67,-3.56 22.78,-3.93 23.89,-4.22 25,-4.59 26.11,-5.02 27.22,-5.51 28.33,-5.97 29.45,-6.46 30.56,-6.89 31.67,-7.46 32.78,-7.78 33.89,-8.24 35,-8.67 36.11,-9.15 37.22,-9.67 38.34,-10.16 39.45,-10.76 40.56,-11.1 41.67,-11.51 42.78,-11.88 43.89,-12.17 45,-12.31 46.11,-12.51 47.22,-12.8 48.34,-13.06 49.45,-13.2 50.56,-13.4 51.67,-13.6 52.78,-13.77 53.89,-13.8 55,-14.03 " class="primitive"/>
            </g>
          </g>
        </g>
        <g stroke-width="0.3" fill="#000000" fill-opacity="0.000" class="geometry" id="img-7028f863-23">
          <g class="color_RGB{N0f8}(0.0,0.0,1.0)" stroke-dasharray="none" stroke="#0000FF" id="img-7028f863-24">
            <g transform="translate(79.42,63.37)" id="img-7028f863-25">
              <path fill="none" d="M-55,15.34 L-53.89,15.34 -52.78,15.31 -51.67,15.25 -50.56,15.23 -49.45,15.2 -48.34,15.14 -47.22,15.03 -46.11,15 -45,14.91 -43.89,14.88 -42.78,14.85 -41.67,14.8 -40.56,14.8 -39.45,14.74 -38.34,14.68 -37.22,14.6 -36.11,14.57 -35,14.45 -33.89,14.45 -32.78,14.39 -31.67,14.14 -30.56,14.05 -29.45,13.91 -28.33,13.68 -27.22,13.48 -26.11,13.33 -25,13.13 -23.89,12.9 -22.78,12.67 -21.67,12.5 -20.56,12.3 -19.45,11.98 -18.33,11.61 -17.22,11.3 -16.11,11.07 -15,10.84 -13.89,10.58 -12.78,10.23 -11.67,9.89 -10.56,9.63 -9.44,9.35 -8.33,8.94 -7.22,8.54 -6.11,8.11 -5,7.22 -3.89,6.85 -2.78,6.48 -1.67,5.87 -0.56,5.21 0.56,4.73 1.67,4.44 2.78,3.84 3.89,3.29 5,2.43 6.11,2.03 7.22,1.34 8.33,0.6 9.44,0.02 10.56,-0.49 11.67,-1.21 12.78,-2.13 13.89,-2.79 15,-3.36 16.11,-4.11 17.22,-4.88 18.33,-5.63 19.45,-6.6 20.56,-7.35 21.67,-8.32 22.78,-9.27 23.89,-9.9 25,-10.85 26.11,-11.6 27.22,-12.46 28.33,-13.52 29.45,-14.41 30.56,-15.01 31.67,-15.67 32.78,-16.27 33.89,-16.84 35,-17.73 36.11,-18.94 37.22,-19.6 38.34,-20.23 39.45,-21.09 40.56,-21.95 41.67,-22.7 42.78,-23.3 43.89,-23.79 45,-24.25 46.11,-24.91 47.22,-25.39 48.34,-25.65 49.45,-26.17 50.56,-26.8 51.67,-27.09 52.78,-27.43 53.89,-27.69 55,-28.12 " class="primitive"/>
            </g>
          </g>
        </g>
        <g stroke-width="0.3" fill="#000000" fill-opacity="0.000" class="geometry" id="img-7028f863-26">
          <g class="color_RGB{N0f8}(0.0,0.502,0.0)" stroke-dasharray="none" stroke="#008000" id="img-7028f863-27">
            <g transform="translate(79.42,31.65)" id="img-7028f863-28">
              <path fill="none" d="M-55,-24.62 L-53.89,-24.59 -52.78,-24.57 -51.67,-24.51 -50.56,-24.45 -49.45,-24.42 -48.34,-24.28 -47.22,-24.19 -46.11,-24.13 -45,-23.99 -43.89,-23.88 -42.78,-23.79 -41.67,-23.79 -40.56,-23.76 -39.45,-23.56 -38.34,-23.3 -37.22,-23.19 -36.11,-22.99 -35,-22.87 -33.89,-22.67 -32.78,-22.39 -31.67,-22.07 -30.56,-21.93 -29.45,-21.58 -28.33,-21.38 -27.22,-21.27 -26.11,-20.81 -25,-20.43 -23.89,-19.98 -22.78,-19.63 -21.67,-19.32 -20.56,-19.2 -19.45,-18.66 -18.33,-18.28 -17.22,-17.71 -16.11,-17.31 -15,-16.79 -13.89,-16.42 -12.78,-15.73 -11.67,-15.07 -10.56,-14.73 -9.44,-14.18 -8.33,-13.78 -7.22,-12.95 -6.11,-11.74 -5,-10.94 -3.89,-10.34 -2.78,-9.19 -1.67,-8.44 -0.56,-7.55 0.56,-6.95 1.67,-6.09 2.78,-5.06 3.89,-4.2 5,-3.6 6.11,-2.85 7.22,-1.65 8.33,-0.73 9.44,0.56 10.56,1.31 11.67,2.72 12.78,3.95 13.89,5.24 15,6.27 16.11,7.3 17.22,8.6 18.33,10.09 19.45,11.18 20.56,12.38 21.67,13.59 22.78,15.19 23.89,16.23 25,17.49 26.11,18.89 27.22,20.39 28.33,21.79 29.45,22.62 30.56,23.8 31.67,25.15 32.78,26.38 33.89,27.41 35,28.82 36.11,30 37.22,31.32 38.34,32.46 39.45,33.38 40.56,34.33 41.67,35.27 42.78,35.85 43.89,36.45 45,36.99 46.11,37.45 47.22,38.06 48.34,38.52 49.45,39.23 50.56,39.52 51.67,40.04 52.78,40.35 53.89,40.7 55,41.21 " class="primitive"/>
            </g>
          </g>
        </g>
        <g stroke-width="0.3" fill="#000000" fill-opacity="0.000" class="geometry" id="img-7028f863-29">
          <g class="color_RGB{N0f8}(1.0,0.0,0.0)" stroke-dasharray="none" stroke="#FF0000" id="img-7028f863-30">
            <g transform="translate(79.42,76.6)" id="img-7028f863-31">
              <path fill="none" d="M-55,2.08 L-53.89,2.06 -52.78,2.06 -51.67,2.08 -50.56,2.06 -49.45,2.06 -48.34,1.97 -47.22,2.06 -46.11,2.03 -45,1.97 -43.89,1.91 -42.78,1.88 -41.67,1.97 -40.56,1.97 -39.45,1.86 -38.34,1.71 -37.22,1.68 -36.11,1.54 -35,1.63 -33.89,1.51 -32.78,1.31 -31.67,1.31 -30.56,1.34 -29.45,1.2 -28.33,1.25 -27.22,1.43 -26.11,1.2 -25,1.02 -23.89,0.91 -22.78,0.82 -21.67,0.77 -20.56,1.02 -19.45,0.88 -18.33,0.99 -17.22,0.79 -16.11,0.79 -15,0.77 -13.89,0.68 -12.78,0.51 -11.67,0.34 -10.56,0.51 -9.44,0.36 -8.33,0.54 -7.22,0.25 -6.11,-0.41 -5,-0.01 -3.89,-0.04 -2.78,-0.47 -1.67,-0.44 -0.56,-0.5 0.56,-0.44 1.67,-0.76 2.78,-0.87 3.89,-0.93 5,-0.35 6.11,-0.47 7.22,-0.81 8.33,-0.61 9.44,-1.04 10.56,-1.16 11.67,-1.39 12.78,-1.3 13.89,-1.59 15,-1.56 16.11,-1.62 17.22,-1.59 18.33,-2.22 19.45,-1.79 20.56,-1.96 21.67,-1.7 22.78,-1.99 23.89,-2.1 25,-2.05 26.11,-2.28 27.22,-2.42 28.33,-2.3 29.45,-1.76 30.56,-1.9 31.67,-2.02 32.78,-2.33 33.89,-2.33 35,-2.42 36.11,-1.9 37.22,-2.05 38.34,-2.07 39.45,-1.53 40.56,-1.27 41.67,-1.07 42.78,-0.67 43.89,-0.5 45,-0.44 46.11,-0.04 47.22,0.13 48.34,0.19 49.45,0.13 50.56,0.68 51.67,0.65 52.78,0.85 53.89,0.79 55,0.94 " class="primitive"/>
            </g>
          </g>
        </g>
      </g>
    </g>
  </g>
  <g class="guide ylabels" font-size="2.82" font-family="'PT Sans Caption','Helvetica Neue','Helvetica',sans-serif" fill="#6C606B" id="img-7028f863-32">
    <g transform="translate(20.3,78.71)" id="img-7028f863-33">
      <g class="primitive">
        <text text-anchor="end" dy="0.35em">0</text>
      </g>
    </g>
    <g transform="translate(20.3,64.37)" id="img-7028f863-34">
      <g class="primitive">
        <text text-anchor="end" dy="0.35em">500</text>
      </g>
    </g>
    <g transform="translate(20.3,50.03)" id="img-7028f863-35">
      <g class="primitive">
        <text text-anchor="end" dy="0.35em">1000</text>
      </g>
    </g>
    <g transform="translate(20.3,35.69)" id="img-7028f863-36">
      <g class="primitive">
        <text text-anchor="end" dy="0.35em">1500</text>
      </g>
    </g>
    <g transform="translate(20.3,21.34)" id="img-7028f863-37">
      <g class="primitive">
        <text text-anchor="end" dy="0.35em">2000</text>
      </g>
    </g>
    <g transform="translate(20.3,7)" id="img-7028f863-38">
      <g class="primitive">
        <text text-anchor="end" dy="0.35em">2500</text>
      </g>
    </g>
  </g>
  <g font-size="3.88" font-family="'PT Sans','Helvetica Neue','Helvetica',sans-serif" fill="#564A55" stroke="#000000" stroke-opacity="0.000" id="img-7028f863-39">
    <g transform="translate(8.81,40.86)" id="img-7028f863-40">
      <g class="primitive">
        <text text-anchor="middle" dy="0.35em" transform="rotate(-90,0, 2)">inf</text>
      </g>
    </g>
  </g>
</g>
<defs>
  <clipPath id="img-7028f863-4">
    <path d="M21.3,5 L136.42,5 136.42,80.72 21.3,80.72 " />
  </clipPath>
</defs>
</svg>
