<?xml version="1.0" encoding="utf-8"?>
<svg xmlns="http://www.w3.org/2000/svg" xmlns:xlink="http://www.w3.org/1999/xlink" width="600" height="400" viewBox="0 0 2400 1600">
<defs>
  <clipPath id="clip270">
    <rect x="0" y="0" width="2400" height="1600"/>
  </clipPath>
</defs>
<path clip-path="url(#clip270)" d="
M0 1600 L2400 1600 L2400 0 L0 0  Z
  " fill="#ffffff" fill-rule="evenodd" fill-opacity="1"/>
<defs>
  <clipPath id="clip271">
    <rect x="480" y="0" width="1681" height="1600"/>
  </clipPath>
</defs>
<path clip-path="url(#clip270)" d="
M174.862 1486.45 L2352.76 1486.45 L2352.76 47.2441 L174.862 47.2441  Z
  " fill="#ffffff" fill-rule="evenodd" fill-opacity="1"/>
<defs>
  <clipPath id="clip272">
    <rect x="174" y="47" width="2179" height="1440"/>
  </clipPath>
</defs>
<polyline clip-path="url(#clip272)" style="stroke:#000000; stroke-width:2; stroke-opacity:0.1; fill:none" points="
  232.383,1486.45 232.383,47.2441 
  "/>
<polyline clip-path="url(#clip272)" style="stroke:#000000; stroke-width:2; stroke-opacity:0.1; fill:none" points="
  644.13,1486.45 644.13,47.2441 
  "/>
<polyline clip-path="url(#clip272)" style="stroke:#000000; stroke-width:2; stroke-opacity:0.1; fill:none" points="
  1055.88,1486.45 1055.88,47.2441 
  "/>
<polyline clip-path="url(#clip272)" style="stroke:#000000; stroke-width:2; stroke-opacity:0.1; fill:none" points="
  1467.62,1486.45 1467.62,47.2441 
  "/>
<polyline clip-path="url(#clip272)" style="stroke:#000000; stroke-width:2; stroke-opacity:0.1; fill:none" points="
  1879.37,1486.45 1879.37,47.2441 
  "/>
<polyline clip-path="url(#clip272)" style="stroke:#000000; stroke-width:2; stroke-opacity:0.1; fill:none" points="
  2291.12,1486.45 2291.12,47.2441 
  "/>
<polyline clip-path="url(#clip270)" style="stroke:#000000; stroke-width:4; stroke-opacity:1; fill:none" points="
  174.862,1486.45 2352.76,1486.45 
  "/>
<polyline clip-path="url(#clip270)" style="stroke:#000000; stroke-width:4; stroke-opacity:1; fill:none" points="
  232.383,1486.45 232.383,1469.18 
  "/>
<polyline clip-path="url(#clip270)" style="stroke:#000000; stroke-width:4; stroke-opacity:1; fill:none" points="
  644.13,1486.45 644.13,1469.18 
  "/>
<polyline clip-path="url(#clip270)" style="stroke:#000000; stroke-width:4; stroke-opacity:1; fill:none" points="
  1055.88,1486.45 1055.88,1469.18 
  "/>
<polyline clip-path="url(#clip270)" style="stroke:#000000; stroke-width:4; stroke-opacity:1; fill:none" points="
  1467.62,1486.45 1467.62,1469.18 
  "/>
<polyline clip-path="url(#clip270)" style="stroke:#000000; stroke-width:4; stroke-opacity:1; fill:none" points="
  1879.37,1486.45 1879.37,1469.18 
  "/>
<polyline clip-path="url(#clip270)" style="stroke:#000000; stroke-width:4; stroke-opacity:1; fill:none" points="
  2291.12,1486.45 2291.12,1469.18 
  "/>
<path clip-path="url(#clip270)" d="M 0 0 M232.383 1515.64 Q228.772 1515.64 226.943 1519.2 Q225.138 1522.75 225.138 1529.87 Q225.138 1536.98 226.943 1540.55 Q228.772 1544.09 232.383 1544.09 Q236.017 1544.09 237.823 1540.55 Q239.652 1536.98 239.652 1529.87 Q239.652 1522.75 237.823 1519.2 Q236.017 1515.64 232.383 1515.64 M232.383 1511.93 Q238.193 1511.93 241.249 1516.54 Q244.327 1521.12 244.327 1529.87 Q244.327 1538.6 241.249 1543.21 Q238.193 1547.79 232.383 1547.79 Q226.573 1547.79 223.494 1543.21 Q220.439 1538.6 220.439 1529.87 Q220.439 1521.12 223.494 1516.54 Q226.573 1511.93 232.383 1511.93 Z" fill="#000000" fill-rule="evenodd" fill-opacity="1" /><path clip-path="url(#clip270)" d="M 0 0 M607.498 1543.18 L615.137 1543.18 L615.137 1516.82 L606.827 1518.49 L606.827 1514.23 L615.091 1512.56 L619.767 1512.56 L619.767 1543.18 L627.405 1543.18 L627.405 1547.12 L607.498 1547.12 L607.498 1543.18 Z" fill="#000000" fill-rule="evenodd" fill-opacity="1" /><path clip-path="url(#clip270)" d="M 0 0 M642.475 1515.64 Q638.864 1515.64 637.035 1519.2 Q635.23 1522.75 635.23 1529.87 Q635.23 1536.98 637.035 1540.55 Q638.864 1544.09 642.475 1544.09 Q646.109 1544.09 647.915 1540.55 Q649.743 1536.98 649.743 1529.87 Q649.743 1522.75 647.915 1519.2 Q646.109 1515.64 642.475 1515.64 M642.475 1511.93 Q648.285 1511.93 651.341 1516.54 Q654.419 1521.12 654.419 1529.87 Q654.419 1538.6 651.341 1543.21 Q648.285 1547.79 642.475 1547.79 Q636.665 1547.79 633.586 1543.21 Q630.53 1538.6 630.53 1529.87 Q630.53 1521.12 633.586 1516.54 Q636.665 1511.93 642.475 1511.93 Z" fill="#000000" fill-rule="evenodd" fill-opacity="1" /><path clip-path="url(#clip270)" d="M 0 0 M669.489 1515.64 Q665.877 1515.64 664.049 1519.2 Q662.243 1522.75 662.243 1529.87 Q662.243 1536.98 664.049 1540.55 Q665.877 1544.09 669.489 1544.09 Q673.123 1544.09 674.928 1540.55 Q676.757 1536.98 676.757 1529.87 Q676.757 1522.75 674.928 1519.2 Q673.123 1515.64 669.489 1515.64 M669.489 1511.93 Q675.299 1511.93 678.354 1516.54 Q681.433 1521.12 681.433 1529.87 Q681.433 1538.6 678.354 1543.21 Q675.299 1547.79 669.489 1547.79 Q663.678 1547.79 660.6 1543.21 Q657.544 1538.6 657.544 1529.87 Q657.544 1521.12 660.6 1516.54 Q663.678 1511.93 669.489 1511.93 Z" fill="#000000" fill-rule="evenodd" fill-opacity="1" /><path clip-path="url(#clip270)" d="M 0 0 M1023.52 1543.18 L1039.84 1543.18 L1039.84 1547.12 L1017.89 1547.12 L1017.89 1543.18 Q1020.55 1540.43 1025.14 1535.8 Q1029.74 1531.15 1030.92 1529.81 Q1033.17 1527.28 1034.05 1525.55 Q1034.95 1523.79 1034.95 1522.1 Q1034.95 1519.34 1033.01 1517.61 Q1031.09 1515.87 1027.98 1515.87 Q1025.78 1515.87 1023.33 1516.63 Q1020.9 1517.4 1018.12 1518.95 L1018.12 1514.23 Q1020.95 1513.09 1023.4 1512.51 Q1025.85 1511.93 1027.89 1511.93 Q1033.26 1511.93 1036.46 1514.62 Q1039.65 1517.31 1039.65 1521.8 Q1039.65 1523.93 1038.84 1525.85 Q1038.05 1527.74 1035.95 1530.34 Q1035.37 1531.01 1032.27 1534.23 Q1029.16 1537.42 1023.52 1543.18 Z" fill="#000000" fill-rule="evenodd" fill-opacity="1" /><path clip-path="url(#clip270)" d="M 0 0 M1054.9 1515.64 Q1051.29 1515.64 1049.46 1519.2 Q1047.66 1522.75 1047.66 1529.87 Q1047.66 1536.98 1049.46 1540.55 Q1051.29 1544.09 1054.9 1544.09 Q1058.54 1544.09 1060.34 1540.55 Q1062.17 1536.98 1062.17 1529.87 Q1062.17 1522.75 1060.34 1519.2 Q1058.54 1515.64 1054.9 1515.64 M1054.9 1511.93 Q1060.71 1511.93 1063.77 1516.54 Q1066.85 1521.12 1066.85 1529.87 Q1066.85 1538.6 1063.77 1543.21 Q1060.71 1547.79 1054.9 1547.79 Q1049.09 1547.79 1046.02 1543.21 Q1042.96 1538.6 1042.96 1529.87 Q1042.96 1521.12 1046.02 1516.54 Q1049.09 1511.93 1054.9 1511.93 Z" fill="#000000" fill-rule="evenodd" fill-opacity="1" /><path clip-path="url(#clip270)" d="M 0 0 M1081.92 1515.64 Q1078.31 1515.64 1076.48 1519.2 Q1074.67 1522.75 1074.67 1529.87 Q1074.67 1536.98 1076.48 1540.55 Q1078.31 1544.09 1081.92 1544.09 Q1085.55 1544.09 1087.36 1540.55 Q1089.19 1536.98 1089.19 1529.87 Q1089.19 1522.75 1087.36 1519.2 Q1085.55 1515.64 1081.92 1515.64 M1081.92 1511.93 Q1087.73 1511.93 1090.78 1516.54 Q1093.86 1521.12 1093.86 1529.87 Q1093.86 1538.6 1090.78 1543.21 Q1087.73 1547.79 1081.92 1547.79 Q1076.11 1547.79 1073.03 1543.21 Q1069.97 1538.6 1069.97 1529.87 Q1069.97 1521.12 1073.03 1516.54 Q1076.11 1511.93 1081.92 1511.93 Z" fill="#000000" fill-rule="evenodd" fill-opacity="1" /><path clip-path="url(#clip270)" d="M 0 0 M1444.86 1528.49 Q1448.21 1529.2 1450.09 1531.47 Q1451.99 1533.74 1451.99 1537.07 Q1451.99 1542.19 1448.47 1544.99 Q1444.95 1547.79 1438.47 1547.79 Q1436.29 1547.79 1433.98 1547.35 Q1431.69 1546.93 1429.23 1546.08 L1429.23 1541.56 Q1431.18 1542.7 1433.49 1543.28 Q1435.81 1543.86 1438.33 1543.86 Q1442.73 1543.86 1445.02 1542.12 Q1447.33 1540.38 1447.33 1537.07 Q1447.33 1534.02 1445.18 1532.31 Q1443.05 1530.57 1439.23 1530.57 L1435.2 1530.57 L1435.2 1526.73 L1439.42 1526.73 Q1442.87 1526.73 1444.7 1525.36 Q1446.52 1523.97 1446.52 1521.38 Q1446.52 1518.72 1444.63 1517.31 Q1442.75 1515.87 1439.23 1515.87 Q1437.31 1515.87 1435.11 1516.29 Q1432.91 1516.7 1430.27 1517.58 L1430.27 1513.42 Q1432.94 1512.68 1435.25 1512.31 Q1437.59 1511.93 1439.65 1511.93 Q1444.97 1511.93 1448.08 1514.37 Q1451.18 1516.77 1451.18 1520.89 Q1451.18 1523.76 1449.53 1525.75 Q1447.89 1527.72 1444.86 1528.49 Z" fill="#000000" fill-rule="evenodd" fill-opacity="1" /><path clip-path="url(#clip270)" d="M 0 0 M1467.06 1515.64 Q1463.45 1515.64 1461.62 1519.2 Q1459.81 1522.75 1459.81 1529.87 Q1459.81 1536.98 1461.62 1540.55 Q1463.45 1544.09 1467.06 1544.09 Q1470.69 1544.09 1472.5 1540.55 Q1474.33 1536.98 1474.33 1529.87 Q1474.33 1522.75 1472.5 1519.2 Q1470.69 1515.64 1467.06 1515.64 M1467.06 1511.93 Q1472.87 1511.93 1475.92 1516.54 Q1479 1521.12 1479 1529.87 Q1479 1538.6 1475.92 1543.21 Q1472.87 1547.79 1467.06 1547.79 Q1461.25 1547.79 1458.17 1543.21 Q1455.11 1538.6 1455.11 1529.87 Q1455.11 1521.12 1458.17 1516.54 Q1461.25 1511.93 1467.06 1511.93 Z" fill="#000000" fill-rule="evenodd" fill-opacity="1" /><path clip-path="url(#clip270)" d="M 0 0 M1494.07 1515.64 Q1490.46 1515.64 1488.63 1519.2 Q1486.82 1522.75 1486.82 1529.87 Q1486.82 1536.98 1488.63 1540.55 Q1490.46 1544.09 1494.07 1544.09 Q1497.7 1544.09 1499.51 1540.55 Q1501.34 1536.98 1501.34 1529.87 Q1501.34 1522.75 1499.51 1519.2 Q1497.7 1515.64 1494.07 1515.64 M1494.07 1511.93 Q1499.88 1511.93 1502.94 1516.54 Q1506.01 1521.12 1506.01 1529.87 Q1506.01 1538.6 1502.94 1543.21 Q1499.88 1547.79 1494.07 1547.79 Q1488.26 1547.79 1485.18 1543.21 Q1482.13 1538.6 1482.13 1529.87 Q1482.13 1521.12 1485.18 1516.54 Q1488.26 1511.93 1494.07 1511.93 Z" fill="#000000" fill-rule="evenodd" fill-opacity="1" /><path clip-path="url(#clip270)" d="M 0 0 M1855.37 1516.63 L1843.56 1535.08 L1855.37 1535.08 L1855.37 1516.63 M1854.14 1512.56 L1860.02 1512.56 L1860.02 1535.08 L1864.95 1535.08 L1864.95 1538.97 L1860.02 1538.97 L1860.02 1547.12 L1855.37 1547.12 L1855.37 1538.97 L1839.76 1538.97 L1839.76 1534.46 L1854.14 1512.56 Z" fill="#000000" fill-rule="evenodd" fill-opacity="1" /><path clip-path="url(#clip270)" d="M 0 0 M1880.02 1515.64 Q1876.41 1515.64 1874.58 1519.2 Q1872.77 1522.75 1872.77 1529.87 Q1872.77 1536.98 1874.58 1540.55 Q1876.41 1544.09 1880.02 1544.09 Q1883.65 1544.09 1885.46 1540.55 Q1887.29 1536.98 1887.29 1529.87 Q1887.29 1522.75 1885.46 1519.2 Q1883.65 1515.64 1880.02 1515.64 M1880.02 1511.93 Q1885.83 1511.93 1888.88 1516.54 Q1891.96 1521.12 1891.96 1529.87 Q1891.96 1538.6 1888.88 1543.21 Q1885.83 1547.79 1880.02 1547.79 Q1874.21 1547.79 1871.13 1543.21 Q1868.07 1538.6 1868.07 1529.87 Q1868.07 1521.12 1871.13 1516.54 Q1874.21 1511.93 1880.02 1511.93 Z" fill="#000000" fill-rule="evenodd" fill-opacity="1" /><path clip-path="url(#clip270)" d="M 0 0 M1907.03 1515.64 Q1903.42 1515.64 1901.59 1519.2 Q1899.79 1522.75 1899.79 1529.87 Q1899.79 1536.98 1901.59 1540.55 Q1903.42 1544.09 1907.03 1544.09 Q1910.67 1544.09 1912.47 1540.55 Q1914.3 1536.98 1914.3 1529.87 Q1914.3 1522.75 1912.47 1519.2 Q1910.67 1515.64 1907.03 1515.64 M1907.03 1511.93 Q1912.84 1511.93 1915.9 1516.54 Q1918.98 1521.12 1918.98 1529.87 Q1918.98 1538.6 1915.9 1543.21 Q1912.84 1547.79 1907.03 1547.79 Q1901.22 1547.79 1898.14 1543.21 Q1895.09 1538.6 1895.09 1529.87 Q1895.09 1521.12 1898.14 1516.54 Q1901.22 1511.93 1907.03 1511.93 Z" fill="#000000" fill-rule="evenodd" fill-opacity="1" /><path clip-path="url(#clip270)" d="M 0 0 M2254.38 1512.56 L2272.74 1512.56 L2272.74 1516.5 L2258.66 1516.5 L2258.66 1524.97 Q2259.68 1524.62 2260.7 1524.46 Q2261.72 1524.27 2262.74 1524.27 Q2268.52 1524.27 2271.9 1527.44 Q2275.28 1530.62 2275.28 1536.03 Q2275.28 1541.61 2271.81 1544.71 Q2268.34 1547.79 2262.02 1547.79 Q2259.84 1547.79 2257.58 1547.42 Q2255.33 1547.05 2252.92 1546.31 L2252.92 1541.61 Q2255.01 1542.74 2257.23 1543.3 Q2259.45 1543.86 2261.93 1543.86 Q2265.93 1543.86 2268.27 1541.75 Q2270.61 1539.64 2270.61 1536.03 Q2270.61 1532.42 2268.27 1530.31 Q2265.93 1528.21 2261.93 1528.21 Q2260.05 1528.21 2258.18 1528.62 Q2256.33 1529.04 2254.38 1529.92 L2254.38 1512.56 Z" fill="#000000" fill-rule="evenodd" fill-opacity="1" /><path clip-path="url(#clip270)" d="M 0 0 M2290.35 1515.64 Q2286.74 1515.64 2284.91 1519.2 Q2283.11 1522.75 2283.11 1529.87 Q2283.11 1536.98 2284.91 1540.55 Q2286.74 1544.09 2290.35 1544.09 Q2293.99 1544.09 2295.79 1540.55 Q2297.62 1536.98 2297.62 1529.87 Q2297.62 1522.75 2295.79 1519.2 Q2293.99 1515.64 2290.35 1515.64 M2290.35 1511.93 Q2296.16 1511.93 2299.22 1516.54 Q2302.3 1521.12 2302.3 1529.87 Q2302.3 1538.6 2299.22 1543.21 Q2296.16 1547.79 2290.35 1547.79 Q2284.54 1547.79 2281.46 1543.21 Q2278.41 1538.6 2278.41 1529.87 Q2278.41 1521.12 2281.46 1516.54 Q2284.54 1511.93 2290.35 1511.93 Z" fill="#000000" fill-rule="evenodd" fill-opacity="1" /><path clip-path="url(#clip270)" d="M 0 0 M2317.37 1515.64 Q2313.76 1515.64 2311.93 1519.2 Q2310.12 1522.75 2310.12 1529.87 Q2310.12 1536.98 2311.93 1540.55 Q2313.76 1544.09 2317.37 1544.09 Q2321 1544.09 2322.81 1540.55 Q2324.64 1536.98 2324.64 1529.87 Q2324.64 1522.75 2322.81 1519.2 Q2321 1515.64 2317.37 1515.64 M2317.37 1511.93 Q2323.18 1511.93 2326.23 1516.54 Q2329.31 1521.12 2329.31 1529.87 Q2329.31 1538.6 2326.23 1543.21 Q2323.18 1547.79 2317.37 1547.79 Q2311.56 1547.79 2308.48 1543.21 Q2305.42 1538.6 2305.42 1529.87 Q2305.42 1521.12 2308.48 1516.54 Q2311.56 1511.93 2317.37 1511.93 Z" fill="#000000" fill-rule="evenodd" fill-opacity="1" /><polyline clip-path="url(#clip272)" style="stroke:#000000; stroke-width:2; stroke-opacity:0.1; fill:none" points="
  174.862,1452.85 2352.76,1452.85 
  "/>
<polyline clip-path="url(#clip272)" style="stroke:#000000; stroke-width:2; stroke-opacity:0.1; fill:none" points="
  174.862,1109.85 2352.76,1109.85 
  "/>
<polyline clip-path="url(#clip272)" style="stroke:#000000; stroke-width:2; stroke-opacity:0.1; fill:none" points="
  174.862,766.846 2352.76,766.846 
  "/>
<polyline clip-path="url(#clip272)" style="stroke:#000000; stroke-width:2; stroke-opacity:0.1; fill:none" points="
  174.862,423.844 2352.76,423.844 
  "/>
<polyline clip-path="url(#clip272)" style="stroke:#000000; stroke-width:2; stroke-opacity:0.1; fill:none" points="
  174.862,80.8418 2352.76,80.8418 
  "/>
<polyline clip-path="url(#clip270)" style="stroke:#000000; stroke-width:4; stroke-opacity:1; fill:none" points="
  174.862,1486.45 174.862,47.2441 
  "/>
<polyline clip-path="url(#clip270)" style="stroke:#000000; stroke-width:4; stroke-opacity:1; fill:none" points="
  174.862,1452.85 200.997,1452.85 
  "/>
<polyline clip-path="url(#clip270)" style="stroke:#000000; stroke-width:4; stroke-opacity:1; fill:none" points="
  174.862,1109.85 200.997,1109.85 
  "/>
<polyline clip-path="url(#clip270)" style="stroke:#000000; stroke-width:4; stroke-opacity:1; fill:none" points="
  174.862,766.846 200.997,766.846 
  "/>
<polyline clip-path="url(#clip270)" style="stroke:#000000; stroke-width:4; stroke-opacity:1; fill:none" points="
  174.862,423.844 200.997,423.844 
  "/>
<polyline clip-path="url(#clip270)" style="stroke:#000000; stroke-width:4; stroke-opacity:1; fill:none" points="
  174.862,80.8418 200.997,80.8418 
  "/>
<path clip-path="url(#clip270)" d="M 0 0 M62.9365 1438.65 Q59.3254 1438.65 57.4967 1442.21 Q55.6912 1445.76 55.6912 1452.88 Q55.6912 1459.99 57.4967 1463.56 Q59.3254 1467.1 62.9365 1467.1 Q66.5707 1467.1 68.3763 1463.56 Q70.205 1459.99 70.205 1452.88 Q70.205 1445.76 68.3763 1442.21 Q66.5707 1438.65 62.9365 1438.65 M62.9365 1434.95 Q68.7467 1434.95 71.8022 1439.55 Q74.8809 1444.13 74.8809 1452.88 Q74.8809 1461.61 71.8022 1466.22 Q68.7467 1470.8 62.9365 1470.8 Q57.1264 1470.8 54.0477 1466.22 Q50.9921 1461.61 50.9921 1452.88 Q50.9921 1444.13 54.0477 1439.55 Q57.1264 1434.95 62.9365 1434.95 Z" fill="#000000" fill-rule="evenodd" fill-opacity="1" /><path clip-path="url(#clip270)" d="M 0 0 M79.9503 1464.25 L84.8345 1464.25 L84.8345 1470.13 L79.9503 1470.13 L79.9503 1464.25 Z" fill="#000000" fill-rule="evenodd" fill-opacity="1" /><path clip-path="url(#clip270)" d="M 0 0 M99.9039 1438.65 Q96.2928 1438.65 94.4641 1442.21 Q92.6586 1445.76 92.6586 1452.88 Q92.6586 1459.99 94.4641 1463.56 Q96.2928 1467.1 99.9039 1467.1 Q103.538 1467.1 105.344 1463.56 Q107.172 1459.99 107.172 1452.88 Q107.172 1445.76 105.344 1442.21 Q103.538 1438.65 99.9039 1438.65 M99.9039 1434.95 Q105.714 1434.95 108.77 1439.55 Q111.848 1444.13 111.848 1452.88 Q111.848 1461.61 108.77 1466.22 Q105.714 1470.8 99.9039 1470.8 Q94.0937 1470.8 91.0151 1466.22 Q87.9595 1461.61 87.9595 1452.88 Q87.9595 1444.13 91.0151 1439.55 Q94.0937 1434.95 99.9039 1434.95 Z" fill="#000000" fill-rule="evenodd" fill-opacity="1" /><path clip-path="url(#clip270)" d="M 0 0 M126.918 1438.65 Q123.307 1438.65 121.478 1442.21 Q119.672 1445.76 119.672 1452.88 Q119.672 1459.99 121.478 1463.56 Q123.307 1467.1 126.918 1467.1 Q130.552 1467.1 132.357 1463.56 Q134.186 1459.99 134.186 1452.88 Q134.186 1445.76 132.357 1442.21 Q130.552 1438.65 126.918 1438.65 M126.918 1434.95 Q132.728 1434.95 135.783 1439.55 Q138.862 1444.13 138.862 1452.88 Q138.862 1461.61 135.783 1466.22 Q132.728 1470.8 126.918 1470.8 Q121.107 1470.8 118.029 1466.22 Q114.973 1461.61 114.973 1452.88 Q114.973 1444.13 118.029 1439.55 Q121.107 1434.95 126.918 1434.95 Z" fill="#000000" fill-rule="evenodd" fill-opacity="1" /><path clip-path="url(#clip270)" d="M 0 0 M65.5291 1095.65 Q61.918 1095.65 60.0893 1099.21 Q58.2838 1102.75 58.2838 1109.88 Q58.2838 1116.99 60.0893 1120.55 Q61.918 1124.1 65.5291 1124.1 Q69.1633 1124.1 70.9689 1120.55 Q72.7976 1116.99 72.7976 1109.88 Q72.7976 1102.75 70.9689 1099.21 Q69.1633 1095.65 65.5291 1095.65 M65.5291 1091.94 Q71.3392 1091.94 74.3948 1096.55 Q77.4735 1101.13 77.4735 1109.88 Q77.4735 1118.61 74.3948 1123.22 Q71.3392 1127.8 65.5291 1127.8 Q59.7189 1127.8 56.6402 1123.22 Q53.5847 1118.61 53.5847 1109.88 Q53.5847 1101.13 56.6402 1096.55 Q59.7189 1091.94 65.5291 1091.94 Z" fill="#000000" fill-rule="evenodd" fill-opacity="1" /><path clip-path="url(#clip270)" d="M 0 0 M82.5429 1121.25 L87.4271 1121.25 L87.4271 1127.13 L82.5429 1127.13 L82.5429 1121.25 Z" fill="#000000" fill-rule="evenodd" fill-opacity="1" /><path clip-path="url(#clip270)" d="M 0 0 M96.5243 1123.19 L112.844 1123.19 L112.844 1127.13 L90.8993 1127.13 L90.8993 1123.19 Q93.5613 1120.44 98.1447 1115.81 Q102.751 1111.16 103.932 1109.81 Q106.177 1107.29 107.057 1105.55 Q107.959 1103.79 107.959 1102.11 Q107.959 1099.35 106.015 1097.61 Q104.094 1095.88 100.992 1095.88 Q98.7928 1095.88 96.3391 1096.64 Q93.9086 1097.41 91.1308 1098.96 L91.1308 1094.23 Q93.9549 1093.1 96.4085 1092.52 Q98.8622 1091.94 100.899 1091.94 Q106.27 1091.94 109.464 1094.63 Q112.658 1097.31 112.658 1101.8 Q112.658 1103.93 111.848 1105.86 Q111.061 1107.75 108.955 1110.35 Q108.376 1111.02 105.274 1114.23 Q102.172 1117.43 96.5243 1123.19 Z" fill="#000000" fill-rule="evenodd" fill-opacity="1" /><path clip-path="url(#clip270)" d="M 0 0 M117.959 1092.57 L136.316 1092.57 L136.316 1096.5 L122.242 1096.5 L122.242 1104.98 Q123.26 1104.63 124.279 1104.47 Q125.297 1104.28 126.316 1104.28 Q132.103 1104.28 135.482 1107.45 Q138.862 1110.62 138.862 1116.04 Q138.862 1121.62 135.39 1124.72 Q131.918 1127.8 125.598 1127.8 Q123.422 1127.8 121.154 1127.43 Q118.908 1127.06 116.501 1126.32 L116.501 1121.62 Q118.584 1122.75 120.807 1123.31 Q123.029 1123.86 125.506 1123.86 Q129.51 1123.86 131.848 1121.76 Q134.186 1119.65 134.186 1116.04 Q134.186 1112.43 131.848 1110.32 Q129.51 1108.22 125.506 1108.22 Q123.631 1108.22 121.756 1108.63 Q119.904 1109.05 117.959 1109.93 L117.959 1092.57 Z" fill="#000000" fill-rule="evenodd" fill-opacity="1" /><path clip-path="url(#clip270)" d="M 0 0 M63.9319 752.645 Q60.3208 752.645 58.4921 756.209 Q56.6865 759.751 56.6865 766.881 Q56.6865 773.987 58.4921 777.552 Q60.3208 781.094 63.9319 781.094 Q67.5661 781.094 69.3717 777.552 Q71.2004 773.987 71.2004 766.881 Q71.2004 759.751 69.3717 756.209 Q67.5661 752.645 63.9319 752.645 M63.9319 748.941 Q69.742 748.941 72.7976 753.547 Q75.8763 758.131 75.8763 766.881 Q75.8763 775.608 72.7976 780.214 Q69.742 784.797 63.9319 784.797 Q58.1217 784.797 55.043 780.214 Q51.9875 775.608 51.9875 766.881 Q51.9875 758.131 55.043 753.547 Q58.1217 748.941 63.9319 748.941 Z" fill="#000000" fill-rule="evenodd" fill-opacity="1" /><path clip-path="url(#clip270)" d="M 0 0 M80.9457 778.246 L85.8299 778.246 L85.8299 784.126 L80.9457 784.126 L80.9457 778.246 Z" fill="#000000" fill-rule="evenodd" fill-opacity="1" /><path clip-path="url(#clip270)" d="M 0 0 M90.9456 749.566 L109.302 749.566 L109.302 753.501 L95.228 753.501 L95.228 761.973 Q96.2465 761.626 97.265 761.464 Q98.2835 761.279 99.3021 761.279 Q105.089 761.279 108.469 764.45 Q111.848 767.621 111.848 773.038 Q111.848 778.617 108.376 781.719 Q104.904 784.797 98.5845 784.797 Q96.4085 784.797 94.14 784.427 Q91.8947 784.057 89.4873 783.316 L89.4873 778.617 Q91.5706 779.751 93.7928 780.307 Q96.015 780.862 98.4919 780.862 Q102.496 780.862 104.834 778.756 Q107.172 776.649 107.172 773.038 Q107.172 769.427 104.834 767.321 Q102.496 765.214 98.4919 765.214 Q96.6169 765.214 94.7419 765.631 Q92.89 766.047 90.9456 766.927 L90.9456 749.566 Z" fill="#000000" fill-rule="evenodd" fill-opacity="1" /><path clip-path="url(#clip270)" d="M 0 0 M126.918 752.645 Q123.307 752.645 121.478 756.209 Q119.672 759.751 119.672 766.881 Q119.672 773.987 121.478 777.552 Q123.307 781.094 126.918 781.094 Q130.552 781.094 132.357 777.552 Q134.186 773.987 134.186 766.881 Q134.186 759.751 132.357 756.209 Q130.552 752.645 126.918 752.645 M126.918 748.941 Q132.728 748.941 135.783 753.547 Q138.862 758.131 138.862 766.881 Q138.862 775.608 135.783 780.214 Q132.728 784.797 126.918 784.797 Q121.107 784.797 118.029 780.214 Q114.973 775.608 114.973 766.881 Q114.973 758.131 118.029 753.547 Q121.107 748.941 126.918 748.941 Z" fill="#000000" fill-rule="evenodd" fill-opacity="1" /><path clip-path="url(#clip270)" d="M 0 0 M64.8346 409.643 Q61.2236 409.643 59.3949 413.207 Q57.5893 416.749 57.5893 423.879 Q57.5893 430.985 59.3949 434.55 Q61.2236 438.092 64.8346 438.092 Q68.4689 438.092 70.2744 434.55 Q72.1031 430.985 72.1031 423.879 Q72.1031 416.749 70.2744 413.207 Q68.4689 409.643 64.8346 409.643 M64.8346 405.939 Q70.6448 405.939 73.7003 410.545 Q76.779 415.129 76.779 423.879 Q76.779 432.605 73.7003 437.212 Q70.6448 441.795 64.8346 441.795 Q59.0245 441.795 55.9458 437.212 Q52.8903 432.605 52.8903 423.879 Q52.8903 415.129 55.9458 410.545 Q59.0245 405.939 64.8346 405.939 Z" fill="#000000" fill-rule="evenodd" fill-opacity="1" /><path clip-path="url(#clip270)" d="M 0 0 M81.8484 435.244 L86.7327 435.244 L86.7327 441.124 L81.8484 441.124 L81.8484 435.244 Z" fill="#000000" fill-rule="evenodd" fill-opacity="1" /><path clip-path="url(#clip270)" d="M 0 0 M90.6215 406.564 L112.844 406.564 L112.844 408.555 L100.297 441.124 L95.4132 441.124 L107.219 410.499 L90.6215 410.499 L90.6215 406.564 Z" fill="#000000" fill-rule="evenodd" fill-opacity="1" /><path clip-path="url(#clip270)" d="M 0 0 M117.959 406.564 L136.316 406.564 L136.316 410.499 L122.242 410.499 L122.242 418.971 Q123.26 418.624 124.279 418.462 Q125.297 418.277 126.316 418.277 Q132.103 418.277 135.482 421.448 Q138.862 424.619 138.862 430.036 Q138.862 435.615 135.39 438.717 Q131.918 441.795 125.598 441.795 Q123.422 441.795 121.154 441.425 Q118.908 441.054 116.501 440.314 L116.501 435.615 Q118.584 436.749 120.807 437.304 Q123.029 437.86 125.506 437.86 Q129.51 437.86 131.848 435.754 Q134.186 433.647 134.186 430.036 Q134.186 426.425 131.848 424.318 Q129.51 422.212 125.506 422.212 Q123.631 422.212 121.756 422.629 Q119.904 423.045 117.959 423.925 L117.959 406.564 Z" fill="#000000" fill-rule="evenodd" fill-opacity="1" /><path clip-path="url(#clip270)" d="M 0 0 M54.9736 94.1867 L62.6124 94.1867 L62.6124 67.8211 L54.3023 69.4877 L54.3023 65.2285 L62.5661 63.5618 L67.242 63.5618 L67.242 94.1867 L74.8809 94.1867 L74.8809 98.1218 L54.9736 98.1218 L54.9736 94.1867 Z" fill="#000000" fill-rule="evenodd" fill-opacity="1" /><path clip-path="url(#clip270)" d="M 0 0 M79.9503 92.2422 L84.8345 92.2422 L84.8345 98.1218 L79.9503 98.1218 L79.9503 92.2422 Z" fill="#000000" fill-rule="evenodd" fill-opacity="1" /><path clip-path="url(#clip270)" d="M 0 0 M99.9039 66.6405 Q96.2928 66.6405 94.4641 70.2053 Q92.6586 73.747 92.6586 80.8766 Q92.6586 87.983 94.4641 91.5478 Q96.2928 95.0894 99.9039 95.0894 Q103.538 95.0894 105.344 91.5478 Q107.172 87.983 107.172 80.8766 Q107.172 73.747 105.344 70.2053 Q103.538 66.6405 99.9039 66.6405 M99.9039 62.9368 Q105.714 62.9368 108.77 67.5433 Q111.848 72.1266 111.848 80.8766 Q111.848 89.6034 108.77 94.2098 Q105.714 98.7931 99.9039 98.7931 Q94.0937 98.7931 91.0151 94.2098 Q87.9595 89.6034 87.9595 80.8766 Q87.9595 72.1266 91.0151 67.5433 Q94.0937 62.9368 99.9039 62.9368 Z" fill="#000000" fill-rule="evenodd" fill-opacity="1" /><path clip-path="url(#clip270)" d="M 0 0 M126.918 66.6405 Q123.307 66.6405 121.478 70.2053 Q119.672 73.747 119.672 80.8766 Q119.672 87.983 121.478 91.5478 Q123.307 95.0894 126.918 95.0894 Q130.552 95.0894 132.357 91.5478 Q134.186 87.983 134.186 80.8766 Q134.186 73.747 132.357 70.2053 Q130.552 66.6405 126.918 66.6405 M126.918 62.9368 Q132.728 62.9368 135.783 67.5433 Q138.862 72.1266 138.862 80.8766 Q138.862 89.6034 135.783 94.2098 Q132.728 98.7931 126.918 98.7931 Q121.107 98.7931 118.029 94.2098 Q114.973 89.6034 114.973 80.8766 Q114.973 72.1266 118.029 67.5433 Q121.107 62.9368 126.918 62.9368 Z" fill="#000000" fill-rule="evenodd" fill-opacity="1" /><polyline clip-path="url(#clip272)" style="stroke:#009af9; stroke-width:4; stroke-opacity:1; fill:none" points="
  236.501,87.9763 240.618,88.5251 244.735,89.0739 248.853,89.6227 252.97,90.1715 257.088,90.7203 261.205,93.4643 265.323,93.4643 269.44,93.4643 273.558,95.1107 
  277.675,96.2083 281.793,97.8547 285.91,97.3059 290.028,98.4035 294.145,98.9523 298.263,98.4035 302.38,100.599 306.497,101.696 310.615,103.343 314.732,103.343 
  318.85,103.892 322.967,106.636 327.085,108.282 331.202,109.928 335.32,111.575 339.437,114.868 343.555,115.965 347.672,116.514 351.79,117.612 355.907,116.514 
  360.025,118.709 364.142,118.709 368.26,120.356 372.377,123.1 376.494,125.295 380.612,124.746 384.729,126.941 388.847,129.685 392.964,132.429 397.082,134.076 
  401.199,134.625 405.317,137.369 409.434,136.82 413.552,139.564 417.669,142.857 421.787,142.857 425.904,142.308 430.022,143.405 434.139,147.247 438.256,147.247 
  442.374,151.637 446.491,154.381 450.609,154.381 454.726,156.028 458.844,158.772 462.961,160.418 467.079,165.906 471.196,167.553 475.314,171.394 479.431,169.748 
  483.549,170.846 487.666,170.297 491.784,175.785 495.901,177.98 500.019,181.273 504.136,184.017 508.253,182.919 512.371,188.407 516.488,192.249 520.606,193.895 
  524.723,196.639 528.841,202.676 532.958,205.42 537.076,206.518 541.193,207.067 545.311,211.457 549.428,213.652 553.546,214.75 557.663,216.396 561.781,222.982 
  565.898,222.433 570.015,226.824 574.133,229.568 578.25,231.214 582.368,232.312 586.485,237.251 590.603,242.19 594.72,242.739 598.838,246.032 602.955,247.129 
  607.073,252.617 611.19,253.166 615.308,251.52 619.425,257.557 623.543,257.557 627.66,262.496 631.778,265.24 635.895,264.691 640.012,269.63 644.13,274.569 
  648.247,276.765 652.365,283.899 656.482,285.545 660.6,290.485 664.717,297.619 668.835,303.656 672.952,308.595 677.07,312.437 681.187,314.083 685.305,314.632 
  689.422,319.571 693.54,321.218 697.657,324.511 701.774,326.157 705.892,336.584 710.009,339.877 714.127,348.658 718.244,355.243 722.362,356.341 726.479,355.792 
  730.597,363.476 734.714,369.512 738.832,368.415 742.949,372.805 747.067,377.744 751.184,377.196 755.302,376.647 759.419,382.135 763.537,383.781 767.654,376.647 
  771.771,377.744 775.889,382.135 780.006,382.684 784.124,387.623 788.241,387.074 792.359,389.818 796.476,388.72 800.594,388.172 804.711,389.818 808.829,398.05 
  812.946,398.05 817.064,411.77 821.181,415.063 825.299,423.295 829.416,429.332 833.533,435.369 837.651,438.662 841.768,441.954 845.886,445.796 850.003,456.772 
  854.121,457.87 858.238,460.614 862.356,468.297 866.473,467.199 870.591,472.139 874.708,476.529 878.826,482.566 882.943,478.175 887.061,491.347 891.178,493.542 
  895.296,504.518 899.413,508.36 903.53,520.982 907.648,530.861 911.765,539.641 915.883,545.678 920,556.654 924.118,561.045 928.235,568.179 932.353,567.63 
  936.47,570.923 940.588,571.472 944.705,573.118 948.823,575.862 952.94,581.35 957.058,577.509 961.175,576.96 965.292,580.253 969.41,582.448 973.527,587.387 
  977.645,594.522 981.762,601.656 985.88,602.754 989.997,608.242 994.115,605.498 998.232,602.754 1002.35,608.242 1006.47,607.693 1010.58,613.181 1014.7,626.352 
  1018.82,628.548 1022.94,638.426 1027.05,645.56 1031.17,644.463 1035.29,649.951 1039.41,661.476 1043.52,668.061 1047.64,668.61 1051.76,682.879 1055.88,689.465 
  1059.99,695.502 1064.11,700.99 1068.23,709.222 1072.35,718.551 1076.46,726.783 1080.58,719.1 1084.7,716.905 1088.82,726.235 1092.93,724.039 1097.05,725.686 
  1101.17,728.43 1105.29,734.467 1109.4,735.015 1113.52,743.247 1117.64,752.028 1121.76,762.456 1125.87,757.516 1129.99,763.553 1134.11,766.846 1138.23,769.59 
  1142.34,777.273 1146.46,775.627 1150.58,777.822 1154.7,786.603 1158.81,793.737 1162.93,792.091 1167.05,798.677 1171.17,801.421 1175.28,803.067 1179.4,805.811 
  1183.52,798.677 1187.64,801.969 1191.75,801.969 1195.87,816.238 1199.99,817.336 1204.11,820.08 1208.22,821.178 1212.34,820.629 1216.46,827.763 1220.58,833.8 
  1224.69,847.52 1228.81,853.008 1232.93,846.971 1237.05,844.227 1241.16,854.106 1245.28,862.338 1249.4,863.984 1253.52,860.691 1257.63,862.338 1261.75,859.045 
  1265.87,870.57 1269.99,864.533 1274.1,861.789 1278.22,862.887 1282.34,865.082 1286.46,861.789 1290.57,867.826 1294.69,874.411 1298.81,882.095 1302.92,874.96 
  1307.04,871.667 1311.16,883.741 1315.28,890.327 1319.39,898.559 1323.51,902.4 1327.63,900.205 1331.75,904.596 1335.86,912.828 1339.98,904.047 1344.1,899.656 
  1348.22,899.108 1352.33,901.852 1356.45,902.4 1360.57,898.559 1364.69,905.693 1368.8,898.559 1372.92,902.949 1377.04,905.693 1381.16,899.108 1385.27,894.717 
  1389.39,900.205 1393.51,904.596 1397.63,906.791 1401.74,912.828 1405.86,913.376 1409.98,917.218 1414.1,925.45 1418.21,926.548 1422.33,943.561 1426.45,947.951 
  1430.57,950.146 1434.68,954.537 1438.8,960.025 1442.92,963.318 1447.04,961.122 1451.15,960.025 1455.27,973.196 1459.39,971.001 1463.51,972.647 1467.62,960.025 
  1471.74,957.281 1475.86,955.086 1479.98,950.695 1484.09,951.244 1488.21,941.365 1492.33,935.877 1496.45,938.073 1500.56,946.853 1504.68,945.207 1508.8,946.853 
  1512.92,957.281 1517.03,969.354 1521.15,973.196 1525.27,986.916 1529.39,987.465 1533.5,986.916 1537.62,984.721 1541.74,981.428 1545.86,977.586 1549.97,978.684 
  1554.09,977.038 1558.21,973.196 1562.33,978.135 1566.44,979.233 1570.56,988.014 1574.68,986.916 1578.8,989.66 1582.91,980.879 1587.03,973.196 1591.15,971.55 
  1595.27,968.806 1599.38,969.903 1603.5,980.879 1607.62,983.074 1611.74,995.148 1615.85,998.441 1619.97,986.367 1624.09,983.074 1628.2,986.916 1632.32,988.014 
  1636.44,978.135 1640.56,988.014 1644.67,981.977 1648.79,983.074 1652.91,977.038 1657.03,977.586 1661.14,973.196 1665.26,983.623 1669.38,973.745 1673.5,974.294 
  1677.61,972.647 1681.73,984.721 1685.85,980.33 1689.97,988.563 1694.08,995.697 1698.2,994.051 1702.32,992.953 1706.44,997.892 1710.55,1012.16 1714.67,1006.67 
  1718.79,1006.67 1722.91,1006.12 1727.02,1011.06 1731.14,1005.58 1735.26,1006.12 1739.38,1009.97 1743.49,1010.51 1747.61,1011.06 1751.73,1003.38 1755.85,1001.19 
  1759.96,996.795 1764.08,991.307 1768.2,989.111 1772.32,995.697 1776.43,994.051 1780.55,998.99 1784.67,994.051 1788.79,986.916 1792.9,997.892 1797.02,995.697 
  1801.14,987.465 1805.26,988.563 1809.37,995.148 1813.49,998.99 1817.61,997.343 1821.73,1007.77 1825.84,1004.48 1829.96,1000.64 1834.08,1011.61 1838.2,1014.91 
  1842.31,1019.3 1846.43,1022.04 1850.55,1016.55 1854.67,1015.45 1858.78,1009.42 1862.9,1002.28 1867.02,1005.58 1871.14,1009.42 1875.25,1014.91 1879.37,1017.1 
  1883.49,1020.94 1887.61,1013.81 1891.72,1012.16 1895.84,1013.26 1899.96,1005.03 1904.08,1000.09 1908.19,992.404 1912.31,1001.73 1916.43,1008.87 1920.55,1012.16 
  1924.66,1010.51 1928.78,1002.83 1932.9,997.892 1937.02,1000.64 1941.13,1003.93 1945.25,1009.97 1949.37,1008.32 1953.48,1004.48 1957.6,1005.58 1961.72,998.99 
  1965.84,999.539 1969.95,1002.83 1974.07,1007.22 1978.19,1002.28 1982.31,1010.51 1986.42,998.99 1990.54,1001.73 1994.66,996.795 1998.78,1000.09 2002.89,992.404 
  2007.01,989.111 2011.13,986.916 2015.25,988.563 2019.36,985.27 2023.48,991.307 2027.6,1000.09 2031.72,996.795 2035.83,1001.19 2039.95,995.148 2044.07,994.599 
  2048.19,995.697 2052.3,988.014 2056.42,993.502 2060.54,996.246 2064.66,1000.64 2068.77,1006.67 2072.89,1002.83 2077.01,1013.26 2081.13,999.539 2085.24,1006.12 
  2089.36,1003.38 2093.48,1014.91 2097.6,1014.91 2101.71,1011.61 2105.83,1007.77 2109.95,1014.36 2114.07,1018.75 2118.18,1018.2 2122.3,1007.22 2126.42,1011.06 
  2130.54,1007.22 2134.65,1002.83 2138.77,1008.32 2142.89,1003.93 2147.01,997.892 2151.12,999.539 2155.24,988.014 2159.36,992.953 2163.48,993.502 2167.59,1003.93 
  2171.71,1016 2175.83,1015.45 2179.95,1008.32 2184.06,995.697 2188.18,988.563 2192.3,990.758 2196.42,997.343 2200.53,990.209 2204.65,994.599 2208.77,999.539 
  2212.89,996.795 2217,992.404 2221.12,984.721 2225.24,980.879 2229.36,980.33 2233.47,976.489 2237.59,982.526 2241.71,988.563 2245.83,985.819 2249.94,988.014 
  2254.06,984.721 2258.18,982.526 2262.3,988.563 2266.41,996.795 2270.53,1001.73 2274.65,996.795 2278.76,995.697 2282.88,999.539 2287,992.404 2291.12,992.404 
  
  "/>
<polyline clip-path="url(#clip272)" style="stroke:#e26f46; stroke-width:4; stroke-opacity:1; fill:none" points="
  236.501,1445.72 240.618,1445.17 244.735,1444.62 248.853,1444.07 252.97,1443.52 257.088,1442.97 261.205,1440.23 265.323,1440.23 269.44,1440.23 273.558,1438.58 
  277.675,1437.48 281.793,1435.84 285.91,1436.39 290.028,1435.29 294.145,1434.74 298.263,1435.29 302.38,1433.09 306.497,1432 310.615,1430.35 314.732,1430.35 
  318.85,1429.8 322.967,1427.06 327.085,1425.41 331.202,1423.76 335.32,1422.12 339.437,1418.82 343.555,1417.73 347.672,1417.18 351.79,1416.08 355.907,1417.18 
  360.025,1414.98 364.142,1414.98 368.26,1413.34 372.377,1410.59 376.494,1408.4 380.612,1408.95 384.729,1406.75 388.847,1404.01 392.964,1401.26 397.082,1399.62 
  401.199,1399.07 405.317,1396.32 409.434,1396.87 413.552,1394.13 417.669,1390.84 421.787,1390.84 425.904,1391.38 430.022,1390.29 434.139,1386.44 438.256,1386.44 
  442.374,1382.05 446.491,1379.31 450.609,1379.31 454.726,1377.66 458.844,1374.92 462.961,1373.27 467.079,1367.79 471.196,1366.14 475.314,1362.3 479.431,1363.94 
  483.549,1362.85 487.666,1363.4 491.784,1357.91 495.901,1355.71 500.019,1352.42 504.136,1349.68 508.253,1350.77 512.371,1345.28 516.488,1341.44 520.606,1339.8 
  524.723,1337.05 528.841,1331.02 532.958,1328.27 537.076,1327.17 541.193,1326.63 545.311,1322.23 549.428,1320.04 553.546,1318.94 557.663,1317.3 561.781,1310.71 
  565.898,1311.26 570.015,1306.87 574.133,1304.12 578.25,1302.48 582.368,1301.38 586.485,1296.44 590.603,1291.5 594.72,1290.95 598.838,1287.66 602.955,1286.56 
  607.073,1281.07 611.19,1280.53 615.308,1282.17 619.425,1276.14 623.543,1276.14 627.66,1271.2 631.778,1268.45 635.895,1269 640.012,1264.06 644.13,1259.12 
  648.247,1256.93 652.365,1249.79 656.482,1248.15 660.6,1243.21 664.717,1236.07 668.835,1230.04 672.952,1225.1 677.07,1221.26 681.187,1219.61 685.305,1219.06 
  689.422,1214.12 693.54,1212.47 697.657,1209.18 701.774,1207.54 705.892,1197.11 710.009,1193.81 714.127,1185.03 718.244,1178.45 722.362,1177.35 726.479,1177.9 
  730.597,1170.22 734.714,1164.18 738.832,1165.28 742.949,1160.89 747.067,1155.95 751.184,1156.5 755.302,1157.05 759.419,1151.56 763.537,1149.91 767.654,1157.05 
  771.771,1155.95 775.889,1151.56 780.006,1151.01 784.124,1146.07 788.241,1146.62 792.359,1143.87 796.476,1144.97 800.594,1145.52 804.711,1143.87 808.829,1135.64 
  812.946,1135.64 817.064,1121.92 821.181,1118.63 825.299,1110.4 829.416,1104.36 833.533,1098.32 837.651,1095.03 841.768,1091.74 845.886,1087.9 850.003,1076.92 
  854.121,1075.82 858.238,1073.08 862.356,1065.39 866.473,1066.49 870.591,1061.55 874.708,1057.16 878.826,1051.13 882.943,1055.52 887.061,1042.35 891.178,1040.15 
  895.296,1029.17 899.413,1025.33 903.53,1012.71 907.648,1002.83 911.765,994.051 915.883,988.014 920,977.038 924.118,972.647 928.235,965.513 932.353,966.062 
  936.47,962.769 940.588,962.22 944.705,960.574 948.823,957.83 952.94,952.342 957.058,956.183 961.175,956.732 965.292,953.439 969.41,951.244 973.527,946.305 
  977.645,939.17 981.762,932.036 985.88,930.938 989.997,925.45 994.115,928.194 998.232,930.938 1002.35,925.45 1006.47,925.999 1010.58,920.511 1014.7,907.34 
  1018.82,905.144 1022.94,895.266 1027.05,888.132 1031.17,889.229 1035.29,883.741 1039.41,872.216 1043.52,865.631 1047.64,865.082 1051.76,850.813 1055.88,844.227 
  1059.99,838.19 1064.11,832.702 1068.23,824.47 1072.35,815.141 1076.46,806.909 1080.58,814.592 1084.7,816.787 1088.82,807.457 1092.93,809.653 1097.05,808.006 
  1101.17,805.262 1105.29,799.225 1109.4,798.677 1113.52,790.445 1117.64,781.664 1121.76,771.236 1125.87,776.176 1129.99,770.139 1134.11,766.846 1138.23,764.102 
  1142.34,756.419 1146.46,758.065 1150.58,755.87 1154.7,747.089 1158.81,739.955 1162.93,741.601 1167.05,735.015 1171.17,732.271 1175.28,730.625 1179.4,727.881 
  1183.52,735.015 1187.64,731.723 1191.75,731.723 1195.87,717.454 1199.99,716.356 1204.11,713.612 1208.22,712.514 1212.34,713.063 1216.46,705.929 1220.58,699.892 
  1224.69,686.172 1228.81,680.684 1232.93,686.721 1237.05,689.465 1241.16,679.586 1245.28,671.354 1249.4,669.708 1253.52,673.001 1257.63,671.354 1261.75,674.647 
  1265.87,663.122 1269.99,669.159 1274.1,671.903 1278.22,670.805 1282.34,668.61 1286.46,671.903 1290.57,665.866 1294.69,659.281 1298.81,651.597 1302.92,658.732 
  1307.04,662.025 1311.16,649.951 1315.28,643.365 1319.39,635.133 1323.51,631.292 1327.63,633.487 1331.75,629.096 1335.86,620.864 1339.98,629.645 1344.1,634.036 
  1348.22,634.584 1352.33,631.84 1356.45,631.292 1360.57,635.133 1364.69,627.999 1368.8,635.133 1372.92,630.743 1377.04,627.999 1381.16,634.584 1385.27,638.975 
  1389.39,633.487 1393.51,629.096 1397.63,626.901 1401.74,620.864 1405.86,620.315 1409.98,616.474 1414.1,608.242 1418.21,607.144 1422.33,590.131 1426.45,585.741 
  1430.57,583.546 1434.68,579.155 1438.8,573.667 1442.92,570.374 1447.04,572.57 1451.15,573.667 1455.27,560.496 1459.39,562.691 1463.51,561.045 1467.62,573.667 
  1471.74,576.411 1475.86,578.606 1479.98,582.997 1484.09,582.448 1488.21,592.327 1492.33,597.815 1496.45,595.619 1500.56,586.838 1504.68,588.485 1508.8,586.838 
  1512.92,576.411 1517.03,564.338 1521.15,560.496 1525.27,546.776 1529.39,546.227 1533.5,546.776 1537.62,548.971 1541.74,552.264 1545.86,556.106 1549.97,555.008 
  1554.09,556.654 1558.21,560.496 1562.33,555.557 1566.44,554.459 1570.56,545.678 1574.68,546.776 1578.8,544.032 1582.91,552.813 1587.03,560.496 1591.15,562.142 
  1595.27,564.886 1599.38,563.789 1603.5,552.813 1607.62,550.617 1611.74,538.544 1615.85,535.251 1619.97,547.325 1624.09,550.617 1628.2,546.776 1632.32,545.678 
  1636.44,555.557 1640.56,545.678 1644.67,551.715 1648.79,550.617 1652.91,556.654 1657.03,556.106 1661.14,560.496 1665.26,550.069 1669.38,559.947 1673.5,559.398 
  1677.61,561.045 1681.73,548.971 1685.85,553.361 1689.97,545.129 1694.08,537.995 1698.2,539.641 1702.32,540.739 1706.44,535.8 1710.55,521.531 1714.67,527.019 
  1718.79,527.019 1722.91,527.568 1727.02,522.629 1731.14,528.117 1735.26,527.568 1739.38,523.726 1743.49,523.177 1747.61,522.629 1751.73,530.312 1755.85,532.507 
  1759.96,536.897 1764.08,542.385 1768.2,544.581 1772.32,537.995 1776.43,539.641 1780.55,534.702 1784.67,539.641 1788.79,546.776 1792.9,535.8 1797.02,537.995 
  1801.14,546.227 1805.26,545.129 1809.37,538.544 1813.49,534.702 1817.61,536.349 1821.73,525.921 1825.84,529.214 1829.96,533.056 1834.08,522.08 1838.2,518.787 
  1842.31,514.396 1846.43,511.652 1850.55,517.14 1854.67,518.238 1858.78,524.275 1862.9,531.409 1867.02,528.117 1871.14,524.275 1875.25,518.787 1879.37,516.592 
  1883.49,512.75 1887.61,519.884 1891.72,521.531 1895.84,520.433 1899.96,528.665 1904.08,533.605 1908.19,541.288 1912.31,531.958 1916.43,524.824 1920.55,521.531 
  1924.66,523.177 1928.78,530.861 1932.9,535.8 1937.02,533.056 1941.13,529.763 1945.25,523.726 1949.37,525.373 1953.48,529.214 1957.6,528.117 1961.72,534.702 
  1965.84,534.153 1969.95,530.861 1974.07,526.47 1978.19,531.409 1982.31,523.177 1986.42,534.702 1990.54,531.958 1994.66,536.897 1998.78,533.605 2002.89,541.288 
  2007.01,544.581 2011.13,546.776 2015.25,545.129 2019.36,548.422 2023.48,542.385 2027.6,533.605 2031.72,536.897 2035.83,532.507 2039.95,538.544 2044.07,539.093 
  2048.19,537.995 2052.3,545.678 2056.42,540.19 2060.54,537.446 2064.66,533.056 2068.77,527.019 2072.89,530.861 2077.01,520.433 2081.13,534.153 2085.24,527.568 
  2089.36,530.312 2093.48,518.787 2097.6,518.787 2101.71,522.08 2105.83,525.921 2109.95,519.336 2114.07,514.945 2118.18,515.494 2122.3,526.47 2126.42,522.629 
  2130.54,526.47 2134.65,530.861 2138.77,525.373 2142.89,529.763 2147.01,535.8 2151.12,534.153 2155.24,545.678 2159.36,540.739 2163.48,540.19 2167.59,529.763 
  2171.71,517.689 2175.83,518.238 2179.95,525.373 2184.06,537.995 2188.18,545.129 2192.3,542.934 2196.42,536.349 2200.53,543.483 2204.65,539.093 2208.77,534.153 
  2212.89,536.897 2217,541.288 2221.12,548.971 2225.24,552.813 2229.36,553.361 2233.47,557.203 2237.59,551.166 2241.71,545.129 2245.83,547.873 2249.94,545.678 
  2254.06,548.971 2258.18,551.166 2262.3,545.129 2266.41,536.897 2270.53,531.958 2274.65,536.897 2278.76,537.995 2282.88,534.153 2287,541.288 2291.12,541.288 
  
  "/>
<path clip-path="url(#clip270)" d="
M1947.11 276.658 L2280.16 276.658 L2280.16 95.2176 L1947.11 95.2176  Z
  " fill="#ffffff" fill-rule="evenodd" fill-opacity="1"/>
<polyline clip-path="url(#clip270)" style="stroke:#000000; stroke-width:4; stroke-opacity:1; fill:none" points="
  1947.11,276.658 2280.16,276.658 2280.16,95.2176 1947.11,95.2176 1947.11,276.658 
  "/>
<polyline clip-path="url(#clip270)" style="stroke:#009af9; stroke-width:4; stroke-opacity:1; fill:none" points="
  1971.31,155.698 2116.5,155.698 
  "/>
<path clip-path="url(#clip270)" d="M 0 0 M2159.12 147.816 L2159.12 151.843 Q2157.32 150.917 2155.37 150.455 Q2153.43 149.992 2151.35 149.992 Q2148.17 149.992 2146.58 150.964 Q2145 151.936 2145 153.88 Q2145 155.362 2146.14 156.218 Q2147.27 157.052 2150.7 157.816 L2152.16 158.14 Q2156.69 159.112 2158.59 160.894 Q2160.51 162.654 2160.51 165.825 Q2160.51 169.436 2157.64 171.542 Q2154.79 173.649 2149.79 173.649 Q2147.71 173.649 2145.44 173.232 Q2143.2 172.839 2140.7 172.028 L2140.7 167.63 Q2143.06 168.857 2145.35 169.482 Q2147.64 170.084 2149.89 170.084 Q2152.9 170.084 2154.52 169.066 Q2156.14 168.024 2156.14 166.149 Q2156.14 164.413 2154.96 163.487 Q2153.8 162.561 2149.84 161.704 L2148.36 161.357 Q2144.4 160.524 2142.64 158.811 Q2140.88 157.075 2140.88 154.066 Q2140.88 150.408 2143.48 148.418 Q2146.07 146.427 2150.84 146.427 Q2153.2 146.427 2155.28 146.774 Q2157.36 147.121 2159.12 147.816 Z" fill="#000000" fill-rule="evenodd" fill-opacity="1" /><path clip-path="url(#clip270)" d="M 0 0 M2164.54 162.746 L2164.54 147.052 L2168.8 147.052 L2168.8 162.584 Q2168.8 166.265 2170.23 168.116 Q2171.67 169.945 2174.54 169.945 Q2177.99 169.945 2179.98 167.746 Q2181.99 165.547 2181.99 161.751 L2181.99 147.052 L2186.25 147.052 L2186.25 172.978 L2181.99 172.978 L2181.99 168.996 Q2180.44 171.357 2178.38 172.515 Q2176.35 173.649 2173.64 173.649 Q2169.17 173.649 2166.85 170.871 Q2164.54 168.093 2164.54 162.746 M2175.26 146.427 L2175.26 146.427 Z" fill="#000000" fill-rule="evenodd" fill-opacity="1" /><path clip-path="url(#clip270)" d="M 0 0 M2207.25 147.816 L2207.25 151.843 Q2205.44 150.917 2203.5 150.455 Q2201.55 149.992 2199.47 149.992 Q2196.3 149.992 2194.7 150.964 Q2193.13 151.936 2193.13 153.88 Q2193.13 155.362 2194.26 156.218 Q2195.4 157.052 2198.82 157.816 L2200.28 158.14 Q2204.82 159.112 2206.72 160.894 Q2208.64 162.654 2208.64 165.825 Q2208.64 169.436 2205.77 171.542 Q2202.92 173.649 2197.92 173.649 Q2195.84 173.649 2193.57 173.232 Q2191.32 172.839 2188.82 172.028 L2188.82 167.63 Q2191.18 168.857 2193.47 169.482 Q2195.77 170.084 2198.01 170.084 Q2201.02 170.084 2202.64 169.066 Q2204.26 168.024 2204.26 166.149 Q2204.26 164.413 2203.08 163.487 Q2201.92 162.561 2197.97 161.704 L2196.48 161.357 Q2192.53 160.524 2190.77 158.811 Q2189.01 157.075 2189.01 154.066 Q2189.01 150.408 2191.6 148.418 Q2194.19 146.427 2198.96 146.427 Q2201.32 146.427 2203.41 146.774 Q2205.49 147.121 2207.25 147.816 Z" fill="#000000" fill-rule="evenodd" fill-opacity="1" /><path clip-path="url(#clip270)" d="M 0 0 M2231.76 148.047 L2231.76 152.029 Q2229.96 151.033 2228.13 150.547 Q2226.32 150.038 2224.47 150.038 Q2220.33 150.038 2218.04 152.677 Q2215.74 155.292 2215.74 160.038 Q2215.74 164.783 2218.04 167.422 Q2220.33 170.038 2224.47 170.038 Q2226.32 170.038 2228.13 169.552 Q2229.96 169.042 2231.76 168.047 L2231.76 171.982 Q2229.98 172.816 2228.06 173.232 Q2226.16 173.649 2224.01 173.649 Q2218.15 173.649 2214.7 169.968 Q2211.25 166.288 2211.25 160.038 Q2211.25 153.695 2214.72 150.061 Q2218.22 146.427 2224.28 146.427 Q2226.25 146.427 2228.13 146.843 Q2230 147.237 2231.76 148.047 Z" fill="#000000" fill-rule="evenodd" fill-opacity="1" /><polyline clip-path="url(#clip270)" style="stroke:#e26f46; stroke-width:4; stroke-opacity:1; fill:none" points="
  1971.31,216.178 2116.5,216.178 
  "/>
<path clip-path="url(#clip270)" d="M 0 0 M2140.7 207.532 L2144.96 207.532 L2144.96 233.458 L2140.7 233.458 L2140.7 207.532 M2140.7 197.439 L2144.96 197.439 L2144.96 202.833 L2140.7 202.833 L2140.7 197.439 Z" fill="#000000" fill-rule="evenodd" fill-opacity="1" /><path clip-path="url(#clip270)" d="M 0 0 M2170.98 217.809 L2170.98 233.458 L2166.72 233.458 L2166.72 217.948 Q2166.72 214.268 2165.28 212.439 Q2163.85 210.61 2160.98 210.61 Q2157.53 210.61 2155.54 212.81 Q2153.54 215.009 2153.54 218.805 L2153.54 233.458 L2149.26 233.458 L2149.26 207.532 L2153.54 207.532 L2153.54 211.56 Q2155.07 209.222 2157.13 208.064 Q2159.22 206.907 2161.92 206.907 Q2166.39 206.907 2168.68 209.685 Q2170.98 212.439 2170.98 217.809 Z" fill="#000000" fill-rule="evenodd" fill-opacity="1" /><path clip-path="url(#clip270)" d="M 0 0 M2188.57 197.439 L2188.57 200.981 L2184.49 200.981 Q2182.2 200.981 2181.3 201.907 Q2180.42 202.833 2180.42 205.24 L2180.42 207.532 L2187.43 207.532 L2187.43 210.842 L2180.42 210.842 L2180.42 233.458 L2176.14 233.458 L2176.14 210.842 L2172.06 210.842 L2172.06 207.532 L2176.14 207.532 L2176.14 205.726 Q2176.14 201.398 2178.15 199.43 Q2180.16 197.439 2184.54 197.439 L2188.57 197.439 Z" fill="#000000" fill-rule="evenodd" fill-opacity="1" /></svg>
