<?xml version="1.0" encoding="utf-8"?>
<svg xmlns="http://www.w3.org/2000/svg" xmlns:xlink="http://www.w3.org/1999/xlink" width="600" height="400" viewBox="0 0 2400 1600">
<defs>
  <clipPath id="clip360">
    <rect x="0" y="0" width="2400" height="1600"/>
  </clipPath>
</defs>
<path clip-path="url(#clip360)" d="
M0 1600 L2400 1600 L2400 0 L0 0  Z
  " fill="#ffffff" fill-rule="evenodd" fill-opacity="1"/>
<defs>
  <clipPath id="clip361">
    <rect x="480" y="0" width="1681" height="1600"/>
  </clipPath>
</defs>
<path clip-path="url(#clip360)" d="
M238.13 1423.18 L2352.76 1423.18 L2352.76 47.2441 L238.13 47.2441  Z
  " fill="#ffffff" fill-rule="evenodd" fill-opacity="1"/>
<defs>
  <clipPath id="clip362">
    <rect x="238" y="47" width="2116" height="1377"/>
  </clipPath>
</defs>
<polyline clip-path="url(#clip362)" style="stroke:#000000; stroke-width:2; stroke-opacity:0.1; fill:none" points="
  657.665,1423.18 657.665,47.2441 
  "/>
<polyline clip-path="url(#clip362)" style="stroke:#000000; stroke-width:2; stroke-opacity:0.1; fill:none" points="
  1081.44,1423.18 1081.44,47.2441 
  "/>
<polyline clip-path="url(#clip362)" style="stroke:#000000; stroke-width:2; stroke-opacity:0.1; fill:none" points="
  1505.21,1423.18 1505.21,47.2441 
  "/>
<polyline clip-path="url(#clip362)" style="stroke:#000000; stroke-width:2; stroke-opacity:0.1; fill:none" points="
  1928.98,1423.18 1928.98,47.2441 
  "/>
<polyline clip-path="url(#clip362)" style="stroke:#000000; stroke-width:2; stroke-opacity:0.1; fill:none" points="
  2352.76,1423.18 2352.76,47.2441 
  "/>
<polyline clip-path="url(#clip360)" style="stroke:#000000; stroke-width:4; stroke-opacity:1; fill:none" points="
  238.13,1423.18 2352.76,1423.18 
  "/>
<polyline clip-path="url(#clip360)" style="stroke:#000000; stroke-width:4; stroke-opacity:1; fill:none" points="
  657.665,1423.18 657.665,1406.67 
  "/>
<polyline clip-path="url(#clip360)" style="stroke:#000000; stroke-width:4; stroke-opacity:1; fill:none" points="
  1081.44,1423.18 1081.44,1406.67 
  "/>
<polyline clip-path="url(#clip360)" style="stroke:#000000; stroke-width:4; stroke-opacity:1; fill:none" points="
  1505.21,1423.18 1505.21,1406.67 
  "/>
<polyline clip-path="url(#clip360)" style="stroke:#000000; stroke-width:4; stroke-opacity:1; fill:none" points="
  1928.98,1423.18 1928.98,1406.67 
  "/>
<polyline clip-path="url(#clip360)" style="stroke:#000000; stroke-width:4; stroke-opacity:1; fill:none" points="
  2352.76,1423.18 2352.76,1406.67 
  "/>
<path clip-path="url(#clip360)" d="M 0 0 M621.033 1479.92 L628.672 1479.92 L628.672 1453.55 L620.362 1455.22 L620.362 1450.96 L628.626 1449.29 L633.302 1449.29 L633.302 1479.92 L640.941 1479.92 L640.941 1483.85 L621.033 1483.85 L621.033 1479.92 Z" fill="#000000" fill-rule="evenodd" fill-opacity="1" /><path clip-path="url(#clip360)" d="M 0 0 M656.01 1452.37 Q652.399 1452.37 650.57 1455.94 Q648.765 1459.48 648.765 1466.61 Q648.765 1473.71 650.57 1477.28 Q652.399 1480.82 656.01 1480.82 Q659.644 1480.82 661.45 1477.28 Q663.278 1473.71 663.278 1466.61 Q663.278 1459.48 661.45 1455.94 Q659.644 1452.37 656.01 1452.37 M656.01 1448.67 Q661.82 1448.67 664.876 1453.27 Q667.954 1457.86 667.954 1466.61 Q667.954 1475.33 664.876 1479.94 Q661.82 1484.52 656.01 1484.52 Q650.2 1484.52 647.121 1479.94 Q644.066 1475.33 644.066 1466.61 Q644.066 1457.86 647.121 1453.27 Q650.2 1448.67 656.01 1448.67 Z" fill="#000000" fill-rule="evenodd" fill-opacity="1" /><path clip-path="url(#clip360)" d="M 0 0 M683.024 1452.37 Q679.413 1452.37 677.584 1455.94 Q675.778 1459.48 675.778 1466.61 Q675.778 1473.71 677.584 1477.28 Q679.413 1480.82 683.024 1480.82 Q686.658 1480.82 688.463 1477.28 Q690.292 1473.71 690.292 1466.61 Q690.292 1459.48 688.463 1455.94 Q686.658 1452.37 683.024 1452.37 M683.024 1448.67 Q688.834 1448.67 691.889 1453.27 Q694.968 1457.86 694.968 1466.61 Q694.968 1475.33 691.889 1479.94 Q688.834 1484.52 683.024 1484.52 Q677.214 1484.52 674.135 1479.94 Q671.079 1475.33 671.079 1466.61 Q671.079 1457.86 674.135 1453.27 Q677.214 1448.67 683.024 1448.67 Z" fill="#000000" fill-rule="evenodd" fill-opacity="1" /><path clip-path="url(#clip360)" d="M 0 0 M1049.08 1479.92 L1065.4 1479.92 L1065.4 1483.85 L1043.45 1483.85 L1043.45 1479.92 Q1046.11 1477.16 1050.7 1472.53 Q1055.3 1467.88 1056.48 1466.54 Q1058.73 1464.01 1059.61 1462.28 Q1060.51 1460.52 1060.51 1458.83 Q1060.51 1456.07 1058.57 1454.34 Q1056.65 1452.6 1053.54 1452.6 Q1051.35 1452.6 1048.89 1453.37 Q1046.46 1454.13 1043.68 1455.68 L1043.68 1450.96 Q1046.51 1449.82 1048.96 1449.25 Q1051.41 1448.67 1053.45 1448.67 Q1058.82 1448.67 1062.02 1451.35 Q1065.21 1454.04 1065.21 1458.53 Q1065.21 1460.66 1064.4 1462.58 Q1063.61 1464.48 1061.51 1467.07 Q1060.93 1467.74 1057.83 1470.96 Q1054.72 1474.15 1049.08 1479.92 Z" fill="#000000" fill-rule="evenodd" fill-opacity="1" /><path clip-path="url(#clip360)" d="M 0 0 M1080.47 1452.37 Q1076.85 1452.37 1075.03 1455.94 Q1073.22 1459.48 1073.22 1466.61 Q1073.22 1473.71 1075.03 1477.28 Q1076.85 1480.82 1080.47 1480.82 Q1084.1 1480.82 1085.91 1477.28 Q1087.73 1473.71 1087.73 1466.61 Q1087.73 1459.48 1085.91 1455.94 Q1084.1 1452.37 1080.47 1452.37 M1080.47 1448.67 Q1086.28 1448.67 1089.33 1453.27 Q1092.41 1457.86 1092.41 1466.61 Q1092.41 1475.33 1089.33 1479.94 Q1086.28 1484.52 1080.47 1484.52 Q1074.66 1484.52 1071.58 1479.94 Q1068.52 1475.33 1068.52 1466.61 Q1068.52 1457.86 1071.58 1453.27 Q1074.66 1448.67 1080.47 1448.67 Z" fill="#000000" fill-rule="evenodd" fill-opacity="1" /><path clip-path="url(#clip360)" d="M 0 0 M1107.48 1452.37 Q1103.87 1452.37 1102.04 1455.94 Q1100.23 1459.48 1100.23 1466.61 Q1100.23 1473.71 1102.04 1477.28 Q1103.87 1480.82 1107.48 1480.82 Q1111.11 1480.82 1112.92 1477.28 Q1114.75 1473.71 1114.75 1466.61 Q1114.75 1459.48 1112.92 1455.94 Q1111.11 1452.37 1107.48 1452.37 M1107.48 1448.67 Q1113.29 1448.67 1116.34 1453.27 Q1119.42 1457.86 1119.42 1466.61 Q1119.42 1475.33 1116.34 1479.94 Q1113.29 1484.52 1107.48 1484.52 Q1101.67 1484.52 1098.59 1479.94 Q1095.53 1475.33 1095.53 1466.61 Q1095.53 1457.86 1098.59 1453.27 Q1101.67 1448.67 1107.48 1448.67 Z" fill="#000000" fill-rule="evenodd" fill-opacity="1" /><path clip-path="url(#clip360)" d="M 0 0 M1482.44 1465.22 Q1485.8 1465.94 1487.68 1468.2 Q1489.57 1470.47 1489.57 1473.81 Q1489.57 1478.92 1486.06 1481.72 Q1482.54 1484.52 1476.06 1484.52 Q1473.88 1484.52 1471.56 1484.08 Q1469.27 1483.67 1466.82 1482.81 L1466.82 1478.3 Q1468.76 1479.43 1471.08 1480.01 Q1473.39 1480.59 1475.92 1480.59 Q1480.31 1480.59 1482.61 1478.85 Q1484.92 1477.12 1484.92 1473.81 Q1484.92 1470.75 1482.77 1469.04 Q1480.64 1467.3 1476.82 1467.3 L1472.79 1467.3 L1472.79 1463.46 L1477 1463.46 Q1480.45 1463.46 1482.28 1462.09 Q1484.11 1460.7 1484.11 1458.11 Q1484.11 1455.45 1482.21 1454.04 Q1480.34 1452.6 1476.82 1452.6 Q1474.9 1452.6 1472.7 1453.02 Q1470.5 1453.44 1467.86 1454.31 L1467.86 1450.15 Q1470.52 1449.41 1472.84 1449.04 Q1475.18 1448.67 1477.24 1448.67 Q1482.56 1448.67 1485.66 1451.1 Q1488.76 1453.5 1488.76 1457.63 Q1488.76 1460.5 1487.12 1462.49 Q1485.48 1464.45 1482.44 1465.22 Z" fill="#000000" fill-rule="evenodd" fill-opacity="1" /><path clip-path="url(#clip360)" d="M 0 0 M1504.64 1452.37 Q1501.03 1452.37 1499.2 1455.94 Q1497.4 1459.48 1497.4 1466.61 Q1497.4 1473.71 1499.2 1477.28 Q1501.03 1480.82 1504.64 1480.82 Q1508.28 1480.82 1510.08 1477.28 Q1511.91 1473.71 1511.91 1466.61 Q1511.91 1459.48 1510.08 1455.94 Q1508.28 1452.37 1504.64 1452.37 M1504.64 1448.67 Q1510.45 1448.67 1513.51 1453.27 Q1516.59 1457.86 1516.59 1466.61 Q1516.59 1475.33 1513.51 1479.94 Q1510.45 1484.52 1504.64 1484.52 Q1498.83 1484.52 1495.75 1479.94 Q1492.7 1475.33 1492.7 1466.61 Q1492.7 1457.86 1495.75 1453.27 Q1498.83 1448.67 1504.64 1448.67 Z" fill="#000000" fill-rule="evenodd" fill-opacity="1" /><path clip-path="url(#clip360)" d="M 0 0 M1531.66 1452.37 Q1528.05 1452.37 1526.22 1455.94 Q1524.41 1459.48 1524.41 1466.61 Q1524.41 1473.71 1526.22 1477.28 Q1528.05 1480.82 1531.66 1480.82 Q1535.29 1480.82 1537.1 1477.28 Q1538.93 1473.71 1538.93 1466.61 Q1538.93 1459.48 1537.1 1455.94 Q1535.29 1452.37 1531.66 1452.37 M1531.66 1448.67 Q1537.47 1448.67 1540.52 1453.27 Q1543.6 1457.86 1543.6 1466.61 Q1543.6 1475.33 1540.52 1479.94 Q1537.47 1484.52 1531.66 1484.52 Q1525.85 1484.52 1522.77 1479.94 Q1519.71 1475.33 1519.71 1466.61 Q1519.71 1457.86 1522.77 1453.27 Q1525.85 1448.67 1531.66 1448.67 Z" fill="#000000" fill-rule="evenodd" fill-opacity="1" /><path clip-path="url(#clip360)" d="M 0 0 M1904.98 1453.37 L1893.17 1471.81 L1904.98 1471.81 L1904.98 1453.37 M1903.75 1449.29 L1909.63 1449.29 L1909.63 1471.81 L1914.56 1471.81 L1914.56 1475.7 L1909.63 1475.7 L1909.63 1483.85 L1904.98 1483.85 L1904.98 1475.7 L1889.38 1475.7 L1889.38 1471.19 L1903.75 1449.29 Z" fill="#000000" fill-rule="evenodd" fill-opacity="1" /><path clip-path="url(#clip360)" d="M 0 0 M1929.63 1452.37 Q1926.02 1452.37 1924.19 1455.94 Q1922.39 1459.48 1922.39 1466.61 Q1922.39 1473.71 1924.19 1477.28 Q1926.02 1480.82 1929.63 1480.82 Q1933.27 1480.82 1935.07 1477.28 Q1936.9 1473.71 1936.9 1466.61 Q1936.9 1459.48 1935.07 1455.94 Q1933.27 1452.37 1929.63 1452.37 M1929.63 1448.67 Q1935.44 1448.67 1938.5 1453.27 Q1941.58 1457.86 1941.58 1466.61 Q1941.58 1475.33 1938.5 1479.94 Q1935.44 1484.52 1929.63 1484.52 Q1923.82 1484.52 1920.74 1479.94 Q1917.69 1475.33 1917.69 1466.61 Q1917.69 1457.86 1920.74 1453.27 Q1923.82 1448.67 1929.63 1448.67 Z" fill="#000000" fill-rule="evenodd" fill-opacity="1" /><path clip-path="url(#clip360)" d="M 0 0 M1956.65 1452.37 Q1953.03 1452.37 1951.21 1455.94 Q1949.4 1459.48 1949.4 1466.61 Q1949.4 1473.71 1951.21 1477.28 Q1953.03 1480.82 1956.65 1480.82 Q1960.28 1480.82 1962.08 1477.28 Q1963.91 1473.71 1963.91 1466.61 Q1963.91 1459.48 1962.08 1455.94 Q1960.28 1452.37 1956.65 1452.37 M1956.65 1448.67 Q1962.46 1448.67 1965.51 1453.27 Q1968.59 1457.86 1968.59 1466.61 Q1968.59 1475.33 1965.51 1479.94 Q1962.46 1484.52 1956.65 1484.52 Q1950.83 1484.52 1947.76 1479.94 Q1944.7 1475.33 1944.7 1466.61 Q1944.7 1457.86 1947.76 1453.27 Q1950.83 1448.67 1956.65 1448.67 Z" fill="#000000" fill-rule="evenodd" fill-opacity="1" /><path clip-path="url(#clip360)" d="M 0 0 M2316.02 1449.29 L2334.38 1449.29 L2334.38 1453.23 L2320.3 1453.23 L2320.3 1461.7 Q2321.32 1461.35 2322.34 1461.19 Q2323.36 1461 2324.38 1461 Q2330.16 1461 2333.54 1464.18 Q2336.92 1467.35 2336.92 1472.76 Q2336.92 1478.34 2333.45 1481.44 Q2329.98 1484.52 2323.66 1484.52 Q2321.48 1484.52 2319.21 1484.15 Q2316.97 1483.78 2314.56 1483.04 L2314.56 1478.34 Q2316.64 1479.48 2318.87 1480.03 Q2321.09 1480.59 2323.57 1480.59 Q2327.57 1480.59 2329.91 1478.48 Q2332.25 1476.38 2332.25 1472.76 Q2332.25 1469.15 2329.91 1467.05 Q2327.57 1464.94 2323.57 1464.94 Q2321.69 1464.94 2319.82 1465.36 Q2317.96 1465.77 2316.02 1466.65 L2316.02 1449.29 Z" fill="#000000" fill-rule="evenodd" fill-opacity="1" /><path clip-path="url(#clip360)" d="M 0 0 M2351.99 1452.37 Q2348.38 1452.37 2346.55 1455.94 Q2344.75 1459.48 2344.75 1466.61 Q2344.75 1473.71 2346.55 1477.28 Q2348.38 1480.82 2351.99 1480.82 Q2355.63 1480.82 2357.43 1477.28 Q2359.26 1473.71 2359.26 1466.61 Q2359.26 1459.48 2357.43 1455.94 Q2355.63 1452.37 2351.99 1452.37 M2351.99 1448.67 Q2357.8 1448.67 2360.86 1453.27 Q2363.94 1457.86 2363.94 1466.61 Q2363.94 1475.33 2360.86 1479.94 Q2357.8 1484.52 2351.99 1484.52 Q2346.18 1484.52 2343.1 1479.94 Q2340.05 1475.33 2340.05 1466.61 Q2340.05 1457.86 2343.1 1453.27 Q2346.18 1448.67 2351.99 1448.67 Z" fill="#000000" fill-rule="evenodd" fill-opacity="1" /><path clip-path="url(#clip360)" d="M 0 0 M2379.01 1452.37 Q2375.39 1452.37 2373.57 1455.94 Q2371.76 1459.48 2371.76 1466.61 Q2371.76 1473.71 2373.57 1477.28 Q2375.39 1480.82 2379.01 1480.82 Q2382.64 1480.82 2384.45 1477.28 Q2386.27 1473.71 2386.27 1466.61 Q2386.27 1459.48 2384.45 1455.94 Q2382.64 1452.37 2379.01 1452.37 M2379.01 1448.67 Q2384.82 1448.67 2387.87 1453.27 Q2390.95 1457.86 2390.95 1466.61 Q2390.95 1475.33 2387.87 1479.94 Q2384.82 1484.52 2379.01 1484.52 Q2373.2 1484.52 2370.12 1479.94 Q2367.06 1475.33 2367.06 1466.61 Q2367.06 1457.86 2370.12 1453.27 Q2373.2 1448.67 2379.01 1448.67 Z" fill="#000000" fill-rule="evenodd" fill-opacity="1" /><path clip-path="url(#clip360)" d="M 0 0 M1241.21 1510.27 L1241.21 1520.4 L1253.27 1520.4 L1253.27 1524.95 L1241.21 1524.95 L1241.21 1544.3 Q1241.21 1548.66 1242.38 1549.9 Q1243.59 1551.14 1247.25 1551.14 L1253.27 1551.14 L1253.27 1556.04 L1247.25 1556.04 Q1240.48 1556.04 1237.9 1553.53 Q1235.32 1550.98 1235.32 1544.3 L1235.32 1524.95 L1231.02 1524.95 L1231.02 1520.4 L1235.32 1520.4 L1235.32 1510.27 L1241.21 1510.27 Z" fill="#000000" fill-rule="evenodd" fill-opacity="1" /><path clip-path="url(#clip360)" d="M 0 0 M1259.41 1520.4 L1265.27 1520.4 L1265.27 1556.04 L1259.41 1556.04 L1259.41 1520.4 M1259.41 1506.52 L1265.27 1506.52 L1265.27 1513.93 L1259.41 1513.93 L1259.41 1506.52 Z" fill="#000000" fill-rule="evenodd" fill-opacity="1" /><path clip-path="url(#clip360)" d="M 0 0 M1299.17 1527.24 Q1301.36 1523.29 1304.42 1521.41 Q1307.47 1519.54 1311.61 1519.54 Q1317.18 1519.54 1320.21 1523.45 Q1323.23 1527.33 1323.23 1534.53 L1323.23 1556.04 L1317.34 1556.04 L1317.34 1534.72 Q1317.34 1529.59 1315.53 1527.11 Q1313.71 1524.63 1309.99 1524.63 Q1305.44 1524.63 1302.8 1527.65 Q1300.15 1530.68 1300.15 1535.9 L1300.15 1556.04 L1294.27 1556.04 L1294.27 1534.72 Q1294.27 1529.56 1292.45 1527.11 Q1290.64 1524.63 1286.85 1524.63 Q1282.36 1524.63 1279.72 1527.68 Q1277.08 1530.71 1277.08 1535.9 L1277.08 1556.04 L1271.19 1556.04 L1271.19 1520.4 L1277.08 1520.4 L1277.08 1525.93 Q1279.08 1522.66 1281.88 1521.1 Q1284.68 1519.54 1288.54 1519.54 Q1292.42 1519.54 1295.12 1521.51 Q1297.86 1523.48 1299.17 1527.24 Z" fill="#000000" fill-rule="evenodd" fill-opacity="1" /><path clip-path="url(#clip360)" d="M 0 0 M1359.86 1536.76 L1359.86 1539.62 L1332.94 1539.62 Q1333.32 1545.67 1336.57 1548.85 Q1339.84 1552 1345.67 1552 Q1349.04 1552 1352.19 1551.17 Q1355.38 1550.35 1358.5 1548.69 L1358.5 1554.23 Q1355.34 1555.57 1352.03 1556.27 Q1348.72 1556.97 1345.32 1556.97 Q1336.79 1556.97 1331.79 1552 Q1326.83 1547.04 1326.83 1538.57 Q1326.83 1529.82 1331.54 1524.69 Q1336.28 1519.54 1344.3 1519.54 Q1351.49 1519.54 1355.66 1524.18 Q1359.86 1528.8 1359.86 1536.76 M1354.01 1535.04 Q1353.94 1530.23 1351.3 1527.37 Q1348.69 1524.5 1344.36 1524.5 Q1339.46 1524.5 1336.5 1527.27 Q1333.57 1530.04 1333.13 1535.07 L1354.01 1535.04 Z" fill="#000000" fill-rule="evenodd" fill-opacity="1" /><polyline clip-path="url(#clip362)" style="stroke:#000000; stroke-width:2; stroke-opacity:0.1; fill:none" points="
  238.13,1385.55 2352.76,1385.55 
  "/>
<polyline clip-path="url(#clip362)" style="stroke:#000000; stroke-width:2; stroke-opacity:0.1; fill:none" points="
  238.13,1057.43 2352.76,1057.43 
  "/>
<polyline clip-path="url(#clip362)" style="stroke:#000000; stroke-width:2; stroke-opacity:0.1; fill:none" points="
  238.13,729.306 2352.76,729.306 
  "/>
<polyline clip-path="url(#clip362)" style="stroke:#000000; stroke-width:2; stroke-opacity:0.1; fill:none" points="
  238.13,401.183 2352.76,401.183 
  "/>
<polyline clip-path="url(#clip362)" style="stroke:#000000; stroke-width:2; stroke-opacity:0.1; fill:none" points="
  238.13,73.0608 2352.76,73.0608 
  "/>
<polyline clip-path="url(#clip360)" style="stroke:#000000; stroke-width:4; stroke-opacity:1; fill:none" points="
  238.13,1423.18 238.13,47.2441 
  "/>
<polyline clip-path="url(#clip360)" style="stroke:#000000; stroke-width:4; stroke-opacity:1; fill:none" points="
  238.13,1385.55 263.506,1385.55 
  "/>
<polyline clip-path="url(#clip360)" style="stroke:#000000; stroke-width:4; stroke-opacity:1; fill:none" points="
  238.13,1057.43 263.506,1057.43 
  "/>
<polyline clip-path="url(#clip360)" style="stroke:#000000; stroke-width:4; stroke-opacity:1; fill:none" points="
  238.13,729.306 263.506,729.306 
  "/>
<polyline clip-path="url(#clip360)" style="stroke:#000000; stroke-width:4; stroke-opacity:1; fill:none" points="
  238.13,401.183 263.506,401.183 
  "/>
<polyline clip-path="url(#clip360)" style="stroke:#000000; stroke-width:4; stroke-opacity:1; fill:none" points="
  238.13,73.0608 263.506,73.0608 
  "/>
<path clip-path="url(#clip360)" d="M 0 0 M126.205 1371.35 Q122.593 1371.35 120.765 1374.91 Q118.959 1378.46 118.959 1385.59 Q118.959 1392.69 120.765 1396.26 Q122.593 1399.8 126.205 1399.8 Q129.839 1399.8 131.644 1396.26 Q133.473 1392.69 133.473 1385.59 Q133.473 1378.46 131.644 1374.91 Q129.839 1371.35 126.205 1371.35 M126.205 1367.65 Q132.015 1367.65 135.07 1372.25 Q138.149 1376.84 138.149 1385.59 Q138.149 1394.31 135.07 1398.92 Q132.015 1403.5 126.205 1403.5 Q120.394 1403.5 117.316 1398.92 Q114.26 1394.31 114.26 1385.59 Q114.26 1376.84 117.316 1372.25 Q120.394 1367.65 126.205 1367.65 Z" fill="#000000" fill-rule="evenodd" fill-opacity="1" /><path clip-path="url(#clip360)" d="M 0 0 M143.218 1396.95 L148.103 1396.95 L148.103 1402.83 L143.218 1402.83 L143.218 1396.95 Z" fill="#000000" fill-rule="evenodd" fill-opacity="1" /><path clip-path="url(#clip360)" d="M 0 0 M163.172 1371.35 Q159.561 1371.35 157.732 1374.91 Q155.927 1378.46 155.927 1385.59 Q155.927 1392.69 157.732 1396.26 Q159.561 1399.8 163.172 1399.8 Q166.806 1399.8 168.612 1396.26 Q170.44 1392.69 170.44 1385.59 Q170.44 1378.46 168.612 1374.91 Q166.806 1371.35 163.172 1371.35 M163.172 1367.65 Q168.982 1367.65 172.038 1372.25 Q175.116 1376.84 175.116 1385.59 Q175.116 1394.31 172.038 1398.92 Q168.982 1403.5 163.172 1403.5 Q157.362 1403.5 154.283 1398.92 Q151.228 1394.31 151.228 1385.59 Q151.228 1376.84 154.283 1372.25 Q157.362 1367.65 163.172 1367.65 Z" fill="#000000" fill-rule="evenodd" fill-opacity="1" /><path clip-path="url(#clip360)" d="M 0 0 M190.186 1371.35 Q186.575 1371.35 184.746 1374.91 Q182.94 1378.46 182.94 1385.59 Q182.94 1392.69 184.746 1396.26 Q186.575 1399.8 190.186 1399.8 Q193.82 1399.8 195.625 1396.26 Q197.454 1392.69 197.454 1385.59 Q197.454 1378.46 195.625 1374.91 Q193.82 1371.35 190.186 1371.35 M190.186 1367.65 Q195.996 1367.65 199.051 1372.25 Q202.13 1376.84 202.13 1385.59 Q202.13 1394.31 199.051 1398.92 Q195.996 1403.5 190.186 1403.5 Q184.376 1403.5 181.297 1398.92 Q178.241 1394.31 178.241 1385.59 Q178.241 1376.84 181.297 1372.25 Q184.376 1367.65 190.186 1367.65 Z" fill="#000000" fill-rule="evenodd" fill-opacity="1" /><path clip-path="url(#clip360)" d="M 0 0 M128.797 1043.23 Q125.186 1043.23 123.357 1046.79 Q121.552 1050.33 121.552 1057.46 Q121.552 1064.57 123.357 1068.13 Q125.186 1071.68 128.797 1071.68 Q132.431 1071.68 134.237 1068.13 Q136.066 1064.57 136.066 1057.46 Q136.066 1050.33 134.237 1046.79 Q132.431 1043.23 128.797 1043.23 M128.797 1039.52 Q134.607 1039.52 137.663 1044.13 Q140.741 1048.71 140.741 1057.46 Q140.741 1066.19 137.663 1070.8 Q134.607 1075.38 128.797 1075.38 Q122.987 1075.38 119.908 1070.8 Q116.853 1066.19 116.853 1057.46 Q116.853 1048.71 119.908 1044.13 Q122.987 1039.52 128.797 1039.52 Z" fill="#000000" fill-rule="evenodd" fill-opacity="1" /><path clip-path="url(#clip360)" d="M 0 0 M145.811 1068.83 L150.695 1068.83 L150.695 1074.71 L145.811 1074.71 L145.811 1068.83 Z" fill="#000000" fill-rule="evenodd" fill-opacity="1" /><path clip-path="url(#clip360)" d="M 0 0 M159.792 1070.77 L176.112 1070.77 L176.112 1074.71 L154.167 1074.71 L154.167 1070.77 Q156.829 1068.02 161.413 1063.39 Q166.019 1058.74 167.2 1057.39 Q169.445 1054.87 170.325 1053.13 Q171.227 1051.38 171.227 1049.69 Q171.227 1046.93 169.283 1045.19 Q167.362 1043.46 164.26 1043.46 Q162.061 1043.46 159.607 1044.22 Q157.177 1044.99 154.399 1046.54 L154.399 1041.81 Q157.223 1040.68 159.677 1040.1 Q162.13 1039.52 164.167 1039.52 Q169.538 1039.52 172.732 1042.21 Q175.926 1044.89 175.926 1049.38 Q175.926 1051.51 175.116 1053.44 Q174.329 1055.33 172.223 1057.93 Q171.644 1058.6 168.542 1061.81 Q165.44 1065.01 159.792 1070.77 Z" fill="#000000" fill-rule="evenodd" fill-opacity="1" /><path clip-path="url(#clip360)" d="M 0 0 M181.227 1040.15 L199.584 1040.15 L199.584 1044.08 L185.51 1044.08 L185.51 1052.56 Q186.528 1052.21 187.547 1052.05 Q188.565 1051.86 189.584 1051.86 Q195.371 1051.86 198.75 1055.03 Q202.13 1058.2 202.13 1063.62 Q202.13 1069.2 198.658 1072.3 Q195.186 1075.38 188.866 1075.38 Q186.69 1075.38 184.422 1075.01 Q182.176 1074.64 179.769 1073.9 L179.769 1069.2 Q181.852 1070.33 184.075 1070.89 Q186.297 1071.44 188.774 1071.44 Q192.778 1071.44 195.116 1069.34 Q197.454 1067.23 197.454 1063.62 Q197.454 1060.01 195.116 1057.9 Q192.778 1055.8 188.774 1055.8 Q186.899 1055.8 185.024 1056.21 Q183.172 1056.63 181.227 1057.51 L181.227 1040.15 Z" fill="#000000" fill-rule="evenodd" fill-opacity="1" /><path clip-path="url(#clip360)" d="M 0 0 M127.2 715.104 Q123.589 715.104 121.76 718.669 Q119.955 722.211 119.955 729.34 Q119.955 736.447 121.76 740.012 Q123.589 743.553 127.2 743.553 Q130.834 743.553 132.64 740.012 Q134.468 736.447 134.468 729.34 Q134.468 722.211 132.64 718.669 Q130.834 715.104 127.2 715.104 M127.2 711.401 Q133.01 711.401 136.066 716.007 Q139.144 720.591 139.144 729.34 Q139.144 738.067 136.066 742.674 Q133.01 747.257 127.2 747.257 Q121.39 747.257 118.311 742.674 Q115.256 738.067 115.256 729.34 Q115.256 720.591 118.311 716.007 Q121.39 711.401 127.2 711.401 Z" fill="#000000" fill-rule="evenodd" fill-opacity="1" /><path clip-path="url(#clip360)" d="M 0 0 M144.214 740.706 L149.098 740.706 L149.098 746.586 L144.214 746.586 L144.214 740.706 Z" fill="#000000" fill-rule="evenodd" fill-opacity="1" /><path clip-path="url(#clip360)" d="M 0 0 M154.214 712.026 L172.57 712.026 L172.57 715.961 L158.496 715.961 L158.496 724.433 Q159.515 724.086 160.533 723.924 Q161.552 723.739 162.57 723.739 Q168.357 723.739 171.737 726.91 Q175.116 730.081 175.116 735.498 Q175.116 741.077 171.644 744.178 Q168.172 747.257 161.852 747.257 Q159.677 747.257 157.408 746.887 Q155.163 746.516 152.755 745.776 L152.755 741.077 Q154.839 742.211 157.061 742.766 Q159.283 743.322 161.76 743.322 Q165.765 743.322 168.102 741.215 Q170.44 739.109 170.44 735.498 Q170.44 731.887 168.102 729.78 Q165.765 727.674 161.76 727.674 Q159.885 727.674 158.01 728.09 Q156.158 728.507 154.214 729.387 L154.214 712.026 Z" fill="#000000" fill-rule="evenodd" fill-opacity="1" /><path clip-path="url(#clip360)" d="M 0 0 M190.186 715.104 Q186.575 715.104 184.746 718.669 Q182.94 722.211 182.94 729.34 Q182.94 736.447 184.746 740.012 Q186.575 743.553 190.186 743.553 Q193.82 743.553 195.625 740.012 Q197.454 736.447 197.454 729.34 Q197.454 722.211 195.625 718.669 Q193.82 715.104 190.186 715.104 M190.186 711.401 Q195.996 711.401 199.051 716.007 Q202.13 720.591 202.13 729.34 Q202.13 738.067 199.051 742.674 Q195.996 747.257 190.186 747.257 Q184.376 747.257 181.297 742.674 Q178.241 738.067 178.241 729.34 Q178.241 720.591 181.297 716.007 Q184.376 711.401 190.186 711.401 Z" fill="#000000" fill-rule="evenodd" fill-opacity="1" /><path clip-path="url(#clip360)" d="M 0 0 M128.103 386.982 Q124.492 386.982 122.663 390.547 Q120.857 394.088 120.857 401.218 Q120.857 408.324 122.663 411.889 Q124.492 415.431 128.103 415.431 Q131.737 415.431 133.542 411.889 Q135.371 408.324 135.371 401.218 Q135.371 394.088 133.542 390.547 Q131.737 386.982 128.103 386.982 M128.103 383.278 Q133.913 383.278 136.968 387.885 Q140.047 392.468 140.047 401.218 Q140.047 409.945 136.968 414.551 Q133.913 419.135 128.103 419.135 Q122.293 419.135 119.214 414.551 Q116.158 409.945 116.158 401.218 Q116.158 392.468 119.214 387.885 Q122.293 383.278 128.103 383.278 Z" fill="#000000" fill-rule="evenodd" fill-opacity="1" /><path clip-path="url(#clip360)" d="M 0 0 M145.116 412.584 L150.001 412.584 L150.001 418.463 L145.116 418.463 L145.116 412.584 Z" fill="#000000" fill-rule="evenodd" fill-opacity="1" /><path clip-path="url(#clip360)" d="M 0 0 M153.89 383.903 L176.112 383.903 L176.112 385.894 L163.565 418.463 L158.681 418.463 L170.487 387.838 L153.89 387.838 L153.89 383.903 Z" fill="#000000" fill-rule="evenodd" fill-opacity="1" /><path clip-path="url(#clip360)" d="M 0 0 M181.227 383.903 L199.584 383.903 L199.584 387.838 L185.51 387.838 L185.51 396.311 Q186.528 395.963 187.547 395.801 Q188.565 395.616 189.584 395.616 Q195.371 395.616 198.75 398.787 Q202.13 401.959 202.13 407.375 Q202.13 412.954 198.658 416.056 Q195.186 419.135 188.866 419.135 Q186.69 419.135 184.422 418.764 Q182.176 418.394 179.769 417.653 L179.769 412.954 Q181.852 414.088 184.075 414.644 Q186.297 415.199 188.774 415.199 Q192.778 415.199 195.116 413.093 Q197.454 410.986 197.454 407.375 Q197.454 403.764 195.116 401.658 Q192.778 399.551 188.774 399.551 Q186.899 399.551 185.024 399.968 Q183.172 400.385 181.227 401.264 L181.227 383.903 Z" fill="#000000" fill-rule="evenodd" fill-opacity="1" /><path clip-path="url(#clip360)" d="M 0 0 M118.242 86.4056 L125.88 86.4056 L125.88 60.04 L117.57 61.7067 L117.57 57.4474 L125.834 55.7808 L130.51 55.7808 L130.51 86.4056 L138.149 86.4056 L138.149 90.3408 L118.242 90.3408 L118.242 86.4056 Z" fill="#000000" fill-rule="evenodd" fill-opacity="1" /><path clip-path="url(#clip360)" d="M 0 0 M143.218 84.4612 L148.103 84.4612 L148.103 90.3408 L143.218 90.3408 L143.218 84.4612 Z" fill="#000000" fill-rule="evenodd" fill-opacity="1" /><path clip-path="url(#clip360)" d="M 0 0 M163.172 58.8595 Q159.561 58.8595 157.732 62.4243 Q155.927 65.9659 155.927 73.0955 Q155.927 80.2019 157.732 83.7667 Q159.561 87.3084 163.172 87.3084 Q166.806 87.3084 168.612 83.7667 Q170.44 80.2019 170.44 73.0955 Q170.44 65.9659 168.612 62.4243 Q166.806 58.8595 163.172 58.8595 M163.172 55.1558 Q168.982 55.1558 172.038 59.7622 Q175.116 64.3455 175.116 73.0955 Q175.116 81.8223 172.038 86.4288 Q168.982 91.0121 163.172 91.0121 Q157.362 91.0121 154.283 86.4288 Q151.228 81.8223 151.228 73.0955 Q151.228 64.3455 154.283 59.7622 Q157.362 55.1558 163.172 55.1558 Z" fill="#000000" fill-rule="evenodd" fill-opacity="1" /><path clip-path="url(#clip360)" d="M 0 0 M190.186 58.8595 Q186.575 58.8595 184.746 62.4243 Q182.94 65.9659 182.94 73.0955 Q182.94 80.2019 184.746 83.7667 Q186.575 87.3084 190.186 87.3084 Q193.82 87.3084 195.625 83.7667 Q197.454 80.2019 197.454 73.0955 Q197.454 65.9659 195.625 62.4243 Q193.82 58.8595 190.186 58.8595 M190.186 55.1558 Q195.996 55.1558 199.051 59.7622 Q202.13 64.3455 202.13 73.0955 Q202.13 81.8223 199.051 86.4288 Q195.996 91.0121 190.186 91.0121 Q184.376 91.0121 181.297 86.4288 Q178.241 81.8223 178.241 73.0955 Q178.241 64.3455 181.297 59.7622 Q184.376 55.1558 190.186 55.1558 Z" fill="#000000" fill-rule="evenodd" fill-opacity="1" /><path clip-path="url(#clip360)" d="M 0 0 M40.4842 753.195 L40.4842 744.538 L80.238 723.467 L40.4842 723.467 L40.4842 717.229 L88.0042 717.229 L88.0042 725.886 L48.2503 746.957 L88.0042 746.957 L88.0042 753.195 L40.4842 753.195 Z" fill="#000000" fill-rule="evenodd" fill-opacity="1" /><polyline clip-path="url(#clip362)" style="stroke:#009af9; stroke-width:4; stroke-opacity:1; fill:none" points="
  238.13,86.1857 240.247,86.2317 242.364,86.2793 244.48,86.3286 246.597,86.3797 248.714,86.4325 250.831,86.4871 252.947,86.5437 255.064,86.6023 257.181,86.6629 
  259.297,86.7256 261.414,86.7905 263.531,86.8577 265.648,86.9272 267.764,86.9992 269.881,87.0737 271.998,87.1507 274.115,87.2305 276.231,87.3131 278.348,87.3985 
  280.465,87.487 282.582,87.5785 284.698,87.6732 286.815,87.7712 288.932,87.8726 291.049,87.9776 293.165,88.0862 295.282,88.1987 297.399,88.315 299.516,88.4354 
  301.632,88.56 303.749,88.6889 305.866,88.8223 307.983,88.9604 310.099,89.1033 312.216,89.2511 314.333,89.4041 316.45,89.5624 318.566,89.7262 320.683,89.8956 
  322.8,90.071 324.917,90.2525 327.033,90.4402 329.15,90.6345 331.267,90.8355 333.383,91.0434 335.5,91.2586 337.617,91.4812 339.734,91.7115 341.85,91.9497 
  343.967,92.1962 346.084,92.4513 348.201,92.7151 350.317,92.988 352.434,93.2704 354.551,93.5625 356.668,93.8646 358.784,94.1771 360.901,94.5004 363.018,94.8348 
  365.135,95.1806 367.251,95.5383 369.368,95.9083 371.485,96.2909 373.602,96.6867 375.718,97.0959 377.835,97.5191 379.952,97.9568 382.069,98.4094 384.185,98.8774 
  386.302,99.3613 388.419,99.8618 390.536,100.379 392.652,100.914 394.769,101.467 396.886,102.039 399.002,102.63 401.119,103.241 403.236,103.872 405.353,104.525 
  407.469,105.2 409.586,105.897 411.703,106.618 413.82,107.362 415.936,108.132 418.053,108.927 420.17,109.748 422.287,110.597 424.403,111.474 426.52,112.38 
  428.637,113.315 430.754,114.282 432.87,115.28 434.987,116.311 437.104,117.375 439.221,118.475 441.337,119.61 443.454,120.781 445.571,121.991 447.688,123.239 
  449.804,124.527 451.921,125.856 454.038,127.228 456.155,128.644 458.271,130.104 460.388,131.61 462.505,133.164 464.622,134.767 466.738,136.419 468.855,138.123 
  470.972,139.88 473.088,141.691 475.205,143.557 477.322,145.481 479.439,147.463 481.555,149.504 483.672,151.607 485.789,153.773 487.906,156.003 490.022,158.299 
  492.139,160.662 494.256,163.094 496.373,165.596 498.489,168.17 500.606,170.817 502.723,173.539 504.84,176.338 506.956,179.215 509.073,182.172 511.19,185.211 
  513.307,188.333 515.423,191.539 517.54,194.832 519.657,198.212 521.774,201.68 523.89,205.239 526.007,208.889 528.124,212.632 530.241,216.468 532.357,220.4 
  534.474,224.427 536.591,228.552 538.708,232.774 540.824,237.096 542.941,241.518 545.058,246.041 547.174,250.666 549.291,255.394 551.408,260.224 553.525,265.158 
  555.641,270.195 557.758,275.336 559.875,280.581 561.992,285.931 564.108,291.384 566.225,296.941 568.342,302.602 570.459,308.365 572.575,314.229 574.692,320.195 
  576.809,326.26 578.926,332.424 581.042,338.685 583.159,345.042 585.276,351.493 587.393,358.036 589.509,364.669 591.626,371.39 593.743,378.197 595.86,385.088 
  597.976,392.059 600.093,399.108 602.21,406.233 604.327,413.429 606.443,420.695 608.56,428.026 610.677,435.421 612.793,442.876 614.91,450.385 617.027,457.945 
  619.144,465.552 621.26,473.199 623.377,480.884 625.494,488.602 627.611,496.347 629.727,504.117 631.844,511.905 633.961,519.708 636.078,527.521 638.194,535.34 
  640.311,543.161 642.428,550.979 644.545,558.789 646.661,566.587 648.778,574.37 650.895,582.132 653.012,589.869 655.128,597.577 657.245,605.251 659.362,612.888 
  661.479,620.482 663.595,628.03 665.712,635.528 667.829,642.97 669.946,650.353 672.062,657.673 674.179,664.924 676.296,672.104 678.413,679.211 680.529,686.24 
  682.646,693.19 684.763,700.058 686.879,706.842 688.996,713.539 691.113,720.148 693.23,726.667 695.346,733.093 697.463,739.426 699.58,745.663 701.697,751.803 
  703.813,757.845 705.93,763.788 708.047,769.63 710.164,775.371 712.28,781.01 714.397,786.546 716.514,791.979 718.631,797.308 720.747,802.534 722.864,807.655 
  724.981,812.672 727.098,817.585 729.214,822.394 731.331,827.1 733.448,831.703 735.565,836.204 737.681,840.603 739.798,844.902 741.915,849.101 744.032,853.202 
  746.148,857.205 748.265,861.113 750.382,864.926 752.499,868.649 754.615,872.282 756.732,875.827 758.849,879.285 760.965,882.656 763.082,885.941 765.199,889.142 
  767.316,892.26 769.432,895.295 771.549,898.249 773.666,901.123 775.783,903.917 777.899,906.635 780.016,909.276 782.133,911.841 784.25,914.333 786.366,916.753 
  788.483,919.102 790.6,921.381 792.717,923.592 794.833,925.737 796.95,927.817 799.067,929.834 801.184,931.789 803.3,933.684 805.417,935.52 807.534,937.3 
  809.651,939.025 811.767,940.698 813.884,942.319 816.001,943.891 818.118,945.416 820.234,946.895 822.351,948.331 824.468,949.726 826.584,951.081 828.701,952.399 
  830.818,953.68 832.935,954.923 835.051,956.127 837.168,957.294 839.285,958.426 841.402,959.521 843.518,960.583 845.635,961.611 847.752,962.606 849.869,963.569 
  851.985,964.501 854.102,965.403 856.219,966.276 858.336,967.12 860.452,967.937 862.569,968.726 864.686,969.49 866.803,970.228 868.919,970.942 871.036,971.632 
  873.153,972.3 875.27,972.945 877.386,973.569 879.503,974.172 881.62,974.755 883.737,975.319 885.853,975.865 887.97,976.394 890.087,976.905 892.204,977.4 
  894.32,977.88 896.437,978.345 898.554,978.796 900.67,979.233 902.787,979.656 904.904,980.066 907.021,980.463 909.137,980.847 911.254,981.218 913.371,981.577 
  915.488,981.924 917.604,982.26 919.721,982.584 921.838,982.897 923.955,983.199 926.071,983.491 928.188,983.773 930.305,984.045 932.422,984.307 934.538,984.56 
  936.655,984.804 938.772,985.039 940.889,985.266 943.005,985.485 945.122,985.696 947.239,985.899 949.356,986.096 951.472,986.285 953.589,986.468 955.706,986.644 
  957.823,986.814 959.939,986.979 962.056,987.138 964.173,987.292 966.29,987.441 968.406,987.585 970.523,987.725 972.64,987.861 974.756,987.993 976.873,988.122 
  978.99,988.247 981.107,988.368 983.223,988.485 985.34,988.598 987.457,988.708 989.574,988.814 991.69,988.916 993.807,989.015 995.924,989.111 998.041,989.204 
  1000.16,989.293 1002.27,989.379 1004.39,989.462 1006.51,989.542 1008.62,989.62 1010.74,989.694 1012.86,989.766 1014.97,989.836 1017.09,989.902 1019.21,989.967 
  1021.32,990.029 1023.44,990.088 1025.56,990.146 1027.68,990.201 1029.79,990.255 1031.91,990.306 1034.03,990.356 1036.14,990.404 1038.26,990.45 1040.38,990.494 
  1042.49,990.537 1044.61,990.579 1046.73,990.619 1048.84,990.658 1050.96,990.695 1053.08,990.732 1055.19,990.768 1057.31,990.802 1059.43,990.836 1061.54,990.869 
  1063.66,990.901 1065.78,990.932 1067.89,990.962 1070.01,990.991 1072.13,991.019 1074.24,991.047 1076.36,991.073 1078.48,991.099 1080.59,991.124 1082.71,991.148 
  1084.83,991.171 1086.94,991.194 1089.06,991.215 1091.18,991.236 1093.29,991.256 1095.41,991.276 1097.53,991.294 1099.64,991.312 1101.76,991.329 1103.88,991.346 
  1105.99,991.362 1108.11,991.377 1110.23,991.392 1112.34,991.406 1114.46,991.419 1116.58,991.432 1118.69,991.444 1120.81,991.456 1122.93,991.467 1125.05,991.478 
  1127.16,991.488 1129.28,991.498 1131.4,991.508 1133.51,991.517 1135.63,991.526 1137.75,991.534 1139.86,991.542 1141.98,991.55 1144.1,991.558 1146.21,991.565 
  1148.33,991.572 1150.45,991.579 1152.56,991.586 1154.68,991.593 1156.8,991.599 1158.91,991.606 1161.03,991.612 1163.15,991.619 1165.26,991.625 1167.38,991.631 
  1169.5,991.637 1171.61,991.643 1173.73,991.649 1175.85,991.655 1177.96,991.66 1180.08,991.665 1182.2,991.67 1184.31,991.675 1186.43,991.68 1188.55,991.685 
  1190.66,991.689 1192.78,991.694 1194.9,991.698 1197.01,991.702 1199.13,991.706 1201.25,991.709 1203.36,991.713 1205.48,991.716 1207.6,991.72 1209.71,991.723 
  1211.83,991.726 1213.95,991.729 1216.07,991.731 1218.18,991.734 1220.3,991.736 1222.42,991.739 1224.53,991.741 1226.65,991.743 1228.77,991.745 1230.88,991.747 
  1233,991.749 1235.12,991.75 1237.23,991.752 1239.35,991.753 1241.47,991.755 1243.58,991.756 1245.7,991.757 1247.82,991.758 1249.93,991.76 1252.05,991.761 
  1254.17,991.762 1256.28,991.763 1258.4,991.763 1260.52,991.764 1262.63,991.765 1264.75,991.766 1266.87,991.767 1268.98,991.768 1271.1,991.769 1273.22,991.769 
  1275.33,991.77 1277.45,991.771 1279.57,991.772 1281.68,991.773 1283.8,991.774 1285.92,991.775 1288.03,991.776 1290.15,991.777 1292.27,991.778 1294.38,991.779 
  1296.5,991.78 1298.62,991.781 1300.73,991.782 1302.85,991.783 1304.97,991.784 1307.09,991.785 1309.2,991.786 1311.32,991.787 1313.44,991.788 1315.55,991.789 
  1317.67,991.789 1319.79,991.79 1321.9,991.791 1324.02,991.792 1326.14,991.792 1328.25,991.793 1330.37,991.794 1332.49,991.794 1334.6,991.795 1336.72,991.795 
  1338.84,991.796 1340.95,991.796 1343.07,991.797 1345.19,991.797 1347.3,991.797 1349.42,991.798 1351.54,991.798 1353.65,991.798 1355.77,991.799 1357.89,991.799 
  1360,991.799 1362.12,991.799 1364.24,991.799 1366.35,991.799 1368.47,991.799 1370.59,991.8 1372.7,991.8 1374.82,991.8 1376.94,991.8 1379.05,991.8 
  1381.17,991.8 1383.29,991.799 1385.4,991.799 1387.52,991.799 1389.64,991.799 1391.75,991.799 1393.87,991.799 1395.99,991.799 1398.1,991.799 1400.22,991.799 
  1402.34,991.799 1404.46,991.798 1406.57,991.798 1408.69,991.798 1410.81,991.798 1412.92,991.798 1415.04,991.798 1417.16,991.798 1419.27,991.798 1421.39,991.798 
  1423.51,991.798 1425.62,991.798 1427.74,991.798 1429.86,991.798 1431.97,991.798 1434.09,991.798 1436.21,991.798 1438.32,991.799 1440.44,991.799 1442.56,991.799 
  1444.67,991.799 1446.79,991.8 1448.91,991.8 1451.02,991.8 1453.14,991.8 1455.26,991.801 1457.37,991.801 1459.49,991.801 1461.61,991.801 1463.72,991.802 
  1465.84,991.802 1467.96,991.802 1470.07,991.802 1472.19,991.802 1474.31,991.803 1476.42,991.803 1478.54,991.803 1480.66,991.803 1482.77,991.804 1484.89,991.804 
  1487.01,991.804 1489.12,991.804 1491.24,991.804 1493.36,991.805 1495.48,991.805 1497.59,991.805 1499.71,991.805 1501.83,991.805 1503.94,991.805 1506.06,991.805 
  1508.18,991.805 1510.29,991.806 1512.41,991.806 1514.53,991.806 1516.64,991.806 1518.76,991.806 1520.88,991.806 1522.99,991.806 1525.11,991.806 1527.23,991.806 
  1529.34,991.806 1531.46,991.806 1533.58,991.806 1535.69,991.806 1537.81,991.806 1539.93,991.806 1542.04,991.805 1544.16,991.805 1546.28,991.805 1548.39,991.805 
  1550.51,991.805 1552.63,991.805 1554.74,991.805 1556.86,991.805 1558.98,991.805 1561.09,991.804 1563.21,991.804 1565.33,991.804 1567.44,991.804 1569.56,991.804 
  1571.68,991.804 1573.79,991.803 1575.91,991.803 1578.03,991.803 1580.14,991.803 1582.26,991.803 1584.38,991.802 1586.5,991.802 1588.61,991.802 1590.73,991.802 
  1592.85,991.802 1594.96,991.802 1597.08,991.801 1599.2,991.801 1601.31,991.801 1603.43,991.801 1605.55,991.801 1607.66,991.801 1609.78,991.801 1611.9,991.801 
  1614.01,991.801 1616.13,991.801 1618.25,991.801 1620.36,991.801 1622.48,991.801 1624.6,991.801 1626.71,991.801 1628.83,991.801 1630.95,991.801 1633.06,991.801 
  1635.18,991.801 1637.3,991.801 1639.41,991.802 1641.53,991.802 1643.65,991.802 1645.76,991.802 1647.88,991.803 1650,991.803 1652.11,991.803 1654.23,991.803 
  1656.35,991.804 1658.46,991.804 1660.58,991.804 1662.7,991.805 1664.81,991.805 1666.93,991.805 1669.05,991.806 1671.16,991.806 1673.28,991.806 1675.4,991.807 
  1677.52,991.807 1679.63,991.807 1681.75,991.808 1683.87,991.808 1685.98,991.808 1688.1,991.809 1690.22,991.809 1692.33,991.809 1694.45,991.809 1696.57,991.81 
  1698.68,991.81 1700.8,991.81 1702.92,991.81 1705.03,991.811 1707.15,991.811 1709.27,991.811 1711.38,991.811 1713.5,991.811 1715.62,991.812 1717.73,991.812 
  1719.85,991.812 1721.97,991.812 1724.08,991.812 1726.2,991.812 1728.32,991.812 1730.43,991.812 1732.55,991.812 1734.67,991.812 1736.78,991.812 1738.9,991.812 
  1741.02,991.812 1743.13,991.812 1745.25,991.812 1747.37,991.812 1749.48,991.812 1751.6,991.812 1753.72,991.812 1755.83,991.811 1757.95,991.811 1760.07,991.811 
  1762.18,991.811 1764.3,991.811 1766.42,991.81 1768.53,991.81 1770.65,991.81 1772.77,991.809 1774.89,991.809 1777,991.809 1779.12,991.809 1781.24,991.808 
  1783.35,991.808 1785.47,991.807 1787.59,991.807 1789.7,991.807 1791.82,991.806 1793.94,991.806 1796.05,991.806 1798.17,991.805 1800.29,991.805 1802.4,991.804 
  1804.52,991.804 1806.64,991.803 1808.75,991.803 1810.87,991.803 1812.99,991.802 1815.1,991.802 1817.22,991.801 1819.34,991.801 1821.45,991.8 1823.57,991.8 
  1825.69,991.8 1827.8,991.799 1829.92,991.799 1832.04,991.798 1834.15,991.798 1836.27,991.798 1838.39,991.797 1840.5,991.797 1842.62,991.797 1844.74,991.796 
  1846.85,991.796 1848.97,991.796 1851.09,991.796 1853.2,991.795 1855.32,991.795 1857.44,991.795 1859.55,991.795 1861.67,991.795 1863.79,991.795 1865.91,991.795 
  1868.02,991.795 1870.14,991.795 1872.26,991.795 1874.37,991.795 1876.49,991.795 1878.61,991.796 1880.72,991.796 1882.84,991.796 1884.96,991.797 1887.07,991.798 
  1889.19,991.798 1891.31,991.799 1893.42,991.8 1895.54,991.801 1897.66,991.802 1899.77,991.803 1901.89,991.804 1904.01,991.805 1906.12,991.807 1908.24,991.808 
  1910.36,991.809 1912.47,991.811 1914.59,991.812 1916.71,991.813 1918.82,991.815 1920.94,991.816 1923.06,991.818 1925.17,991.819 1927.29,991.821 1929.41,991.822 
  1931.52,991.824 1933.64,991.825 1935.76,991.827 1937.87,991.828 1939.99,991.829 1942.11,991.831 1944.22,991.832 1946.34,991.833 1948.46,991.835 1950.57,991.836 
  1952.69,991.837 1954.81,991.838 1956.93,991.839 1959.04,991.84 1961.16,991.841 1963.28,991.842 1965.39,991.843 1967.51,991.844 1969.63,991.845 1971.74,991.846 
  1973.86,991.846 1975.98,991.847 1978.09,991.848 1980.21,991.848 1982.33,991.848 1984.44,991.849 1986.56,991.849 1988.68,991.849 1990.79,991.849 1992.91,991.849 
  1995.03,991.849 1997.14,991.849 1999.26,991.849 2001.38,991.849 2003.49,991.849 2005.61,991.848 2007.73,991.848 2009.84,991.847 2011.96,991.847 2014.08,991.846 
  2016.19,991.845 2018.31,991.845 2020.43,991.844 2022.54,991.843 2024.66,991.842 2026.78,991.841 2028.89,991.84 2031.01,991.838 2033.13,991.837 2035.24,991.836 
  2037.36,991.834 2039.48,991.833 2041.59,991.831 2043.71,991.83 2045.83,991.828 2047.94,991.827 2050.06,991.825 2052.18,991.823 2054.3,991.821 2056.41,991.819 
  2058.53,991.817 2060.65,991.816 2062.76,991.814 2064.88,991.812 2067,991.81 2069.11,991.808 2071.23,991.806 2073.35,991.803 2075.46,991.801 2077.58,991.799 
  2079.7,991.797 2081.81,991.795 2083.93,991.793 2086.05,991.791 2088.16,991.789 2090.28,991.787 2092.4,991.785 2094.51,991.783 2096.63,991.781 2098.75,991.779 
  2100.86,991.777 2102.98,991.775 2105.1,991.773 2107.21,991.772 2109.33,991.77 2111.45,991.768 2113.56,991.767 2115.68,991.765 2117.8,991.764 2119.91,991.763 
  2122.03,991.762 2124.15,991.76 2126.26,991.759 2128.38,991.759 2130.5,991.758 2132.61,991.757 2134.73,991.757 2136.85,991.756 2138.96,991.756 2141.08,991.756 
  2143.2,991.756 2145.32,991.757 2147.43,991.757 2149.55,991.758 2151.67,991.759 2153.78,991.76 2155.9,991.761 2158.02,991.762 2160.13,991.764 2162.25,991.766 
  2164.37,991.767 2166.48,991.769 2168.6,991.771 2170.72,991.773 2172.83,991.775 2174.95,991.776 2177.07,991.778 2179.18,991.78 2181.3,991.782 2183.42,991.784 
  2185.53,991.786 2187.65,991.788 2189.77,991.79 2191.88,991.792 2194,991.794 2196.12,991.796 2198.23,991.798 2200.35,991.799 2202.47,991.801 2204.58,991.803 
  2206.7,991.804 2208.82,991.806 2210.93,991.807 2213.05,991.809 2215.17,991.81 2217.28,991.811 2219.4,991.813 2221.52,991.814 2223.63,991.815 2225.75,991.816 
  2227.87,991.817 2229.98,991.817 2232.1,991.818 2234.22,991.819 2236.34,991.819 2238.45,991.82 2240.57,991.82 2242.69,991.82 2244.8,991.821 2246.92,991.821 
  2249.04,991.821 2251.15,991.821 2253.27,991.82 2255.39,991.82 2257.5,991.82 2259.62,991.819 2261.74,991.819 2263.85,991.818 2265.97,991.818 2268.09,991.817 
  2270.2,991.816 2272.32,991.815 2274.44,991.814 2276.55,991.813 2278.67,991.812 2280.79,991.811 2282.9,991.81 2285.02,991.809 2287.14,991.807 2289.25,991.806 
  2291.37,991.805 2293.49,991.803 2295.6,991.802 2297.72,991.8 2299.84,991.799 2301.95,991.797 2304.07,991.796 2306.19,991.795 2308.3,991.793 2310.42,991.792 
  2312.54,991.79 2314.65,991.789 2316.77,991.788 2318.89,991.786 2321,991.785 2323.12,991.784 2325.24,991.783 2327.35,991.782 2329.47,991.781 2331.59,991.78 
  2333.71,991.78 2335.82,991.779 2337.94,991.778 2340.06,991.778 2342.17,991.778 2344.29,991.778 2346.41,991.778 2348.52,991.778 2350.64,991.779 2352.76,991.78 
  
  "/>
<polyline clip-path="url(#clip362)" style="stroke:#e26f46; stroke-width:4; stroke-opacity:1; fill:none" points="
  238.13,1384.24 240.247,1384.19 242.364,1384.14 244.48,1384.1 246.597,1384.04 248.714,1383.99 250.831,1383.94 252.947,1383.88 255.064,1383.82 257.181,1383.76 
  259.297,1383.7 261.414,1383.63 263.531,1383.57 265.648,1383.5 267.764,1383.42 269.881,1383.35 271.998,1383.27 274.115,1383.19 276.231,1383.11 278.348,1383.03 
  280.465,1382.94 282.582,1382.85 284.698,1382.75 286.815,1382.65 288.932,1382.55 291.049,1382.45 293.165,1382.34 295.282,1382.23 297.399,1382.11 299.516,1381.99 
  301.632,1381.86 303.749,1381.74 305.866,1381.6 307.983,1381.46 310.099,1381.32 312.216,1381.17 314.333,1381.02 316.45,1380.86 318.566,1380.7 320.683,1380.53 
  322.8,1380.35 324.917,1380.17 327.033,1379.98 329.15,1379.79 331.267,1379.59 333.383,1379.38 335.5,1379.17 337.617,1378.94 339.734,1378.71 341.85,1378.47 
  343.967,1378.23 346.084,1377.97 348.201,1377.71 350.317,1377.44 352.434,1377.15 354.551,1376.86 356.668,1376.56 358.784,1376.25 360.901,1375.92 363.018,1375.59 
  365.135,1375.24 367.251,1374.89 369.368,1374.52 371.485,1374.13 373.602,1373.74 375.718,1373.33 377.835,1372.9 379.952,1372.47 382.069,1372.01 384.185,1371.55 
  386.302,1371.06 388.419,1370.56 390.536,1370.04 392.652,1369.51 394.769,1368.96 396.886,1368.39 399.002,1367.79 401.119,1367.18 403.236,1366.55 405.353,1365.9 
  407.469,1365.22 409.586,1364.53 411.703,1363.81 413.82,1363.06 415.936,1362.29 418.053,1361.5 420.17,1360.68 422.287,1359.83 424.403,1358.95 426.52,1358.04 
  428.637,1357.11 430.754,1356.14 432.87,1355.14 434.987,1354.11 437.104,1353.05 439.221,1351.95 441.337,1350.81 443.454,1349.64 445.571,1348.43 447.688,1347.19 
  449.804,1345.9 451.921,1344.57 454.038,1343.2 456.155,1341.78 458.271,1340.32 460.388,1338.81 462.505,1337.26 464.622,1335.66 466.738,1334 468.855,1332.3 
  470.972,1330.54 473.088,1328.73 475.205,1326.87 477.322,1324.94 479.439,1322.96 481.555,1320.92 483.672,1318.82 485.789,1316.65 487.906,1314.42 490.022,1312.13 
  492.139,1309.76 494.256,1307.33 496.373,1304.83 498.489,1302.25 500.606,1299.61 502.723,1296.89 504.84,1294.09 506.956,1291.21 509.073,1288.25 511.19,1285.21 
  513.307,1282.09 515.423,1278.88 517.54,1275.59 519.657,1272.21 521.774,1268.74 523.89,1265.18 526.007,1261.53 528.124,1257.79 530.241,1253.96 532.357,1250.02 
  534.474,1246 536.591,1241.87 538.708,1237.65 540.824,1233.33 542.941,1228.91 545.058,1224.38 547.174,1219.76 549.291,1215.03 551.408,1210.2 553.525,1205.27 
  555.641,1200.23 557.758,1195.09 559.875,1189.84 561.992,1184.49 564.108,1179.04 566.225,1173.48 568.342,1167.82 570.459,1162.06 572.575,1156.19 574.692,1150.23 
  576.809,1144.16 578.926,1138 581.042,1131.74 583.159,1125.38 585.276,1118.93 587.393,1112.39 589.509,1105.76 591.626,1099.03 593.743,1092.23 595.86,1085.34 
  597.976,1078.36 600.093,1071.32 602.21,1064.19 604.327,1056.99 606.443,1049.73 608.56,1042.4 610.677,1035 612.793,1027.55 614.91,1020.04 617.027,1012.48 
  619.144,1004.87 621.26,997.224 623.377,989.54 625.494,981.822 627.611,974.077 629.727,966.307 631.844,958.519 633.961,950.716 636.078,942.903 638.194,935.084 
  640.311,927.263 642.428,919.445 644.545,911.635 646.661,903.836 648.778,896.054 650.895,888.292 653.012,880.555 655.128,872.847 657.245,865.173 659.362,857.536 
  661.479,849.942 663.595,842.394 665.712,834.896 667.829,827.454 669.946,820.071 672.062,812.751 674.179,805.5 676.296,798.319 678.413,791.213 680.529,784.184 
  682.646,777.234 684.763,770.366 686.879,763.582 688.996,756.885 691.113,750.276 693.23,743.757 695.346,737.331 697.463,730.998 699.58,724.761 701.697,718.621 
  703.813,712.579 705.93,706.636 708.047,700.794 710.164,695.053 712.28,689.414 714.397,683.878 716.514,678.445 718.631,673.116 720.747,667.89 722.864,662.769 
  724.981,657.752 727.098,652.839 729.214,648.03 731.331,643.324 733.448,638.721 735.565,634.22 737.681,629.821 739.798,625.522 741.915,621.323 744.032,617.222 
  746.148,613.219 748.265,609.311 750.382,605.498 752.499,601.775 754.615,598.142 756.732,594.597 758.849,591.139 760.965,587.768 763.082,584.482 765.199,581.282 
  767.316,578.164 769.432,575.129 771.549,572.175 773.666,569.301 775.783,566.506 777.899,563.789 780.016,561.148 782.133,558.583 784.25,556.091 786.366,553.671 
  788.483,551.322 790.6,549.043 792.717,546.832 794.833,544.687 796.95,542.607 799.067,540.59 801.184,538.635 803.3,536.74 805.417,534.904 807.534,533.124 
  809.651,531.398 811.767,529.726 813.884,528.105 816.001,526.533 818.118,525.008 820.234,523.529 822.351,522.093 824.468,520.698 826.584,519.343 828.701,518.025 
  830.818,516.743 832.935,515.501 835.051,514.297 837.168,513.13 839.285,511.998 841.402,510.903 843.518,509.841 845.635,508.813 847.752,507.818 849.869,506.855 
  851.985,505.923 854.102,505.021 856.219,504.148 858.336,503.304 860.452,502.487 862.569,501.697 864.686,500.934 866.803,500.196 868.919,499.482 871.036,498.792 
  873.153,498.124 875.27,497.479 877.386,496.855 879.503,496.252 881.62,495.669 883.737,495.105 885.853,494.559 887.97,494.03 890.087,493.519 892.204,493.024 
  894.32,492.544 896.437,492.078 898.554,491.628 900.67,491.191 902.787,490.767 904.904,490.358 907.021,489.961 909.137,489.577 911.254,489.206 913.371,488.847 
  915.488,488.5 917.604,488.164 919.721,487.84 921.838,487.527 923.955,487.225 926.071,486.933 928.188,486.651 930.305,486.379 932.422,486.117 934.538,485.864 
  936.655,485.62 938.772,485.385 940.889,485.158 943.005,484.939 945.122,484.728 947.239,484.525 949.356,484.328 951.472,484.139 953.589,483.956 955.706,483.78 
  957.823,483.61 959.939,483.445 962.056,483.286 964.173,483.132 966.29,482.983 968.406,482.839 970.523,482.699 972.64,482.563 974.756,482.43 976.873,482.302 
  978.99,482.177 981.107,482.056 983.223,481.939 985.34,481.826 987.457,481.716 989.574,481.61 991.69,481.508 993.807,481.409 995.924,481.313 998.041,481.22 
  1000.16,481.131 1002.27,481.045 1004.39,480.962 1006.51,480.882 1008.62,480.804 1010.74,480.73 1012.86,480.658 1014.97,480.588 1017.09,480.522 1019.21,480.457 
  1021.32,480.395 1023.44,480.336 1025.56,480.278 1027.68,480.223 1029.79,480.169 1031.91,480.118 1034.03,480.068 1036.14,480.02 1038.26,479.974 1040.38,479.93 
  1042.49,479.887 1044.61,479.845 1046.73,479.805 1048.84,479.766 1050.96,479.729 1053.08,479.692 1055.19,479.656 1057.31,479.622 1059.43,479.588 1061.54,479.555 
  1063.66,479.523 1065.78,479.492 1067.89,479.462 1070.01,479.433 1072.13,479.405 1074.24,479.377 1076.36,479.35 1078.48,479.325 1080.59,479.3 1082.71,479.276 
  1084.83,479.253 1086.94,479.23 1089.06,479.209 1091.18,479.188 1093.29,479.168 1095.41,479.148 1097.53,479.13 1099.64,479.112 1101.76,479.094 1103.88,479.078 
  1105.99,479.062 1108.11,479.047 1110.23,479.032 1112.34,479.018 1114.46,479.005 1116.58,478.992 1118.69,478.98 1120.81,478.968 1122.93,478.957 1125.05,478.946 
  1127.16,478.936 1129.28,478.926 1131.4,478.916 1133.51,478.907 1135.63,478.898 1137.75,478.89 1139.86,478.882 1141.98,478.874 1144.1,478.866 1146.21,478.859 
  1148.33,478.852 1150.45,478.845 1152.56,478.838 1154.68,478.831 1156.8,478.825 1158.91,478.818 1161.03,478.812 1163.15,478.805 1165.26,478.799 1167.38,478.793 
  1169.5,478.787 1171.61,478.781 1173.73,478.775 1175.85,478.769 1177.96,478.764 1180.08,478.759 1182.2,478.754 1184.31,478.749 1186.43,478.744 1188.55,478.739 
  1190.66,478.735 1192.78,478.73 1194.9,478.726 1197.01,478.722 1199.13,478.718 1201.25,478.715 1203.36,478.711 1205.48,478.708 1207.6,478.704 1209.71,478.701 
  1211.83,478.698 1213.95,478.695 1216.07,478.693 1218.18,478.69 1220.3,478.688 1222.42,478.685 1224.53,478.683 1226.65,478.681 1228.77,478.679 1230.88,478.677 
  1233,478.675 1235.12,478.674 1237.23,478.672 1239.35,478.671 1241.47,478.669 1243.58,478.668 1245.7,478.667 1247.82,478.666 1249.93,478.664 1252.05,478.663 
  1254.17,478.662 1256.28,478.661 1258.4,478.661 1260.52,478.66 1262.63,478.659 1264.75,478.658 1266.87,478.657 1268.98,478.656 1271.1,478.655 1273.22,478.655 
  1275.33,478.654 1277.45,478.653 1279.57,478.652 1281.68,478.651 1283.8,478.65 1285.92,478.649 1288.03,478.648 1290.15,478.647 1292.27,478.645 1294.38,478.644 
  1296.5,478.643 1298.62,478.642 1300.73,478.642 1302.85,478.641 1304.97,478.64 1307.09,478.639 1309.2,478.638 1311.32,478.637 1313.44,478.636 1315.55,478.635 
  1317.67,478.635 1319.79,478.634 1321.9,478.633 1324.02,478.632 1326.14,478.632 1328.25,478.631 1330.37,478.63 1332.49,478.63 1334.6,478.629 1336.72,478.629 
  1338.84,478.628 1340.95,478.628 1343.07,478.627 1345.19,478.627 1347.3,478.627 1349.42,478.626 1351.54,478.626 1353.65,478.626 1355.77,478.625 1357.89,478.625 
  1360,478.625 1362.12,478.625 1364.24,478.625 1366.35,478.625 1368.47,478.624 1370.59,478.624 1372.7,478.624 1374.82,478.624 1376.94,478.624 1379.05,478.624 
  1381.17,478.624 1383.29,478.624 1385.4,478.625 1387.52,478.625 1389.64,478.625 1391.75,478.625 1393.87,478.625 1395.99,478.625 1398.1,478.625 1400.22,478.625 
  1402.34,478.625 1404.46,478.626 1406.57,478.626 1408.69,478.626 1410.81,478.626 1412.92,478.626 1415.04,478.626 1417.16,478.626 1419.27,478.626 1421.39,478.626 
  1423.51,478.626 1425.62,478.626 1427.74,478.626 1429.86,478.626 1431.97,478.626 1434.09,478.626 1436.21,478.626 1438.32,478.625 1440.44,478.625 1442.56,478.625 
  1444.67,478.625 1446.79,478.624 1448.91,478.624 1451.02,478.624 1453.14,478.624 1455.26,478.623 1457.37,478.623 1459.49,478.623 1461.61,478.623 1463.72,478.622 
  1465.84,478.622 1467.96,478.622 1470.07,478.622 1472.19,478.621 1474.31,478.621 1476.42,478.621 1478.54,478.621 1480.66,478.621 1482.77,478.62 1484.89,478.62 
  1487.01,478.62 1489.12,478.62 1491.24,478.62 1493.36,478.619 1495.48,478.619 1497.59,478.619 1499.71,478.619 1501.83,478.619 1503.94,478.619 1506.06,478.619 
  1508.18,478.618 1510.29,478.618 1512.41,478.618 1514.53,478.618 1516.64,478.618 1518.76,478.618 1520.88,478.618 1522.99,478.618 1525.11,478.618 1527.23,478.618 
  1529.34,478.618 1531.46,478.618 1533.58,478.618 1535.69,478.618 1537.81,478.618 1539.93,478.618 1542.04,478.618 1544.16,478.619 1546.28,478.619 1548.39,478.619 
  1550.51,478.619 1552.63,478.619 1554.74,478.619 1556.86,478.619 1558.98,478.619 1561.09,478.62 1563.21,478.62 1565.33,478.62 1567.44,478.62 1569.56,478.62 
  1571.68,478.62 1573.79,478.621 1575.91,478.621 1578.03,478.621 1580.14,478.621 1582.26,478.621 1584.38,478.621 1586.5,478.622 1588.61,478.622 1590.73,478.622 
  1592.85,478.622 1594.96,478.622 1597.08,478.623 1599.2,478.623 1601.31,478.623 1603.43,478.623 1605.55,478.623 1607.66,478.623 1609.78,478.623 1611.9,478.623 
  1614.01,478.623 1616.13,478.623 1618.25,478.623 1620.36,478.623 1622.48,478.623 1624.6,478.623 1626.71,478.623 1628.83,478.623 1630.95,478.623 1633.06,478.623 
  1635.18,478.623 1637.3,478.623 1639.41,478.622 1641.53,478.622 1643.65,478.622 1645.76,478.622 1647.88,478.621 1650,478.621 1652.11,478.621 1654.23,478.621 
  1656.35,478.62 1658.46,478.62 1660.58,478.62 1662.7,478.619 1664.81,478.619 1666.93,478.619 1669.05,478.618 1671.16,478.618 1673.28,478.618 1675.4,478.617 
  1677.52,478.617 1679.63,478.617 1681.75,478.616 1683.87,478.616 1685.98,478.616 1688.1,478.615 1690.22,478.615 1692.33,478.615 1694.45,478.614 1696.57,478.614 
  1698.68,478.614 1700.8,478.614 1702.92,478.613 1705.03,478.613 1707.15,478.613 1709.27,478.613 1711.38,478.613 1713.5,478.612 1715.62,478.612 1717.73,478.612 
  1719.85,478.612 1721.97,478.612 1724.08,478.612 1726.2,478.612 1728.32,478.612 1730.43,478.612 1732.55,478.612 1734.67,478.612 1736.78,478.612 1738.9,478.612 
  1741.02,478.612 1743.13,478.612 1745.25,478.612 1747.37,478.612 1749.48,478.612 1751.6,478.612 1753.72,478.612 1755.83,478.613 1757.95,478.613 1760.07,478.613 
  1762.18,478.613 1764.3,478.613 1766.42,478.614 1768.53,478.614 1770.65,478.614 1772.77,478.614 1774.89,478.615 1777,478.615 1779.12,478.615 1781.24,478.616 
  1783.35,478.616 1785.47,478.616 1787.59,478.617 1789.7,478.617 1791.82,478.618 1793.94,478.618 1796.05,478.618 1798.17,478.619 1800.29,478.619 1802.4,478.62 
  1804.52,478.62 1806.64,478.621 1808.75,478.621 1810.87,478.621 1812.99,478.622 1815.1,478.622 1817.22,478.623 1819.34,478.623 1821.45,478.624 1823.57,478.624 
  1825.69,478.624 1827.8,478.625 1829.92,478.625 1832.04,478.626 1834.15,478.626 1836.27,478.626 1838.39,478.627 1840.5,478.627 1842.62,478.627 1844.74,478.628 
  1846.85,478.628 1848.97,478.628 1851.09,478.628 1853.2,478.628 1855.32,478.629 1857.44,478.629 1859.55,478.629 1861.67,478.629 1863.79,478.629 1865.91,478.629 
  1868.02,478.629 1870.14,478.629 1872.26,478.629 1874.37,478.629 1876.49,478.628 1878.61,478.628 1880.72,478.628 1882.84,478.628 1884.96,478.627 1887.07,478.626 
  1889.19,478.626 1891.31,478.625 1893.42,478.624 1895.54,478.623 1897.66,478.622 1899.77,478.621 1901.89,478.62 1904.01,478.619 1906.12,478.617 1908.24,478.616 
  1910.36,478.615 1912.47,478.613 1914.59,478.612 1916.71,478.61 1918.82,478.609 1920.94,478.608 1923.06,478.606 1925.17,478.605 1927.29,478.603 1929.41,478.602 
  1931.52,478.6 1933.64,478.599 1935.76,478.597 1937.87,478.596 1939.99,478.595 1942.11,478.593 1944.22,478.592 1946.34,478.591 1948.46,478.589 1950.57,478.588 
  1952.69,478.587 1954.81,478.586 1956.93,478.585 1959.04,478.584 1961.16,478.583 1963.28,478.582 1965.39,478.581 1967.51,478.58 1969.63,478.579 1971.74,478.578 
  1973.86,478.578 1975.98,478.577 1978.09,478.576 1980.21,478.576 1982.33,478.576 1984.44,478.575 1986.56,478.575 1988.68,478.575 1990.79,478.575 1992.91,478.574 
  1995.03,478.574 1997.14,478.575 1999.26,478.575 2001.38,478.575 2003.49,478.575 2005.61,478.576 2007.73,478.576 2009.84,478.577 2011.96,478.577 2014.08,478.578 
  2016.19,478.579 2018.31,478.579 2020.43,478.58 2022.54,478.581 2024.66,478.582 2026.78,478.583 2028.89,478.584 2031.01,478.586 2033.13,478.587 2035.24,478.588 
  2037.36,478.59 2039.48,478.591 2041.59,478.593 2043.71,478.594 2045.83,478.596 2047.94,478.597 2050.06,478.599 2052.18,478.601 2054.3,478.603 2056.41,478.605 
  2058.53,478.606 2060.65,478.608 2062.76,478.61 2064.88,478.612 2067,478.614 2069.11,478.616 2071.23,478.618 2073.35,478.62 2075.46,478.623 2077.58,478.625 
  2079.7,478.627 2081.81,478.629 2083.93,478.631 2086.05,478.633 2088.16,478.635 2090.28,478.637 2092.4,478.639 2094.51,478.641 2096.63,478.643 2098.75,478.645 
  2100.86,478.647 2102.98,478.649 2105.1,478.651 2107.21,478.652 2109.33,478.654 2111.45,478.656 2113.56,478.657 2115.68,478.659 2117.8,478.66 2119.91,478.661 
  2122.03,478.662 2124.15,478.664 2126.26,478.664 2128.38,478.665 2130.5,478.666 2132.61,478.667 2134.73,478.667 2136.85,478.668 2138.96,478.668 2141.08,478.668 
  2143.2,478.668 2145.32,478.667 2147.43,478.667 2149.55,478.666 2151.67,478.665 2153.78,478.664 2155.9,478.663 2158.02,478.662 2160.13,478.66 2162.25,478.658 
  2164.37,478.657 2166.48,478.655 2168.6,478.653 2170.72,478.651 2172.83,478.649 2174.95,478.647 2177.07,478.646 2179.18,478.644 2181.3,478.642 2183.42,478.64 
  2185.53,478.638 2187.65,478.636 2189.77,478.634 2191.88,478.632 2194,478.63 2196.12,478.628 2198.23,478.626 2200.35,478.625 2202.47,478.623 2204.58,478.621 
  2206.7,478.62 2208.82,478.618 2210.93,478.617 2213.05,478.615 2215.17,478.614 2217.28,478.613 2219.4,478.611 2221.52,478.61 2223.63,478.609 2225.75,478.608 
  2227.87,478.607 2229.98,478.607 2232.1,478.606 2234.22,478.605 2236.34,478.605 2238.45,478.604 2240.57,478.604 2242.69,478.604 2244.8,478.603 2246.92,478.603 
  2249.04,478.603 2251.15,478.603 2253.27,478.604 2255.39,478.604 2257.5,478.604 2259.62,478.605 2261.74,478.605 2263.85,478.606 2265.97,478.606 2268.09,478.607 
  2270.2,478.608 2272.32,478.609 2274.44,478.61 2276.55,478.611 2278.67,478.612 2280.79,478.613 2282.9,478.614 2285.02,478.615 2287.14,478.617 2289.25,478.618 
  2291.37,478.619 2293.49,478.621 2295.6,478.622 2297.72,478.624 2299.84,478.625 2301.95,478.626 2304.07,478.628 2306.19,478.629 2308.3,478.631 2310.42,478.632 
  2312.54,478.634 2314.65,478.635 2316.77,478.636 2318.89,478.638 2321,478.639 2323.12,478.64 2325.24,478.641 2327.35,478.642 2329.47,478.643 2331.59,478.644 
  2333.71,478.644 2335.82,478.645 2337.94,478.645 2340.06,478.646 2342.17,478.646 2344.29,478.646 2346.41,478.646 2348.52,478.645 2350.64,478.645 2352.76,478.644 
  
  "/>
<path clip-path="url(#clip360)" d="
M1813.05 274.549 L2282.27 274.549 L2282.27 93.1086 L1813.05 93.1086  Z
  " fill="#ffffff" fill-rule="evenodd" fill-opacity="1"/>
<polyline clip-path="url(#clip360)" style="stroke:#000000; stroke-width:4; stroke-opacity:1; fill:none" points="
  1813.05,274.549 2282.27,274.549 2282.27,93.1086 1813.05,93.1086 1813.05,274.549 
  "/>
<polyline clip-path="url(#clip360)" style="stroke:#009af9; stroke-width:4; stroke-opacity:1; fill:none" points="
  1836.55,153.589 1977.52,153.589 
  "/>
<path clip-path="url(#clip360)" d="M 0 0 M2019.44 145.707 L2019.44 149.734 Q2017.64 148.809 2015.69 148.346 Q2013.75 147.883 2011.67 147.883 Q2008.5 147.883 2006.9 148.855 Q2005.32 149.827 2005.32 151.771 Q2005.32 153.253 2006.46 154.109 Q2007.59 154.943 2011.02 155.707 L2012.48 156.031 Q2017.01 157.003 2018.91 158.785 Q2020.83 160.545 2020.83 163.716 Q2020.83 167.327 2017.96 169.433 Q2015.12 171.54 2010.12 171.54 Q2008.03 171.54 2005.76 171.123 Q2003.52 170.73 2001.02 169.92 L2001.02 165.521 Q2003.38 166.748 2005.67 167.373 Q2007.96 167.975 2010.21 167.975 Q2013.22 167.975 2014.84 166.957 Q2016.46 165.915 2016.46 164.04 Q2016.46 162.304 2015.28 161.378 Q2014.12 160.452 2010.16 159.596 L2008.68 159.248 Q2004.72 158.415 2002.96 156.702 Q2001.2 154.966 2001.2 151.957 Q2001.2 148.299 2003.8 146.309 Q2006.39 144.318 2011.16 144.318 Q2013.52 144.318 2015.6 144.665 Q2017.69 145.012 2019.44 145.707 Z" fill="#000000" fill-rule="evenodd" fill-opacity="1" /><path clip-path="url(#clip360)" d="M 0 0 M2024.86 160.637 L2024.86 144.943 L2029.12 144.943 L2029.12 160.475 Q2029.12 164.156 2030.56 166.008 Q2031.99 167.836 2034.86 167.836 Q2038.31 167.836 2040.3 165.637 Q2042.31 163.438 2042.31 159.642 L2042.31 144.943 L2046.57 144.943 L2046.57 170.869 L2042.31 170.869 L2042.31 166.887 Q2040.76 169.248 2038.7 170.406 Q2036.67 171.54 2033.96 171.54 Q2029.49 171.54 2027.18 168.762 Q2024.86 165.984 2024.86 160.637 M2035.58 144.318 L2035.58 144.318 Z" fill="#000000" fill-rule="evenodd" fill-opacity="1" /><path clip-path="url(#clip360)" d="M 0 0 M2067.57 145.707 L2067.57 149.734 Q2065.76 148.809 2063.82 148.346 Q2061.87 147.883 2059.79 147.883 Q2056.62 147.883 2055.02 148.855 Q2053.45 149.827 2053.45 151.771 Q2053.45 153.253 2054.58 154.109 Q2055.72 154.943 2059.14 155.707 L2060.6 156.031 Q2065.14 157.003 2067.04 158.785 Q2068.96 160.545 2068.96 163.716 Q2068.96 167.327 2066.09 169.433 Q2063.24 171.54 2058.24 171.54 Q2056.16 171.54 2053.89 171.123 Q2051.64 170.73 2049.14 169.92 L2049.14 165.521 Q2051.5 166.748 2053.8 167.373 Q2056.09 167.975 2058.33 167.975 Q2061.34 167.975 2062.96 166.957 Q2064.58 165.915 2064.58 164.04 Q2064.58 162.304 2063.4 161.378 Q2062.25 160.452 2058.29 159.596 L2056.81 159.248 Q2052.85 158.415 2051.09 156.702 Q2049.33 154.966 2049.33 151.957 Q2049.33 148.299 2051.92 146.309 Q2054.51 144.318 2059.28 144.318 Q2061.64 144.318 2063.73 144.665 Q2065.81 145.012 2067.57 145.707 Z" fill="#000000" fill-rule="evenodd" fill-opacity="1" /><path clip-path="url(#clip360)" d="M 0 0 M2092.08 145.938 L2092.08 149.92 Q2090.28 148.924 2088.45 148.438 Q2086.64 147.929 2084.79 147.929 Q2080.65 147.929 2078.36 150.568 Q2076.06 153.184 2076.06 157.929 Q2076.06 162.674 2078.36 165.313 Q2080.65 167.929 2084.79 167.929 Q2086.64 167.929 2088.45 167.443 Q2090.28 166.933 2092.08 165.938 L2092.08 169.873 Q2090.3 170.707 2088.38 171.123 Q2086.48 171.54 2084.33 171.54 Q2078.47 171.54 2075.02 167.859 Q2071.57 164.179 2071.57 157.929 Q2071.57 151.586 2075.05 147.952 Q2078.54 144.318 2084.61 144.318 Q2086.57 144.318 2088.45 144.735 Q2090.32 145.128 2092.08 145.938 Z" fill="#000000" fill-rule="evenodd" fill-opacity="1" /><path clip-path="url(#clip360)" d="M 0 0 M2118.73 156.841 L2118.73 158.924 L2099.14 158.924 Q2099.42 163.322 2101.78 165.637 Q2104.17 167.929 2108.4 167.929 Q2110.86 167.929 2113.15 167.327 Q2115.46 166.725 2117.73 165.521 L2117.73 169.549 Q2115.44 170.521 2113.03 171.031 Q2110.62 171.54 2108.15 171.54 Q2101.94 171.54 2098.31 167.929 Q2094.7 164.318 2094.7 158.16 Q2094.7 151.795 2098.12 148.068 Q2101.57 144.318 2107.41 144.318 Q2112.64 144.318 2115.67 147.697 Q2118.73 151.054 2118.73 156.841 M2114.47 155.591 Q2114.42 152.096 2112.5 150.012 Q2110.6 147.929 2107.45 147.929 Q2103.89 147.929 2101.74 149.943 Q2099.61 151.957 2099.28 155.614 L2114.47 155.591 Z" fill="#000000" fill-rule="evenodd" fill-opacity="1" /><path clip-path="url(#clip360)" d="M 0 0 M2127.31 166.98 L2127.31 180.73 L2123.03 180.73 L2123.03 144.943 L2127.31 144.943 L2127.31 148.878 Q2128.66 146.563 2130.69 145.452 Q2132.75 144.318 2135.6 144.318 Q2140.32 144.318 2143.26 148.068 Q2146.23 151.818 2146.23 157.929 Q2146.23 164.04 2143.26 167.79 Q2140.32 171.54 2135.6 171.54 Q2132.75 171.54 2130.69 170.429 Q2128.66 169.295 2127.31 166.98 M2141.8 157.929 Q2141.8 153.23 2139.86 150.568 Q2137.94 147.883 2134.56 147.883 Q2131.18 147.883 2129.24 150.568 Q2127.31 153.23 2127.31 157.929 Q2127.31 162.628 2129.24 165.313 Q2131.18 167.975 2134.56 167.975 Q2137.94 167.975 2139.86 165.313 Q2141.8 162.628 2141.8 157.929 Z" fill="#000000" fill-rule="evenodd" fill-opacity="1" /><path clip-path="url(#clip360)" d="M 0 0 M2154.91 137.582 L2154.91 144.943 L2163.68 144.943 L2163.68 148.253 L2154.91 148.253 L2154.91 162.327 Q2154.91 165.498 2155.76 166.401 Q2156.64 167.304 2159.3 167.304 L2163.68 167.304 L2163.68 170.869 L2159.3 170.869 Q2154.37 170.869 2152.5 169.04 Q2150.62 167.188 2150.62 162.327 L2150.62 148.253 L2147.5 148.253 L2147.5 144.943 L2150.62 144.943 L2150.62 137.582 L2154.91 137.582 Z" fill="#000000" fill-rule="evenodd" fill-opacity="1" /><path clip-path="url(#clip360)" d="M 0 0 M2168.15 144.943 L2172.41 144.943 L2172.41 170.869 L2168.15 170.869 L2168.15 144.943 M2168.15 134.85 L2172.41 134.85 L2172.41 140.244 L2168.15 140.244 L2168.15 134.85 Z" fill="#000000" fill-rule="evenodd" fill-opacity="1" /><path clip-path="url(#clip360)" d="M 0 0 M2195.49 157.929 Q2195.49 153.23 2193.54 150.568 Q2191.62 147.883 2188.24 147.883 Q2184.86 147.883 2182.92 150.568 Q2180.99 153.23 2180.99 157.929 Q2180.99 162.628 2182.92 165.313 Q2184.86 167.975 2188.24 167.975 Q2191.62 167.975 2193.54 165.313 Q2195.49 162.628 2195.49 157.929 M2180.99 148.878 Q2182.34 146.563 2184.37 145.452 Q2186.43 144.318 2189.28 144.318 Q2194 144.318 2196.94 148.068 Q2199.91 151.818 2199.91 157.929 Q2199.91 164.04 2196.94 167.79 Q2194 171.54 2189.28 171.54 Q2186.43 171.54 2184.37 170.429 Q2182.34 169.295 2180.99 166.98 L2180.99 170.869 L2176.71 170.869 L2176.71 134.85 L2180.99 134.85 L2180.99 148.878 Z" fill="#000000" fill-rule="evenodd" fill-opacity="1" /><path clip-path="url(#clip360)" d="M 0 0 M2204.37 134.85 L2208.63 134.85 L2208.63 170.869 L2204.37 170.869 L2204.37 134.85 Z" fill="#000000" fill-rule="evenodd" fill-opacity="1" /><path clip-path="url(#clip360)" d="M 0 0 M2235.28 156.841 L2235.28 158.924 L2215.69 158.924 Q2215.97 163.322 2218.33 165.637 Q2220.72 167.929 2224.95 167.929 Q2227.41 167.929 2229.7 167.327 Q2232.01 166.725 2234.28 165.521 L2234.28 169.549 Q2231.99 170.521 2229.58 171.031 Q2227.17 171.54 2224.7 171.54 Q2218.49 171.54 2214.86 167.929 Q2211.25 164.318 2211.25 158.16 Q2211.25 151.795 2214.67 148.068 Q2218.12 144.318 2223.96 144.318 Q2229.19 144.318 2232.22 147.697 Q2235.28 151.054 2235.28 156.841 M2231.02 155.591 Q2230.97 152.096 2229.05 150.012 Q2227.15 147.929 2224 147.929 Q2220.44 147.929 2218.29 149.943 Q2216.16 151.957 2215.83 155.614 L2231.02 155.591 Z" fill="#000000" fill-rule="evenodd" fill-opacity="1" /><polyline clip-path="url(#clip360)" style="stroke:#e26f46; stroke-width:4; stroke-opacity:1; fill:none" points="
  1836.55,214.069 1977.52,214.069 
  "/>
<path clip-path="url(#clip360)" d="M 0 0 M2001.02 205.423 L2005.28 205.423 L2005.28 231.349 L2001.02 231.349 L2001.02 205.423 M2001.02 195.33 L2005.28 195.33 L2005.28 200.724 L2001.02 200.724 L2001.02 195.33 Z" fill="#000000" fill-rule="evenodd" fill-opacity="1" /><path clip-path="url(#clip360)" d="M 0 0 M2031.3 215.701 L2031.3 231.349 L2027.04 231.349 L2027.04 215.839 Q2027.04 212.159 2025.6 210.33 Q2024.17 208.502 2021.3 208.502 Q2017.85 208.502 2015.86 210.701 Q2013.87 212.9 2013.87 216.696 L2013.87 231.349 L2009.58 231.349 L2009.58 205.423 L2013.87 205.423 L2013.87 209.451 Q2015.39 207.113 2017.45 205.955 Q2019.54 204.798 2022.25 204.798 Q2026.71 204.798 2029 207.576 Q2031.3 210.33 2031.3 215.701 Z" fill="#000000" fill-rule="evenodd" fill-opacity="1" /><path clip-path="url(#clip360)" d="M 0 0 M2048.89 195.33 L2048.89 198.872 L2044.81 198.872 Q2042.52 198.872 2041.62 199.798 Q2040.74 200.724 2040.74 203.131 L2040.74 205.423 L2047.75 205.423 L2047.75 208.733 L2040.74 208.733 L2040.74 231.349 L2036.46 231.349 L2036.46 208.733 L2032.38 208.733 L2032.38 205.423 L2036.46 205.423 L2036.46 203.617 Q2036.46 199.289 2038.47 197.321 Q2040.49 195.33 2044.86 195.33 L2048.89 195.33 Z" fill="#000000" fill-rule="evenodd" fill-opacity="1" /><path clip-path="url(#clip360)" d="M 0 0 M2075.53 217.321 L2075.53 219.404 L2055.95 219.404 Q2056.23 223.802 2058.59 226.117 Q2060.97 228.409 2065.21 228.409 Q2067.66 228.409 2069.95 227.807 Q2072.27 227.205 2074.54 226.001 L2074.54 230.029 Q2072.25 231.001 2069.84 231.511 Q2067.43 232.02 2064.95 232.02 Q2058.75 232.02 2055.12 228.409 Q2051.5 224.798 2051.5 218.64 Q2051.5 212.275 2054.93 208.548 Q2058.38 204.798 2064.21 204.798 Q2069.44 204.798 2072.48 208.177 Q2075.53 211.534 2075.53 217.321 M2071.27 216.071 Q2071.23 212.576 2069.31 210.492 Q2067.41 208.409 2064.26 208.409 Q2060.69 208.409 2058.54 210.423 Q2056.41 212.437 2056.09 216.094 L2071.27 216.071 Z" fill="#000000" fill-rule="evenodd" fill-opacity="1" /><path clip-path="url(#clip360)" d="M 0 0 M2098.66 206.418 L2098.66 210.4 Q2096.85 209.404 2095.02 208.918 Q2093.22 208.409 2091.37 208.409 Q2087.22 208.409 2084.93 211.048 Q2082.64 213.664 2082.64 218.409 Q2082.64 223.154 2084.93 225.793 Q2087.22 228.409 2091.37 228.409 Q2093.22 228.409 2095.02 227.923 Q2096.85 227.413 2098.66 226.418 L2098.66 230.353 Q2096.87 231.187 2094.95 231.603 Q2093.06 232.02 2090.9 232.02 Q2085.05 232.02 2081.6 228.339 Q2078.15 224.659 2078.15 218.409 Q2078.15 212.066 2081.62 208.432 Q2085.12 204.798 2091.18 204.798 Q2093.15 204.798 2095.02 205.215 Q2096.9 205.608 2098.66 206.418 Z" fill="#000000" fill-rule="evenodd" fill-opacity="1" /><path clip-path="url(#clip360)" d="M 0 0 M2107.34 198.062 L2107.34 205.423 L2116.11 205.423 L2116.11 208.733 L2107.34 208.733 L2107.34 222.807 Q2107.34 225.978 2108.19 226.881 Q2109.07 227.784 2111.74 227.784 L2116.11 227.784 L2116.11 231.349 L2111.74 231.349 Q2106.81 231.349 2104.93 229.52 Q2103.06 227.668 2103.06 222.807 L2103.06 208.733 L2099.93 208.733 L2099.93 205.423 L2103.06 205.423 L2103.06 198.062 L2107.34 198.062 Z" fill="#000000" fill-rule="evenodd" fill-opacity="1" /><path clip-path="url(#clip360)" d="M 0 0 M2142.75 217.321 L2142.75 219.404 L2123.17 219.404 Q2123.45 223.802 2125.81 226.117 Q2128.19 228.409 2132.43 228.409 Q2134.88 228.409 2137.18 227.807 Q2139.49 227.205 2141.76 226.001 L2141.76 230.029 Q2139.47 231.001 2137.06 231.511 Q2134.65 232.02 2132.18 232.02 Q2125.97 232.02 2122.34 228.409 Q2118.73 224.798 2118.73 218.64 Q2118.73 212.275 2122.15 208.548 Q2125.6 204.798 2131.43 204.798 Q2136.67 204.798 2139.7 208.177 Q2142.75 211.534 2142.75 217.321 M2138.49 216.071 Q2138.45 212.576 2136.53 210.492 Q2134.63 208.409 2131.48 208.409 Q2127.92 208.409 2125.76 210.423 Q2123.63 212.437 2123.31 216.094 L2138.49 216.071 Z" fill="#000000" fill-rule="evenodd" fill-opacity="1" /><path clip-path="url(#clip360)" d="M 0 0 M2164.28 209.358 L2164.28 195.33 L2168.54 195.33 L2168.54 231.349 L2164.28 231.349 L2164.28 227.46 Q2162.94 229.775 2160.88 230.909 Q2158.84 232.02 2155.97 232.02 Q2151.27 232.02 2148.31 228.27 Q2145.37 224.52 2145.37 218.409 Q2145.37 212.298 2148.31 208.548 Q2151.27 204.798 2155.97 204.798 Q2158.84 204.798 2160.88 205.932 Q2162.94 207.043 2164.28 209.358 M2149.77 218.409 Q2149.77 223.108 2151.69 225.793 Q2153.63 228.455 2157.01 228.455 Q2160.39 228.455 2162.34 225.793 Q2164.28 223.108 2164.28 218.409 Q2164.28 213.71 2162.34 211.048 Q2160.39 208.363 2157.01 208.363 Q2153.63 208.363 2151.69 211.048 Q2149.77 213.71 2149.77 218.409 Z" fill="#000000" fill-rule="evenodd" fill-opacity="1" /></svg>
