<?xml version="1.0" encoding="utf-8"?>
<svg xmlns="http://www.w3.org/2000/svg" xmlns:xlink="http://www.w3.org/1999/xlink" width="600" height="400" viewBox="0 0 2400 1600">
<defs>
  <clipPath id="clip560">
    <rect x="0" y="0" width="2400" height="1600"/>
  </clipPath>
</defs>
<path clip-path="url(#clip560)" d="
M0 1600 L2400 1600 L2400 0 L0 0  Z
  " fill="#ffffff" fill-rule="evenodd" fill-opacity="1"/>
<defs>
  <clipPath id="clip561">
    <rect x="480" y="0" width="1681" height="1600"/>
  </clipPath>
</defs>
<path clip-path="url(#clip560)" d="
M174.862 1486.45 L2352.76 1486.45 L2352.76 47.2441 L174.862 47.2441  Z
  " fill="#ffffff" fill-rule="evenodd" fill-opacity="1"/>
<defs>
  <clipPath id="clip562">
    <rect x="174" y="47" width="2179" height="1440"/>
  </clipPath>
</defs>
<polyline clip-path="url(#clip562)" style="stroke:#000000; stroke-width:2; stroke-opacity:0.1; fill:none" points="
  232.383,1486.45 232.383,47.2441 
  "/>
<polyline clip-path="url(#clip562)" style="stroke:#000000; stroke-width:2; stroke-opacity:0.1; fill:none" points="
  644.13,1486.45 644.13,47.2441 
  "/>
<polyline clip-path="url(#clip562)" style="stroke:#000000; stroke-width:2; stroke-opacity:0.1; fill:none" points="
  1055.88,1486.45 1055.88,47.2441 
  "/>
<polyline clip-path="url(#clip562)" style="stroke:#000000; stroke-width:2; stroke-opacity:0.1; fill:none" points="
  1467.62,1486.45 1467.62,47.2441 
  "/>
<polyline clip-path="url(#clip562)" style="stroke:#000000; stroke-width:2; stroke-opacity:0.1; fill:none" points="
  1879.37,1486.45 1879.37,47.2441 
  "/>
<polyline clip-path="url(#clip562)" style="stroke:#000000; stroke-width:2; stroke-opacity:0.1; fill:none" points="
  2291.12,1486.45 2291.12,47.2441 
  "/>
<polyline clip-path="url(#clip560)" style="stroke:#000000; stroke-width:4; stroke-opacity:1; fill:none" points="
  174.862,1486.45 2352.76,1486.45 
  "/>
<polyline clip-path="url(#clip560)" style="stroke:#000000; stroke-width:4; stroke-opacity:1; fill:none" points="
  232.383,1486.45 232.383,1469.18 
  "/>
<polyline clip-path="url(#clip560)" style="stroke:#000000; stroke-width:4; stroke-opacity:1; fill:none" points="
  644.13,1486.45 644.13,1469.18 
  "/>
<polyline clip-path="url(#clip560)" style="stroke:#000000; stroke-width:4; stroke-opacity:1; fill:none" points="
  1055.88,1486.45 1055.88,1469.18 
  "/>
<polyline clip-path="url(#clip560)" style="stroke:#000000; stroke-width:4; stroke-opacity:1; fill:none" points="
  1467.62,1486.45 1467.62,1469.18 
  "/>
<polyline clip-path="url(#clip560)" style="stroke:#000000; stroke-width:4; stroke-opacity:1; fill:none" points="
  1879.37,1486.45 1879.37,1469.18 
  "/>
<polyline clip-path="url(#clip560)" style="stroke:#000000; stroke-width:4; stroke-opacity:1; fill:none" points="
  2291.12,1486.45 2291.12,1469.18 
  "/>
<path clip-path="url(#clip560)" d="M 0 0 M232.383 1515.64 Q228.772 1515.64 226.943 1519.2 Q225.138 1522.75 225.138 1529.87 Q225.138 1536.98 226.943 1540.55 Q228.772 1544.09 232.383 1544.09 Q236.017 1544.09 237.823 1540.55 Q239.652 1536.98 239.652 1529.87 Q239.652 1522.75 237.823 1519.2 Q236.017 1515.64 232.383 1515.64 M232.383 1511.93 Q238.193 1511.93 241.249 1516.54 Q244.327 1521.12 244.327 1529.87 Q244.327 1538.6 241.249 1543.21 Q238.193 1547.79 232.383 1547.79 Q226.573 1547.79 223.494 1543.21 Q220.439 1538.6 220.439 1529.87 Q220.439 1521.12 223.494 1516.54 Q226.573 1511.93 232.383 1511.93 Z" fill="#000000" fill-rule="evenodd" fill-opacity="1" /><path clip-path="url(#clip560)" d="M 0 0 M607.498 1543.18 L615.137 1543.18 L615.137 1516.82 L606.827 1518.49 L606.827 1514.23 L615.091 1512.56 L619.767 1512.56 L619.767 1543.18 L627.405 1543.18 L627.405 1547.12 L607.498 1547.12 L607.498 1543.18 Z" fill="#000000" fill-rule="evenodd" fill-opacity="1" /><path clip-path="url(#clip560)" d="M 0 0 M642.475 1515.64 Q638.864 1515.64 637.035 1519.2 Q635.23 1522.75 635.23 1529.87 Q635.23 1536.98 637.035 1540.55 Q638.864 1544.09 642.475 1544.09 Q646.109 1544.09 647.915 1540.55 Q649.743 1536.98 649.743 1529.87 Q649.743 1522.75 647.915 1519.2 Q646.109 1515.64 642.475 1515.64 M642.475 1511.93 Q648.285 1511.93 651.341 1516.54 Q654.419 1521.12 654.419 1529.87 Q654.419 1538.6 651.341 1543.21 Q648.285 1547.79 642.475 1547.79 Q636.665 1547.79 633.586 1543.21 Q630.53 1538.6 630.53 1529.87 Q630.53 1521.12 633.586 1516.54 Q636.665 1511.93 642.475 1511.93 Z" fill="#000000" fill-rule="evenodd" fill-opacity="1" /><path clip-path="url(#clip560)" d="M 0 0 M669.489 1515.64 Q665.877 1515.64 664.049 1519.2 Q662.243 1522.75 662.243 1529.87 Q662.243 1536.98 664.049 1540.55 Q665.877 1544.09 669.489 1544.09 Q673.123 1544.09 674.928 1540.55 Q676.757 1536.98 676.757 1529.87 Q676.757 1522.75 674.928 1519.2 Q673.123 1515.64 669.489 1515.64 M669.489 1511.93 Q675.299 1511.93 678.354 1516.54 Q681.433 1521.12 681.433 1529.87 Q681.433 1538.6 678.354 1543.21 Q675.299 1547.79 669.489 1547.79 Q663.678 1547.79 660.6 1543.21 Q657.544 1538.6 657.544 1529.87 Q657.544 1521.12 660.6 1516.54 Q663.678 1511.93 669.489 1511.93 Z" fill="#000000" fill-rule="evenodd" fill-opacity="1" /><path clip-path="url(#clip560)" d="M 0 0 M1023.52 1543.18 L1039.84 1543.18 L1039.84 1547.12 L1017.89 1547.12 L1017.89 1543.18 Q1020.55 1540.43 1025.14 1535.8 Q1029.74 1531.15 1030.92 1529.81 Q1033.17 1527.28 1034.05 1525.55 Q1034.95 1523.79 1034.95 1522.1 Q1034.95 1519.34 1033.01 1517.61 Q1031.09 1515.87 1027.98 1515.87 Q1025.78 1515.87 1023.33 1516.63 Q1020.9 1517.4 1018.12 1518.95 L1018.12 1514.23 Q1020.95 1513.09 1023.4 1512.51 Q1025.85 1511.93 1027.89 1511.93 Q1033.26 1511.93 1036.46 1514.62 Q1039.65 1517.31 1039.65 1521.8 Q1039.65 1523.93 1038.84 1525.85 Q1038.05 1527.74 1035.95 1530.34 Q1035.37 1531.01 1032.27 1534.23 Q1029.16 1537.42 1023.52 1543.18 Z" fill="#000000" fill-rule="evenodd" fill-opacity="1" /><path clip-path="url(#clip560)" d="M 0 0 M1054.9 1515.64 Q1051.29 1515.64 1049.46 1519.2 Q1047.66 1522.75 1047.66 1529.87 Q1047.66 1536.98 1049.46 1540.55 Q1051.29 1544.09 1054.9 1544.09 Q1058.54 1544.09 1060.34 1540.55 Q1062.17 1536.98 1062.17 1529.87 Q1062.17 1522.75 1060.34 1519.2 Q1058.54 1515.64 1054.9 1515.64 M1054.9 1511.93 Q1060.71 1511.93 1063.77 1516.54 Q1066.85 1521.12 1066.85 1529.87 Q1066.85 1538.6 1063.77 1543.21 Q1060.71 1547.79 1054.9 1547.79 Q1049.09 1547.79 1046.02 1543.21 Q1042.96 1538.6 1042.96 1529.87 Q1042.96 1521.12 1046.02 1516.54 Q1049.09 1511.93 1054.9 1511.93 Z" fill="#000000" fill-rule="evenodd" fill-opacity="1" /><path clip-path="url(#clip560)" d="M 0 0 M1081.92 1515.64 Q1078.31 1515.64 1076.48 1519.2 Q1074.67 1522.75 1074.67 1529.87 Q1074.67 1536.98 1076.48 1540.55 Q1078.31 1544.09 1081.92 1544.09 Q1085.55 1544.09 1087.36 1540.55 Q1089.19 1536.98 1089.19 1529.87 Q1089.19 1522.75 1087.36 1519.2 Q1085.55 1515.64 1081.92 1515.64 M1081.92 1511.93 Q1087.73 1511.93 1090.78 1516.54 Q1093.86 1521.12 1093.86 1529.87 Q1093.86 1538.6 1090.78 1543.21 Q1087.73 1547.79 1081.92 1547.79 Q1076.11 1547.79 1073.03 1543.21 Q1069.97 1538.6 1069.97 1529.87 Q1069.97 1521.12 1073.03 1516.54 Q1076.11 1511.93 1081.92 1511.93 Z" fill="#000000" fill-rule="evenodd" fill-opacity="1" /><path clip-path="url(#clip560)" d="M 0 0 M1444.86 1528.49 Q1448.21 1529.2 1450.09 1531.47 Q1451.99 1533.74 1451.99 1537.07 Q1451.99 1542.19 1448.47 1544.99 Q1444.95 1547.79 1438.47 1547.79 Q1436.29 1547.79 1433.98 1547.35 Q1431.69 1546.93 1429.23 1546.08 L1429.23 1541.56 Q1431.18 1542.7 1433.49 1543.28 Q1435.81 1543.86 1438.33 1543.86 Q1442.73 1543.86 1445.02 1542.12 Q1447.33 1540.38 1447.33 1537.07 Q1447.33 1534.02 1445.18 1532.31 Q1443.05 1530.57 1439.23 1530.57 L1435.2 1530.57 L1435.2 1526.73 L1439.42 1526.73 Q1442.87 1526.73 1444.7 1525.36 Q1446.52 1523.97 1446.52 1521.38 Q1446.52 1518.72 1444.63 1517.31 Q1442.75 1515.87 1439.23 1515.87 Q1437.31 1515.87 1435.11 1516.29 Q1432.91 1516.7 1430.27 1517.58 L1430.27 1513.42 Q1432.94 1512.68 1435.25 1512.31 Q1437.59 1511.93 1439.65 1511.93 Q1444.97 1511.93 1448.08 1514.37 Q1451.18 1516.77 1451.18 1520.89 Q1451.18 1523.76 1449.53 1525.75 Q1447.89 1527.72 1444.86 1528.49 Z" fill="#000000" fill-rule="evenodd" fill-opacity="1" /><path clip-path="url(#clip560)" d="M 0 0 M1467.06 1515.64 Q1463.45 1515.64 1461.62 1519.2 Q1459.81 1522.75 1459.81 1529.87 Q1459.81 1536.98 1461.62 1540.55 Q1463.45 1544.09 1467.06 1544.09 Q1470.69 1544.09 1472.5 1540.55 Q1474.33 1536.98 1474.33 1529.87 Q1474.33 1522.75 1472.5 1519.2 Q1470.69 1515.64 1467.06 1515.64 M1467.06 1511.93 Q1472.87 1511.93 1475.92 1516.54 Q1479 1521.12 1479 1529.87 Q1479 1538.6 1475.92 1543.21 Q1472.87 1547.79 1467.06 1547.79 Q1461.25 1547.79 1458.17 1543.21 Q1455.11 1538.6 1455.11 1529.87 Q1455.11 1521.12 1458.17 1516.54 Q1461.25 1511.93 1467.06 1511.93 Z" fill="#000000" fill-rule="evenodd" fill-opacity="1" /><path clip-path="url(#clip560)" d="M 0 0 M1494.07 1515.64 Q1490.46 1515.64 1488.63 1519.2 Q1486.82 1522.75 1486.82 1529.87 Q1486.82 1536.98 1488.63 1540.55 Q1490.46 1544.09 1494.07 1544.09 Q1497.7 1544.09 1499.51 1540.55 Q1501.34 1536.98 1501.34 1529.87 Q1501.34 1522.75 1499.51 1519.2 Q1497.7 1515.64 1494.07 1515.64 M1494.07 1511.93 Q1499.88 1511.93 1502.94 1516.54 Q1506.01 1521.12 1506.01 1529.87 Q1506.01 1538.6 1502.94 1543.21 Q1499.88 1547.79 1494.07 1547.79 Q1488.26 1547.79 1485.18 1543.21 Q1482.13 1538.6 1482.13 1529.87 Q1482.13 1521.12 1485.18 1516.54 Q1488.26 1511.93 1494.07 1511.93 Z" fill="#000000" fill-rule="evenodd" fill-opacity="1" /><path clip-path="url(#clip560)" d="M 0 0 M1855.37 1516.63 L1843.56 1535.08 L1855.37 1535.08 L1855.37 1516.63 M1854.14 1512.56 L1860.02 1512.56 L1860.02 1535.08 L1864.95 1535.08 L1864.95 1538.97 L1860.02 1538.97 L1860.02 1547.12 L1855.37 1547.12 L1855.37 1538.97 L1839.76 1538.97 L1839.76 1534.46 L1854.14 1512.56 Z" fill="#000000" fill-rule="evenodd" fill-opacity="1" /><path clip-path="url(#clip560)" d="M 0 0 M1880.02 1515.64 Q1876.41 1515.64 1874.58 1519.2 Q1872.77 1522.75 1872.77 1529.87 Q1872.77 1536.98 1874.58 1540.55 Q1876.41 1544.09 1880.02 1544.09 Q1883.65 1544.09 1885.46 1540.55 Q1887.29 1536.98 1887.29 1529.87 Q1887.29 1522.75 1885.46 1519.2 Q1883.65 1515.64 1880.02 1515.64 M1880.02 1511.93 Q1885.83 1511.93 1888.88 1516.54 Q1891.96 1521.12 1891.96 1529.87 Q1891.96 1538.6 1888.88 1543.21 Q1885.83 1547.79 1880.02 1547.79 Q1874.21 1547.79 1871.13 1543.21 Q1868.07 1538.6 1868.07 1529.87 Q1868.07 1521.12 1871.13 1516.54 Q1874.21 1511.93 1880.02 1511.93 Z" fill="#000000" fill-rule="evenodd" fill-opacity="1" /><path clip-path="url(#clip560)" d="M 0 0 M1907.03 1515.64 Q1903.42 1515.64 1901.59 1519.2 Q1899.79 1522.75 1899.79 1529.87 Q1899.79 1536.98 1901.59 1540.55 Q1903.42 1544.09 1907.03 1544.09 Q1910.67 1544.09 1912.47 1540.55 Q1914.3 1536.98 1914.3 1529.87 Q1914.3 1522.75 1912.47 1519.2 Q1910.67 1515.64 1907.03 1515.64 M1907.03 1511.93 Q1912.84 1511.93 1915.9 1516.54 Q1918.98 1521.12 1918.98 1529.87 Q1918.98 1538.6 1915.9 1543.21 Q1912.84 1547.79 1907.03 1547.79 Q1901.22 1547.79 1898.14 1543.21 Q1895.09 1538.6 1895.09 1529.87 Q1895.09 1521.12 1898.14 1516.54 Q1901.22 1511.93 1907.03 1511.93 Z" fill="#000000" fill-rule="evenodd" fill-opacity="1" /><path clip-path="url(#clip560)" d="M 0 0 M2254.38 1512.56 L2272.74 1512.56 L2272.74 1516.5 L2258.66 1516.5 L2258.66 1524.97 Q2259.68 1524.62 2260.7 1524.46 Q2261.72 1524.27 2262.74 1524.27 Q2268.52 1524.27 2271.9 1527.44 Q2275.28 1530.62 2275.28 1536.03 Q2275.28 1541.61 2271.81 1544.71 Q2268.34 1547.79 2262.02 1547.79 Q2259.84 1547.79 2257.58 1547.42 Q2255.33 1547.05 2252.92 1546.31 L2252.92 1541.61 Q2255.01 1542.74 2257.23 1543.3 Q2259.45 1543.86 2261.93 1543.86 Q2265.93 1543.86 2268.27 1541.75 Q2270.61 1539.64 2270.61 1536.03 Q2270.61 1532.42 2268.27 1530.31 Q2265.93 1528.21 2261.93 1528.21 Q2260.05 1528.21 2258.18 1528.62 Q2256.33 1529.04 2254.38 1529.92 L2254.38 1512.56 Z" fill="#000000" fill-rule="evenodd" fill-opacity="1" /><path clip-path="url(#clip560)" d="M 0 0 M2290.35 1515.64 Q2286.74 1515.64 2284.91 1519.2 Q2283.11 1522.75 2283.11 1529.87 Q2283.11 1536.98 2284.91 1540.55 Q2286.74 1544.09 2290.35 1544.09 Q2293.99 1544.09 2295.79 1540.55 Q2297.62 1536.98 2297.62 1529.87 Q2297.62 1522.75 2295.79 1519.2 Q2293.99 1515.64 2290.35 1515.64 M2290.35 1511.93 Q2296.16 1511.93 2299.22 1516.54 Q2302.3 1521.12 2302.3 1529.87 Q2302.3 1538.6 2299.22 1543.21 Q2296.16 1547.79 2290.35 1547.79 Q2284.54 1547.79 2281.46 1543.21 Q2278.41 1538.6 2278.41 1529.87 Q2278.41 1521.12 2281.46 1516.54 Q2284.54 1511.93 2290.35 1511.93 Z" fill="#000000" fill-rule="evenodd" fill-opacity="1" /><path clip-path="url(#clip560)" d="M 0 0 M2317.37 1515.64 Q2313.76 1515.64 2311.93 1519.2 Q2310.12 1522.75 2310.12 1529.87 Q2310.12 1536.98 2311.93 1540.55 Q2313.76 1544.09 2317.37 1544.09 Q2321 1544.09 2322.81 1540.55 Q2324.64 1536.98 2324.64 1529.87 Q2324.64 1522.75 2322.81 1519.2 Q2321 1515.64 2317.37 1515.64 M2317.37 1511.93 Q2323.18 1511.93 2326.23 1516.54 Q2329.31 1521.12 2329.31 1529.87 Q2329.31 1538.6 2326.23 1543.21 Q2323.18 1547.79 2317.37 1547.79 Q2311.56 1547.79 2308.48 1543.21 Q2305.42 1538.6 2305.42 1529.87 Q2305.42 1521.12 2308.48 1516.54 Q2311.56 1511.93 2317.37 1511.93 Z" fill="#000000" fill-rule="evenodd" fill-opacity="1" /><polyline clip-path="url(#clip562)" style="stroke:#000000; stroke-width:2; stroke-opacity:0.1; fill:none" points="
  174.862,1451.19 2352.76,1451.19 
  "/>
<polyline clip-path="url(#clip562)" style="stroke:#000000; stroke-width:2; stroke-opacity:0.1; fill:none" points="
  174.862,1109.02 2352.76,1109.02 
  "/>
<polyline clip-path="url(#clip562)" style="stroke:#000000; stroke-width:2; stroke-opacity:0.1; fill:none" points="
  174.862,766.846 2352.76,766.846 
  "/>
<polyline clip-path="url(#clip562)" style="stroke:#000000; stroke-width:2; stroke-opacity:0.1; fill:none" points="
  174.862,424.674 2352.76,424.674 
  "/>
<polyline clip-path="url(#clip562)" style="stroke:#000000; stroke-width:2; stroke-opacity:0.1; fill:none" points="
  174.862,82.5015 2352.76,82.5015 
  "/>
<polyline clip-path="url(#clip560)" style="stroke:#000000; stroke-width:4; stroke-opacity:1; fill:none" points="
  174.862,1486.45 174.862,47.2441 
  "/>
<polyline clip-path="url(#clip560)" style="stroke:#000000; stroke-width:4; stroke-opacity:1; fill:none" points="
  174.862,1451.19 200.997,1451.19 
  "/>
<polyline clip-path="url(#clip560)" style="stroke:#000000; stroke-width:4; stroke-opacity:1; fill:none" points="
  174.862,1109.02 200.997,1109.02 
  "/>
<polyline clip-path="url(#clip560)" style="stroke:#000000; stroke-width:4; stroke-opacity:1; fill:none" points="
  174.862,766.846 200.997,766.846 
  "/>
<polyline clip-path="url(#clip560)" style="stroke:#000000; stroke-width:4; stroke-opacity:1; fill:none" points="
  174.862,424.674 200.997,424.674 
  "/>
<polyline clip-path="url(#clip560)" style="stroke:#000000; stroke-width:4; stroke-opacity:1; fill:none" points="
  174.862,82.5015 200.997,82.5015 
  "/>
<path clip-path="url(#clip560)" d="M 0 0 M62.9365 1436.99 Q59.3254 1436.99 57.4967 1440.55 Q55.6912 1444.1 55.6912 1451.23 Q55.6912 1458.33 57.4967 1461.9 Q59.3254 1465.44 62.9365 1465.44 Q66.5707 1465.44 68.3763 1461.9 Q70.205 1458.33 70.205 1451.23 Q70.205 1444.1 68.3763 1440.55 Q66.5707 1436.99 62.9365 1436.99 M62.9365 1433.29 Q68.7467 1433.29 71.8022 1437.89 Q74.8809 1442.48 74.8809 1451.23 Q74.8809 1459.95 71.8022 1464.56 Q68.7467 1469.14 62.9365 1469.14 Q57.1264 1469.14 54.0477 1464.56 Q50.9921 1459.95 50.9921 1451.23 Q50.9921 1442.48 54.0477 1437.89 Q57.1264 1433.29 62.9365 1433.29 Z" fill="#000000" fill-rule="evenodd" fill-opacity="1" /><path clip-path="url(#clip560)" d="M 0 0 M79.9503 1462.59 L84.8345 1462.59 L84.8345 1468.47 L79.9503 1468.47 L79.9503 1462.59 Z" fill="#000000" fill-rule="evenodd" fill-opacity="1" /><path clip-path="url(#clip560)" d="M 0 0 M99.9039 1436.99 Q96.2928 1436.99 94.4641 1440.55 Q92.6586 1444.1 92.6586 1451.23 Q92.6586 1458.33 94.4641 1461.9 Q96.2928 1465.44 99.9039 1465.44 Q103.538 1465.44 105.344 1461.9 Q107.172 1458.33 107.172 1451.23 Q107.172 1444.1 105.344 1440.55 Q103.538 1436.99 99.9039 1436.99 M99.9039 1433.29 Q105.714 1433.29 108.77 1437.89 Q111.848 1442.48 111.848 1451.23 Q111.848 1459.95 108.77 1464.56 Q105.714 1469.14 99.9039 1469.14 Q94.0937 1469.14 91.0151 1464.56 Q87.9595 1459.95 87.9595 1451.23 Q87.9595 1442.48 91.0151 1437.89 Q94.0937 1433.29 99.9039 1433.29 Z" fill="#000000" fill-rule="evenodd" fill-opacity="1" /><path clip-path="url(#clip560)" d="M 0 0 M126.918 1436.99 Q123.307 1436.99 121.478 1440.55 Q119.672 1444.1 119.672 1451.23 Q119.672 1458.33 121.478 1461.9 Q123.307 1465.44 126.918 1465.44 Q130.552 1465.44 132.357 1461.9 Q134.186 1458.33 134.186 1451.23 Q134.186 1444.1 132.357 1440.55 Q130.552 1436.99 126.918 1436.99 M126.918 1433.29 Q132.728 1433.29 135.783 1437.89 Q138.862 1442.48 138.862 1451.23 Q138.862 1459.95 135.783 1464.56 Q132.728 1469.14 126.918 1469.14 Q121.107 1469.14 118.029 1464.56 Q114.973 1459.95 114.973 1451.23 Q114.973 1442.48 118.029 1437.89 Q121.107 1433.29 126.918 1433.29 Z" fill="#000000" fill-rule="evenodd" fill-opacity="1" /><path clip-path="url(#clip560)" d="M 0 0 M65.5291 1094.82 Q61.918 1094.82 60.0893 1098.38 Q58.2838 1101.92 58.2838 1109.05 Q58.2838 1116.16 60.0893 1119.72 Q61.918 1123.27 65.5291 1123.27 Q69.1633 1123.27 70.9689 1119.72 Q72.7976 1116.16 72.7976 1109.05 Q72.7976 1101.92 70.9689 1098.38 Q69.1633 1094.82 65.5291 1094.82 M65.5291 1091.11 Q71.3392 1091.11 74.3948 1095.72 Q77.4735 1100.3 77.4735 1109.05 Q77.4735 1117.78 74.3948 1122.39 Q71.3392 1126.97 65.5291 1126.97 Q59.7189 1126.97 56.6402 1122.39 Q53.5847 1117.78 53.5847 1109.05 Q53.5847 1100.3 56.6402 1095.72 Q59.7189 1091.11 65.5291 1091.11 Z" fill="#000000" fill-rule="evenodd" fill-opacity="1" /><path clip-path="url(#clip560)" d="M 0 0 M82.5429 1120.42 L87.4271 1120.42 L87.4271 1126.3 L82.5429 1126.3 L82.5429 1120.42 Z" fill="#000000" fill-rule="evenodd" fill-opacity="1" /><path clip-path="url(#clip560)" d="M 0 0 M96.5243 1122.36 L112.844 1122.36 L112.844 1126.3 L90.8993 1126.3 L90.8993 1122.36 Q93.5613 1119.61 98.1447 1114.98 Q102.751 1110.33 103.932 1108.98 Q106.177 1106.46 107.057 1104.72 Q107.959 1102.97 107.959 1101.28 Q107.959 1098.52 106.015 1096.78 Q104.094 1095.05 100.992 1095.05 Q98.7928 1095.05 96.3391 1095.81 Q93.9086 1096.58 91.1308 1098.13 L91.1308 1093.4 Q93.9549 1092.27 96.4085 1091.69 Q98.8622 1091.11 100.899 1091.11 Q106.27 1091.11 109.464 1093.8 Q112.658 1096.48 112.658 1100.97 Q112.658 1103.1 111.848 1105.03 Q111.061 1106.92 108.955 1109.52 Q108.376 1110.19 105.274 1113.4 Q102.172 1116.6 96.5243 1122.36 Z" fill="#000000" fill-rule="evenodd" fill-opacity="1" /><path clip-path="url(#clip560)" d="M 0 0 M117.959 1091.74 L136.316 1091.74 L136.316 1095.67 L122.242 1095.67 L122.242 1104.15 Q123.26 1103.8 124.279 1103.64 Q125.297 1103.45 126.316 1103.45 Q132.103 1103.45 135.482 1106.62 Q138.862 1109.79 138.862 1115.21 Q138.862 1120.79 135.39 1123.89 Q131.918 1126.97 125.598 1126.97 Q123.422 1126.97 121.154 1126.6 Q118.908 1126.23 116.501 1125.49 L116.501 1120.79 Q118.584 1121.92 120.807 1122.48 Q123.029 1123.03 125.506 1123.03 Q129.51 1123.03 131.848 1120.93 Q134.186 1118.82 134.186 1115.21 Q134.186 1111.6 131.848 1109.49 Q129.51 1107.39 125.506 1107.39 Q123.631 1107.39 121.756 1107.8 Q119.904 1108.22 117.959 1109.1 L117.959 1091.74 Z" fill="#000000" fill-rule="evenodd" fill-opacity="1" /><path clip-path="url(#clip560)" d="M 0 0 M63.9319 752.645 Q60.3208 752.645 58.4921 756.209 Q56.6865 759.751 56.6865 766.881 Q56.6865 773.987 58.4921 777.552 Q60.3208 781.094 63.9319 781.094 Q67.5661 781.094 69.3717 777.552 Q71.2004 773.987 71.2004 766.881 Q71.2004 759.751 69.3717 756.209 Q67.5661 752.645 63.9319 752.645 M63.9319 748.941 Q69.742 748.941 72.7976 753.547 Q75.8763 758.131 75.8763 766.881 Q75.8763 775.608 72.7976 780.214 Q69.742 784.797 63.9319 784.797 Q58.1217 784.797 55.043 780.214 Q51.9875 775.608 51.9875 766.881 Q51.9875 758.131 55.043 753.547 Q58.1217 748.941 63.9319 748.941 Z" fill="#000000" fill-rule="evenodd" fill-opacity="1" /><path clip-path="url(#clip560)" d="M 0 0 M80.9457 778.246 L85.8299 778.246 L85.8299 784.126 L80.9457 784.126 L80.9457 778.246 Z" fill="#000000" fill-rule="evenodd" fill-opacity="1" /><path clip-path="url(#clip560)" d="M 0 0 M90.9456 749.566 L109.302 749.566 L109.302 753.501 L95.228 753.501 L95.228 761.973 Q96.2465 761.626 97.265 761.464 Q98.2835 761.279 99.3021 761.279 Q105.089 761.279 108.469 764.45 Q111.848 767.621 111.848 773.038 Q111.848 778.617 108.376 781.719 Q104.904 784.797 98.5845 784.797 Q96.4085 784.797 94.14 784.427 Q91.8947 784.057 89.4873 783.316 L89.4873 778.617 Q91.5706 779.751 93.7928 780.307 Q96.015 780.862 98.4919 780.862 Q102.496 780.862 104.834 778.756 Q107.172 776.649 107.172 773.038 Q107.172 769.427 104.834 767.321 Q102.496 765.214 98.4919 765.214 Q96.6169 765.214 94.7419 765.631 Q92.89 766.047 90.9456 766.927 L90.9456 749.566 Z" fill="#000000" fill-rule="evenodd" fill-opacity="1" /><path clip-path="url(#clip560)" d="M 0 0 M126.918 752.645 Q123.307 752.645 121.478 756.209 Q119.672 759.751 119.672 766.881 Q119.672 773.987 121.478 777.552 Q123.307 781.094 126.918 781.094 Q130.552 781.094 132.357 777.552 Q134.186 773.987 134.186 766.881 Q134.186 759.751 132.357 756.209 Q130.552 752.645 126.918 752.645 M126.918 748.941 Q132.728 748.941 135.783 753.547 Q138.862 758.131 138.862 766.881 Q138.862 775.608 135.783 780.214 Q132.728 784.797 126.918 784.797 Q121.107 784.797 118.029 780.214 Q114.973 775.608 114.973 766.881 Q114.973 758.131 118.029 753.547 Q121.107 748.941 126.918 748.941 Z" fill="#000000" fill-rule="evenodd" fill-opacity="1" /><path clip-path="url(#clip560)" d="M 0 0 M64.8346 410.472 Q61.2236 410.472 59.3949 414.037 Q57.5893 417.579 57.5893 424.708 Q57.5893 431.815 59.3949 435.38 Q61.2236 438.921 64.8346 438.921 Q68.4689 438.921 70.2744 435.38 Q72.1031 431.815 72.1031 424.708 Q72.1031 417.579 70.2744 414.037 Q68.4689 410.472 64.8346 410.472 M64.8346 406.769 Q70.6448 406.769 73.7003 411.375 Q76.779 415.959 76.779 424.708 Q76.779 433.435 73.7003 438.042 Q70.6448 442.625 64.8346 442.625 Q59.0245 442.625 55.9458 438.042 Q52.8903 433.435 52.8903 424.708 Q52.8903 415.959 55.9458 411.375 Q59.0245 406.769 64.8346 406.769 Z" fill="#000000" fill-rule="evenodd" fill-opacity="1" /><path clip-path="url(#clip560)" d="M 0 0 M81.8484 436.074 L86.7327 436.074 L86.7327 441.954 L81.8484 441.954 L81.8484 436.074 Z" fill="#000000" fill-rule="evenodd" fill-opacity="1" /><path clip-path="url(#clip560)" d="M 0 0 M90.6215 407.394 L112.844 407.394 L112.844 409.384 L100.297 441.954 L95.4132 441.954 L107.219 411.329 L90.6215 411.329 L90.6215 407.394 Z" fill="#000000" fill-rule="evenodd" fill-opacity="1" /><path clip-path="url(#clip560)" d="M 0 0 M117.959 407.394 L136.316 407.394 L136.316 411.329 L122.242 411.329 L122.242 419.801 Q123.26 419.454 124.279 419.292 Q125.297 419.107 126.316 419.107 Q132.103 419.107 135.482 422.278 Q138.862 425.449 138.862 430.866 Q138.862 436.445 135.39 439.546 Q131.918 442.625 125.598 442.625 Q123.422 442.625 121.154 442.255 Q118.908 441.884 116.501 441.144 L116.501 436.445 Q118.584 437.579 120.807 438.134 Q123.029 438.69 125.506 438.69 Q129.51 438.69 131.848 436.583 Q134.186 434.477 134.186 430.866 Q134.186 427.255 131.848 425.148 Q129.51 423.042 125.506 423.042 Q123.631 423.042 121.756 423.458 Q119.904 423.875 117.959 424.755 L117.959 407.394 Z" fill="#000000" fill-rule="evenodd" fill-opacity="1" /><path clip-path="url(#clip560)" d="M 0 0 M54.9736 95.8464 L62.6124 95.8464 L62.6124 69.4808 L54.3023 71.1474 L54.3023 66.8882 L62.5661 65.2215 L67.242 65.2215 L67.242 95.8464 L74.8809 95.8464 L74.8809 99.7815 L54.9736 99.7815 L54.9736 95.8464 Z" fill="#000000" fill-rule="evenodd" fill-opacity="1" /><path clip-path="url(#clip560)" d="M 0 0 M79.9503 93.9019 L84.8345 93.9019 L84.8345 99.7815 L79.9503 99.7815 L79.9503 93.9019 Z" fill="#000000" fill-rule="evenodd" fill-opacity="1" /><path clip-path="url(#clip560)" d="M 0 0 M99.9039 68.3002 Q96.2928 68.3002 94.4641 71.865 Q92.6586 75.4067 92.6586 82.5362 Q92.6586 89.6427 94.4641 93.2075 Q96.2928 96.7491 99.9039 96.7491 Q103.538 96.7491 105.344 93.2075 Q107.172 89.6427 107.172 82.5362 Q107.172 75.4067 105.344 71.865 Q103.538 68.3002 99.9039 68.3002 M99.9039 64.5965 Q105.714 64.5965 108.77 69.203 Q111.848 73.7863 111.848 82.5362 Q111.848 91.263 108.77 95.8695 Q105.714 100.453 99.9039 100.453 Q94.0937 100.453 91.0151 95.8695 Q87.9595 91.263 87.9595 82.5362 Q87.9595 73.7863 91.0151 69.203 Q94.0937 64.5965 99.9039 64.5965 Z" fill="#000000" fill-rule="evenodd" fill-opacity="1" /><path clip-path="url(#clip560)" d="M 0 0 M126.918 68.3002 Q123.307 68.3002 121.478 71.865 Q119.672 75.4067 119.672 82.5362 Q119.672 89.6427 121.478 93.2075 Q123.307 96.7491 126.918 96.7491 Q130.552 96.7491 132.357 93.2075 Q134.186 89.6427 134.186 82.5362 Q134.186 75.4067 132.357 71.865 Q130.552 68.3002 126.918 68.3002 M126.918 64.5965 Q132.728 64.5965 135.783 69.203 Q138.862 73.7863 138.862 82.5362 Q138.862 91.263 135.783 95.8695 Q132.728 100.453 126.918 100.453 Q121.107 100.453 118.029 95.8695 Q114.973 91.263 114.973 82.5362 Q114.973 73.7863 118.029 69.203 Q121.107 64.5965 126.918 64.5965 Z" fill="#000000" fill-rule="evenodd" fill-opacity="1" /><polyline clip-path="url(#clip562)" style="stroke:#009af9; stroke-width:4; stroke-opacity:1; fill:none" points="
  236.501,88.5238 240.618,87.9763 244.735,88.5238 248.853,88.5238 252.97,89.0712 257.088,89.6187 261.205,89.6187 265.323,90.1662 269.44,90.1662 273.558,90.7137 
  277.675,90.7137 281.793,90.7137 285.91,91.2611 290.028,91.2611 294.145,91.8086 298.263,91.2611 302.38,91.2611 306.497,91.2611 310.615,92.3561 314.732,94.546 
  318.85,94.546 322.967,95.0935 327.085,95.0935 331.202,95.6409 335.32,95.6409 339.437,96.1884 343.555,99.4733 347.672,100.021 351.79,102.211 355.907,102.211 
  360.025,101.663 364.142,103.306 368.26,105.495 372.377,106.043 376.494,106.043 380.612,106.043 384.729,109.875 388.847,111.518 392.964,112.065 397.082,110.423 
  401.199,109.328 405.317,108.78 409.434,109.875 413.552,110.423 417.669,112.065 421.787,114.255 425.904,114.255 430.022,113.708 434.139,116.992 438.256,115.898 
  442.374,116.992 446.491,115.898 450.609,115.35 454.726,116.992 458.844,118.087 462.961,120.277 467.079,124.11 471.196,125.205 475.314,124.657 479.431,129.037 
  483.549,129.584 487.666,130.679 491.784,131.774 495.901,133.417 500.019,133.964 504.136,136.154 508.253,132.869 512.371,134.512 516.488,135.607 520.606,137.249 
  524.723,138.344 528.841,138.344 532.958,139.986 537.076,139.439 541.193,141.629 545.311,142.724 549.428,147.104 553.546,151.483 557.663,150.388 561.781,149.294 
  565.898,150.388 570.015,149.841 574.133,150.388 578.25,152.578 582.368,155.316 586.485,159.148 590.603,159.696 594.72,162.433 598.838,163.528 602.955,165.718 
  607.073,166.265 611.19,165.718 615.308,165.17 619.425,164.075 623.543,163.528 627.66,166.265 631.778,167.36 635.895,165.718 640.012,165.718 644.13,166.265 
  648.247,169.55 652.365,170.098 656.482,171.74 660.6,174.477 664.717,176.667 668.835,176.12 672.952,177.762 677.07,181.047 681.187,182.69 685.305,184.332 
  689.422,182.69 693.54,183.785 697.657,182.69 701.774,183.785 705.892,185.427 710.009,189.259 714.127,188.164 718.244,190.354 722.362,190.902 726.479,193.092 
  730.597,193.092 734.714,195.281 738.832,193.639 742.949,196.376 747.067,199.661 751.184,198.566 755.302,201.304 759.419,199.661 763.537,199.114 767.654,201.851 
  771.771,202.399 775.889,202.946 780.006,202.399 784.124,207.326 788.241,206.778 792.359,208.421 796.476,210.063 800.594,208.968 804.711,210.063 808.829,210.063 
  812.946,206.778 817.064,208.968 821.181,212.801 825.299,216.633 829.416,217.728 833.533,221.013 837.651,219.918 841.768,222.108 845.886,222.655 850.003,222.655 
  854.121,227.583 858.238,225.393 862.356,225.393 866.473,228.13 870.591,234.152 874.708,234.7 878.826,237.985 882.943,240.174 887.061,242.364 891.178,242.364 
  895.296,246.197 899.413,252.219 903.53,253.861 907.648,252.766 911.765,256.051 915.883,258.789 920,260.431 924.118,258.789 928.235,259.336 932.353,263.168 
  936.47,263.716 940.588,265.906 944.705,264.811 948.823,267.001 952.94,267.548 957.058,271.928 961.175,274.665 965.292,276.855 969.41,277.403 973.527,278.498 
  977.645,283.425 981.762,281.783 985.88,286.162 989.997,287.805 994.115,289.447 998.232,287.257 1002.35,288.352 1006.47,289.447 1010.58,285.615 1014.7,286.71 
  1018.82,291.09 1022.94,291.637 1027.05,297.659 1031.17,301.492 1035.29,300.944 1039.41,308.061 1043.52,306.967 1047.64,308.061 1051.76,311.346 1055.88,317.369 
  1059.99,315.179 1064.11,314.631 1068.23,322.843 1072.35,323.938 1076.46,321.201 1080.58,326.676 1084.7,330.508 1088.82,334.34 1092.93,338.173 1097.05,335.983 
  1101.17,341.457 1105.29,341.457 1109.4,338.72 1113.52,345.29 1117.64,350.765 1121.76,353.502 1125.87,356.787 1129.99,358.977 1134.11,358.429 1138.23,364.999 
  1142.34,371.021 1146.46,366.094 1150.58,372.664 1154.7,372.116 1158.81,377.043 1162.93,377.043 1167.05,381.971 1171.17,381.971 1175.28,387.993 1179.4,392.373 
  1183.52,386.898 1187.64,389.088 1191.75,390.73 1195.87,391.825 1199.99,395.11 1204.11,392.92 1208.22,394.015 1212.34,390.73 1216.46,391.825 1220.58,392.373 
  1224.69,396.752 1228.81,404.417 1232.93,412.082 1237.05,421.389 1241.16,424.674 1245.28,422.484 1249.4,424.674 1253.52,423.031 1257.63,425.221 1261.75,428.506 
  1265.87,430.696 1269.99,430.149 1274.1,432.338 1278.22,436.718 1282.34,441.645 1286.46,435.076 1290.57,435.076 1294.69,432.886 1298.81,437.266 1302.92,436.171 
  1307.04,432.338 1311.16,435.076 1315.28,434.528 1319.39,441.645 1323.51,442.193 1327.63,446.573 1331.75,447.12 1335.86,447.668 1339.98,453.69 1344.1,446.025 
  1348.22,451.5 1352.33,457.522 1356.45,459.165 1360.57,466.282 1364.69,467.377 1368.8,468.472 1372.92,479.969 1377.04,487.086 1381.16,492.561 1385.27,498.583 
  1389.39,494.203 1393.51,490.918 1397.63,496.393 1401.74,499.13 1405.86,508.438 1409.98,507.343 1414.1,514.46 1418.21,516.102 1422.33,515.007 1426.45,514.46 
  1430.57,513.365 1434.68,511.175 1438.8,510.08 1442.92,508.985 1447.04,507.89 1451.15,508.985 1455.27,507.89 1459.39,502.415 1463.51,507.89 1467.62,510.627 
  1471.74,507.343 1475.86,509.532 1479.98,507.343 1484.09,517.745 1488.21,522.124 1492.33,524.314 1496.45,525.957 1500.56,519.387 1504.68,517.745 1508.8,516.65 
  1512.92,522.124 1517.03,523.219 1521.15,525.409 1525.27,530.337 1529.39,533.074 1533.5,533.074 1537.62,535.811 1541.74,533.621 1545.86,533.074 1549.97,535.811 
  1554.09,538.549 1558.21,536.906 1562.33,538.549 1566.44,548.951 1570.56,547.856 1574.68,555.52 1578.8,559.9 1582.91,564.28 1587.03,567.565 1591.15,572.492 
  1595.27,571.945 1599.38,578.514 1603.5,579.062 1607.62,583.442 1611.74,579.062 1615.85,579.062 1619.97,581.252 1624.09,580.157 1628.2,586.179 1632.32,590.011 
  1636.44,592.201 1640.56,592.201 1644.67,595.486 1648.79,599.866 1652.91,596.581 1657.03,602.056 1661.14,601.508 1665.26,614.1 1669.38,617.933 1673.5,616.838 
  1677.61,615.195 1681.73,613.553 1685.85,610.268 1689.97,608.078 1694.08,616.29 1698.2,613.005 1702.32,612.458 1706.44,613.005 1710.55,625.05 1714.67,625.597 
  1718.79,625.05 1722.91,625.05 1727.02,625.597 1731.14,617.933 1735.26,614.648 1739.38,617.385 1743.49,619.575 1747.61,626.692 1751.73,632.167 1755.85,642.022 
  1759.96,642.022 1764.08,644.759 1768.2,643.664 1772.32,640.927 1776.43,640.927 1780.55,643.117 1784.67,654.066 1788.79,656.256 1792.9,661.731 1797.02,657.351 
  1801.14,666.658 1805.26,669.395 1809.37,674.87 1813.49,686.915 1817.61,688.557 1821.73,687.462 1825.84,694.579 1829.96,695.674 1834.08,696.769 1838.2,695.127 
  1842.31,697.864 1846.43,696.769 1850.55,689.652 1854.67,688.557 1858.78,695.127 1862.9,695.674 1867.02,691.294 1871.14,688.01 1875.25,686.367 1879.37,688.557 
  1883.49,695.674 1887.61,696.222 1891.72,701.696 1895.84,697.864 1899.96,697.317 1904.08,692.389 1908.19,694.579 1912.31,700.601 1916.43,701.696 1920.55,705.529 
  1924.66,706.624 1928.78,710.456 1932.9,716.478 1937.02,721.406 1941.13,723.595 1945.25,721.953 1949.37,722.5 1953.48,722.5 1957.6,721.406 1961.72,723.595 
  1965.84,732.355 1969.95,730.165 1974.07,733.45 1978.19,729.618 1982.31,735.64 1986.42,738.925 1990.54,741.115 1994.66,743.852 1998.78,748.232 2002.89,744.947 
  2007.01,750.969 2011.13,748.779 2015.25,758.086 2019.36,756.991 2023.48,755.349 2027.6,764.656 2031.72,769.583 2035.83,761.371 2039.95,769.036 2044.07,767.941 
  2048.19,777.248 2052.3,773.963 2056.42,776.701 2060.54,787.103 2064.66,782.175 2068.77,782.175 2072.89,784.913 2077.01,779.438 2081.13,794.767 2085.24,799.147 
  2089.36,807.907 2093.48,808.454 2097.6,807.907 2101.71,806.812 2105.83,805.717 2109.95,801.884 2114.07,800.242 2118.18,803.527 2122.3,795.315 2126.42,791.482 
  2130.54,788.745 2134.65,786.555 2138.77,793.125 2142.89,800.789 2147.01,805.169 2151.12,804.622 2155.24,797.505 2159.36,797.505 2163.48,801.884 2167.59,812.286 
  2171.71,815.571 2175.83,816.119 2179.95,813.929 2184.06,807.359 2188.18,795.315 2192.3,803.527 2196.42,800.242 2200.53,807.907 2204.65,812.286 2208.77,809.002 
  2212.89,810.097 2217,802.979 2221.12,810.644 2225.24,812.834 2229.36,810.644 2233.47,816.119 2237.59,814.476 2241.71,809.002 2245.83,811.739 2249.94,813.929 
  2254.06,819.951 2258.18,817.761 2262.3,818.856 2266.41,810.644 2270.53,822.141 2274.65,827.068 2278.76,824.331 2282.88,831.448 2287,832.543 2291.12,831.996 
  
  "/>
<polyline clip-path="url(#clip562)" style="stroke:#e26f46; stroke-width:4; stroke-opacity:1; fill:none" points="
  236.501,1445.17 240.618,1445.72 244.735,1445.17 248.853,1445.17 252.97,1444.62 257.088,1444.07 261.205,1444.07 265.323,1443.53 269.44,1443.53 273.558,1442.98 
  277.675,1442.98 281.793,1442.98 285.91,1442.43 290.028,1442.43 294.145,1441.88 298.263,1442.43 302.38,1442.43 306.497,1442.43 310.615,1441.34 314.732,1439.15 
  318.85,1439.15 322.967,1438.6 327.085,1438.6 331.202,1438.05 335.32,1438.05 339.437,1437.5 343.555,1434.22 347.672,1433.67 351.79,1431.48 355.907,1431.48 
  360.025,1432.03 364.142,1430.39 368.26,1428.2 372.377,1427.65 376.494,1427.65 380.612,1427.65 384.729,1423.82 388.847,1422.17 392.964,1421.63 397.082,1423.27 
  401.199,1424.36 405.317,1424.91 409.434,1423.82 413.552,1423.27 417.669,1421.63 421.787,1419.44 425.904,1419.44 430.022,1419.98 434.139,1416.7 438.256,1417.79 
  442.374,1416.7 446.491,1417.79 450.609,1418.34 454.726,1416.7 458.844,1415.6 462.961,1413.41 467.079,1409.58 471.196,1408.49 475.314,1409.03 479.431,1404.66 
  483.549,1404.11 487.666,1403.01 491.784,1401.92 495.901,1400.28 500.019,1399.73 504.136,1397.54 508.253,1400.82 512.371,1399.18 516.488,1398.09 520.606,1396.44 
  524.723,1395.35 528.841,1395.35 532.958,1393.71 537.076,1394.25 541.193,1392.06 545.311,1390.97 549.428,1386.59 553.546,1382.21 557.663,1383.3 561.781,1384.4 
  565.898,1383.3 570.015,1383.85 574.133,1383.3 578.25,1381.11 582.368,1378.38 586.485,1374.54 590.603,1374 594.72,1371.26 598.838,1370.16 602.955,1367.97 
  607.073,1367.43 611.19,1367.97 615.308,1368.52 619.425,1369.62 623.543,1370.16 627.66,1367.43 631.778,1366.33 635.895,1367.97 640.012,1367.97 644.13,1367.43 
  648.247,1364.14 652.365,1363.59 656.482,1361.95 660.6,1359.21 664.717,1357.02 668.835,1357.57 672.952,1355.93 677.07,1352.64 681.187,1351 685.305,1349.36 
  689.422,1351 693.54,1349.91 697.657,1351 701.774,1349.91 705.892,1348.27 710.009,1344.43 714.127,1345.53 718.244,1343.34 722.362,1342.79 726.479,1340.6 
  730.597,1340.6 734.714,1338.41 738.832,1340.05 742.949,1337.32 747.067,1334.03 751.184,1335.13 755.302,1332.39 759.419,1334.03 763.537,1334.58 767.654,1331.84 
  771.771,1331.29 775.889,1330.75 780.006,1331.29 784.124,1326.37 788.241,1326.91 792.359,1325.27 796.476,1323.63 800.594,1324.72 804.711,1323.63 808.829,1323.63 
  812.946,1326.91 817.064,1324.72 821.181,1320.89 825.299,1317.06 829.416,1315.96 833.533,1312.68 837.651,1313.77 841.768,1311.58 845.886,1311.04 850.003,1311.04 
  854.121,1306.11 858.238,1308.3 862.356,1308.3 866.473,1305.56 870.591,1299.54 874.708,1298.99 878.826,1295.71 882.943,1293.52 887.061,1291.33 891.178,1291.33 
  895.296,1287.5 899.413,1281.47 903.53,1279.83 907.648,1280.93 911.765,1277.64 915.883,1274.9 920,1273.26 924.118,1274.9 928.235,1274.36 932.353,1270.52 
  936.47,1269.98 940.588,1267.79 944.705,1268.88 948.823,1266.69 952.94,1266.14 957.058,1261.76 961.175,1259.03 965.292,1256.84 969.41,1256.29 973.527,1255.19 
  977.645,1250.27 981.762,1251.91 985.88,1247.53 989.997,1245.89 994.115,1244.24 998.232,1246.43 1002.35,1245.34 1006.47,1244.24 1010.58,1248.08 1014.7,1246.98 
  1018.82,1242.6 1022.94,1242.05 1027.05,1236.03 1031.17,1232.2 1035.29,1232.75 1039.41,1225.63 1043.52,1226.73 1047.64,1225.63 1051.76,1222.35 1055.88,1216.32 
  1059.99,1218.51 1064.11,1219.06 1068.23,1210.85 1072.35,1209.75 1076.46,1212.49 1080.58,1207.02 1084.7,1203.18 1088.82,1199.35 1092.93,1195.52 1097.05,1197.71 
  1101.17,1192.23 1105.29,1192.23 1109.4,1194.97 1113.52,1188.4 1117.64,1182.93 1121.76,1180.19 1125.87,1176.91 1129.99,1174.72 1134.11,1175.26 1138.23,1168.69 
  1142.34,1162.67 1146.46,1167.6 1150.58,1161.03 1154.7,1161.58 1158.81,1156.65 1162.93,1156.65 1167.05,1151.72 1171.17,1151.72 1175.28,1145.7 1179.4,1141.32 
  1183.52,1146.79 1187.64,1144.6 1191.75,1142.96 1195.87,1141.87 1199.99,1138.58 1204.11,1140.77 1208.22,1139.68 1212.34,1142.96 1216.46,1141.87 1220.58,1141.32 
  1224.69,1136.94 1228.81,1129.27 1232.93,1121.61 1237.05,1112.3 1241.16,1109.02 1245.28,1111.21 1249.4,1109.02 1253.52,1110.66 1257.63,1108.47 1261.75,1105.19 
  1265.87,1103 1269.99,1103.54 1274.1,1101.35 1278.22,1096.97 1282.34,1092.05 1286.46,1098.62 1290.57,1098.62 1294.69,1100.81 1298.81,1096.43 1302.92,1097.52 
  1307.04,1101.35 1311.16,1098.62 1315.28,1099.16 1319.39,1092.05 1323.51,1091.5 1327.63,1087.12 1331.75,1086.57 1335.86,1086.02 1339.98,1080 1344.1,1087.67 
  1348.22,1082.19 1352.33,1076.17 1356.45,1074.53 1360.57,1067.41 1364.69,1066.32 1368.8,1065.22 1372.92,1053.72 1377.04,1046.61 1381.16,1041.13 1385.27,1035.11 
  1389.39,1039.49 1393.51,1042.77 1397.63,1037.3 1401.74,1034.56 1405.86,1025.25 1409.98,1026.35 1414.1,1019.23 1418.21,1017.59 1422.33,1018.68 1426.45,1019.23 
  1430.57,1020.33 1434.68,1022.52 1438.8,1023.61 1442.92,1024.71 1447.04,1025.8 1451.15,1024.71 1455.27,1025.8 1459.39,1031.28 1463.51,1025.8 1467.62,1023.06 
  1471.74,1026.35 1475.86,1024.16 1479.98,1026.35 1484.09,1015.95 1488.21,1011.57 1492.33,1009.38 1496.45,1007.74 1500.56,1014.3 1504.68,1015.95 1508.8,1017.04 
  1512.92,1011.57 1517.03,1010.47 1521.15,1008.28 1525.27,1003.36 1529.39,1000.62 1533.5,1000.62 1537.62,997.881 1541.74,1000.07 1545.86,1000.62 1549.97,997.881 
  1554.09,995.143 1558.21,996.786 1562.33,995.143 1566.44,984.741 1570.56,985.836 1574.68,978.172 1578.8,973.792 1582.91,969.412 1587.03,966.127 1591.15,961.2 
  1595.27,961.747 1599.38,955.178 1603.5,954.63 1607.62,950.25 1611.74,954.63 1615.85,954.63 1619.97,952.44 1624.09,953.535 1628.2,947.513 1632.32,943.681 
  1636.44,941.491 1640.56,941.491 1644.67,938.206 1648.79,933.826 1652.91,937.111 1657.03,931.636 1661.14,932.184 1665.26,919.592 1669.38,915.759 1673.5,916.854 
  1677.61,918.497 1681.73,920.139 1685.85,923.424 1689.97,925.614 1694.08,917.402 1698.2,920.687 1702.32,921.234 1706.44,920.687 1710.55,908.642 1714.67,908.095 
  1718.79,908.642 1722.91,908.642 1727.02,908.095 1731.14,915.759 1735.26,919.044 1739.38,916.307 1743.49,914.117 1747.61,907 1751.73,901.525 1755.85,891.67 
  1759.96,891.67 1764.08,888.933 1768.2,890.028 1772.32,892.765 1776.43,892.765 1780.55,890.575 1784.67,879.626 1788.79,877.436 1792.9,871.961 1797.02,876.341 
  1801.14,867.034 1805.26,864.297 1809.37,858.822 1813.49,846.777 1817.61,845.135 1821.73,846.23 1825.84,839.113 1829.96,838.018 1834.08,836.923 1838.2,838.565 
  1842.31,835.828 1846.43,836.923 1850.55,844.04 1854.67,845.135 1858.78,838.565 1862.9,838.018 1867.02,842.398 1871.14,845.682 1875.25,847.325 1879.37,845.135 
  1883.49,838.018 1887.61,837.47 1891.72,831.996 1895.84,835.828 1899.96,836.375 1904.08,841.303 1908.19,839.113 1912.31,833.091 1916.43,831.996 1920.55,828.163 
  1924.66,827.068 1928.78,823.236 1932.9,817.214 1937.02,812.286 1941.13,810.097 1945.25,811.739 1949.37,811.192 1953.48,811.192 1957.6,812.286 1961.72,810.097 
  1965.84,801.337 1969.95,803.527 1974.07,800.242 1978.19,804.074 1982.31,798.052 1986.42,794.767 1990.54,792.577 1994.66,789.84 1998.78,785.46 2002.89,788.745 
  2007.01,782.723 2011.13,784.913 2015.25,775.606 2019.36,776.701 2023.48,778.343 2027.6,769.036 2031.72,764.109 2035.83,772.321 2039.95,764.656 2044.07,765.751 
  2048.19,756.444 2052.3,759.729 2056.42,756.991 2060.54,746.589 2064.66,751.517 2068.77,751.517 2072.89,748.779 2077.01,754.254 2081.13,738.925 2085.24,734.545 
  2089.36,725.785 2093.48,725.238 2097.6,725.785 2101.71,726.88 2105.83,727.975 2109.95,731.808 2114.07,733.45 2118.18,730.165 2122.3,738.377 2126.42,742.21 
  2130.54,744.947 2134.65,747.137 2138.77,740.567 2142.89,732.902 2147.01,728.523 2151.12,729.07 2155.24,736.187 2159.36,736.187 2163.48,731.808 2167.59,721.406 
  2171.71,718.121 2175.83,717.573 2179.95,719.763 2184.06,726.333 2188.18,738.377 2192.3,730.165 2196.42,733.45 2200.53,725.785 2204.65,721.406 2208.77,724.69 
  2212.89,723.595 2217,730.713 2221.12,723.048 2225.24,720.858 2229.36,723.048 2233.47,717.573 2237.59,719.216 2241.71,724.69 2245.83,721.953 2249.94,719.763 
  2254.06,713.741 2258.18,715.931 2262.3,714.836 2266.41,723.048 2270.53,711.551 2274.65,706.624 2278.76,709.361 2282.88,702.244 2287,701.149 2291.12,701.696 
  
  "/>
<path clip-path="url(#clip560)" d="
M1947.11 276.658 L2280.16 276.658 L2280.16 95.2176 L1947.11 95.2176  Z
  " fill="#ffffff" fill-rule="evenodd" fill-opacity="1"/>
<polyline clip-path="url(#clip560)" style="stroke:#000000; stroke-width:4; stroke-opacity:1; fill:none" points="
  1947.11,276.658 2280.16,276.658 2280.16,95.2176 1947.11,95.2176 1947.11,276.658 
  "/>
<polyline clip-path="url(#clip560)" style="stroke:#009af9; stroke-width:4; stroke-opacity:1; fill:none" points="
  1971.31,155.698 2116.5,155.698 
  "/>
<path clip-path="url(#clip560)" d="M 0 0 M2159.12 147.816 L2159.12 151.843 Q2157.32 150.917 2155.37 150.455 Q2153.43 149.992 2151.35 149.992 Q2148.17 149.992 2146.58 150.964 Q2145 151.936 2145 153.88 Q2145 155.362 2146.14 156.218 Q2147.27 157.052 2150.7 157.816 L2152.16 158.14 Q2156.69 159.112 2158.59 160.894 Q2160.51 162.654 2160.51 165.825 Q2160.51 169.436 2157.64 171.542 Q2154.79 173.649 2149.79 173.649 Q2147.71 173.649 2145.44 173.232 Q2143.2 172.839 2140.7 172.028 L2140.7 167.63 Q2143.06 168.857 2145.35 169.482 Q2147.64 170.084 2149.89 170.084 Q2152.9 170.084 2154.52 169.066 Q2156.14 168.024 2156.14 166.149 Q2156.14 164.413 2154.96 163.487 Q2153.8 162.561 2149.84 161.704 L2148.36 161.357 Q2144.4 160.524 2142.64 158.811 Q2140.88 157.075 2140.88 154.066 Q2140.88 150.408 2143.48 148.418 Q2146.07 146.427 2150.84 146.427 Q2153.2 146.427 2155.28 146.774 Q2157.36 147.121 2159.12 147.816 Z" fill="#000000" fill-rule="evenodd" fill-opacity="1" /><path clip-path="url(#clip560)" d="M 0 0 M2164.54 162.746 L2164.54 147.052 L2168.8 147.052 L2168.8 162.584 Q2168.8 166.265 2170.23 168.116 Q2171.67 169.945 2174.54 169.945 Q2177.99 169.945 2179.98 167.746 Q2181.99 165.547 2181.99 161.751 L2181.99 147.052 L2186.25 147.052 L2186.25 172.978 L2181.99 172.978 L2181.99 168.996 Q2180.44 171.357 2178.38 172.515 Q2176.35 173.649 2173.64 173.649 Q2169.17 173.649 2166.85 170.871 Q2164.54 168.093 2164.54 162.746 M2175.26 146.427 L2175.26 146.427 Z" fill="#000000" fill-rule="evenodd" fill-opacity="1" /><path clip-path="url(#clip560)" d="M 0 0 M2207.25 147.816 L2207.25 151.843 Q2205.44 150.917 2203.5 150.455 Q2201.55 149.992 2199.47 149.992 Q2196.3 149.992 2194.7 150.964 Q2193.13 151.936 2193.13 153.88 Q2193.13 155.362 2194.26 156.218 Q2195.4 157.052 2198.82 157.816 L2200.28 158.14 Q2204.82 159.112 2206.72 160.894 Q2208.64 162.654 2208.64 165.825 Q2208.64 169.436 2205.77 171.542 Q2202.92 173.649 2197.92 173.649 Q2195.84 173.649 2193.57 173.232 Q2191.32 172.839 2188.82 172.028 L2188.82 167.63 Q2191.18 168.857 2193.47 169.482 Q2195.77 170.084 2198.01 170.084 Q2201.02 170.084 2202.64 169.066 Q2204.26 168.024 2204.26 166.149 Q2204.26 164.413 2203.08 163.487 Q2201.92 162.561 2197.97 161.704 L2196.48 161.357 Q2192.53 160.524 2190.77 158.811 Q2189.01 157.075 2189.01 154.066 Q2189.01 150.408 2191.6 148.418 Q2194.19 146.427 2198.96 146.427 Q2201.32 146.427 2203.41 146.774 Q2205.49 147.121 2207.25 147.816 Z" fill="#000000" fill-rule="evenodd" fill-opacity="1" /><path clip-path="url(#clip560)" d="M 0 0 M2231.76 148.047 L2231.76 152.029 Q2229.96 151.033 2228.13 150.547 Q2226.32 150.038 2224.47 150.038 Q2220.33 150.038 2218.04 152.677 Q2215.74 155.292 2215.74 160.038 Q2215.74 164.783 2218.04 167.422 Q2220.33 170.038 2224.47 170.038 Q2226.32 170.038 2228.13 169.552 Q2229.96 169.042 2231.76 168.047 L2231.76 171.982 Q2229.98 172.816 2228.06 173.232 Q2226.16 173.649 2224.01 173.649 Q2218.15 173.649 2214.7 169.968 Q2211.25 166.288 2211.25 160.038 Q2211.25 153.695 2214.72 150.061 Q2218.22 146.427 2224.28 146.427 Q2226.25 146.427 2228.13 146.843 Q2230 147.237 2231.76 148.047 Z" fill="#000000" fill-rule="evenodd" fill-opacity="1" /><polyline clip-path="url(#clip560)" style="stroke:#e26f46; stroke-width:4; stroke-opacity:1; fill:none" points="
  1971.31,216.178 2116.5,216.178 
  "/>
<path clip-path="url(#clip560)" d="M 0 0 M2140.7 207.532 L2144.96 207.532 L2144.96 233.458 L2140.7 233.458 L2140.7 207.532 M2140.7 197.439 L2144.96 197.439 L2144.96 202.833 L2140.7 202.833 L2140.7 197.439 Z" fill="#000000" fill-rule="evenodd" fill-opacity="1" /><path clip-path="url(#clip560)" d="M 0 0 M2170.98 217.809 L2170.98 233.458 L2166.72 233.458 L2166.72 217.948 Q2166.72 214.268 2165.28 212.439 Q2163.85 210.61 2160.98 210.61 Q2157.53 210.61 2155.54 212.81 Q2153.54 215.009 2153.54 218.805 L2153.54 233.458 L2149.26 233.458 L2149.26 207.532 L2153.54 207.532 L2153.54 211.56 Q2155.07 209.222 2157.13 208.064 Q2159.22 206.907 2161.92 206.907 Q2166.39 206.907 2168.68 209.685 Q2170.98 212.439 2170.98 217.809 Z" fill="#000000" fill-rule="evenodd" fill-opacity="1" /><path clip-path="url(#clip560)" d="M 0 0 M2188.57 197.439 L2188.57 200.981 L2184.49 200.981 Q2182.2 200.981 2181.3 201.907 Q2180.42 202.833 2180.42 205.24 L2180.42 207.532 L2187.43 207.532 L2187.43 210.842 L2180.42 210.842 L2180.42 233.458 L2176.14 233.458 L2176.14 210.842 L2172.06 210.842 L2172.06 207.532 L2176.14 207.532 L2176.14 205.726 Q2176.14 201.398 2178.15 199.43 Q2180.16 197.439 2184.54 197.439 L2188.57 197.439 Z" fill="#000000" fill-rule="evenodd" fill-opacity="1" /></svg>
