<?xml version="1.0" encoding="utf-8"?>
<svg xmlns="http://www.w3.org/2000/svg" xmlns:xlink="http://www.w3.org/1999/xlink" width="600" height="400" viewBox="0 0 2400 1600">
<defs>
  <clipPath id="clip480">
    <rect x="0" y="0" width="2400" height="1600"/>
  </clipPath>
</defs>
<path clip-path="url(#clip480)" d="
M0 1600 L2400 1600 L2400 0 L0 0  Z
  " fill="#ffffff" fill-rule="evenodd" fill-opacity="1"/>
<defs>
  <clipPath id="clip481">
    <rect x="480" y="0" width="1681" height="1600"/>
  </clipPath>
</defs>
<path clip-path="url(#clip480)" d="
M174.862 1486.45 L2352.76 1486.45 L2352.76 47.2441 L174.862 47.2441  Z
  " fill="#ffffff" fill-rule="evenodd" fill-opacity="1"/>
<defs>
  <clipPath id="clip482">
    <rect x="174" y="47" width="2179" height="1440"/>
  </clipPath>
</defs>
<polyline clip-path="url(#clip482)" style="stroke:#000000; stroke-width:2; stroke-opacity:0.1; fill:none" points="
  232.383,1486.45 232.383,47.2441 
  "/>
<polyline clip-path="url(#clip482)" style="stroke:#000000; stroke-width:2; stroke-opacity:0.1; fill:none" points="
  644.13,1486.45 644.13,47.2441 
  "/>
<polyline clip-path="url(#clip482)" style="stroke:#000000; stroke-width:2; stroke-opacity:0.1; fill:none" points="
  1055.88,1486.45 1055.88,47.2441 
  "/>
<polyline clip-path="url(#clip482)" style="stroke:#000000; stroke-width:2; stroke-opacity:0.1; fill:none" points="
  1467.62,1486.45 1467.62,47.2441 
  "/>
<polyline clip-path="url(#clip482)" style="stroke:#000000; stroke-width:2; stroke-opacity:0.1; fill:none" points="
  1879.37,1486.45 1879.37,47.2441 
  "/>
<polyline clip-path="url(#clip482)" style="stroke:#000000; stroke-width:2; stroke-opacity:0.1; fill:none" points="
  2291.12,1486.45 2291.12,47.2441 
  "/>
<polyline clip-path="url(#clip480)" style="stroke:#000000; stroke-width:4; stroke-opacity:1; fill:none" points="
  174.862,1486.45 2352.76,1486.45 
  "/>
<polyline clip-path="url(#clip480)" style="stroke:#000000; stroke-width:4; stroke-opacity:1; fill:none" points="
  232.383,1486.45 232.383,1469.18 
  "/>
<polyline clip-path="url(#clip480)" style="stroke:#000000; stroke-width:4; stroke-opacity:1; fill:none" points="
  644.13,1486.45 644.13,1469.18 
  "/>
<polyline clip-path="url(#clip480)" style="stroke:#000000; stroke-width:4; stroke-opacity:1; fill:none" points="
  1055.88,1486.45 1055.88,1469.18 
  "/>
<polyline clip-path="url(#clip480)" style="stroke:#000000; stroke-width:4; stroke-opacity:1; fill:none" points="
  1467.62,1486.45 1467.62,1469.18 
  "/>
<polyline clip-path="url(#clip480)" style="stroke:#000000; stroke-width:4; stroke-opacity:1; fill:none" points="
  1879.37,1486.45 1879.37,1469.18 
  "/>
<polyline clip-path="url(#clip480)" style="stroke:#000000; stroke-width:4; stroke-opacity:1; fill:none" points="
  2291.12,1486.45 2291.12,1469.18 
  "/>
<path clip-path="url(#clip480)" d="M 0 0 M232.383 1515.64 Q228.772 1515.64 226.943 1519.2 Q225.138 1522.75 225.138 1529.87 Q225.138 1536.98 226.943 1540.55 Q228.772 1544.09 232.383 1544.09 Q236.017 1544.09 237.823 1540.55 Q239.652 1536.98 239.652 1529.87 Q239.652 1522.75 237.823 1519.2 Q236.017 1515.64 232.383 1515.64 M232.383 1511.93 Q238.193 1511.93 241.249 1516.54 Q244.327 1521.12 244.327 1529.87 Q244.327 1538.6 241.249 1543.21 Q238.193 1547.79 232.383 1547.79 Q226.573 1547.79 223.494 1543.21 Q220.439 1538.6 220.439 1529.87 Q220.439 1521.12 223.494 1516.54 Q226.573 1511.93 232.383 1511.93 Z" fill="#000000" fill-rule="evenodd" fill-opacity="1" /><path clip-path="url(#clip480)" d="M 0 0 M607.498 1543.18 L615.137 1543.18 L615.137 1516.82 L606.827 1518.49 L606.827 1514.23 L615.091 1512.56 L619.767 1512.56 L619.767 1543.18 L627.405 1543.18 L627.405 1547.12 L607.498 1547.12 L607.498 1543.18 Z" fill="#000000" fill-rule="evenodd" fill-opacity="1" /><path clip-path="url(#clip480)" d="M 0 0 M642.475 1515.64 Q638.864 1515.64 637.035 1519.2 Q635.23 1522.75 635.23 1529.87 Q635.23 1536.98 637.035 1540.55 Q638.864 1544.09 642.475 1544.09 Q646.109 1544.09 647.915 1540.55 Q649.743 1536.98 649.743 1529.87 Q649.743 1522.75 647.915 1519.2 Q646.109 1515.64 642.475 1515.64 M642.475 1511.93 Q648.285 1511.93 651.341 1516.54 Q654.419 1521.12 654.419 1529.87 Q654.419 1538.6 651.341 1543.21 Q648.285 1547.79 642.475 1547.79 Q636.665 1547.79 633.586 1543.21 Q630.53 1538.6 630.53 1529.87 Q630.53 1521.12 633.586 1516.54 Q636.665 1511.93 642.475 1511.93 Z" fill="#000000" fill-rule="evenodd" fill-opacity="1" /><path clip-path="url(#clip480)" d="M 0 0 M669.489 1515.64 Q665.877 1515.64 664.049 1519.2 Q662.243 1522.75 662.243 1529.87 Q662.243 1536.98 664.049 1540.55 Q665.877 1544.09 669.489 1544.09 Q673.123 1544.09 674.928 1540.55 Q676.757 1536.98 676.757 1529.87 Q676.757 1522.75 674.928 1519.2 Q673.123 1515.64 669.489 1515.64 M669.489 1511.93 Q675.299 1511.93 678.354 1516.54 Q681.433 1521.12 681.433 1529.87 Q681.433 1538.6 678.354 1543.21 Q675.299 1547.79 669.489 1547.79 Q663.678 1547.79 660.6 1543.21 Q657.544 1538.6 657.544 1529.87 Q657.544 1521.12 660.6 1516.54 Q663.678 1511.93 669.489 1511.93 Z" fill="#000000" fill-rule="evenodd" fill-opacity="1" /><path clip-path="url(#clip480)" d="M 0 0 M1023.52 1543.18 L1039.84 1543.18 L1039.84 1547.12 L1017.89 1547.12 L1017.89 1543.18 Q1020.55 1540.43 1025.14 1535.8 Q1029.74 1531.15 1030.92 1529.81 Q1033.17 1527.28 1034.05 1525.55 Q1034.95 1523.79 1034.95 1522.1 Q1034.95 1519.34 1033.01 1517.61 Q1031.09 1515.87 1027.98 1515.87 Q1025.78 1515.87 1023.33 1516.63 Q1020.9 1517.4 1018.12 1518.95 L1018.12 1514.23 Q1020.95 1513.09 1023.4 1512.51 Q1025.85 1511.93 1027.89 1511.93 Q1033.26 1511.93 1036.46 1514.62 Q1039.65 1517.31 1039.65 1521.8 Q1039.65 1523.93 1038.84 1525.85 Q1038.05 1527.74 1035.95 1530.34 Q1035.37 1531.01 1032.27 1534.23 Q1029.16 1537.42 1023.52 1543.18 Z" fill="#000000" fill-rule="evenodd" fill-opacity="1" /><path clip-path="url(#clip480)" d="M 0 0 M1054.9 1515.64 Q1051.29 1515.64 1049.46 1519.2 Q1047.66 1522.75 1047.66 1529.87 Q1047.66 1536.98 1049.46 1540.55 Q1051.29 1544.09 1054.9 1544.09 Q1058.54 1544.09 1060.34 1540.55 Q1062.17 1536.98 1062.17 1529.87 Q1062.17 1522.75 1060.34 1519.2 Q1058.54 1515.64 1054.9 1515.64 M1054.9 1511.93 Q1060.71 1511.93 1063.77 1516.54 Q1066.85 1521.12 1066.85 1529.87 Q1066.85 1538.6 1063.77 1543.21 Q1060.71 1547.79 1054.9 1547.79 Q1049.09 1547.79 1046.02 1543.21 Q1042.96 1538.6 1042.96 1529.87 Q1042.96 1521.12 1046.02 1516.54 Q1049.09 1511.93 1054.9 1511.93 Z" fill="#000000" fill-rule="evenodd" fill-opacity="1" /><path clip-path="url(#clip480)" d="M 0 0 M1081.92 1515.64 Q1078.31 1515.64 1076.48 1519.2 Q1074.67 1522.75 1074.67 1529.87 Q1074.67 1536.98 1076.48 1540.55 Q1078.31 1544.09 1081.92 1544.09 Q1085.55 1544.09 1087.36 1540.55 Q1089.19 1536.98 1089.19 1529.87 Q1089.19 1522.75 1087.36 1519.2 Q1085.55 1515.64 1081.92 1515.64 M1081.92 1511.93 Q1087.73 1511.93 1090.78 1516.54 Q1093.86 1521.12 1093.86 1529.87 Q1093.86 1538.6 1090.78 1543.21 Q1087.73 1547.79 1081.92 1547.79 Q1076.11 1547.79 1073.03 1543.21 Q1069.97 1538.6 1069.97 1529.87 Q1069.97 1521.12 1073.03 1516.54 Q1076.11 1511.93 1081.92 1511.93 Z" fill="#000000" fill-rule="evenodd" fill-opacity="1" /><path clip-path="url(#clip480)" d="M 0 0 M1444.86 1528.49 Q1448.21 1529.2 1450.09 1531.47 Q1451.99 1533.74 1451.99 1537.07 Q1451.99 1542.19 1448.47 1544.99 Q1444.95 1547.79 1438.47 1547.79 Q1436.29 1547.79 1433.98 1547.35 Q1431.69 1546.93 1429.23 1546.08 L1429.23 1541.56 Q1431.18 1542.7 1433.49 1543.28 Q1435.81 1543.86 1438.33 1543.86 Q1442.73 1543.86 1445.02 1542.12 Q1447.33 1540.38 1447.33 1537.07 Q1447.33 1534.02 1445.18 1532.31 Q1443.05 1530.57 1439.23 1530.57 L1435.2 1530.57 L1435.2 1526.73 L1439.42 1526.73 Q1442.87 1526.73 1444.7 1525.36 Q1446.52 1523.97 1446.52 1521.38 Q1446.52 1518.72 1444.63 1517.31 Q1442.75 1515.87 1439.23 1515.87 Q1437.31 1515.87 1435.11 1516.29 Q1432.91 1516.7 1430.27 1517.58 L1430.27 1513.42 Q1432.94 1512.68 1435.25 1512.31 Q1437.59 1511.93 1439.65 1511.93 Q1444.97 1511.93 1448.08 1514.37 Q1451.18 1516.77 1451.18 1520.89 Q1451.18 1523.76 1449.53 1525.75 Q1447.89 1527.72 1444.86 1528.49 Z" fill="#000000" fill-rule="evenodd" fill-opacity="1" /><path clip-path="url(#clip480)" d="M 0 0 M1467.06 1515.64 Q1463.45 1515.64 1461.62 1519.2 Q1459.81 1522.75 1459.81 1529.87 Q1459.81 1536.98 1461.62 1540.55 Q1463.45 1544.09 1467.06 1544.09 Q1470.69 1544.09 1472.5 1540.55 Q1474.33 1536.98 1474.33 1529.87 Q1474.33 1522.75 1472.5 1519.2 Q1470.69 1515.64 1467.06 1515.64 M1467.06 1511.93 Q1472.87 1511.93 1475.92 1516.54 Q1479 1521.12 1479 1529.87 Q1479 1538.6 1475.92 1543.21 Q1472.87 1547.79 1467.06 1547.79 Q1461.25 1547.79 1458.17 1543.21 Q1455.11 1538.6 1455.11 1529.87 Q1455.11 1521.12 1458.17 1516.54 Q1461.25 1511.93 1467.06 1511.93 Z" fill="#000000" fill-rule="evenodd" fill-opacity="1" /><path clip-path="url(#clip480)" d="M 0 0 M1494.07 1515.64 Q1490.46 1515.64 1488.63 1519.2 Q1486.82 1522.75 1486.82 1529.87 Q1486.82 1536.98 1488.63 1540.55 Q1490.46 1544.09 1494.07 1544.09 Q1497.7 1544.09 1499.51 1540.55 Q1501.34 1536.98 1501.34 1529.87 Q1501.34 1522.75 1499.51 1519.2 Q1497.7 1515.64 1494.07 1515.64 M1494.07 1511.93 Q1499.88 1511.93 1502.94 1516.54 Q1506.01 1521.12 1506.01 1529.87 Q1506.01 1538.6 1502.94 1543.21 Q1499.88 1547.79 1494.07 1547.79 Q1488.26 1547.79 1485.18 1543.21 Q1482.13 1538.6 1482.13 1529.87 Q1482.13 1521.12 1485.18 1516.54 Q1488.26 1511.93 1494.07 1511.93 Z" fill="#000000" fill-rule="evenodd" fill-opacity="1" /><path clip-path="url(#clip480)" d="M 0 0 M1855.37 1516.63 L1843.56 1535.08 L1855.37 1535.08 L1855.37 1516.63 M1854.14 1512.56 L1860.02 1512.56 L1860.02 1535.08 L1864.95 1535.08 L1864.95 1538.97 L1860.02 1538.97 L1860.02 1547.12 L1855.37 1547.12 L1855.37 1538.97 L1839.76 1538.97 L1839.76 1534.46 L1854.14 1512.56 Z" fill="#000000" fill-rule="evenodd" fill-opacity="1" /><path clip-path="url(#clip480)" d="M 0 0 M1880.02 1515.64 Q1876.41 1515.64 1874.58 1519.2 Q1872.77 1522.75 1872.77 1529.87 Q1872.77 1536.98 1874.58 1540.55 Q1876.41 1544.09 1880.02 1544.09 Q1883.65 1544.09 1885.46 1540.55 Q1887.29 1536.98 1887.29 1529.87 Q1887.29 1522.75 1885.46 1519.2 Q1883.65 1515.64 1880.02 1515.64 M1880.02 1511.93 Q1885.83 1511.93 1888.88 1516.54 Q1891.96 1521.12 1891.96 1529.87 Q1891.96 1538.6 1888.88 1543.21 Q1885.83 1547.79 1880.02 1547.79 Q1874.21 1547.79 1871.13 1543.21 Q1868.07 1538.6 1868.07 1529.87 Q1868.07 1521.12 1871.13 1516.54 Q1874.21 1511.93 1880.02 1511.93 Z" fill="#000000" fill-rule="evenodd" fill-opacity="1" /><path clip-path="url(#clip480)" d="M 0 0 M1907.03 1515.64 Q1903.42 1515.64 1901.59 1519.2 Q1899.79 1522.75 1899.79 1529.87 Q1899.79 1536.98 1901.59 1540.55 Q1903.42 1544.09 1907.03 1544.09 Q1910.67 1544.09 1912.47 1540.55 Q1914.3 1536.98 1914.3 1529.87 Q1914.3 1522.75 1912.47 1519.2 Q1910.67 1515.64 1907.03 1515.64 M1907.03 1511.93 Q1912.84 1511.93 1915.9 1516.54 Q1918.98 1521.12 1918.98 1529.87 Q1918.98 1538.6 1915.9 1543.21 Q1912.84 1547.79 1907.03 1547.79 Q1901.22 1547.79 1898.14 1543.21 Q1895.09 1538.6 1895.09 1529.87 Q1895.09 1521.12 1898.14 1516.54 Q1901.22 1511.93 1907.03 1511.93 Z" fill="#000000" fill-rule="evenodd" fill-opacity="1" /><path clip-path="url(#clip480)" d="M 0 0 M2254.38 1512.56 L2272.74 1512.56 L2272.74 1516.5 L2258.66 1516.5 L2258.66 1524.97 Q2259.68 1524.62 2260.7 1524.46 Q2261.72 1524.27 2262.74 1524.27 Q2268.52 1524.27 2271.9 1527.44 Q2275.28 1530.62 2275.28 1536.03 Q2275.28 1541.61 2271.81 1544.71 Q2268.34 1547.79 2262.02 1547.79 Q2259.84 1547.79 2257.58 1547.42 Q2255.33 1547.05 2252.92 1546.31 L2252.92 1541.61 Q2255.01 1542.74 2257.23 1543.3 Q2259.45 1543.86 2261.93 1543.86 Q2265.93 1543.86 2268.27 1541.75 Q2270.61 1539.64 2270.61 1536.03 Q2270.61 1532.42 2268.27 1530.31 Q2265.93 1528.21 2261.93 1528.21 Q2260.05 1528.21 2258.18 1528.62 Q2256.33 1529.04 2254.38 1529.92 L2254.38 1512.56 Z" fill="#000000" fill-rule="evenodd" fill-opacity="1" /><path clip-path="url(#clip480)" d="M 0 0 M2290.35 1515.64 Q2286.74 1515.64 2284.91 1519.2 Q2283.11 1522.75 2283.11 1529.87 Q2283.11 1536.98 2284.91 1540.55 Q2286.74 1544.09 2290.35 1544.09 Q2293.99 1544.09 2295.79 1540.55 Q2297.62 1536.98 2297.62 1529.87 Q2297.62 1522.75 2295.79 1519.2 Q2293.99 1515.64 2290.35 1515.64 M2290.35 1511.93 Q2296.16 1511.93 2299.22 1516.54 Q2302.3 1521.12 2302.3 1529.87 Q2302.3 1538.6 2299.22 1543.21 Q2296.16 1547.79 2290.35 1547.79 Q2284.54 1547.79 2281.46 1543.21 Q2278.41 1538.6 2278.41 1529.87 Q2278.41 1521.12 2281.46 1516.54 Q2284.54 1511.93 2290.35 1511.93 Z" fill="#000000" fill-rule="evenodd" fill-opacity="1" /><path clip-path="url(#clip480)" d="M 0 0 M2317.37 1515.64 Q2313.76 1515.64 2311.93 1519.2 Q2310.12 1522.75 2310.12 1529.87 Q2310.12 1536.98 2311.93 1540.55 Q2313.76 1544.09 2317.37 1544.09 Q2321 1544.09 2322.81 1540.55 Q2324.64 1536.98 2324.64 1529.87 Q2324.64 1522.75 2322.81 1519.2 Q2321 1515.64 2317.37 1515.64 M2317.37 1511.93 Q2323.18 1511.93 2326.23 1516.54 Q2329.31 1521.12 2329.31 1529.87 Q2329.31 1538.6 2326.23 1543.21 Q2323.18 1547.79 2317.37 1547.79 Q2311.56 1547.79 2308.48 1543.21 Q2305.42 1538.6 2305.42 1529.87 Q2305.42 1521.12 2308.48 1516.54 Q2311.56 1511.93 2317.37 1511.93 Z" fill="#000000" fill-rule="evenodd" fill-opacity="1" /><polyline clip-path="url(#clip482)" style="stroke:#000000; stroke-width:2; stroke-opacity:0.1; fill:none" points="
  174.862,1462.41 2352.76,1462.41 
  "/>
<polyline clip-path="url(#clip482)" style="stroke:#000000; stroke-width:2; stroke-opacity:0.1; fill:none" points="
  174.862,1114.63 2352.76,1114.63 
  "/>
<polyline clip-path="url(#clip482)" style="stroke:#000000; stroke-width:2; stroke-opacity:0.1; fill:none" points="
  174.862,766.846 2352.76,766.846 
  "/>
<polyline clip-path="url(#clip482)" style="stroke:#000000; stroke-width:2; stroke-opacity:0.1; fill:none" points="
  174.862,419.064 2352.76,419.064 
  "/>
<polyline clip-path="url(#clip482)" style="stroke:#000000; stroke-width:2; stroke-opacity:0.1; fill:none" points="
  174.862,71.2828 2352.76,71.2828 
  "/>
<polyline clip-path="url(#clip480)" style="stroke:#000000; stroke-width:4; stroke-opacity:1; fill:none" points="
  174.862,1486.45 174.862,47.2441 
  "/>
<polyline clip-path="url(#clip480)" style="stroke:#000000; stroke-width:4; stroke-opacity:1; fill:none" points="
  174.862,1462.41 200.997,1462.41 
  "/>
<polyline clip-path="url(#clip480)" style="stroke:#000000; stroke-width:4; stroke-opacity:1; fill:none" points="
  174.862,1114.63 200.997,1114.63 
  "/>
<polyline clip-path="url(#clip480)" style="stroke:#000000; stroke-width:4; stroke-opacity:1; fill:none" points="
  174.862,766.846 200.997,766.846 
  "/>
<polyline clip-path="url(#clip480)" style="stroke:#000000; stroke-width:4; stroke-opacity:1; fill:none" points="
  174.862,419.064 200.997,419.064 
  "/>
<polyline clip-path="url(#clip480)" style="stroke:#000000; stroke-width:4; stroke-opacity:1; fill:none" points="
  174.862,71.2828 200.997,71.2828 
  "/>
<path clip-path="url(#clip480)" d="M 0 0 M62.9365 1448.21 Q59.3254 1448.21 57.4967 1451.77 Q55.6912 1455.31 55.6912 1462.44 Q55.6912 1469.55 57.4967 1473.12 Q59.3254 1476.66 62.9365 1476.66 Q66.5707 1476.66 68.3763 1473.12 Q70.205 1469.55 70.205 1462.44 Q70.205 1455.31 68.3763 1451.77 Q66.5707 1448.21 62.9365 1448.21 M62.9365 1444.5 Q68.7467 1444.5 71.8022 1449.11 Q74.8809 1453.69 74.8809 1462.44 Q74.8809 1471.17 71.8022 1475.78 Q68.7467 1480.36 62.9365 1480.36 Q57.1264 1480.36 54.0477 1475.78 Q50.9921 1471.17 50.9921 1462.44 Q50.9921 1453.69 54.0477 1449.11 Q57.1264 1444.5 62.9365 1444.5 Z" fill="#000000" fill-rule="evenodd" fill-opacity="1" /><path clip-path="url(#clip480)" d="M 0 0 M79.9503 1473.81 L84.8345 1473.81 L84.8345 1479.69 L79.9503 1479.69 L79.9503 1473.81 Z" fill="#000000" fill-rule="evenodd" fill-opacity="1" /><path clip-path="url(#clip480)" d="M 0 0 M99.9039 1448.21 Q96.2928 1448.21 94.4641 1451.77 Q92.6586 1455.31 92.6586 1462.44 Q92.6586 1469.55 94.4641 1473.12 Q96.2928 1476.66 99.9039 1476.66 Q103.538 1476.66 105.344 1473.12 Q107.172 1469.55 107.172 1462.44 Q107.172 1455.31 105.344 1451.77 Q103.538 1448.21 99.9039 1448.21 M99.9039 1444.5 Q105.714 1444.5 108.77 1449.11 Q111.848 1453.69 111.848 1462.44 Q111.848 1471.17 108.77 1475.78 Q105.714 1480.36 99.9039 1480.36 Q94.0937 1480.36 91.0151 1475.78 Q87.9595 1471.17 87.9595 1462.44 Q87.9595 1453.69 91.0151 1449.11 Q94.0937 1444.5 99.9039 1444.5 Z" fill="#000000" fill-rule="evenodd" fill-opacity="1" /><path clip-path="url(#clip480)" d="M 0 0 M126.918 1448.21 Q123.307 1448.21 121.478 1451.77 Q119.672 1455.31 119.672 1462.44 Q119.672 1469.55 121.478 1473.12 Q123.307 1476.66 126.918 1476.66 Q130.552 1476.66 132.357 1473.12 Q134.186 1469.55 134.186 1462.44 Q134.186 1455.31 132.357 1451.77 Q130.552 1448.21 126.918 1448.21 M126.918 1444.5 Q132.728 1444.5 135.783 1449.11 Q138.862 1453.69 138.862 1462.44 Q138.862 1471.17 135.783 1475.78 Q132.728 1480.36 126.918 1480.36 Q121.107 1480.36 118.029 1475.78 Q114.973 1471.17 114.973 1462.44 Q114.973 1453.69 118.029 1449.11 Q121.107 1444.5 126.918 1444.5 Z" fill="#000000" fill-rule="evenodd" fill-opacity="1" /><path clip-path="url(#clip480)" d="M 0 0 M65.5291 1100.43 Q61.918 1100.43 60.0893 1103.99 Q58.2838 1107.53 58.2838 1114.66 Q58.2838 1121.77 60.0893 1125.33 Q61.918 1128.88 65.5291 1128.88 Q69.1633 1128.88 70.9689 1125.33 Q72.7976 1121.77 72.7976 1114.66 Q72.7976 1107.53 70.9689 1103.99 Q69.1633 1100.43 65.5291 1100.43 M65.5291 1096.72 Q71.3392 1096.72 74.3948 1101.33 Q77.4735 1105.91 77.4735 1114.66 Q77.4735 1123.39 74.3948 1128 Q71.3392 1132.58 65.5291 1132.58 Q59.7189 1132.58 56.6402 1128 Q53.5847 1123.39 53.5847 1114.66 Q53.5847 1105.91 56.6402 1101.33 Q59.7189 1096.72 65.5291 1096.72 Z" fill="#000000" fill-rule="evenodd" fill-opacity="1" /><path clip-path="url(#clip480)" d="M 0 0 M82.5429 1126.03 L87.4271 1126.03 L87.4271 1131.91 L82.5429 1131.91 L82.5429 1126.03 Z" fill="#000000" fill-rule="evenodd" fill-opacity="1" /><path clip-path="url(#clip480)" d="M 0 0 M96.5243 1127.97 L112.844 1127.97 L112.844 1131.91 L90.8993 1131.91 L90.8993 1127.97 Q93.5613 1125.22 98.1447 1120.59 Q102.751 1115.94 103.932 1114.59 Q106.177 1112.07 107.057 1110.33 Q107.959 1108.57 107.959 1106.88 Q107.959 1104.13 106.015 1102.39 Q104.094 1100.66 100.992 1100.66 Q98.7928 1100.66 96.3391 1101.42 Q93.9086 1102.19 91.1308 1103.74 L91.1308 1099.01 Q93.9549 1097.88 96.4085 1097.3 Q98.8622 1096.72 100.899 1096.72 Q106.27 1096.72 109.464 1099.41 Q112.658 1102.09 112.658 1106.58 Q112.658 1108.71 111.848 1110.63 Q111.061 1112.53 108.955 1115.13 Q108.376 1115.8 105.274 1119.01 Q102.172 1122.21 96.5243 1127.97 Z" fill="#000000" fill-rule="evenodd" fill-opacity="1" /><path clip-path="url(#clip480)" d="M 0 0 M117.959 1097.35 L136.316 1097.35 L136.316 1101.28 L122.242 1101.28 L122.242 1109.75 Q123.26 1109.41 124.279 1109.25 Q125.297 1109.06 126.316 1109.06 Q132.103 1109.06 135.482 1112.23 Q138.862 1115.4 138.862 1120.82 Q138.862 1126.4 135.39 1129.5 Q131.918 1132.58 125.598 1132.58 Q123.422 1132.58 121.154 1132.21 Q118.908 1131.84 116.501 1131.1 L116.501 1126.4 Q118.584 1127.53 120.807 1128.09 Q123.029 1128.64 125.506 1128.64 Q129.51 1128.64 131.848 1126.54 Q134.186 1124.43 134.186 1120.82 Q134.186 1117.21 131.848 1115.1 Q129.51 1113 125.506 1113 Q123.631 1113 121.756 1113.41 Q119.904 1113.83 117.959 1114.71 L117.959 1097.35 Z" fill="#000000" fill-rule="evenodd" fill-opacity="1" /><path clip-path="url(#clip480)" d="M 0 0 M63.9319 752.645 Q60.3208 752.645 58.4921 756.209 Q56.6865 759.751 56.6865 766.881 Q56.6865 773.987 58.4921 777.552 Q60.3208 781.094 63.9319 781.094 Q67.5661 781.094 69.3717 777.552 Q71.2004 773.987 71.2004 766.881 Q71.2004 759.751 69.3717 756.209 Q67.5661 752.645 63.9319 752.645 M63.9319 748.941 Q69.742 748.941 72.7976 753.547 Q75.8763 758.131 75.8763 766.881 Q75.8763 775.608 72.7976 780.214 Q69.742 784.797 63.9319 784.797 Q58.1217 784.797 55.043 780.214 Q51.9875 775.608 51.9875 766.881 Q51.9875 758.131 55.043 753.547 Q58.1217 748.941 63.9319 748.941 Z" fill="#000000" fill-rule="evenodd" fill-opacity="1" /><path clip-path="url(#clip480)" d="M 0 0 M80.9457 778.246 L85.8299 778.246 L85.8299 784.126 L80.9457 784.126 L80.9457 778.246 Z" fill="#000000" fill-rule="evenodd" fill-opacity="1" /><path clip-path="url(#clip480)" d="M 0 0 M90.9456 749.566 L109.302 749.566 L109.302 753.501 L95.228 753.501 L95.228 761.973 Q96.2465 761.626 97.265 761.464 Q98.2835 761.279 99.3021 761.279 Q105.089 761.279 108.469 764.45 Q111.848 767.621 111.848 773.038 Q111.848 778.617 108.376 781.719 Q104.904 784.797 98.5845 784.797 Q96.4085 784.797 94.14 784.427 Q91.8947 784.057 89.4873 783.316 L89.4873 778.617 Q91.5706 779.751 93.7928 780.307 Q96.015 780.862 98.4919 780.862 Q102.496 780.862 104.834 778.756 Q107.172 776.649 107.172 773.038 Q107.172 769.427 104.834 767.321 Q102.496 765.214 98.4919 765.214 Q96.6169 765.214 94.7419 765.631 Q92.89 766.047 90.9456 766.927 L90.9456 749.566 Z" fill="#000000" fill-rule="evenodd" fill-opacity="1" /><path clip-path="url(#clip480)" d="M 0 0 M126.918 752.645 Q123.307 752.645 121.478 756.209 Q119.672 759.751 119.672 766.881 Q119.672 773.987 121.478 777.552 Q123.307 781.094 126.918 781.094 Q130.552 781.094 132.357 777.552 Q134.186 773.987 134.186 766.881 Q134.186 759.751 132.357 756.209 Q130.552 752.645 126.918 752.645 M126.918 748.941 Q132.728 748.941 135.783 753.547 Q138.862 758.131 138.862 766.881 Q138.862 775.608 135.783 780.214 Q132.728 784.797 126.918 784.797 Q121.107 784.797 118.029 780.214 Q114.973 775.608 114.973 766.881 Q114.973 758.131 118.029 753.547 Q121.107 748.941 126.918 748.941 Z" fill="#000000" fill-rule="evenodd" fill-opacity="1" /><path clip-path="url(#clip480)" d="M 0 0 M64.8346 404.863 Q61.2236 404.863 59.3949 408.428 Q57.5893 411.97 57.5893 419.099 Q57.5893 426.206 59.3949 429.77 Q61.2236 433.312 64.8346 433.312 Q68.4689 433.312 70.2744 429.77 Q72.1031 426.206 72.1031 419.099 Q72.1031 411.97 70.2744 408.428 Q68.4689 404.863 64.8346 404.863 M64.8346 401.159 Q70.6448 401.159 73.7003 405.766 Q76.779 410.349 76.779 419.099 Q76.779 427.826 73.7003 432.432 Q70.6448 437.016 64.8346 437.016 Q59.0245 437.016 55.9458 432.432 Q52.8903 427.826 52.8903 419.099 Q52.8903 410.349 55.9458 405.766 Q59.0245 401.159 64.8346 401.159 Z" fill="#000000" fill-rule="evenodd" fill-opacity="1" /><path clip-path="url(#clip480)" d="M 0 0 M81.8484 430.465 L86.7327 430.465 L86.7327 436.344 L81.8484 436.344 L81.8484 430.465 Z" fill="#000000" fill-rule="evenodd" fill-opacity="1" /><path clip-path="url(#clip480)" d="M 0 0 M90.6215 401.784 L112.844 401.784 L112.844 403.775 L100.297 436.344 L95.4132 436.344 L107.219 405.72 L90.6215 405.72 L90.6215 401.784 Z" fill="#000000" fill-rule="evenodd" fill-opacity="1" /><path clip-path="url(#clip480)" d="M 0 0 M117.959 401.784 L136.316 401.784 L136.316 405.72 L122.242 405.72 L122.242 414.192 Q123.26 413.844 124.279 413.682 Q125.297 413.497 126.316 413.497 Q132.103 413.497 135.482 416.669 Q138.862 419.84 138.862 425.256 Q138.862 430.835 135.39 433.937 Q131.918 437.016 125.598 437.016 Q123.422 437.016 121.154 436.645 Q118.908 436.275 116.501 435.534 L116.501 430.835 Q118.584 431.969 120.807 432.525 Q123.029 433.081 125.506 433.081 Q129.51 433.081 131.848 430.974 Q134.186 428.868 134.186 425.256 Q134.186 421.645 131.848 419.539 Q129.51 417.432 125.506 417.432 Q123.631 417.432 121.756 417.849 Q119.904 418.266 117.959 419.145 L117.959 401.784 Z" fill="#000000" fill-rule="evenodd" fill-opacity="1" /><path clip-path="url(#clip480)" d="M 0 0 M54.9736 84.6276 L62.6124 84.6276 L62.6124 58.262 L54.3023 59.9287 L54.3023 55.6694 L62.5661 54.0028 L67.242 54.0028 L67.242 84.6276 L74.8809 84.6276 L74.8809 88.5628 L54.9736 88.5628 L54.9736 84.6276 Z" fill="#000000" fill-rule="evenodd" fill-opacity="1" /><path clip-path="url(#clip480)" d="M 0 0 M79.9503 82.6832 L84.8345 82.6832 L84.8345 88.5628 L79.9503 88.5628 L79.9503 82.6832 Z" fill="#000000" fill-rule="evenodd" fill-opacity="1" /><path clip-path="url(#clip480)" d="M 0 0 M99.9039 57.0814 Q96.2928 57.0814 94.4641 60.6462 Q92.6586 64.1879 92.6586 71.3175 Q92.6586 78.4239 94.4641 81.9887 Q96.2928 85.5304 99.9039 85.5304 Q103.538 85.5304 105.344 81.9887 Q107.172 78.4239 107.172 71.3175 Q107.172 64.1879 105.344 60.6462 Q103.538 57.0814 99.9039 57.0814 M99.9039 53.3778 Q105.714 53.3778 108.77 57.9842 Q111.848 62.5675 111.848 71.3175 Q111.848 80.0443 108.77 84.6507 Q105.714 89.2341 99.9039 89.2341 Q94.0937 89.2341 91.0151 84.6507 Q87.9595 80.0443 87.9595 71.3175 Q87.9595 62.5675 91.0151 57.9842 Q94.0937 53.3778 99.9039 53.3778 Z" fill="#000000" fill-rule="evenodd" fill-opacity="1" /><path clip-path="url(#clip480)" d="M 0 0 M126.918 57.0814 Q123.307 57.0814 121.478 60.6462 Q119.672 64.1879 119.672 71.3175 Q119.672 78.4239 121.478 81.9887 Q123.307 85.5304 126.918 85.5304 Q130.552 85.5304 132.357 81.9887 Q134.186 78.4239 134.186 71.3175 Q134.186 64.1879 132.357 60.6462 Q130.552 57.0814 126.918 57.0814 M126.918 53.3778 Q132.728 53.3778 135.783 57.9842 Q138.862 62.5675 138.862 71.3175 Q138.862 80.0443 135.783 84.6507 Q132.728 89.2341 126.918 89.2341 Q121.107 89.2341 118.029 84.6507 Q114.973 80.0443 114.973 71.3175 Q114.973 62.5675 118.029 57.9842 Q121.107 53.3778 126.918 53.3778 Z" fill="#000000" fill-rule="evenodd" fill-opacity="1" /><polyline clip-path="url(#clip482)" style="stroke:#009af9; stroke-width:4; stroke-opacity:1; fill:none" points="
  236.501,87.9763 240.618,87.9763 244.735,87.9763 248.853,92.1497 252.97,92.1497 257.088,94.9319 261.205,96.323 265.323,97.7142 269.44,101.888 273.558,100.496 
  277.675,99.1053 281.793,99.1053 285.91,101.888 290.028,100.496 294.145,101.888 298.263,103.279 302.38,106.061 306.497,110.234 310.615,117.19 314.732,121.363 
  318.85,128.319 322.967,126.928 327.085,132.492 331.202,140.839 335.32,156.141 339.437,158.924 343.555,161.706 347.672,161.706 351.79,171.444 355.907,177.008 
  360.025,181.182 364.142,188.137 368.26,195.093 372.377,196.484 376.494,206.222 380.612,213.178 384.729,220.133 388.847,231.262 392.964,241 397.082,249.347 
  401.199,256.303 405.317,270.214 409.434,291.081 413.552,307.774 417.669,318.903 421.787,325.859 425.904,335.597 430.022,346.726 434.139,371.766 438.256,394.024 
  442.374,396.806 446.491,413.5 450.609,424.629 454.726,444.105 458.844,466.363 462.961,477.492 467.079,481.665 471.196,495.576 475.314,512.27 479.431,534.528 
  483.549,534.528 487.666,552.613 491.784,563.742 495.901,591.564 500.019,634.689 504.136,651.382 508.253,683.378 512.371,705.636 516.488,713.983 520.606,729.286 
  524.723,733.459 528.841,757.108 532.958,765.455 537.076,779.366 541.193,796.06 545.311,823.882 549.428,832.229 553.546,832.229 557.663,841.967 561.781,858.66 
  565.898,865.616 570.015,862.834 574.133,872.572 578.25,872.572 582.368,879.527 586.485,897.612 590.603,922.652 594.72,932.39 598.838,933.781 602.955,962.995 
  607.073,978.297 611.19,1001.95 615.308,1003.34 619.425,997.773 623.543,990.817 627.66,982.471 631.778,990.817 635.895,1006.12 640.012,997.773 644.13,1017.25 
  648.247,1022.81 652.365,1013.08 656.482,1021.42 660.6,1021.42 664.717,1029.77 668.835,1026.99 672.952,1022.81 677.07,1010.29 681.187,1021.42 685.305,1029.77 
  689.422,1028.38 693.54,1033.94 697.657,1033.94 701.774,1036.72 705.892,1040.9 710.009,1038.12 714.127,1039.51 718.244,1050.64 722.362,1047.85 726.479,1057.59 
  730.597,1056.2 734.714,1056.2 738.832,1064.55 742.949,1067.33 747.067,1054.81 751.184,1045.07 755.302,1054.81 759.419,1070.11 763.537,1079.85 767.654,1084.02 
  771.771,1074.28 775.889,1081.24 780.006,1077.07 784.124,1079.85 788.241,1074.28 792.359,1056.2 796.476,1063.16 800.594,1054.81 804.711,1060.37 808.829,1054.81 
  812.946,1054.81 817.064,1064.55 821.181,1065.94 825.299,1050.64 829.416,1050.64 833.533,1045.07 837.651,1050.64 841.768,1049.24 845.886,1045.07 850.003,1050.64 
  854.121,1067.33 858.238,1047.85 862.356,1040.9 866.473,1036.72 870.591,1061.76 874.708,1053.42 878.826,1038.12 882.943,1040.9 887.061,1040.9 891.178,1061.76 
  895.296,1067.33 899.413,1053.42 903.53,1053.42 907.648,1054.81 911.765,1039.51 915.883,1039.51 920,1040.9 924.118,1031.16 928.235,1028.38 932.353,1021.42 
  936.47,1014.47 940.588,1014.47 944.705,1010.29 948.823,1010.29 952.94,1013.08 957.058,1020.03 961.175,1028.38 965.292,1026.99 969.41,1032.55 973.527,1032.55 
  977.645,1026.99 981.762,1028.38 985.88,1028.38 989.997,1036.72 994.115,1047.85 998.232,1050.64 1002.35,1045.07 1006.47,1045.07 1010.58,1053.42 1014.7,1043.68 
  1018.82,1053.42 1022.94,1071.5 1027.05,1086.81 1031.17,1100.72 1035.29,1093.76 1039.41,1095.15 1043.52,1092.37 1047.64,1096.54 1051.76,1097.93 1055.88,1092.37 
  1059.99,1079.85 1064.11,1084.02 1068.23,1071.5 1072.35,1063.16 1076.46,1067.33 1080.58,1054.81 1084.7,1045.07 1088.82,1052.03 1092.93,1049.24 1097.05,1061.76 
  1101.17,1056.2 1105.29,1061.76 1109.4,1063.16 1113.52,1053.42 1117.64,1072.89 1121.76,1072.89 1125.87,1064.55 1129.99,1071.5 1134.11,1077.07 1138.23,1075.68 
  1142.34,1057.59 1146.46,1064.55 1150.58,1063.16 1154.7,1063.16 1158.81,1067.33 1162.93,1063.16 1167.05,1058.98 1171.17,1060.37 1175.28,1050.64 1179.4,1039.51 
  1183.52,1053.42 1187.64,1057.59 1191.75,1078.46 1195.87,1084.02 1199.99,1097.93 1204.11,1111.85 1208.22,1113.24 1212.34,1097.93 1216.46,1096.54 1220.58,1092.37 
  1224.69,1093.76 1228.81,1103.5 1232.93,1107.67 1237.05,1090.98 1241.16,1097.93 1245.28,1103.5 1249.4,1097.93 1253.52,1090.98 1257.63,1088.2 1261.75,1097.93 
  1265.87,1089.59 1269.99,1086.81 1274.1,1077.07 1278.22,1088.2 1282.34,1089.59 1286.46,1079.85 1290.57,1079.85 1294.69,1074.28 1298.81,1057.59 1302.92,1050.64 
  1307.04,1042.29 1311.16,1052.03 1315.28,1054.81 1319.39,1049.24 1323.51,1053.42 1327.63,1050.64 1331.75,1043.68 1335.86,1046.46 1339.98,1045.07 1344.1,1046.46 
  1348.22,1060.37 1352.33,1054.81 1356.45,1061.76 1360.57,1064.55 1364.69,1058.98 1368.8,1054.81 1372.92,1068.72 1377.04,1068.72 1381.16,1054.81 1385.27,1038.12 
  1389.39,1039.51 1393.51,1021.42 1397.63,1026.99 1401.74,1036.72 1405.86,1040.9 1409.98,1038.12 1414.1,1042.29 1418.21,1038.12 1422.33,1018.64 1426.45,1014.47 
  1430.57,1014.47 1434.68,1008.9 1438.8,1020.03 1442.92,1010.29 1447.04,1011.68 1451.15,999.164 1455.27,979.688 1459.39,985.253 1463.51,985.253 1467.62,981.079 
  1471.74,978.297 1475.86,965.777 1479.98,958.821 1484.09,962.995 1488.21,971.342 1492.33,965.777 1496.45,976.906 1500.56,988.035 1504.68,982.471 1508.8,978.297 
  1512.92,988.035 1517.03,1000.56 1521.15,997.773 1525.27,1020.03 1529.39,1025.6 1533.5,1021.42 1537.62,1000.56 1541.74,1004.73 1545.86,993.6 1549.97,1001.95 
  1554.09,1013.08 1558.21,1018.64 1562.33,1024.2 1566.44,1033.94 1570.56,1047.85 1574.68,1042.29 1578.8,1050.64 1582.91,1060.37 1587.03,1057.59 1591.15,1052.03 
  1595.27,1064.55 1599.38,1074.28 1603.5,1065.94 1607.62,1070.11 1611.74,1070.11 1615.85,1077.07 1619.97,1084.02 1624.09,1063.16 1628.2,1065.94 1632.32,1077.07 
  1636.44,1068.72 1640.56,1079.85 1644.67,1070.11 1648.79,1054.81 1652.91,1042.29 1657.03,1049.24 1661.14,1054.81 1665.26,1063.16 1669.38,1061.76 1673.5,1049.24 
  1677.61,1039.51 1681.73,1028.38 1685.85,1026.99 1689.97,1025.6 1694.08,1026.99 1698.2,1018.64 1702.32,1020.03 1706.44,1014.47 1710.55,1018.64 1714.67,1001.95 
  1718.79,994.991 1722.91,1001.95 1727.02,1006.12 1731.14,1006.12 1735.26,1003.34 1739.38,1001.95 1743.49,1008.9 1747.61,1011.68 1751.73,1014.47 1755.85,1011.68 
  1759.96,1026.99 1764.08,1028.38 1768.2,1039.51 1772.32,1036.72 1776.43,1050.64 1780.55,1057.59 1784.67,1054.81 1788.79,1038.12 1792.9,1039.51 1797.02,1031.16 
  1801.14,1032.55 1805.26,1032.55 1809.37,1035.33 1813.49,1043.68 1817.61,1046.46 1821.73,1056.2 1825.84,1052.03 1829.96,1052.03 1834.08,1054.81 1838.2,1057.59 
  1842.31,1046.46 1846.43,1064.55 1850.55,1068.72 1854.67,1045.07 1858.78,1036.72 1862.9,1038.12 1867.02,1050.64 1871.14,1028.38 1875.25,1040.9 1879.37,1050.64 
  1883.49,1043.68 1887.61,1035.33 1891.72,1036.72 1895.84,1039.51 1899.96,1039.51 1904.08,1039.51 1908.19,1054.81 1912.31,1054.81 1916.43,1071.5 1920.55,1075.68 
  1924.66,1071.5 1928.78,1065.94 1932.9,1036.72 1937.02,1042.29 1941.13,1056.2 1945.25,1052.03 1949.37,1043.68 1953.48,1061.76 1957.6,1053.42 1961.72,1050.64 
  1965.84,1063.16 1969.95,1065.94 1974.07,1068.72 1978.19,1071.5 1982.31,1082.63 1986.42,1079.85 1990.54,1070.11 1994.66,1067.33 1998.78,1068.72 2002.89,1070.11 
  2007.01,1063.16 2011.13,1063.16 2015.25,1057.59 2019.36,1057.59 2023.48,1053.42 2027.6,1053.42 2031.72,1054.81 2035.83,1050.64 2039.95,1060.37 2044.07,1039.51 
  2048.19,1031.16 2052.3,1042.29 2056.42,1052.03 2060.54,1056.2 2064.66,1056.2 2068.77,1068.72 2072.89,1065.94 2077.01,1064.55 2081.13,1056.2 2085.24,1061.76 
  2089.36,1047.85 2093.48,1052.03 2097.6,1039.51 2101.71,1047.85 2105.83,1058.98 2109.95,1064.55 2114.07,1068.72 2118.18,1074.28 2122.3,1072.89 2126.42,1074.28 
  2130.54,1065.94 2134.65,1050.64 2138.77,1045.07 2142.89,1043.68 2147.01,1036.72 2151.12,1045.07 2155.24,1057.59 2159.36,1049.24 2163.48,1058.98 2167.59,1071.5 
  2171.71,1068.72 2175.83,1077.07 2179.95,1071.5 2184.06,1067.33 2188.18,1054.81 2192.3,1053.42 2196.42,1067.33 2200.53,1052.03 2204.65,1061.76 2208.77,1053.42 
  2212.89,1058.98 2217,1072.89 2221.12,1061.76 2225.24,1071.5 2229.36,1071.5 2233.47,1077.07 2237.59,1089.59 2241.71,1079.85 2245.83,1072.89 2249.94,1071.5 
  2254.06,1081.24 2258.18,1086.81 2262.3,1078.46 2266.41,1081.24 2270.53,1072.89 2274.65,1081.24 2278.76,1096.54 2282.88,1077.07 2287,1079.85 2291.12,1085.41 
  
  "/>
<polyline clip-path="url(#clip482)" style="stroke:#e26f46; stroke-width:4; stroke-opacity:1; fill:none" points="
  236.501,1445.72 240.618,1445.72 244.735,1445.72 248.853,1441.54 252.97,1441.54 257.088,1438.76 261.205,1437.37 265.323,1435.98 269.44,1431.8 273.558,1433.2 
  277.675,1434.59 281.793,1434.59 285.91,1431.8 290.028,1433.2 294.145,1431.8 298.263,1430.41 302.38,1427.63 306.497,1423.46 310.615,1416.5 314.732,1412.33 
  318.85,1405.37 322.967,1406.76 327.085,1401.2 331.202,1392.85 335.32,1377.55 339.437,1374.77 343.555,1371.99 347.672,1371.99 351.79,1362.25 355.907,1356.68 
  360.025,1352.51 364.142,1345.55 368.26,1338.6 372.377,1337.21 376.494,1327.47 380.612,1320.51 384.729,1313.56 388.847,1302.43 392.964,1292.69 397.082,1284.35 
  401.199,1277.39 405.317,1263.48 409.434,1242.61 413.552,1225.92 417.669,1214.79 421.787,1207.83 425.904,1198.1 430.022,1186.97 434.139,1161.93 438.256,1139.67 
  442.374,1136.89 446.491,1120.19 450.609,1109.06 454.726,1089.59 458.844,1067.33 462.961,1056.2 467.079,1052.03 471.196,1038.12 475.314,1021.42 479.431,999.164 
  483.549,999.164 487.666,981.079 491.784,969.95 495.901,942.128 500.019,899.003 504.136,882.309 508.253,850.314 512.371,828.056 516.488,819.709 520.606,804.406 
  524.723,800.233 528.841,776.584 532.958,768.237 537.076,754.326 541.193,737.632 545.311,709.81 549.428,701.463 553.546,701.463 557.663,691.725 561.781,675.032 
  565.898,668.076 570.015,670.858 574.133,661.12 578.25,661.12 582.368,654.165 586.485,636.08 590.603,611.04 594.72,601.302 598.838,599.911 602.955,570.697 
  607.073,555.395 611.19,531.746 615.308,530.354 619.425,535.919 623.543,542.875 627.66,551.221 631.778,542.875 635.895,527.572 640.012,535.919 644.13,516.443 
  648.247,510.879 652.365,520.617 656.482,512.27 660.6,512.27 664.717,503.923 668.835,506.705 672.952,510.879 677.07,523.399 681.187,512.27 685.305,503.923 
  689.422,505.314 693.54,499.75 697.657,499.75 701.774,496.967 705.892,492.794 710.009,495.576 714.127,494.185 718.244,483.056 722.362,485.838 726.479,476.101 
  730.597,477.492 734.714,477.492 738.832,469.145 742.949,466.363 747.067,478.883 751.184,488.621 755.302,478.883 759.419,463.58 763.537,453.843 767.654,449.669 
  771.771,459.407 775.889,452.451 780.006,456.625 784.124,453.843 788.241,459.407 792.359,477.492 796.476,470.536 800.594,478.883 804.711,473.318 808.829,478.883 
  812.946,478.883 817.064,469.145 821.181,467.754 825.299,483.056 829.416,483.056 833.533,488.621 837.651,483.056 841.768,484.447 845.886,488.621 850.003,483.056 
  854.121,466.363 858.238,485.838 862.356,492.794 866.473,496.967 870.591,471.927 874.708,480.274 878.826,495.576 882.943,492.794 887.061,492.794 891.178,471.927 
  895.296,466.363 899.413,480.274 903.53,480.274 907.648,478.883 911.765,494.185 915.883,494.185 920,492.794 924.118,502.532 928.235,505.314 932.353,512.27 
  936.47,519.225 940.588,519.225 944.705,523.399 948.823,523.399 952.94,520.617 957.058,513.661 961.175,505.314 965.292,506.705 969.41,501.141 973.527,501.141 
  977.645,506.705 981.762,505.314 985.88,505.314 989.997,496.967 994.115,485.838 998.232,483.056 1002.35,488.621 1006.47,488.621 1010.58,480.274 1014.7,490.012 
  1018.82,480.274 1022.94,462.189 1027.05,446.887 1031.17,432.976 1035.29,439.931 1039.41,438.54 1043.52,441.322 1047.64,437.149 1051.76,435.758 1055.88,441.322 
  1059.99,453.843 1064.11,449.669 1068.23,462.189 1072.35,470.536 1076.46,466.363 1080.58,478.883 1084.7,488.621 1088.82,481.665 1092.93,484.447 1097.05,471.927 
  1101.17,477.492 1105.29,471.927 1109.4,470.536 1113.52,480.274 1117.64,460.798 1121.76,460.798 1125.87,469.145 1129.99,462.189 1134.11,456.625 1138.23,458.016 
  1142.34,476.101 1146.46,469.145 1150.58,470.536 1154.7,470.536 1158.81,466.363 1162.93,470.536 1167.05,474.709 1171.17,473.318 1175.28,483.056 1179.4,494.185 
  1183.52,480.274 1187.64,476.101 1191.75,455.234 1195.87,449.669 1199.99,435.758 1204.11,421.847 1208.22,420.455 1212.34,435.758 1216.46,437.149 1220.58,441.322 
  1224.69,439.931 1228.81,430.193 1232.93,426.02 1237.05,442.714 1241.16,435.758 1245.28,430.193 1249.4,435.758 1253.52,442.714 1257.63,445.496 1261.75,435.758 
  1265.87,444.105 1269.99,446.887 1274.1,456.625 1278.22,445.496 1282.34,444.105 1286.46,453.843 1290.57,453.843 1294.69,459.407 1298.81,476.101 1302.92,483.056 
  1307.04,491.403 1311.16,481.665 1315.28,478.883 1319.39,484.447 1323.51,480.274 1327.63,483.056 1331.75,490.012 1335.86,487.23 1339.98,488.621 1344.1,487.23 
  1348.22,473.318 1352.33,478.883 1356.45,471.927 1360.57,469.145 1364.69,474.709 1368.8,478.883 1372.92,464.972 1377.04,464.972 1381.16,478.883 1385.27,495.576 
  1389.39,494.185 1393.51,512.27 1397.63,506.705 1401.74,496.967 1405.86,492.794 1409.98,495.576 1414.1,491.403 1418.21,495.576 1422.33,515.052 1426.45,519.225 
  1430.57,519.225 1434.68,524.79 1438.8,513.661 1442.92,523.399 1447.04,522.008 1451.15,534.528 1455.27,554.004 1459.39,548.439 1463.51,548.439 1467.62,552.613 
  1471.74,555.395 1475.86,567.915 1479.98,574.871 1484.09,570.697 1488.21,562.35 1492.33,567.915 1496.45,556.786 1500.56,545.657 1504.68,551.221 1508.8,555.395 
  1512.92,545.657 1517.03,533.137 1521.15,535.919 1525.27,513.661 1529.39,508.096 1533.5,512.27 1537.62,533.137 1541.74,528.963 1545.86,540.092 1549.97,531.746 
  1554.09,520.617 1558.21,515.052 1562.33,509.488 1566.44,499.75 1570.56,485.838 1574.68,491.403 1578.8,483.056 1582.91,473.318 1587.03,476.101 1591.15,481.665 
  1595.27,469.145 1599.38,459.407 1603.5,467.754 1607.62,463.58 1611.74,463.58 1615.85,456.625 1619.97,449.669 1624.09,470.536 1628.2,467.754 1632.32,456.625 
  1636.44,464.972 1640.56,453.843 1644.67,463.58 1648.79,478.883 1652.91,491.403 1657.03,484.447 1661.14,478.883 1665.26,470.536 1669.38,471.927 1673.5,484.447 
  1677.61,494.185 1681.73,505.314 1685.85,506.705 1689.97,508.096 1694.08,506.705 1698.2,515.052 1702.32,513.661 1706.44,519.225 1710.55,515.052 1714.67,531.746 
  1718.79,538.701 1722.91,531.746 1727.02,527.572 1731.14,527.572 1735.26,530.354 1739.38,531.746 1743.49,524.79 1747.61,522.008 1751.73,519.225 1755.85,522.008 
  1759.96,506.705 1764.08,505.314 1768.2,494.185 1772.32,496.967 1776.43,483.056 1780.55,476.101 1784.67,478.883 1788.79,495.576 1792.9,494.185 1797.02,502.532 
  1801.14,501.141 1805.26,501.141 1809.37,498.359 1813.49,490.012 1817.61,487.23 1821.73,477.492 1825.84,481.665 1829.96,481.665 1834.08,478.883 1838.2,476.101 
  1842.31,487.23 1846.43,469.145 1850.55,464.972 1854.67,488.621 1858.78,496.967 1862.9,495.576 1867.02,483.056 1871.14,505.314 1875.25,492.794 1879.37,483.056 
  1883.49,490.012 1887.61,498.359 1891.72,496.967 1895.84,494.185 1899.96,494.185 1904.08,494.185 1908.19,478.883 1912.31,478.883 1916.43,462.189 1920.55,458.016 
  1924.66,462.189 1928.78,467.754 1932.9,496.967 1937.02,491.403 1941.13,477.492 1945.25,481.665 1949.37,490.012 1953.48,471.927 1957.6,480.274 1961.72,483.056 
  1965.84,470.536 1969.95,467.754 1974.07,464.972 1978.19,462.189 1982.31,451.06 1986.42,453.843 1990.54,463.58 1994.66,466.363 1998.78,464.972 2002.89,463.58 
  2007.01,470.536 2011.13,470.536 2015.25,476.101 2019.36,476.101 2023.48,480.274 2027.6,480.274 2031.72,478.883 2035.83,483.056 2039.95,473.318 2044.07,494.185 
  2048.19,502.532 2052.3,491.403 2056.42,481.665 2060.54,477.492 2064.66,477.492 2068.77,464.972 2072.89,467.754 2077.01,469.145 2081.13,477.492 2085.24,471.927 
  2089.36,485.838 2093.48,481.665 2097.6,494.185 2101.71,485.838 2105.83,474.709 2109.95,469.145 2114.07,464.972 2118.18,459.407 2122.3,460.798 2126.42,459.407 
  2130.54,467.754 2134.65,483.056 2138.77,488.621 2142.89,490.012 2147.01,496.967 2151.12,488.621 2155.24,476.101 2159.36,484.447 2163.48,474.709 2167.59,462.189 
  2171.71,464.972 2175.83,456.625 2179.95,462.189 2184.06,466.363 2188.18,478.883 2192.3,480.274 2196.42,466.363 2200.53,481.665 2204.65,471.927 2208.77,480.274 
  2212.89,474.709 2217,460.798 2221.12,471.927 2225.24,462.189 2229.36,462.189 2233.47,456.625 2237.59,444.105 2241.71,453.843 2245.83,460.798 2249.94,462.189 
  2254.06,452.451 2258.18,446.887 2262.3,455.234 2266.41,452.451 2270.53,460.798 2274.65,452.451 2278.76,437.149 2282.88,456.625 2287,453.843 2291.12,448.278 
  
  "/>
<path clip-path="url(#clip480)" d="
M1805.44 276.658 L2280.16 276.658 L2280.16 95.2176 L1805.44 95.2176  Z
  " fill="#ffffff" fill-rule="evenodd" fill-opacity="1"/>
<polyline clip-path="url(#clip480)" style="stroke:#000000; stroke-width:4; stroke-opacity:1; fill:none" points="
  1805.44,276.658 2280.16,276.658 2280.16,95.2176 1805.44,95.2176 1805.44,276.658 
  "/>
<polyline clip-path="url(#clip480)" style="stroke:#009af9; stroke-width:4; stroke-opacity:1; fill:none" points="
  1829.64,155.698 1974.83,155.698 
  "/>
<path clip-path="url(#clip480)" d="M 0 0 M2017.46 147.816 L2017.46 151.843 Q2015.65 150.917 2013.71 150.455 Q2011.76 149.992 2009.68 149.992 Q2006.51 149.992 2004.91 150.964 Q2003.34 151.936 2003.34 153.88 Q2003.34 155.362 2004.47 156.218 Q2005.61 157.052 2009.03 157.816 L2010.49 158.14 Q2015.03 159.112 2016.92 160.894 Q2018.85 162.654 2018.85 165.825 Q2018.85 169.436 2015.98 171.542 Q2013.13 173.649 2008.13 173.649 Q2006.05 173.649 2003.78 173.232 Q2001.53 172.839 1999.03 172.028 L1999.03 167.63 Q2001.39 168.857 2003.68 169.482 Q2005.98 170.084 2008.22 170.084 Q2011.23 170.084 2012.85 169.066 Q2014.47 168.024 2014.47 166.149 Q2014.47 164.413 2013.29 163.487 Q2012.13 162.561 2008.18 161.704 L2006.69 161.357 Q2002.74 160.524 2000.98 158.811 Q1999.22 157.075 1999.22 154.066 Q1999.22 150.408 2001.81 148.418 Q2004.4 146.427 2009.17 146.427 Q2011.53 146.427 2013.61 146.774 Q2015.7 147.121 2017.46 147.816 Z" fill="#000000" fill-rule="evenodd" fill-opacity="1" /><path clip-path="url(#clip480)" d="M 0 0 M2022.87 162.746 L2022.87 147.052 L2027.13 147.052 L2027.13 162.584 Q2027.13 166.265 2028.57 168.116 Q2030 169.945 2032.87 169.945 Q2036.32 169.945 2038.31 167.746 Q2040.33 165.547 2040.33 161.751 L2040.33 147.052 L2044.59 147.052 L2044.59 172.978 L2040.33 172.978 L2040.33 168.996 Q2038.78 171.357 2036.72 172.515 Q2034.68 173.649 2031.97 173.649 Q2027.5 173.649 2025.19 170.871 Q2022.87 168.093 2022.87 162.746 M2033.59 146.427 L2033.59 146.427 Z" fill="#000000" fill-rule="evenodd" fill-opacity="1" /><path clip-path="url(#clip480)" d="M 0 0 M2065.58 147.816 L2065.58 151.843 Q2063.78 150.917 2061.83 150.455 Q2059.89 149.992 2057.8 149.992 Q2054.63 149.992 2053.04 150.964 Q2051.46 151.936 2051.46 153.88 Q2051.46 155.362 2052.6 156.218 Q2053.73 157.052 2057.16 157.816 L2058.61 158.14 Q2063.15 159.112 2065.05 160.894 Q2066.97 162.654 2066.97 165.825 Q2066.97 169.436 2064.1 171.542 Q2061.25 173.649 2056.25 173.649 Q2054.17 173.649 2051.9 173.232 Q2049.66 172.839 2047.16 172.028 L2047.16 167.63 Q2049.52 168.857 2051.81 169.482 Q2054.1 170.084 2056.35 170.084 Q2059.36 170.084 2060.98 169.066 Q2062.6 168.024 2062.6 166.149 Q2062.6 164.413 2061.42 163.487 Q2060.26 162.561 2056.3 161.704 L2054.82 161.357 Q2050.86 160.524 2049.1 158.811 Q2047.34 157.075 2047.34 154.066 Q2047.34 150.408 2049.93 148.418 Q2052.53 146.427 2057.3 146.427 Q2059.66 146.427 2061.74 146.774 Q2063.82 147.121 2065.58 147.816 Z" fill="#000000" fill-rule="evenodd" fill-opacity="1" /><path clip-path="url(#clip480)" d="M 0 0 M2090.1 148.047 L2090.1 152.029 Q2088.29 151.033 2086.46 150.547 Q2084.66 150.038 2082.8 150.038 Q2078.66 150.038 2076.37 152.677 Q2074.08 155.292 2074.08 160.038 Q2074.08 164.783 2076.37 167.422 Q2078.66 170.038 2082.8 170.038 Q2084.66 170.038 2086.46 169.552 Q2088.29 169.042 2090.1 168.047 L2090.1 171.982 Q2088.31 172.816 2086.39 173.232 Q2084.49 173.649 2082.34 173.649 Q2076.48 173.649 2073.04 169.968 Q2069.59 166.288 2069.59 160.038 Q2069.59 153.695 2073.06 150.061 Q2076.55 146.427 2082.62 146.427 Q2084.59 146.427 2086.46 146.843 Q2088.34 147.237 2090.1 148.047 Z" fill="#000000" fill-rule="evenodd" fill-opacity="1" /><path clip-path="url(#clip480)" d="M 0 0 M2119.86 137.006 Q2116.76 142.33 2115.26 147.538 Q2113.75 152.746 2113.75 158.093 Q2113.75 163.441 2115.26 168.695 Q2116.79 173.927 2119.86 179.228 L2116.16 179.228 Q2112.69 173.788 2110.95 168.533 Q2109.24 163.279 2109.24 158.093 Q2109.24 152.931 2110.95 147.7 Q2112.67 142.468 2116.16 137.006 L2119.86 137.006 Z" fill="#000000" fill-rule="evenodd" fill-opacity="1" /><path clip-path="url(#clip480)" d="M 0 0 M2136.07 143.024 L2129.73 160.223 L2142.43 160.223 L2136.07 143.024 M2133.43 138.418 L2138.73 138.418 L2151.9 172.978 L2147.04 172.978 L2143.89 164.112 L2128.31 164.112 L2125.17 172.978 L2120.23 172.978 L2133.43 138.418 Z" fill="#000000" fill-rule="evenodd" fill-opacity="1" /><path clip-path="url(#clip480)" d="M 0 0 M2161.23 156.473 L2161.23 169.135 L2168.73 169.135 Q2172.5 169.135 2174.31 167.584 Q2176.14 166.01 2176.14 162.792 Q2176.14 159.552 2174.31 158.024 Q2172.5 156.473 2168.73 156.473 L2161.23 156.473 M2161.23 142.26 L2161.23 152.677 L2168.15 152.677 Q2171.58 152.677 2173.24 151.404 Q2174.93 150.107 2174.93 147.468 Q2174.93 144.853 2173.24 143.556 Q2171.58 142.26 2168.15 142.26 L2161.23 142.26 M2156.55 138.418 L2168.5 138.418 Q2173.85 138.418 2176.74 140.64 Q2179.63 142.862 2179.63 146.959 Q2179.63 150.13 2178.15 152.005 Q2176.67 153.88 2173.8 154.343 Q2177.25 155.084 2179.15 157.445 Q2181.07 159.783 2181.07 163.302 Q2181.07 167.931 2177.92 170.454 Q2174.77 172.978 2168.96 172.978 L2156.55 172.978 L2156.55 138.418 Z" fill="#000000" fill-rule="evenodd" fill-opacity="1" /><path clip-path="url(#clip480)" d="M 0 0 M2185.72 138.418 L2192.69 138.418 L2201.51 161.936 L2210.37 138.418 L2217.34 138.418 L2217.34 172.978 L2212.78 172.978 L2212.78 142.63 L2203.87 166.334 L2199.17 166.334 L2190.26 142.63 L2190.26 172.978 L2185.72 172.978 L2185.72 138.418 Z" fill="#000000" fill-rule="evenodd" fill-opacity="1" /><path clip-path="url(#clip480)" d="M 0 0 M2221.14 137.006 L2224.84 137.006 Q2228.31 142.468 2230.03 147.7 Q2231.76 152.931 2231.76 158.093 Q2231.76 163.279 2230.03 168.533 Q2228.31 173.788 2224.84 179.228 L2221.14 179.228 Q2224.22 173.927 2225.72 168.695 Q2227.25 163.441 2227.25 158.093 Q2227.25 152.746 2225.72 147.538 Q2224.22 142.33 2221.14 137.006 Z" fill="#000000" fill-rule="evenodd" fill-opacity="1" /><polyline clip-path="url(#clip480)" style="stroke:#e26f46; stroke-width:4; stroke-opacity:1; fill:none" points="
  1829.64,216.178 1974.83,216.178 
  "/>
<path clip-path="url(#clip480)" d="M 0 0 M1999.03 207.532 L2003.29 207.532 L2003.29 233.458 L1999.03 233.458 L1999.03 207.532 M1999.03 197.439 L2003.29 197.439 L2003.29 202.833 L1999.03 202.833 L1999.03 197.439 Z" fill="#000000" fill-rule="evenodd" fill-opacity="1" /><path clip-path="url(#clip480)" d="M 0 0 M2029.31 217.809 L2029.31 233.458 L2025.05 233.458 L2025.05 217.948 Q2025.05 214.268 2023.61 212.439 Q2022.18 210.61 2019.31 210.61 Q2015.86 210.61 2013.87 212.81 Q2011.88 215.009 2011.88 218.805 L2011.88 233.458 L2007.6 233.458 L2007.6 207.532 L2011.88 207.532 L2011.88 211.56 Q2013.41 209.222 2015.47 208.064 Q2017.55 206.907 2020.26 206.907 Q2024.73 206.907 2027.02 209.685 Q2029.31 212.439 2029.31 217.809 Z" fill="#000000" fill-rule="evenodd" fill-opacity="1" /><path clip-path="url(#clip480)" d="M 0 0 M2046.9 197.439 L2046.9 200.981 L2042.83 200.981 Q2040.54 200.981 2039.63 201.907 Q2038.75 202.833 2038.75 205.24 L2038.75 207.532 L2045.77 207.532 L2045.77 210.842 L2038.75 210.842 L2038.75 233.458 L2034.47 233.458 L2034.47 210.842 L2030.4 210.842 L2030.4 207.532 L2034.47 207.532 L2034.47 205.726 Q2034.47 201.398 2036.49 199.43 Q2038.5 197.439 2042.87 197.439 L2046.9 197.439 Z" fill="#000000" fill-rule="evenodd" fill-opacity="1" /><path clip-path="url(#clip480)" d="M 0 0 M2076.67 197.486 Q2073.57 202.81 2072.06 208.018 Q2070.56 213.226 2070.56 218.573 Q2070.56 223.921 2072.06 229.175 Q2073.59 234.407 2076.67 239.708 L2072.97 239.708 Q2069.49 234.268 2067.76 229.013 Q2066.05 223.759 2066.05 218.573 Q2066.05 213.411 2067.76 208.18 Q2069.47 202.948 2072.97 197.486 L2076.67 197.486 Z" fill="#000000" fill-rule="evenodd" fill-opacity="1" /><path clip-path="url(#clip480)" d="M 0 0 M2092.87 203.504 L2086.53 220.703 L2099.24 220.703 L2092.87 203.504 M2090.23 198.898 L2095.54 198.898 L2108.71 233.458 L2103.85 233.458 L2100.7 224.592 L2085.12 224.592 L2081.97 233.458 L2077.04 233.458 L2090.23 198.898 Z" fill="#000000" fill-rule="evenodd" fill-opacity="1" /><path clip-path="url(#clip480)" d="M 0 0 M2118.04 216.953 L2118.04 229.615 L2125.54 229.615 Q2129.31 229.615 2131.11 228.064 Q2132.94 226.49 2132.94 223.272 Q2132.94 220.032 2131.11 218.504 Q2129.31 216.953 2125.54 216.953 L2118.04 216.953 M2118.04 202.74 L2118.04 213.157 L2124.96 213.157 Q2128.38 213.157 2130.05 211.884 Q2131.74 210.587 2131.74 207.948 Q2131.74 205.333 2130.05 204.036 Q2128.38 202.74 2124.96 202.74 L2118.04 202.74 M2113.36 198.898 L2125.3 198.898 Q2130.65 198.898 2133.54 201.12 Q2136.44 203.342 2136.44 207.439 Q2136.44 210.61 2134.96 212.485 Q2133.48 214.36 2130.6 214.823 Q2134.05 215.564 2135.95 217.925 Q2137.87 220.263 2137.87 223.782 Q2137.87 228.411 2134.73 230.934 Q2131.58 233.458 2125.77 233.458 L2113.36 233.458 L2113.36 198.898 Z" fill="#000000" fill-rule="evenodd" fill-opacity="1" /><path clip-path="url(#clip480)" d="M 0 0 M2142.53 198.898 L2149.49 198.898 L2158.31 222.416 L2167.18 198.898 L2174.15 198.898 L2174.15 233.458 L2169.59 233.458 L2169.59 203.11 L2160.67 226.814 L2155.98 226.814 L2147.06 203.11 L2147.06 233.458 L2142.53 233.458 L2142.53 198.898 Z" fill="#000000" fill-rule="evenodd" fill-opacity="1" /><path clip-path="url(#clip480)" d="M 0 0 M2177.94 197.486 L2181.65 197.486 Q2185.12 202.948 2186.83 208.18 Q2188.57 213.411 2188.57 218.573 Q2188.57 223.759 2186.83 229.013 Q2185.12 234.268 2181.65 239.708 L2177.94 239.708 Q2181.02 234.407 2182.53 229.175 Q2184.05 223.921 2184.05 218.573 Q2184.05 213.226 2182.53 208.018 Q2181.02 202.81 2177.94 197.486 Z" fill="#000000" fill-rule="evenodd" fill-opacity="1" /></svg>
