<?xml version="1.0" encoding="utf-8"?>
<svg xmlns="http://www.w3.org/2000/svg" xmlns:xlink="http://www.w3.org/1999/xlink" width="600" height="400" viewBox="0 0 2400 1600">
<defs>
  <clipPath id="clip440">
    <rect x="0" y="0" width="2400" height="1600"/>
  </clipPath>
</defs>
<path clip-path="url(#clip440)" d="
M0 1600 L2400 1600 L2400 0 L0 0  Z
  " fill="#ffffff" fill-rule="evenodd" fill-opacity="1"/>
<defs>
  <clipPath id="clip441">
    <rect x="480" y="0" width="1681" height="1600"/>
  </clipPath>
</defs>
<path clip-path="url(#clip440)" d="
M174.862 1486.45 L2352.76 1486.45 L2352.76 47.2441 L174.862 47.2441  Z
  " fill="#ffffff" fill-rule="evenodd" fill-opacity="1"/>
<defs>
  <clipPath id="clip442">
    <rect x="174" y="47" width="2179" height="1440"/>
  </clipPath>
</defs>
<polyline clip-path="url(#clip442)" style="stroke:#000000; stroke-width:2; stroke-opacity:0.1; fill:none" points="
  232.383,1486.45 232.383,47.2441 
  "/>
<polyline clip-path="url(#clip442)" style="stroke:#000000; stroke-width:2; stroke-opacity:0.1; fill:none" points="
  644.13,1486.45 644.13,47.2441 
  "/>
<polyline clip-path="url(#clip442)" style="stroke:#000000; stroke-width:2; stroke-opacity:0.1; fill:none" points="
  1055.88,1486.45 1055.88,47.2441 
  "/>
<polyline clip-path="url(#clip442)" style="stroke:#000000; stroke-width:2; stroke-opacity:0.1; fill:none" points="
  1467.62,1486.45 1467.62,47.2441 
  "/>
<polyline clip-path="url(#clip442)" style="stroke:#000000; stroke-width:2; stroke-opacity:0.1; fill:none" points="
  1879.37,1486.45 1879.37,47.2441 
  "/>
<polyline clip-path="url(#clip442)" style="stroke:#000000; stroke-width:2; stroke-opacity:0.1; fill:none" points="
  2291.12,1486.45 2291.12,47.2441 
  "/>
<polyline clip-path="url(#clip440)" style="stroke:#000000; stroke-width:4; stroke-opacity:1; fill:none" points="
  174.862,1486.45 2352.76,1486.45 
  "/>
<polyline clip-path="url(#clip440)" style="stroke:#000000; stroke-width:4; stroke-opacity:1; fill:none" points="
  232.383,1486.45 232.383,1469.18 
  "/>
<polyline clip-path="url(#clip440)" style="stroke:#000000; stroke-width:4; stroke-opacity:1; fill:none" points="
  644.13,1486.45 644.13,1469.18 
  "/>
<polyline clip-path="url(#clip440)" style="stroke:#000000; stroke-width:4; stroke-opacity:1; fill:none" points="
  1055.88,1486.45 1055.88,1469.18 
  "/>
<polyline clip-path="url(#clip440)" style="stroke:#000000; stroke-width:4; stroke-opacity:1; fill:none" points="
  1467.62,1486.45 1467.62,1469.18 
  "/>
<polyline clip-path="url(#clip440)" style="stroke:#000000; stroke-width:4; stroke-opacity:1; fill:none" points="
  1879.37,1486.45 1879.37,1469.18 
  "/>
<polyline clip-path="url(#clip440)" style="stroke:#000000; stroke-width:4; stroke-opacity:1; fill:none" points="
  2291.12,1486.45 2291.12,1469.18 
  "/>
<path clip-path="url(#clip440)" d="M 0 0 M232.383 1515.64 Q228.772 1515.64 226.943 1519.2 Q225.138 1522.75 225.138 1529.87 Q225.138 1536.98 226.943 1540.55 Q228.772 1544.09 232.383 1544.09 Q236.017 1544.09 237.823 1540.55 Q239.652 1536.98 239.652 1529.87 Q239.652 1522.75 237.823 1519.2 Q236.017 1515.64 232.383 1515.64 M232.383 1511.93 Q238.193 1511.93 241.249 1516.54 Q244.327 1521.12 244.327 1529.87 Q244.327 1538.6 241.249 1543.21 Q238.193 1547.79 232.383 1547.79 Q226.573 1547.79 223.494 1543.21 Q220.439 1538.6 220.439 1529.87 Q220.439 1521.12 223.494 1516.54 Q226.573 1511.93 232.383 1511.93 Z" fill="#000000" fill-rule="evenodd" fill-opacity="1" /><path clip-path="url(#clip440)" d="M 0 0 M607.498 1543.18 L615.137 1543.18 L615.137 1516.82 L606.827 1518.49 L606.827 1514.23 L615.091 1512.56 L619.767 1512.56 L619.767 1543.18 L627.405 1543.18 L627.405 1547.12 L607.498 1547.12 L607.498 1543.18 Z" fill="#000000" fill-rule="evenodd" fill-opacity="1" /><path clip-path="url(#clip440)" d="M 0 0 M642.475 1515.64 Q638.864 1515.64 637.035 1519.2 Q635.23 1522.75 635.23 1529.87 Q635.23 1536.98 637.035 1540.55 Q638.864 1544.09 642.475 1544.09 Q646.109 1544.09 647.915 1540.55 Q649.743 1536.98 649.743 1529.87 Q649.743 1522.75 647.915 1519.2 Q646.109 1515.64 642.475 1515.64 M642.475 1511.93 Q648.285 1511.93 651.341 1516.54 Q654.419 1521.12 654.419 1529.87 Q654.419 1538.6 651.341 1543.21 Q648.285 1547.79 642.475 1547.79 Q636.665 1547.79 633.586 1543.21 Q630.53 1538.6 630.53 1529.87 Q630.53 1521.12 633.586 1516.54 Q636.665 1511.93 642.475 1511.93 Z" fill="#000000" fill-rule="evenodd" fill-opacity="1" /><path clip-path="url(#clip440)" d="M 0 0 M669.489 1515.64 Q665.877 1515.64 664.049 1519.2 Q662.243 1522.75 662.243 1529.87 Q662.243 1536.98 664.049 1540.55 Q665.877 1544.09 669.489 1544.09 Q673.123 1544.09 674.928 1540.55 Q676.757 1536.98 676.757 1529.87 Q676.757 1522.75 674.928 1519.2 Q673.123 1515.64 669.489 1515.64 M669.489 1511.93 Q675.299 1511.93 678.354 1516.54 Q681.433 1521.12 681.433 1529.87 Q681.433 1538.6 678.354 1543.21 Q675.299 1547.79 669.489 1547.79 Q663.678 1547.79 660.6 1543.21 Q657.544 1538.6 657.544 1529.87 Q657.544 1521.12 660.6 1516.54 Q663.678 1511.93 669.489 1511.93 Z" fill="#000000" fill-rule="evenodd" fill-opacity="1" /><path clip-path="url(#clip440)" d="M 0 0 M1023.52 1543.18 L1039.84 1543.18 L1039.84 1547.12 L1017.89 1547.12 L1017.89 1543.18 Q1020.55 1540.43 1025.14 1535.8 Q1029.74 1531.15 1030.92 1529.81 Q1033.17 1527.28 1034.05 1525.55 Q1034.95 1523.79 1034.95 1522.1 Q1034.95 1519.34 1033.01 1517.61 Q1031.09 1515.87 1027.98 1515.87 Q1025.78 1515.87 1023.33 1516.63 Q1020.9 1517.4 1018.12 1518.95 L1018.12 1514.23 Q1020.95 1513.09 1023.4 1512.51 Q1025.85 1511.93 1027.89 1511.93 Q1033.26 1511.93 1036.46 1514.62 Q1039.65 1517.31 1039.65 1521.8 Q1039.65 1523.93 1038.84 1525.85 Q1038.05 1527.74 1035.95 1530.34 Q1035.37 1531.01 1032.27 1534.23 Q1029.16 1537.42 1023.52 1543.18 Z" fill="#000000" fill-rule="evenodd" fill-opacity="1" /><path clip-path="url(#clip440)" d="M 0 0 M1054.9 1515.64 Q1051.29 1515.64 1049.46 1519.2 Q1047.66 1522.75 1047.66 1529.87 Q1047.66 1536.98 1049.46 1540.55 Q1051.29 1544.09 1054.9 1544.09 Q1058.54 1544.09 1060.34 1540.55 Q1062.17 1536.98 1062.17 1529.87 Q1062.17 1522.75 1060.34 1519.2 Q1058.54 1515.64 1054.9 1515.64 M1054.9 1511.93 Q1060.71 1511.93 1063.77 1516.54 Q1066.85 1521.12 1066.85 1529.87 Q1066.85 1538.6 1063.77 1543.21 Q1060.71 1547.79 1054.9 1547.79 Q1049.09 1547.79 1046.02 1543.21 Q1042.96 1538.6 1042.96 1529.87 Q1042.96 1521.12 1046.02 1516.54 Q1049.09 1511.93 1054.9 1511.93 Z" fill="#000000" fill-rule="evenodd" fill-opacity="1" /><path clip-path="url(#clip440)" d="M 0 0 M1081.92 1515.64 Q1078.31 1515.64 1076.48 1519.2 Q1074.67 1522.75 1074.67 1529.87 Q1074.67 1536.98 1076.48 1540.55 Q1078.31 1544.09 1081.92 1544.09 Q1085.55 1544.09 1087.36 1540.55 Q1089.19 1536.98 1089.19 1529.87 Q1089.19 1522.75 1087.36 1519.2 Q1085.55 1515.64 1081.92 1515.64 M1081.92 1511.93 Q1087.73 1511.93 1090.78 1516.54 Q1093.86 1521.12 1093.86 1529.87 Q1093.86 1538.6 1090.78 1543.21 Q1087.73 1547.79 1081.92 1547.79 Q1076.11 1547.79 1073.03 1543.21 Q1069.97 1538.6 1069.97 1529.87 Q1069.97 1521.12 1073.03 1516.54 Q1076.11 1511.93 1081.92 1511.93 Z" fill="#000000" fill-rule="evenodd" fill-opacity="1" /><path clip-path="url(#clip440)" d="M 0 0 M1444.86 1528.49 Q1448.21 1529.2 1450.09 1531.47 Q1451.99 1533.74 1451.99 1537.07 Q1451.99 1542.19 1448.47 1544.99 Q1444.95 1547.79 1438.47 1547.79 Q1436.29 1547.79 1433.98 1547.35 Q1431.69 1546.93 1429.23 1546.08 L1429.23 1541.56 Q1431.18 1542.7 1433.49 1543.28 Q1435.81 1543.86 1438.33 1543.86 Q1442.73 1543.86 1445.02 1542.12 Q1447.33 1540.38 1447.33 1537.07 Q1447.33 1534.02 1445.18 1532.31 Q1443.05 1530.57 1439.23 1530.57 L1435.2 1530.57 L1435.2 1526.73 L1439.42 1526.73 Q1442.87 1526.73 1444.7 1525.36 Q1446.52 1523.97 1446.52 1521.38 Q1446.52 1518.72 1444.63 1517.31 Q1442.75 1515.87 1439.23 1515.87 Q1437.31 1515.87 1435.11 1516.29 Q1432.91 1516.7 1430.27 1517.58 L1430.27 1513.42 Q1432.94 1512.68 1435.25 1512.31 Q1437.59 1511.93 1439.65 1511.93 Q1444.97 1511.93 1448.08 1514.37 Q1451.18 1516.77 1451.18 1520.89 Q1451.18 1523.76 1449.53 1525.75 Q1447.89 1527.72 1444.86 1528.49 Z" fill="#000000" fill-rule="evenodd" fill-opacity="1" /><path clip-path="url(#clip440)" d="M 0 0 M1467.06 1515.64 Q1463.45 1515.64 1461.62 1519.2 Q1459.81 1522.75 1459.81 1529.87 Q1459.81 1536.98 1461.62 1540.55 Q1463.45 1544.09 1467.06 1544.09 Q1470.69 1544.09 1472.5 1540.55 Q1474.33 1536.98 1474.33 1529.87 Q1474.33 1522.75 1472.5 1519.2 Q1470.69 1515.64 1467.06 1515.64 M1467.06 1511.93 Q1472.87 1511.93 1475.92 1516.54 Q1479 1521.12 1479 1529.87 Q1479 1538.6 1475.92 1543.21 Q1472.87 1547.79 1467.06 1547.79 Q1461.25 1547.79 1458.17 1543.21 Q1455.11 1538.6 1455.11 1529.87 Q1455.11 1521.12 1458.17 1516.54 Q1461.25 1511.93 1467.06 1511.93 Z" fill="#000000" fill-rule="evenodd" fill-opacity="1" /><path clip-path="url(#clip440)" d="M 0 0 M1494.07 1515.64 Q1490.46 1515.64 1488.63 1519.2 Q1486.82 1522.75 1486.82 1529.87 Q1486.82 1536.98 1488.63 1540.55 Q1490.46 1544.09 1494.07 1544.09 Q1497.7 1544.09 1499.51 1540.55 Q1501.34 1536.98 1501.34 1529.87 Q1501.34 1522.75 1499.51 1519.2 Q1497.7 1515.64 1494.07 1515.64 M1494.07 1511.93 Q1499.88 1511.93 1502.94 1516.54 Q1506.01 1521.12 1506.01 1529.87 Q1506.01 1538.6 1502.94 1543.21 Q1499.88 1547.79 1494.07 1547.79 Q1488.26 1547.79 1485.18 1543.21 Q1482.13 1538.6 1482.13 1529.87 Q1482.13 1521.12 1485.18 1516.54 Q1488.26 1511.93 1494.07 1511.93 Z" fill="#000000" fill-rule="evenodd" fill-opacity="1" /><path clip-path="url(#clip440)" d="M 0 0 M1855.37 1516.63 L1843.56 1535.08 L1855.37 1535.08 L1855.37 1516.63 M1854.14 1512.56 L1860.02 1512.56 L1860.02 1535.08 L1864.95 1535.08 L1864.95 1538.97 L1860.02 1538.97 L1860.02 1547.12 L1855.37 1547.12 L1855.37 1538.97 L1839.76 1538.97 L1839.76 1534.46 L1854.14 1512.56 Z" fill="#000000" fill-rule="evenodd" fill-opacity="1" /><path clip-path="url(#clip440)" d="M 0 0 M1880.02 1515.64 Q1876.41 1515.64 1874.58 1519.2 Q1872.77 1522.75 1872.77 1529.87 Q1872.77 1536.98 1874.58 1540.55 Q1876.41 1544.09 1880.02 1544.09 Q1883.65 1544.09 1885.46 1540.55 Q1887.29 1536.98 1887.29 1529.87 Q1887.29 1522.75 1885.46 1519.2 Q1883.65 1515.64 1880.02 1515.64 M1880.02 1511.93 Q1885.83 1511.93 1888.88 1516.54 Q1891.96 1521.12 1891.96 1529.87 Q1891.96 1538.6 1888.88 1543.21 Q1885.83 1547.79 1880.02 1547.79 Q1874.21 1547.79 1871.13 1543.21 Q1868.07 1538.6 1868.07 1529.87 Q1868.07 1521.12 1871.13 1516.54 Q1874.21 1511.93 1880.02 1511.93 Z" fill="#000000" fill-rule="evenodd" fill-opacity="1" /><path clip-path="url(#clip440)" d="M 0 0 M1907.03 1515.64 Q1903.42 1515.64 1901.59 1519.2 Q1899.79 1522.75 1899.79 1529.87 Q1899.79 1536.98 1901.59 1540.55 Q1903.42 1544.09 1907.03 1544.09 Q1910.67 1544.09 1912.47 1540.55 Q1914.3 1536.98 1914.3 1529.87 Q1914.3 1522.75 1912.47 1519.2 Q1910.67 1515.64 1907.03 1515.64 M1907.03 1511.93 Q1912.84 1511.93 1915.9 1516.54 Q1918.98 1521.12 1918.98 1529.87 Q1918.98 1538.6 1915.9 1543.21 Q1912.84 1547.79 1907.03 1547.79 Q1901.22 1547.79 1898.14 1543.21 Q1895.09 1538.6 1895.09 1529.87 Q1895.09 1521.12 1898.14 1516.54 Q1901.22 1511.93 1907.03 1511.93 Z" fill="#000000" fill-rule="evenodd" fill-opacity="1" /><path clip-path="url(#clip440)" d="M 0 0 M2254.38 1512.56 L2272.74 1512.56 L2272.74 1516.5 L2258.66 1516.5 L2258.66 1524.97 Q2259.68 1524.62 2260.7 1524.46 Q2261.72 1524.27 2262.74 1524.27 Q2268.52 1524.27 2271.9 1527.44 Q2275.28 1530.62 2275.28 1536.03 Q2275.28 1541.61 2271.81 1544.71 Q2268.34 1547.79 2262.02 1547.79 Q2259.84 1547.79 2257.58 1547.42 Q2255.33 1547.05 2252.92 1546.31 L2252.92 1541.61 Q2255.01 1542.74 2257.23 1543.3 Q2259.45 1543.86 2261.93 1543.86 Q2265.93 1543.86 2268.27 1541.75 Q2270.61 1539.64 2270.61 1536.03 Q2270.61 1532.42 2268.27 1530.31 Q2265.93 1528.21 2261.93 1528.21 Q2260.05 1528.21 2258.18 1528.62 Q2256.33 1529.04 2254.38 1529.92 L2254.38 1512.56 Z" fill="#000000" fill-rule="evenodd" fill-opacity="1" /><path clip-path="url(#clip440)" d="M 0 0 M2290.35 1515.64 Q2286.74 1515.64 2284.91 1519.2 Q2283.11 1522.75 2283.11 1529.87 Q2283.11 1536.98 2284.91 1540.55 Q2286.74 1544.09 2290.35 1544.09 Q2293.99 1544.09 2295.79 1540.55 Q2297.62 1536.98 2297.62 1529.87 Q2297.62 1522.75 2295.79 1519.2 Q2293.99 1515.64 2290.35 1515.64 M2290.35 1511.93 Q2296.16 1511.93 2299.22 1516.54 Q2302.3 1521.12 2302.3 1529.87 Q2302.3 1538.6 2299.22 1543.21 Q2296.16 1547.79 2290.35 1547.79 Q2284.54 1547.79 2281.46 1543.21 Q2278.41 1538.6 2278.41 1529.87 Q2278.41 1521.12 2281.46 1516.54 Q2284.54 1511.93 2290.35 1511.93 Z" fill="#000000" fill-rule="evenodd" fill-opacity="1" /><path clip-path="url(#clip440)" d="M 0 0 M2317.37 1515.64 Q2313.76 1515.64 2311.93 1519.2 Q2310.12 1522.75 2310.12 1529.87 Q2310.12 1536.98 2311.93 1540.55 Q2313.76 1544.09 2317.37 1544.09 Q2321 1544.09 2322.81 1540.55 Q2324.64 1536.98 2324.64 1529.87 Q2324.64 1522.75 2322.81 1519.2 Q2321 1515.64 2317.37 1515.64 M2317.37 1511.93 Q2323.18 1511.93 2326.23 1516.54 Q2329.31 1521.12 2329.31 1529.87 Q2329.31 1538.6 2326.23 1543.21 Q2323.18 1547.79 2317.37 1547.79 Q2311.56 1547.79 2308.48 1543.21 Q2305.42 1538.6 2305.42 1529.87 Q2305.42 1521.12 2308.48 1516.54 Q2311.56 1511.93 2317.37 1511.93 Z" fill="#000000" fill-rule="evenodd" fill-opacity="1" /><polyline clip-path="url(#clip442)" style="stroke:#000000; stroke-width:2; stroke-opacity:0.1; fill:none" points="
  174.862,1458.16 2352.76,1458.16 
  "/>
<polyline clip-path="url(#clip442)" style="stroke:#000000; stroke-width:2; stroke-opacity:0.1; fill:none" points="
  174.862,1112.5 2352.76,1112.5 
  "/>
<polyline clip-path="url(#clip442)" style="stroke:#000000; stroke-width:2; stroke-opacity:0.1; fill:none" points="
  174.862,766.846 2352.76,766.846 
  "/>
<polyline clip-path="url(#clip442)" style="stroke:#000000; stroke-width:2; stroke-opacity:0.1; fill:none" points="
  174.862,421.189 2352.76,421.189 
  "/>
<polyline clip-path="url(#clip442)" style="stroke:#000000; stroke-width:2; stroke-opacity:0.1; fill:none" points="
  174.862,75.5326 2352.76,75.5326 
  "/>
<polyline clip-path="url(#clip440)" style="stroke:#000000; stroke-width:4; stroke-opacity:1; fill:none" points="
  174.862,1486.45 174.862,47.2441 
  "/>
<polyline clip-path="url(#clip440)" style="stroke:#000000; stroke-width:4; stroke-opacity:1; fill:none" points="
  174.862,1458.16 200.997,1458.16 
  "/>
<polyline clip-path="url(#clip440)" style="stroke:#000000; stroke-width:4; stroke-opacity:1; fill:none" points="
  174.862,1112.5 200.997,1112.5 
  "/>
<polyline clip-path="url(#clip440)" style="stroke:#000000; stroke-width:4; stroke-opacity:1; fill:none" points="
  174.862,766.846 200.997,766.846 
  "/>
<polyline clip-path="url(#clip440)" style="stroke:#000000; stroke-width:4; stroke-opacity:1; fill:none" points="
  174.862,421.189 200.997,421.189 
  "/>
<polyline clip-path="url(#clip440)" style="stroke:#000000; stroke-width:4; stroke-opacity:1; fill:none" points="
  174.862,75.5326 200.997,75.5326 
  "/>
<path clip-path="url(#clip440)" d="M 0 0 M62.9365 1443.96 Q59.3254 1443.96 57.4967 1447.52 Q55.6912 1451.06 55.6912 1458.19 Q55.6912 1465.3 57.4967 1468.87 Q59.3254 1472.41 62.9365 1472.41 Q66.5707 1472.41 68.3763 1468.87 Q70.205 1465.3 70.205 1458.19 Q70.205 1451.06 68.3763 1447.52 Q66.5707 1443.96 62.9365 1443.96 M62.9365 1440.25 Q68.7467 1440.25 71.8022 1444.86 Q74.8809 1449.44 74.8809 1458.19 Q74.8809 1466.92 71.8022 1471.53 Q68.7467 1476.11 62.9365 1476.11 Q57.1264 1476.11 54.0477 1471.53 Q50.9921 1466.92 50.9921 1458.19 Q50.9921 1449.44 54.0477 1444.86 Q57.1264 1440.25 62.9365 1440.25 Z" fill="#000000" fill-rule="evenodd" fill-opacity="1" /><path clip-path="url(#clip440)" d="M 0 0 M79.9503 1469.56 L84.8345 1469.56 L84.8345 1475.44 L79.9503 1475.44 L79.9503 1469.56 Z" fill="#000000" fill-rule="evenodd" fill-opacity="1" /><path clip-path="url(#clip440)" d="M 0 0 M99.9039 1443.96 Q96.2928 1443.96 94.4641 1447.52 Q92.6586 1451.06 92.6586 1458.19 Q92.6586 1465.3 94.4641 1468.87 Q96.2928 1472.41 99.9039 1472.41 Q103.538 1472.41 105.344 1468.87 Q107.172 1465.3 107.172 1458.19 Q107.172 1451.06 105.344 1447.52 Q103.538 1443.96 99.9039 1443.96 M99.9039 1440.25 Q105.714 1440.25 108.77 1444.86 Q111.848 1449.44 111.848 1458.19 Q111.848 1466.92 108.77 1471.53 Q105.714 1476.11 99.9039 1476.11 Q94.0937 1476.11 91.0151 1471.53 Q87.9595 1466.92 87.9595 1458.19 Q87.9595 1449.44 91.0151 1444.86 Q94.0937 1440.25 99.9039 1440.25 Z" fill="#000000" fill-rule="evenodd" fill-opacity="1" /><path clip-path="url(#clip440)" d="M 0 0 M126.918 1443.96 Q123.307 1443.96 121.478 1447.52 Q119.672 1451.06 119.672 1458.19 Q119.672 1465.3 121.478 1468.87 Q123.307 1472.41 126.918 1472.41 Q130.552 1472.41 132.357 1468.87 Q134.186 1465.3 134.186 1458.19 Q134.186 1451.06 132.357 1447.52 Q130.552 1443.96 126.918 1443.96 M126.918 1440.25 Q132.728 1440.25 135.783 1444.86 Q138.862 1449.44 138.862 1458.19 Q138.862 1466.92 135.783 1471.53 Q132.728 1476.11 126.918 1476.11 Q121.107 1476.11 118.029 1471.53 Q114.973 1466.92 114.973 1458.19 Q114.973 1449.44 118.029 1444.86 Q121.107 1440.25 126.918 1440.25 Z" fill="#000000" fill-rule="evenodd" fill-opacity="1" /><path clip-path="url(#clip440)" d="M 0 0 M65.5291 1098.3 Q61.918 1098.3 60.0893 1101.87 Q58.2838 1105.41 58.2838 1112.54 Q58.2838 1119.64 60.0893 1123.21 Q61.918 1126.75 65.5291 1126.75 Q69.1633 1126.75 70.9689 1123.21 Q72.7976 1119.64 72.7976 1112.54 Q72.7976 1105.41 70.9689 1101.87 Q69.1633 1098.3 65.5291 1098.3 M65.5291 1094.6 Q71.3392 1094.6 74.3948 1099.2 Q77.4735 1103.79 77.4735 1112.54 Q77.4735 1121.26 74.3948 1125.87 Q71.3392 1130.45 65.5291 1130.45 Q59.7189 1130.45 56.6402 1125.87 Q53.5847 1121.26 53.5847 1112.54 Q53.5847 1103.79 56.6402 1099.2 Q59.7189 1094.6 65.5291 1094.6 Z" fill="#000000" fill-rule="evenodd" fill-opacity="1" /><path clip-path="url(#clip440)" d="M 0 0 M82.5429 1123.9 L87.4271 1123.9 L87.4271 1129.78 L82.5429 1129.78 L82.5429 1123.9 Z" fill="#000000" fill-rule="evenodd" fill-opacity="1" /><path clip-path="url(#clip440)" d="M 0 0 M96.5243 1125.85 L112.844 1125.85 L112.844 1129.78 L90.8993 1129.78 L90.8993 1125.85 Q93.5613 1123.09 98.1447 1118.46 Q102.751 1113.81 103.932 1112.47 Q106.177 1109.94 107.057 1108.21 Q107.959 1106.45 107.959 1104.76 Q107.959 1102.01 106.015 1100.27 Q104.094 1098.53 100.992 1098.53 Q98.7928 1098.53 96.3391 1099.3 Q93.9086 1100.06 91.1308 1101.61 L91.1308 1096.89 Q93.9549 1095.76 96.4085 1095.18 Q98.8622 1094.6 100.899 1094.6 Q106.27 1094.6 109.464 1097.28 Q112.658 1099.97 112.658 1104.46 Q112.658 1106.59 111.848 1108.51 Q111.061 1110.41 108.955 1113 Q108.376 1113.67 105.274 1116.89 Q102.172 1120.08 96.5243 1125.85 Z" fill="#000000" fill-rule="evenodd" fill-opacity="1" /><path clip-path="url(#clip440)" d="M 0 0 M117.959 1095.22 L136.316 1095.22 L136.316 1099.16 L122.242 1099.16 L122.242 1107.63 Q123.26 1107.28 124.279 1107.12 Q125.297 1106.94 126.316 1106.94 Q132.103 1106.94 135.482 1110.11 Q138.862 1113.28 138.862 1118.69 Q138.862 1124.27 135.39 1127.38 Q131.918 1130.45 125.598 1130.45 Q123.422 1130.45 121.154 1130.08 Q118.908 1129.71 116.501 1128.97 L116.501 1124.27 Q118.584 1125.41 120.807 1125.96 Q123.029 1126.52 125.506 1126.52 Q129.51 1126.52 131.848 1124.41 Q134.186 1122.31 134.186 1118.69 Q134.186 1115.08 131.848 1112.98 Q129.51 1110.87 125.506 1110.87 Q123.631 1110.87 121.756 1111.29 Q119.904 1111.7 117.959 1112.58 L117.959 1095.22 Z" fill="#000000" fill-rule="evenodd" fill-opacity="1" /><path clip-path="url(#clip440)" d="M 0 0 M63.9319 752.645 Q60.3208 752.645 58.4921 756.209 Q56.6865 759.751 56.6865 766.881 Q56.6865 773.987 58.4921 777.552 Q60.3208 781.094 63.9319 781.094 Q67.5661 781.094 69.3717 777.552 Q71.2004 773.987 71.2004 766.881 Q71.2004 759.751 69.3717 756.209 Q67.5661 752.645 63.9319 752.645 M63.9319 748.941 Q69.742 748.941 72.7976 753.547 Q75.8763 758.131 75.8763 766.881 Q75.8763 775.608 72.7976 780.214 Q69.742 784.797 63.9319 784.797 Q58.1217 784.797 55.043 780.214 Q51.9875 775.608 51.9875 766.881 Q51.9875 758.131 55.043 753.547 Q58.1217 748.941 63.9319 748.941 Z" fill="#000000" fill-rule="evenodd" fill-opacity="1" /><path clip-path="url(#clip440)" d="M 0 0 M80.9457 778.246 L85.8299 778.246 L85.8299 784.126 L80.9457 784.126 L80.9457 778.246 Z" fill="#000000" fill-rule="evenodd" fill-opacity="1" /><path clip-path="url(#clip440)" d="M 0 0 M90.9456 749.566 L109.302 749.566 L109.302 753.501 L95.228 753.501 L95.228 761.973 Q96.2465 761.626 97.265 761.464 Q98.2835 761.279 99.3021 761.279 Q105.089 761.279 108.469 764.45 Q111.848 767.621 111.848 773.038 Q111.848 778.617 108.376 781.719 Q104.904 784.797 98.5845 784.797 Q96.4085 784.797 94.14 784.427 Q91.8947 784.057 89.4873 783.316 L89.4873 778.617 Q91.5706 779.751 93.7928 780.307 Q96.015 780.862 98.4919 780.862 Q102.496 780.862 104.834 778.756 Q107.172 776.649 107.172 773.038 Q107.172 769.427 104.834 767.321 Q102.496 765.214 98.4919 765.214 Q96.6169 765.214 94.7419 765.631 Q92.89 766.047 90.9456 766.927 L90.9456 749.566 Z" fill="#000000" fill-rule="evenodd" fill-opacity="1" /><path clip-path="url(#clip440)" d="M 0 0 M126.918 752.645 Q123.307 752.645 121.478 756.209 Q119.672 759.751 119.672 766.881 Q119.672 773.987 121.478 777.552 Q123.307 781.094 126.918 781.094 Q130.552 781.094 132.357 777.552 Q134.186 773.987 134.186 766.881 Q134.186 759.751 132.357 756.209 Q130.552 752.645 126.918 752.645 M126.918 748.941 Q132.728 748.941 135.783 753.547 Q138.862 758.131 138.862 766.881 Q138.862 775.608 135.783 780.214 Q132.728 784.797 126.918 784.797 Q121.107 784.797 118.029 780.214 Q114.973 775.608 114.973 766.881 Q114.973 758.131 118.029 753.547 Q121.107 748.941 126.918 748.941 Z" fill="#000000" fill-rule="evenodd" fill-opacity="1" /><path clip-path="url(#clip440)" d="M 0 0 M64.8346 406.988 Q61.2236 406.988 59.3949 410.553 Q57.5893 414.094 57.5893 421.224 Q57.5893 428.33 59.3949 431.895 Q61.2236 435.437 64.8346 435.437 Q68.4689 435.437 70.2744 431.895 Q72.1031 428.33 72.1031 421.224 Q72.1031 414.094 70.2744 410.553 Q68.4689 406.988 64.8346 406.988 M64.8346 403.284 Q70.6448 403.284 73.7003 407.891 Q76.779 412.474 76.779 421.224 Q76.779 429.951 73.7003 434.557 Q70.6448 439.141 64.8346 439.141 Q59.0245 439.141 55.9458 434.557 Q52.8903 429.951 52.8903 421.224 Q52.8903 412.474 55.9458 407.891 Q59.0245 403.284 64.8346 403.284 Z" fill="#000000" fill-rule="evenodd" fill-opacity="1" /><path clip-path="url(#clip440)" d="M 0 0 M81.8484 432.59 L86.7327 432.59 L86.7327 438.469 L81.8484 438.469 L81.8484 432.59 Z" fill="#000000" fill-rule="evenodd" fill-opacity="1" /><path clip-path="url(#clip440)" d="M 0 0 M90.6215 403.909 L112.844 403.909 L112.844 405.9 L100.297 438.469 L95.4132 438.469 L107.219 407.844 L90.6215 407.844 L90.6215 403.909 Z" fill="#000000" fill-rule="evenodd" fill-opacity="1" /><path clip-path="url(#clip440)" d="M 0 0 M117.959 403.909 L136.316 403.909 L136.316 407.844 L122.242 407.844 L122.242 416.317 Q123.26 415.969 124.279 415.807 Q125.297 415.622 126.316 415.622 Q132.103 415.622 135.482 418.793 Q138.862 421.965 138.862 427.381 Q138.862 432.96 135.39 436.062 Q131.918 439.141 125.598 439.141 Q123.422 439.141 121.154 438.77 Q118.908 438.4 116.501 437.659 L116.501 432.96 Q118.584 434.094 120.807 434.65 Q123.029 435.205 125.506 435.205 Q129.51 435.205 131.848 433.099 Q134.186 430.992 134.186 427.381 Q134.186 423.77 131.848 421.664 Q129.51 419.557 125.506 419.557 Q123.631 419.557 121.756 419.974 Q119.904 420.391 117.959 421.27 L117.959 403.909 Z" fill="#000000" fill-rule="evenodd" fill-opacity="1" /><path clip-path="url(#clip440)" d="M 0 0 M54.9736 88.8775 L62.6124 88.8775 L62.6124 62.5119 L54.3023 64.1785 L54.3023 59.9193 L62.5661 58.2526 L67.242 58.2526 L67.242 88.8775 L74.8809 88.8775 L74.8809 92.8126 L54.9736 92.8126 L54.9736 88.8775 Z" fill="#000000" fill-rule="evenodd" fill-opacity="1" /><path clip-path="url(#clip440)" d="M 0 0 M79.9503 86.933 L84.8345 86.933 L84.8345 92.8126 L79.9503 92.8126 L79.9503 86.933 Z" fill="#000000" fill-rule="evenodd" fill-opacity="1" /><path clip-path="url(#clip440)" d="M 0 0 M99.9039 61.3313 Q96.2928 61.3313 94.4641 64.8961 Q92.6586 68.4378 92.6586 75.5674 Q92.6586 82.6738 94.4641 86.2386 Q96.2928 89.7802 99.9039 89.7802 Q103.538 89.7802 105.344 86.2386 Q107.172 82.6738 107.172 75.5674 Q107.172 68.4378 105.344 64.8961 Q103.538 61.3313 99.9039 61.3313 M99.9039 57.6276 Q105.714 57.6276 108.77 62.2341 Q111.848 66.8174 111.848 75.5674 Q111.848 84.2942 108.77 88.9006 Q105.714 93.4839 99.9039 93.4839 Q94.0937 93.4839 91.0151 88.9006 Q87.9595 84.2942 87.9595 75.5674 Q87.9595 66.8174 91.0151 62.2341 Q94.0937 57.6276 99.9039 57.6276 Z" fill="#000000" fill-rule="evenodd" fill-opacity="1" /><path clip-path="url(#clip440)" d="M 0 0 M126.918 61.3313 Q123.307 61.3313 121.478 64.8961 Q119.672 68.4378 119.672 75.5674 Q119.672 82.6738 121.478 86.2386 Q123.307 89.7802 126.918 89.7802 Q130.552 89.7802 132.357 86.2386 Q134.186 82.6738 134.186 75.5674 Q134.186 68.4378 132.357 64.8961 Q130.552 61.3313 126.918 61.3313 M126.918 57.6276 Q132.728 57.6276 135.783 62.2341 Q138.862 66.8174 138.862 75.5674 Q138.862 84.2942 135.783 88.9006 Q132.728 93.4839 126.918 93.4839 Q121.107 93.4839 118.029 88.9006 Q114.973 84.2942 114.973 75.5674 Q114.973 66.8174 118.029 62.2341 Q121.107 57.6276 126.918 57.6276 Z" fill="#000000" fill-rule="evenodd" fill-opacity="1" /><polyline clip-path="url(#clip442)" style="stroke:#009af9; stroke-width:4; stroke-opacity:1; fill:none" points="
  236.501,87.9763 240.618,93.5068 244.735,92.1242 248.853,93.5068 252.97,103.185 257.088,117.011 261.205,126.69 265.323,125.307 269.44,133.603 273.558,141.899 
  277.675,186.143 281.793,233.152 285.91,264.952 290.028,285.692 294.145,325.788 298.263,365.884 302.38,412.894 306.497,469.581 310.615,495.851 314.732,529.034 
  318.85,524.886 322.967,542.86 327.085,516.591 331.202,513.825 335.32,508.295 339.437,529.034 343.555,530.417 347.672,517.973 351.79,544.243 355.907,562.217 
  360.025,613.374 364.142,618.905 368.26,625.818 372.377,646.557 376.494,647.94 380.612,634.114 384.729,621.67 388.847,660.384 392.964,688.036 397.082,674.21 
  401.199,617.522 405.317,627.201 409.434,607.844 413.552,621.67 417.669,616.14 421.787,660.384 425.904,647.94 430.022,654.853 434.139,614.757 438.256,652.088 
  442.374,665.914 446.491,649.323 450.609,624.435 454.726,620.288 458.844,670.062 462.961,699.097 467.079,685.271 471.196,649.323 475.314,641.027 479.431,611.992 
  483.549,605.079 487.666,632.731 491.784,652.088 495.901,611.992 500.019,664.532 504.136,660.384 508.253,647.94 512.371,636.879 516.488,645.175 520.606,638.262 
  524.723,645.175 528.841,635.496 532.958,588.487 537.076,606.461 541.193,613.374 545.311,623.053 549.428,627.201 553.546,627.201 557.663,656.236 561.781,641.027 
  565.898,635.496 570.015,635.496 574.133,618.905 578.25,643.792 582.368,659.001 586.485,631.349 590.603,629.966 594.72,650.705 598.838,652.088 602.955,681.123 
  607.073,672.827 611.19,703.245 615.308,652.088 619.425,665.914 623.543,643.792 627.66,676.975 631.778,670.062 635.895,679.741 640.012,665.914 644.13,671.445 
  648.247,683.888 652.365,668.679 656.482,634.114 660.6,634.114 664.717,605.079 668.835,595.4 672.952,631.349 677.07,607.844 681.187,595.4 685.305,576.044 
  689.422,598.166 693.54,614.757 697.657,632.731 701.774,649.323 705.892,663.149 710.009,660.384 714.127,631.349 718.244,629.966 722.362,627.201 726.479,649.323 
  730.597,657.618 734.714,668.679 738.832,665.914 742.949,645.175 747.067,653.471 751.184,682.506 755.302,686.654 759.419,678.358 763.537,670.062 767.654,670.062 
  771.771,643.792 775.889,654.853 780.006,649.323 784.124,664.532 788.241,631.349 792.359,665.914 796.476,674.21 800.594,699.097 804.711,645.175 808.829,668.679 
  812.946,699.097 817.064,688.036 821.181,689.419 825.299,663.149 829.416,672.827 833.533,685.271 837.651,696.332 841.768,681.123 845.886,654.853 850.003,679.741 
  854.121,627.201 858.238,641.027 862.356,623.053 866.473,602.313 870.591,605.079 874.708,573.278 878.826,589.87 882.943,638.262 887.061,653.471 891.178,660.384 
  895.296,607.844 899.413,595.4 903.53,595.4 907.648,598.166 911.765,642.41 915.883,582.957 920,609.227 924.118,598.166 928.235,585.722 932.353,592.635 
  936.47,567.748 940.588,522.121 944.705,531.799 948.823,549.774 952.94,548.391 957.058,553.921 961.175,613.374 965.292,628.583 969.41,635.496 973.527,635.496 
  977.645,652.088 981.762,620.288 985.88,589.87 989.997,617.522 994.115,588.487 998.232,614.757 1002.35,614.757 1006.47,606.461 1010.58,625.818 1014.7,611.992 
  1018.82,679.741 1022.94,665.914 1027.05,623.053 1031.17,581.574 1035.29,591.252 1039.41,598.166 1043.52,628.583 1047.64,623.053 1051.76,620.288 1055.88,641.027 
  1059.99,645.175 1064.11,639.644 1068.23,603.696 1072.35,620.288 1076.46,600.931 1080.58,589.87 1084.7,614.757 1088.82,624.435 1092.93,624.435 1097.05,591.252 
  1101.17,625.818 1105.29,652.088 1109.4,632.731 1113.52,627.201 1117.64,646.557 1121.76,645.175 1125.87,631.349 1129.99,611.992 1134.11,585.722 1138.23,611.992 
  1142.34,636.879 1146.46,641.027 1150.58,645.175 1154.7,661.766 1158.81,636.879 1162.93,643.792 1167.05,643.792 1171.17,627.201 1175.28,642.41 1179.4,654.853 
  1183.52,650.705 1187.64,635.496 1191.75,636.879 1195.87,649.323 1199.99,605.079 1204.11,585.722 1208.22,588.487 1212.34,654.853 1216.46,607.844 1220.58,577.426 
  1224.69,584.339 1228.81,599.548 1232.93,623.053 1237.05,617.522 1241.16,638.262 1245.28,654.853 1249.4,661.766 1253.52,620.288 1257.63,618.905 1261.75,591.252 
  1265.87,569.13 1269.99,566.365 1274.1,577.426 1278.22,578.809 1282.34,564.982 1286.46,610.609 1290.57,603.696 1294.69,647.94 1298.81,635.496 1302.92,629.966 
  1307.04,609.227 1311.16,613.374 1315.28,606.461 1319.39,643.792 1323.51,665.914 1327.63,599.548 1331.75,629.966 1335.86,628.583 1339.98,636.879 1344.1,610.609 
  1348.22,614.757 1352.33,629.966 1356.45,610.609 1360.57,584.339 1364.69,627.201 1368.8,621.67 1372.92,629.966 1377.04,649.323 1381.16,634.114 1385.27,631.349 
  1389.39,621.67 1393.51,636.879 1397.63,659.001 1401.74,650.705 1405.86,649.323 1409.98,650.705 1414.1,643.792 1418.21,665.914 1422.33,670.062 1426.45,664.532 
  1430.57,665.914 1434.68,654.853 1438.8,657.618 1442.92,671.445 1447.04,635.496 1451.15,656.236 1455.27,661.766 1459.39,649.323 1463.51,670.062 1467.62,670.062 
  1471.74,618.905 1475.86,661.766 1479.98,681.123 1484.09,668.679 1488.21,676.975 1492.33,657.618 1496.45,665.914 1500.56,660.384 1504.68,606.461 1508.8,611.992 
  1512.92,585.722 1517.03,628.583 1521.15,625.818 1525.27,627.201 1529.39,621.67 1533.5,663.149 1537.62,661.766 1541.74,650.705 1545.86,664.532 1549.97,623.053 
  1554.09,645.175 1558.21,639.644 1562.33,618.905 1566.44,617.522 1570.56,606.461 1574.68,620.288 1578.8,657.618 1582.91,657.618 1587.03,650.705 1591.15,642.41 
  1595.27,635.496 1599.38,617.522 1603.5,618.905 1607.62,599.548 1611.74,624.435 1615.85,639.644 1619.97,670.062 1624.09,639.644 1628.2,642.41 1632.32,616.14 
  1636.44,618.905 1640.56,639.644 1644.67,632.731 1648.79,667.297 1652.91,683.888 1657.03,681.123 1661.14,636.879 1665.26,649.323 1669.38,600.931 1673.5,584.339 
  1677.61,614.757 1681.73,629.966 1685.85,610.609 1689.97,578.809 1694.08,605.079 1698.2,628.583 1702.32,632.731 1706.44,618.905 1710.55,605.079 1714.67,584.339 
  1718.79,599.548 1722.91,573.278 1727.02,609.227 1731.14,595.4 1735.26,629.966 1739.38,620.288 1743.49,616.14 1747.61,632.731 1751.73,625.818 1755.85,609.227 
  1759.96,650.705 1764.08,616.14 1768.2,638.262 1772.32,664.532 1776.43,628.583 1780.55,623.053 1784.67,642.41 1788.79,643.792 1792.9,616.14 1797.02,625.818 
  1801.14,616.14 1805.26,596.783 1809.37,635.496 1813.49,650.705 1817.61,652.088 1821.73,682.506 1825.84,667.297 1829.96,659.001 1834.08,649.323 1838.2,676.975 
  1842.31,694.949 1846.43,693.567 1850.55,688.036 1854.67,646.557 1858.78,689.419 1862.9,694.949 1867.02,704.628 1871.14,629.966 1875.25,647.94 1879.37,620.288 
  1883.49,573.278 1887.61,584.339 1891.72,610.609 1895.84,599.548 1899.96,591.252 1904.08,618.905 1908.19,613.374 1912.31,649.323 1916.43,642.41 1920.55,689.419 
  1924.66,690.802 1928.78,663.149 1932.9,664.532 1937.02,645.175 1941.13,676.975 1945.25,646.557 1949.37,668.679 1953.48,663.149 1957.6,643.792 1961.72,653.471 
  1965.84,661.766 1969.95,675.593 1974.07,685.271 1978.19,675.593 1982.31,665.914 1986.42,683.888 1990.54,682.506 1994.66,706.01 1998.78,685.271 2002.89,656.236 
  2007.01,627.201 2011.13,639.644 2015.25,618.905 2019.36,584.339 2023.48,588.487 2027.6,616.14 2031.72,592.635 2035.83,609.227 2039.95,580.191 2044.07,585.722 
  2048.19,564.982 2052.3,553.921 2056.42,577.426 2060.54,584.339 2064.66,585.722 2068.77,585.722 2072.89,591.252 2077.01,589.87 2081.13,578.809 2085.24,569.13 
  2089.36,563.6 2093.48,574.661 2097.6,585.722 2101.71,589.87 2105.83,591.252 2109.95,609.227 2114.07,574.661 2118.18,592.635 2122.3,606.461 2126.42,647.94 
  2130.54,682.506 2134.65,647.94 2138.77,623.053 2142.89,628.583 2147.01,605.079 2151.12,613.374 2155.24,654.853 2159.36,652.088 2163.48,645.175 2167.59,610.609 
  2171.71,653.471 2175.83,600.931 2179.95,620.288 2184.06,631.349 2188.18,610.609 2192.3,617.522 2196.42,627.201 2200.53,610.609 2204.65,599.548 2208.77,605.079 
  2212.89,605.079 2217,594.018 2221.12,589.87 2225.24,594.018 2229.36,614.757 2233.47,668.679 2237.59,643.792 2241.71,672.827 2245.83,672.827 2249.94,627.201 
  2254.06,659.001 2258.18,690.802 2262.3,653.471 2266.41,635.496 2270.53,616.14 2274.65,582.957 2278.76,588.487 2282.88,603.696 2287,605.079 2291.12,605.079 
  
  "/>
<polyline clip-path="url(#clip442)" style="stroke:#e26f46; stroke-width:4; stroke-opacity:1; fill:none" points="
  236.501,1445.72 240.618,1440.19 244.735,1441.57 248.853,1440.19 252.97,1430.51 257.088,1416.68 261.205,1407 265.323,1408.38 269.44,1400.09 273.558,1391.79 
  277.675,1347.55 281.793,1300.54 285.91,1268.74 290.028,1248 294.145,1207.9 298.263,1167.81 302.38,1120.8 306.497,1064.11 310.615,1037.84 314.732,1004.66 
  318.85,1008.81 322.967,990.832 327.085,1017.1 331.202,1019.87 335.32,1025.4 339.437,1004.66 343.555,1003.28 347.672,1015.72 351.79,989.449 355.907,971.475 
  360.025,920.318 364.142,914.787 368.26,907.874 372.377,887.135 376.494,885.752 380.612,899.578 384.729,912.022 388.847,873.308 392.964,845.656 397.082,859.482 
  401.199,916.17 405.317,906.491 409.434,925.848 413.552,912.022 417.669,917.552 421.787,873.308 425.904,885.752 430.022,878.839 434.139,918.935 438.256,881.604 
  442.374,867.778 446.491,884.369 450.609,909.257 454.726,913.404 458.844,863.63 462.961,834.595 467.079,848.421 471.196,884.369 475.314,892.665 479.431,921.7 
  483.549,928.613 487.666,900.961 491.784,881.604 495.901,921.7 500.019,869.16 504.136,873.308 508.253,885.752 512.371,896.813 516.488,888.517 520.606,895.43 
  524.723,888.517 528.841,898.196 532.958,945.205 537.076,927.231 541.193,920.318 545.311,910.639 549.428,906.491 553.546,906.491 557.663,877.456 561.781,892.665 
  565.898,898.196 570.015,898.196 574.133,914.787 578.25,889.9 582.368,874.691 586.485,902.343 590.603,903.726 594.72,882.987 598.838,881.604 602.955,852.569 
  607.073,860.865 611.19,830.447 615.308,881.604 619.425,867.778 623.543,889.9 627.66,856.717 631.778,863.63 635.895,853.951 640.012,867.778 644.13,862.247 
  648.247,849.804 652.365,865.012 656.482,899.578 660.6,899.578 664.717,928.613 668.835,938.292 672.952,902.343 677.07,925.848 681.187,938.292 685.305,957.648 
  689.422,935.526 693.54,918.935 697.657,900.961 701.774,884.369 705.892,870.543 710.009,873.308 714.127,902.343 718.244,903.726 722.362,906.491 726.479,884.369 
  730.597,876.073 734.714,865.012 738.832,867.778 742.949,888.517 747.067,880.221 751.184,851.186 755.302,847.038 759.419,855.334 763.537,863.63 767.654,863.63 
  771.771,889.9 775.889,878.839 780.006,884.369 784.124,869.16 788.241,902.343 792.359,867.778 796.476,859.482 800.594,834.595 804.711,888.517 808.829,865.012 
  812.946,834.595 817.064,845.656 821.181,844.273 825.299,870.543 829.416,860.865 833.533,848.421 837.651,837.36 841.768,852.569 845.886,878.839 850.003,853.951 
  854.121,906.491 858.238,892.665 862.356,910.639 866.473,931.379 870.591,928.613 874.708,960.414 878.826,943.822 882.943,895.43 887.061,880.221 891.178,873.308 
  895.296,925.848 899.413,938.292 903.53,938.292 907.648,935.526 911.765,891.282 915.883,950.735 920,924.465 924.118,935.526 928.235,947.97 932.353,941.057 
  936.47,965.944 940.588,1011.57 944.705,1001.89 948.823,983.918 952.94,985.301 957.058,979.77 961.175,920.318 965.292,905.109 969.41,898.196 973.527,898.196 
  977.645,881.604 981.762,913.404 985.88,943.822 989.997,916.17 994.115,945.205 998.232,918.935 1002.35,918.935 1006.47,927.231 1010.58,907.874 1014.7,921.7 
  1018.82,853.951 1022.94,867.778 1027.05,910.639 1031.17,952.118 1035.29,942.44 1039.41,935.526 1043.52,905.109 1047.64,910.639 1051.76,913.404 1055.88,892.665 
  1059.99,888.517 1064.11,894.048 1068.23,929.996 1072.35,913.404 1076.46,932.761 1080.58,943.822 1084.7,918.935 1088.82,909.257 1092.93,909.257 1097.05,942.44 
  1101.17,907.874 1105.29,881.604 1109.4,900.961 1113.52,906.491 1117.64,887.135 1121.76,888.517 1125.87,902.343 1129.99,921.7 1134.11,947.97 1138.23,921.7 
  1142.34,896.813 1146.46,892.665 1150.58,888.517 1154.7,871.926 1158.81,896.813 1162.93,889.9 1167.05,889.9 1171.17,906.491 1175.28,891.282 1179.4,878.839 
  1183.52,882.987 1187.64,898.196 1191.75,896.813 1195.87,884.369 1199.99,928.613 1204.11,947.97 1208.22,945.205 1212.34,878.839 1216.46,925.848 1220.58,956.266 
  1224.69,949.353 1228.81,934.144 1232.93,910.639 1237.05,916.17 1241.16,895.43 1245.28,878.839 1249.4,871.926 1253.52,913.404 1257.63,914.787 1261.75,942.44 
  1265.87,964.562 1269.99,967.327 1274.1,956.266 1278.22,954.883 1282.34,968.709 1286.46,923.083 1290.57,929.996 1294.69,885.752 1298.81,898.196 1302.92,903.726 
  1307.04,924.465 1311.16,920.318 1315.28,927.231 1319.39,889.9 1323.51,867.778 1327.63,934.144 1331.75,903.726 1335.86,905.109 1339.98,896.813 1344.1,923.083 
  1348.22,918.935 1352.33,903.726 1356.45,923.083 1360.57,949.353 1364.69,906.491 1368.8,912.022 1372.92,903.726 1377.04,884.369 1381.16,899.578 1385.27,902.343 
  1389.39,912.022 1393.51,896.813 1397.63,874.691 1401.74,882.987 1405.86,884.369 1409.98,882.987 1414.1,889.9 1418.21,867.778 1422.33,863.63 1426.45,869.16 
  1430.57,867.778 1434.68,878.839 1438.8,876.073 1442.92,862.247 1447.04,898.196 1451.15,877.456 1455.27,871.926 1459.39,884.369 1463.51,863.63 1467.62,863.63 
  1471.74,914.787 1475.86,871.926 1479.98,852.569 1484.09,865.012 1488.21,856.717 1492.33,876.073 1496.45,867.778 1500.56,873.308 1504.68,927.231 1508.8,921.7 
  1512.92,947.97 1517.03,905.109 1521.15,907.874 1525.27,906.491 1529.39,912.022 1533.5,870.543 1537.62,871.926 1541.74,882.987 1545.86,869.16 1549.97,910.639 
  1554.09,888.517 1558.21,894.048 1562.33,914.787 1566.44,916.17 1570.56,927.231 1574.68,913.404 1578.8,876.073 1582.91,876.073 1587.03,882.987 1591.15,891.282 
  1595.27,898.196 1599.38,916.17 1603.5,914.787 1607.62,934.144 1611.74,909.257 1615.85,894.048 1619.97,863.63 1624.09,894.048 1628.2,891.282 1632.32,917.552 
  1636.44,914.787 1640.56,894.048 1644.67,900.961 1648.79,866.395 1652.91,849.804 1657.03,852.569 1661.14,896.813 1665.26,884.369 1669.38,932.761 1673.5,949.353 
  1677.61,918.935 1681.73,903.726 1685.85,923.083 1689.97,954.883 1694.08,928.613 1698.2,905.109 1702.32,900.961 1706.44,914.787 1710.55,928.613 1714.67,949.353 
  1718.79,934.144 1722.91,960.414 1727.02,924.465 1731.14,938.292 1735.26,903.726 1739.38,913.404 1743.49,917.552 1747.61,900.961 1751.73,907.874 1755.85,924.465 
  1759.96,882.987 1764.08,917.552 1768.2,895.43 1772.32,869.16 1776.43,905.109 1780.55,910.639 1784.67,891.282 1788.79,889.9 1792.9,917.552 1797.02,907.874 
  1801.14,917.552 1805.26,936.909 1809.37,898.196 1813.49,882.987 1817.61,881.604 1821.73,851.186 1825.84,866.395 1829.96,874.691 1834.08,884.369 1838.2,856.717 
  1842.31,838.743 1846.43,840.125 1850.55,845.656 1854.67,887.135 1858.78,844.273 1862.9,838.743 1867.02,829.064 1871.14,903.726 1875.25,885.752 1879.37,913.404 
  1883.49,960.414 1887.61,949.353 1891.72,923.083 1895.84,934.144 1899.96,942.44 1904.08,914.787 1908.19,920.318 1912.31,884.369 1916.43,891.282 1920.55,844.273 
  1924.66,842.89 1928.78,870.543 1932.9,869.16 1937.02,888.517 1941.13,856.717 1945.25,887.135 1949.37,865.012 1953.48,870.543 1957.6,889.9 1961.72,880.221 
  1965.84,871.926 1969.95,858.099 1974.07,848.421 1978.19,858.099 1982.31,867.778 1986.42,849.804 1990.54,851.186 1994.66,827.682 1998.78,848.421 2002.89,877.456 
  2007.01,906.491 2011.13,894.048 2015.25,914.787 2019.36,949.353 2023.48,945.205 2027.6,917.552 2031.72,941.057 2035.83,924.465 2039.95,953.501 2044.07,947.97 
  2048.19,968.709 2052.3,979.77 2056.42,956.266 2060.54,949.353 2064.66,947.97 2068.77,947.97 2072.89,942.44 2077.01,943.822 2081.13,954.883 2085.24,964.562 
  2089.36,970.092 2093.48,959.031 2097.6,947.97 2101.71,943.822 2105.83,942.44 2109.95,924.465 2114.07,959.031 2118.18,941.057 2122.3,927.231 2126.42,885.752 
  2130.54,851.186 2134.65,885.752 2138.77,910.639 2142.89,905.109 2147.01,928.613 2151.12,920.318 2155.24,878.839 2159.36,881.604 2163.48,888.517 2167.59,923.083 
  2171.71,880.221 2175.83,932.761 2179.95,913.404 2184.06,902.343 2188.18,923.083 2192.3,916.17 2196.42,906.491 2200.53,923.083 2204.65,934.144 2208.77,928.613 
  2212.89,928.613 2217,939.674 2221.12,943.822 2225.24,939.674 2229.36,918.935 2233.47,865.012 2237.59,889.9 2241.71,860.865 2245.83,860.865 2249.94,906.491 
  2254.06,874.691 2258.18,842.89 2262.3,880.221 2266.41,898.196 2270.53,917.552 2274.65,950.735 2278.76,945.205 2282.88,929.996 2287,928.613 2291.12,928.613 
  
  "/>
<path clip-path="url(#clip440)" d="
M1805.44 276.658 L2280.16 276.658 L2280.16 95.2176 L1805.44 95.2176  Z
  " fill="#ffffff" fill-rule="evenodd" fill-opacity="1"/>
<polyline clip-path="url(#clip440)" style="stroke:#000000; stroke-width:4; stroke-opacity:1; fill:none" points="
  1805.44,276.658 2280.16,276.658 2280.16,95.2176 1805.44,95.2176 1805.44,276.658 
  "/>
<polyline clip-path="url(#clip440)" style="stroke:#009af9; stroke-width:4; stroke-opacity:1; fill:none" points="
  1829.64,155.698 1974.83,155.698 
  "/>
<path clip-path="url(#clip440)" d="M 0 0 M2017.46 147.816 L2017.46 151.843 Q2015.65 150.917 2013.71 150.455 Q2011.76 149.992 2009.68 149.992 Q2006.51 149.992 2004.91 150.964 Q2003.34 151.936 2003.34 153.88 Q2003.34 155.362 2004.47 156.218 Q2005.61 157.052 2009.03 157.816 L2010.49 158.14 Q2015.03 159.112 2016.92 160.894 Q2018.85 162.654 2018.85 165.825 Q2018.85 169.436 2015.98 171.542 Q2013.13 173.649 2008.13 173.649 Q2006.05 173.649 2003.78 173.232 Q2001.53 172.839 1999.03 172.028 L1999.03 167.63 Q2001.39 168.857 2003.68 169.482 Q2005.98 170.084 2008.22 170.084 Q2011.23 170.084 2012.85 169.066 Q2014.47 168.024 2014.47 166.149 Q2014.47 164.413 2013.29 163.487 Q2012.13 162.561 2008.18 161.704 L2006.69 161.357 Q2002.74 160.524 2000.98 158.811 Q1999.22 157.075 1999.22 154.066 Q1999.22 150.408 2001.81 148.418 Q2004.4 146.427 2009.17 146.427 Q2011.53 146.427 2013.61 146.774 Q2015.7 147.121 2017.46 147.816 Z" fill="#000000" fill-rule="evenodd" fill-opacity="1" /><path clip-path="url(#clip440)" d="M 0 0 M2022.87 162.746 L2022.87 147.052 L2027.13 147.052 L2027.13 162.584 Q2027.13 166.265 2028.57 168.116 Q2030 169.945 2032.87 169.945 Q2036.32 169.945 2038.31 167.746 Q2040.33 165.547 2040.33 161.751 L2040.33 147.052 L2044.59 147.052 L2044.59 172.978 L2040.33 172.978 L2040.33 168.996 Q2038.78 171.357 2036.72 172.515 Q2034.68 173.649 2031.97 173.649 Q2027.5 173.649 2025.19 170.871 Q2022.87 168.093 2022.87 162.746 M2033.59 146.427 L2033.59 146.427 Z" fill="#000000" fill-rule="evenodd" fill-opacity="1" /><path clip-path="url(#clip440)" d="M 0 0 M2065.58 147.816 L2065.58 151.843 Q2063.78 150.917 2061.83 150.455 Q2059.89 149.992 2057.8 149.992 Q2054.63 149.992 2053.04 150.964 Q2051.46 151.936 2051.46 153.88 Q2051.46 155.362 2052.6 156.218 Q2053.73 157.052 2057.16 157.816 L2058.61 158.14 Q2063.15 159.112 2065.05 160.894 Q2066.97 162.654 2066.97 165.825 Q2066.97 169.436 2064.1 171.542 Q2061.25 173.649 2056.25 173.649 Q2054.17 173.649 2051.9 173.232 Q2049.66 172.839 2047.16 172.028 L2047.16 167.63 Q2049.52 168.857 2051.81 169.482 Q2054.1 170.084 2056.35 170.084 Q2059.36 170.084 2060.98 169.066 Q2062.6 168.024 2062.6 166.149 Q2062.6 164.413 2061.42 163.487 Q2060.26 162.561 2056.3 161.704 L2054.82 161.357 Q2050.86 160.524 2049.1 158.811 Q2047.34 157.075 2047.34 154.066 Q2047.34 150.408 2049.93 148.418 Q2052.53 146.427 2057.3 146.427 Q2059.66 146.427 2061.74 146.774 Q2063.82 147.121 2065.58 147.816 Z" fill="#000000" fill-rule="evenodd" fill-opacity="1" /><path clip-path="url(#clip440)" d="M 0 0 M2090.1 148.047 L2090.1 152.029 Q2088.29 151.033 2086.46 150.547 Q2084.66 150.038 2082.8 150.038 Q2078.66 150.038 2076.37 152.677 Q2074.08 155.292 2074.08 160.038 Q2074.08 164.783 2076.37 167.422 Q2078.66 170.038 2082.8 170.038 Q2084.66 170.038 2086.46 169.552 Q2088.29 169.042 2090.1 168.047 L2090.1 171.982 Q2088.31 172.816 2086.39 173.232 Q2084.49 173.649 2082.34 173.649 Q2076.48 173.649 2073.04 169.968 Q2069.59 166.288 2069.59 160.038 Q2069.59 153.695 2073.06 150.061 Q2076.55 146.427 2082.62 146.427 Q2084.59 146.427 2086.46 146.843 Q2088.34 147.237 2090.1 148.047 Z" fill="#000000" fill-rule="evenodd" fill-opacity="1" /><path clip-path="url(#clip440)" d="M 0 0 M2119.86 137.006 Q2116.76 142.33 2115.26 147.538 Q2113.75 152.746 2113.75 158.093 Q2113.75 163.441 2115.26 168.695 Q2116.79 173.927 2119.86 179.228 L2116.16 179.228 Q2112.69 173.788 2110.95 168.533 Q2109.24 163.279 2109.24 158.093 Q2109.24 152.931 2110.95 147.7 Q2112.67 142.468 2116.16 137.006 L2119.86 137.006 Z" fill="#000000" fill-rule="evenodd" fill-opacity="1" /><path clip-path="url(#clip440)" d="M 0 0 M2136.07 143.024 L2129.73 160.223 L2142.43 160.223 L2136.07 143.024 M2133.43 138.418 L2138.73 138.418 L2151.9 172.978 L2147.04 172.978 L2143.89 164.112 L2128.31 164.112 L2125.17 172.978 L2120.23 172.978 L2133.43 138.418 Z" fill="#000000" fill-rule="evenodd" fill-opacity="1" /><path clip-path="url(#clip440)" d="M 0 0 M2161.23 156.473 L2161.23 169.135 L2168.73 169.135 Q2172.5 169.135 2174.31 167.584 Q2176.14 166.01 2176.14 162.792 Q2176.14 159.552 2174.31 158.024 Q2172.5 156.473 2168.73 156.473 L2161.23 156.473 M2161.23 142.26 L2161.23 152.677 L2168.15 152.677 Q2171.58 152.677 2173.24 151.404 Q2174.93 150.107 2174.93 147.468 Q2174.93 144.853 2173.24 143.556 Q2171.58 142.26 2168.15 142.26 L2161.23 142.26 M2156.55 138.418 L2168.5 138.418 Q2173.85 138.418 2176.74 140.64 Q2179.63 142.862 2179.63 146.959 Q2179.63 150.13 2178.15 152.005 Q2176.67 153.88 2173.8 154.343 Q2177.25 155.084 2179.15 157.445 Q2181.07 159.783 2181.07 163.302 Q2181.07 167.931 2177.92 170.454 Q2174.77 172.978 2168.96 172.978 L2156.55 172.978 L2156.55 138.418 Z" fill="#000000" fill-rule="evenodd" fill-opacity="1" /><path clip-path="url(#clip440)" d="M 0 0 M2185.72 138.418 L2192.69 138.418 L2201.51 161.936 L2210.37 138.418 L2217.34 138.418 L2217.34 172.978 L2212.78 172.978 L2212.78 142.63 L2203.87 166.334 L2199.17 166.334 L2190.26 142.63 L2190.26 172.978 L2185.72 172.978 L2185.72 138.418 Z" fill="#000000" fill-rule="evenodd" fill-opacity="1" /><path clip-path="url(#clip440)" d="M 0 0 M2221.14 137.006 L2224.84 137.006 Q2228.31 142.468 2230.03 147.7 Q2231.76 152.931 2231.76 158.093 Q2231.76 163.279 2230.03 168.533 Q2228.31 173.788 2224.84 179.228 L2221.14 179.228 Q2224.22 173.927 2225.72 168.695 Q2227.25 163.441 2227.25 158.093 Q2227.25 152.746 2225.72 147.538 Q2224.22 142.33 2221.14 137.006 Z" fill="#000000" fill-rule="evenodd" fill-opacity="1" /><polyline clip-path="url(#clip440)" style="stroke:#e26f46; stroke-width:4; stroke-opacity:1; fill:none" points="
  1829.64,216.178 1974.83,216.178 
  "/>
<path clip-path="url(#clip440)" d="M 0 0 M1999.03 207.532 L2003.29 207.532 L2003.29 233.458 L1999.03 233.458 L1999.03 207.532 M1999.03 197.439 L2003.29 197.439 L2003.29 202.833 L1999.03 202.833 L1999.03 197.439 Z" fill="#000000" fill-rule="evenodd" fill-opacity="1" /><path clip-path="url(#clip440)" d="M 0 0 M2029.31 217.809 L2029.31 233.458 L2025.05 233.458 L2025.05 217.948 Q2025.05 214.268 2023.61 212.439 Q2022.18 210.61 2019.31 210.61 Q2015.86 210.61 2013.87 212.81 Q2011.88 215.009 2011.88 218.805 L2011.88 233.458 L2007.6 233.458 L2007.6 207.532 L2011.88 207.532 L2011.88 211.56 Q2013.41 209.222 2015.47 208.064 Q2017.55 206.907 2020.26 206.907 Q2024.73 206.907 2027.02 209.685 Q2029.31 212.439 2029.31 217.809 Z" fill="#000000" fill-rule="evenodd" fill-opacity="1" /><path clip-path="url(#clip440)" d="M 0 0 M2046.9 197.439 L2046.9 200.981 L2042.83 200.981 Q2040.54 200.981 2039.63 201.907 Q2038.75 202.833 2038.75 205.24 L2038.75 207.532 L2045.77 207.532 L2045.77 210.842 L2038.75 210.842 L2038.75 233.458 L2034.47 233.458 L2034.47 210.842 L2030.4 210.842 L2030.4 207.532 L2034.47 207.532 L2034.47 205.726 Q2034.47 201.398 2036.49 199.43 Q2038.5 197.439 2042.87 197.439 L2046.9 197.439 Z" fill="#000000" fill-rule="evenodd" fill-opacity="1" /><path clip-path="url(#clip440)" d="M 0 0 M2076.67 197.486 Q2073.57 202.81 2072.06 208.018 Q2070.56 213.226 2070.56 218.573 Q2070.56 223.921 2072.06 229.175 Q2073.59 234.407 2076.67 239.708 L2072.97 239.708 Q2069.49 234.268 2067.76 229.013 Q2066.05 223.759 2066.05 218.573 Q2066.05 213.411 2067.76 208.18 Q2069.47 202.948 2072.97 197.486 L2076.67 197.486 Z" fill="#000000" fill-rule="evenodd" fill-opacity="1" /><path clip-path="url(#clip440)" d="M 0 0 M2092.87 203.504 L2086.53 220.703 L2099.24 220.703 L2092.87 203.504 M2090.23 198.898 L2095.54 198.898 L2108.71 233.458 L2103.85 233.458 L2100.7 224.592 L2085.12 224.592 L2081.97 233.458 L2077.04 233.458 L2090.23 198.898 Z" fill="#000000" fill-rule="evenodd" fill-opacity="1" /><path clip-path="url(#clip440)" d="M 0 0 M2118.04 216.953 L2118.04 229.615 L2125.54 229.615 Q2129.31 229.615 2131.11 228.064 Q2132.94 226.49 2132.94 223.272 Q2132.94 220.032 2131.11 218.504 Q2129.31 216.953 2125.54 216.953 L2118.04 216.953 M2118.04 202.74 L2118.04 213.157 L2124.96 213.157 Q2128.38 213.157 2130.05 211.884 Q2131.74 210.587 2131.74 207.948 Q2131.74 205.333 2130.05 204.036 Q2128.38 202.74 2124.96 202.74 L2118.04 202.74 M2113.36 198.898 L2125.3 198.898 Q2130.65 198.898 2133.54 201.12 Q2136.44 203.342 2136.44 207.439 Q2136.44 210.61 2134.96 212.485 Q2133.48 214.36 2130.6 214.823 Q2134.05 215.564 2135.95 217.925 Q2137.87 220.263 2137.87 223.782 Q2137.87 228.411 2134.73 230.934 Q2131.58 233.458 2125.77 233.458 L2113.36 233.458 L2113.36 198.898 Z" fill="#000000" fill-rule="evenodd" fill-opacity="1" /><path clip-path="url(#clip440)" d="M 0 0 M2142.53 198.898 L2149.49 198.898 L2158.31 222.416 L2167.18 198.898 L2174.15 198.898 L2174.15 233.458 L2169.59 233.458 L2169.59 203.11 L2160.67 226.814 L2155.98 226.814 L2147.06 203.11 L2147.06 233.458 L2142.53 233.458 L2142.53 198.898 Z" fill="#000000" fill-rule="evenodd" fill-opacity="1" /><path clip-path="url(#clip440)" d="M 0 0 M2177.94 197.486 L2181.65 197.486 Q2185.12 202.948 2186.83 208.18 Q2188.57 213.411 2188.57 218.573 Q2188.57 223.759 2186.83 229.013 Q2185.12 234.268 2181.65 239.708 L2177.94 239.708 Q2181.02 234.407 2182.53 229.175 Q2184.05 223.921 2184.05 218.573 Q2184.05 213.226 2182.53 208.018 Q2181.02 202.81 2177.94 197.486 Z" fill="#000000" fill-rule="evenodd" fill-opacity="1" /></svg>
