<?xml version="1.0" encoding="UTF-8"?>
<svg xmlns="http://www.w3.org/2000/svg"
     xmlns:xlink="http://www.w3.org/1999/xlink"
     xmlns:gadfly="http://www.gadflyjl.org/ns"
     version="1.2"
     width="141.42mm" height="100mm" viewBox="0 0 141.42 100"
     stroke="none"
     fill="#000000"
     stroke-width="0.3"
     font-size="3.88"
>
<defs>
  <marker id="arrow" markerWidth="15" markerHeight="7" refX="5" refY="3.5" orient="auto" markerUnits="strokeWidth">
    <path d="M0,0 L15,3.5 L0,7 z" stroke="context-stroke" fill="context-stroke"/>
  </marker>
</defs>
<g class="plotroot xscalable yscalable" id="img-63ab0ee3-1">
  <g font-size="3.88" font-family="'PT Sans','Helvetica Neue','Helvetica',sans-serif" fill="#564A55" stroke="#000000" stroke-opacity="0.000" id="img-63ab0ee3-2">
    <g transform="translate(78.86,88.39)">
      <g class="primitive">
        <text text-anchor="middle" dy="0.6em">time</text>
      </g>
    </g>
  </g>
  <g class="guide xlabels" font-size="2.82" font-family="'PT Sans Caption','Helvetica Neue','Helvetica',sans-serif" fill="#6C606B" id="img-63ab0ee3-3">
    <g transform="translate(23.3,81.72)">
      <g class="primitive">
        <text text-anchor="middle" dy="0.6em">0</text>
      </g>
    </g>
    <g transform="translate(78.86,81.72)">
      <g class="primitive">
        <text text-anchor="middle" dy="0.6em">50</text>
      </g>
    </g>
    <g transform="translate(134.42,81.72)">
      <g class="primitive">
        <text text-anchor="middle" dy="0.6em">100</text>
      </g>
    </g>
  </g>
  <g clip-path="url(#img-63ab0ee3-4)">
    <g id="img-63ab0ee3-5">
      <g pointer-events="visible" fill="#000000" fill-opacity="0.000" stroke="#000000" stroke-opacity="0.000" class="guide background" id="img-63ab0ee3-6">
        <g transform="translate(78.86,42.86)" id="img-63ab0ee3-7">
          <path d="M-57.56,-37.86 L 57.56 -37.86 57.56 37.86 -57.56 37.86 z" class="primitive"/>
        </g>
      </g>
      <g class="guide ygridlines xfixed" stroke-dasharray="0.5,0.5" stroke-width="0.2" stroke="#D0D0E0" id="img-63ab0ee3-8">
        <g transform="translate(78.86,78.71)" id="img-63ab0ee3-9">
          <path fill="none" d="M-57.56,0 L 57.56 0" class="primitive"/>
        </g>
        <g transform="translate(78.86,64.37)" id="img-63ab0ee3-10">
          <path fill="none" d="M-57.56,0 L 57.56 0" class="primitive"/>
        </g>
        <g transform="translate(78.86,50.03)" id="img-63ab0ee3-11">
          <path fill="none" d="M-57.56,0 L 57.56 0" class="primitive"/>
        </g>
        <g transform="translate(78.86,35.69)" id="img-63ab0ee3-12">
          <path fill="none" d="M-57.56,0 L 57.56 0" class="primitive"/>
        </g>
        <g transform="translate(78.86,21.34)" id="img-63ab0ee3-13">
          <path fill="none" d="M-57.56,0 L 57.56 0" class="primitive"/>
        </g>
        <g transform="translate(78.86,7)" id="img-63ab0ee3-14">
          <path fill="none" d="M-57.56,0 L 57.56 0" class="primitive"/>
        </g>
      </g>
      <g class="guide xgridlines yfixed" stroke-dasharray="0.5,0.5" stroke-width="0.2" stroke="#D0D0E0" id="img-63ab0ee3-15">
        <g transform="translate(23.3,42.86)" id="img-63ab0ee3-16">
          <path fill="none" d="M0,-37.86 L 0 37.86" class="primitive"/>
        </g>
        <g transform="translate(78.86,42.86)" id="img-63ab0ee3-17">
          <path fill="none" d="M0,-37.86 L 0 37.86" class="primitive"/>
        </g>
        <g transform="translate(134.42,42.86)" id="img-63ab0ee3-18">
          <path fill="none" d="M0,-37.86 L 0 37.86" class="primitive"/>
        </g>
      </g>
      <g class="plotpanel" id="img-63ab0ee3-19">
        <metadata>
          <boundingbox value="21.304999999999993mm 5.0mm 115.11635623730952mm 75.715mm"/>
          <unitbox value="-1.7999150329665508 2569.7204211113435 103.59983006593309 -2639.4408422226875"/>
        </metadata>
        <g stroke-width="0.3" fill="#000000" fill-opacity="0.000" class="geometry" id="img-63ab0ee3-20">
          <g class="color_RGB{N0f8}(0.502,0.502,0.502)" stroke-dasharray="none" stroke="#808080" id="img-63ab0ee3-21">
            <g transform="translate(79.42,59.37)" id="img-63ab0ee3-22">
              <path fill="none" d="M-55,19.32 L -53.89 19.29 -52.78 19.23 -51.67 19.09 -50.56 18.95 -49.45 18.77 -48.34 18.46 -47.22 18.06 -46.11 17.66 -45 17.05 -43.89 16.42 -42.78 15.79 -41.67 14.87 -40.56 13.61 -39.45 12.29 -38.34 10.8 -37.22 8.82 -36.11 7.1 -35 5.18 -33.89 3.74 -32.78 2.16 -31.67 1.1 -30.56 0.19 -29.45 -0.62 -28.33 -1.33 -27.22 -1.88 -26.11 -2.37 -25 -2.74 -23.89 -2.97 -22.78 -3.11 -21.67 -3.31 -20.56 -3.46 -19.45 -3.54 -18.33 -3.63 -17.22 -3.72 -16.11 -3.86 -15 -3.97 -13.89 -4.03 -12.78 -4.03 -11.67 -4.06 -10.56 -4.09 -9.44 -4.09 -8.33 -4.09 -7.22 -4.09 -6.11 -4.09 -5 -4.09 -3.89 -4.09 -2.78 -4.09 -1.67 -4.09 -0.56 -4.09 0.56 -4.09 1.67 -4.09 2.78 -4.09 3.89 -4.09 5 -4.09 6.11 -4.09 7.22 -4.09 8.33 -4.09 9.44 -4.09 10.56 -4.09 11.67 -4.09 12.78 -4.09 13.89 -4.09 15 -4.09 16.11 -4.09 17.22 -4.09 18.33 -4.09 19.45 -4.09 20.56 -4.09 21.67 -4.09 22.78 -4.09 23.89 -4.09 25 -4.09 26.11 -4.09 27.22 -4.09 28.33 -4.09 29.45 -4.09 30.56 -4.09 31.67 -4.09 32.78 -4.09 33.89 -4.09 35 -4.09 36.11 -4.09 37.22 -4.09 38.34 -4.09 39.45 -4.09 40.56 -4.09 41.67 -4.09 42.78 -4.09 43.89 -4.09 45 -4.09 46.11 -4.09 47.22 -4.09 48.34 -4.09 49.45 -4.09 50.56 -4.09 51.67 -4.09 52.78 -4.09 53.89 -4.09 55 -4.09" class="primitive"/>
            </g>
          </g>
        </g>
        <g stroke-width="0.3" fill="#000000" fill-opacity="0.000" class="geometry" id="img-63ab0ee3-23">
          <g class="color_RGB{N0f8}(0.0,0.0,1.0)" stroke-dasharray="none" stroke="#0000FF" id="img-63ab0ee3-24">
            <g transform="translate(79.42,40.71)" id="img-63ab0ee3-25">
              <path fill="none" d="M-55,37.95 L -53.89 37.86 -52.78 37.8 -51.67 37.66 -50.56 37.43 -49.45 37.11 -48.34 36.77 -47.22 36 -46.11 34.91 -45 33.82 -43.89 31.89 -42.78 30.26 -41.67 27.36 -40.56 24.32 -39.45 21.16 -38.34 17.84 -37.22 14.85 -36.11 11.44 -35 8.37 -33.89 6.1 -32.78 3.64 -31.67 1.23 -30.56 -0.46 -29.45 -1.78 -28.33 -3.16 -27.22 -4.02 -26.11 -4.85 -25 -5.54 -23.89 -5.94 -22.78 -6.2 -21.67 -6.49 -20.56 -6.78 -19.45 -6.92 -18.33 -7.12 -17.22 -7.35 -16.11 -7.44 -15 -7.49 -13.89 -7.52 -12.78 -7.55 -11.67 -7.61 -10.56 -7.64 -9.44 -7.69 -8.33 -7.69 -7.22 -7.69 -6.11 -7.69 -5 -7.69 -3.89 -7.69 -2.78 -7.69 -1.67 -7.69 -0.56 -7.69 0.56 -7.69 1.67 -7.69 2.78 -7.69 3.89 -7.69 5 -7.69 6.11 -7.69 7.22 -7.69 8.33 -7.69 9.44 -7.69 10.56 -7.69 11.67 -7.69 12.78 -7.69 13.89 -7.69 15 -7.69 16.11 -7.69 17.22 -7.69 18.33 -7.69 19.45 -7.69 20.56 -7.69 21.67 -7.69 22.78 -7.69 23.89 -7.69 25 -7.69 26.11 -7.69 27.22 -7.69 28.33 -7.69 29.45 -7.69 30.56 -7.69 31.67 -7.69 32.78 -7.69 33.89 -7.69 35 -7.69 36.11 -7.69 37.22 -7.69 38.34 -7.69 39.45 -7.69 40.56 -7.69 41.67 -7.69 42.78 -7.69 43.89 -7.69 45 -7.69 46.11 -7.69 47.22 -7.69 48.34 -7.69 49.45 -7.69 50.56 -7.69 51.67 -7.69 52.78 -7.69 53.89 -7.69 55 -7.69" class="primitive"/>
            </g>
          </g>
        </g>
        <g stroke-width="0.3" fill="#000000" fill-opacity="0.000" class="geometry" id="img-63ab0ee3-26">
          <g class="color_RGB{N0f8}(0.0,0.502,0.0)" stroke-dasharray="none" stroke="#008000" id="img-63ab0ee3-27">
            <g transform="translate(79.42,66.69)" id="img-63ab0ee3-28">
              <path fill="none" d="M-55,-59.38 L -53.89 -59.03 -52.78 -58.66 -51.67 -58.12 -50.56 -57.17 -49.45 -55.94 -48.34 -54.7 -47.22 -52.46 -46.11 -49.74 -45 -46.35 -43.89 -42.48 -42.78 -38.18 -41.67 -32.3 -40.56 -25.76 -39.45 -19.79 -38.34 -14.46 -37.22 -8.4 -36.11 -3.18 -35 -0.49 -33.89 2.61 -32.78 4.53 -31.67 5.88 -30.56 6.69 -29.45 7.03 -28.33 7.66 -27.22 8.03 -26.11 8.32 -25 8.58 -23.89 8.64 -22.78 8.81 -21.67 8.95 -20.56 8.98 -19.45 9.18 -18.33 9.35 -17.22 9.32 -16.11 9.44 -15 9.44 -13.89 9.47 -12.78 9.5 -11.67 9.5 -10.56 9.53 -9.44 9.53 -8.33 9.53 -7.22 9.5 -6.11 9.44 -5 9.44 -3.89 9.44 -2.78 9.44 -1.67 9.44 -0.56 9.44 0.56 9.44 1.67 9.44 2.78 9.44 3.89 9.44 5 9.44 6.11 9.44 7.22 9.44 8.33 9.44 9.44 9.44 10.56 9.44 11.67 9.44 12.78 9.44 13.89 9.44 15 9.44 16.11 9.44 17.22 9.44 18.33 9.44 19.45 9.44 20.56 9.44 21.67 9.44 22.78 9.44 23.89 9.44 25 9.44 26.11 9.44 27.22 9.44 28.33 9.44 29.45 9.44 30.56 9.44 31.67 9.44 32.78 9.44 33.89 9.44 35 9.44 36.11 9.44 37.22 9.44 38.34 9.44 39.45 9.44 40.56 9.44 41.67 9.44 42.78 9.44 43.89 9.44 45 9.44 46.11 9.44 47.22 9.44 48.34 9.44 49.45 9.44 50.56 9.44 51.67 9.44 52.78 9.44 53.89 9.44 55 9.44" class="primitive"/>
            </g>
          </g>
        </g>
        <g stroke-width="0.3" fill="#000000" fill-opacity="0.000" class="geometry" id="img-63ab0ee3-29">
          <g class="color_RGB{N0f8}(1.0,0.0,0.0)" stroke-dasharray="none" stroke="#FF0000" id="img-63ab0ee3-30">
            <g transform="translate(79.42,76.37)" id="img-63ab0ee3-31">
              <path fill="none" d="M-55,2.11 L -53.89 1.88 -52.78 1.63 -51.67 1.37 -50.56 0.79 -49.45 0.05 -48.34 -0.53 -47.22 -1.59 -46.11 -2.82 -45 -4.51 -43.89 -5.83 -42.78 -7.87 -41.67 -9.94 -40.56 -12.17 -39.45 -13.66 -38.34 -14.18 -37.22 -15.27 -36.11 -15.36 -35 -13.06 -33.89 -12.46 -32.78 -10.34 -31.67 -8.21 -30.56 -6.41 -29.45 -4.63 -28.33 -3.17 -27.22 -2.13 -26.11 -1.1 -25 -0.3 -23.89 0.28 -22.78 0.51 -21.67 0.85 -20.56 1.25 -19.45 1.28 -18.33 1.4 -17.22 1.74 -16.11 1.85 -15 2.03 -13.89 2.08 -12.78 2.08 -11.67 2.17 -10.56 2.2 -9.44 2.26 -8.33 2.26 -7.22 2.29 -6.11 2.34 -5 2.34 -3.89 2.34 -2.78 2.34 -1.67 2.34 -0.56 2.34 0.56 2.34 1.67 2.34 2.78 2.34 3.89 2.34 5 2.34 6.11 2.34 7.22 2.34 8.33 2.34 9.44 2.34 10.56 2.34 11.67 2.34 12.78 2.34 13.89 2.34 15 2.34 16.11 2.34 17.22 2.34 18.33 2.34 19.45 2.34 20.56 2.34 21.67 2.34 22.78 2.34 23.89 2.34 25 2.34 26.11 2.34 27.22 2.34 28.33 2.34 29.45 2.34 30.56 2.34 31.67 2.34 32.78 2.34 33.89 2.34 35 2.34 36.11 2.34 37.22 2.34 38.34 2.34 39.45 2.34 40.56 2.34 41.67 2.34 42.78 2.34 43.89 2.34 45 2.34 46.11 2.34 47.22 2.34 48.34 2.34 49.45 2.34 50.56 2.34 51.67 2.34 52.78 2.34 53.89 2.34 55 2.34" class="primitive"/>
            </g>
          </g>
        </g>
      </g>
    </g>
  </g>
  <g class="guide ylabels" font-size="2.82" font-family="'PT Sans Caption','Helvetica Neue','Helvetica',sans-serif" fill="#6C606B" id="img-63ab0ee3-32">
    <g transform="translate(20.3,78.71)" id="img-63ab0ee3-33">
      <g class="primitive">
        <text text-anchor="end" dy="0.35em">0</text>
      </g>
    </g>
    <g transform="translate(20.3,64.37)" id="img-63ab0ee3-34">
      <g class="primitive">
        <text text-anchor="end" dy="0.35em">500</text>
      </g>
    </g>
    <g transform="translate(20.3,50.03)" id="img-63ab0ee3-35">
      <g class="primitive">
        <text text-anchor="end" dy="0.35em">1000</text>
      </g>
    </g>
    <g transform="translate(20.3,35.69)" id="img-63ab0ee3-36">
      <g class="primitive">
        <text text-anchor="end" dy="0.35em">1500</text>
      </g>
    </g>
    <g transform="translate(20.3,21.34)" id="img-63ab0ee3-37">
      <g class="primitive">
        <text text-anchor="end" dy="0.35em">2000</text>
      </g>
    </g>
    <g transform="translate(20.3,7)" id="img-63ab0ee3-38">
      <g class="primitive">
        <text text-anchor="end" dy="0.35em">2500</text>
      </g>
    </g>
  </g>
  <g font-size="3.88" font-family="'PT Sans','Helvetica Neue','Helvetica',sans-serif" fill="#564A55" stroke="#000000" stroke-opacity="0.000" id="img-63ab0ee3-39">
    <g transform="translate(8.81,40.86)" id="img-63ab0ee3-40">
      <g class="primitive">
        <text text-anchor="middle" dy="0.35em" transform="rotate(-90,0, 2)">inf</text>
      </g>
    </g>
  </g>
</g>
<defs>
  <clipPath id="img-63ab0ee3-4">
    <path d="M21.3,5 L 136.42 5 136.42 80.72 21.3 80.72" />
  </clipPath>
</defs>
</svg>
