<?xml version="1.0" encoding="UTF-8"?>
<svg xmlns="http://www.w3.org/2000/svg"
     xmlns:xlink="http://www.w3.org/1999/xlink"
     xmlns:gadfly="http://www.gadflyjl.org/ns"
     version="1.2"
     width="141.42mm" height="100mm" viewBox="0 0 141.42 100"
     stroke="none"
     fill="#000000"
     stroke-width="0.3"
     font-size="3.88"
>
<defs>
  <marker id="arrow" markerWidth="15" markerHeight="7" refX="5" refY="3.5" orient="auto" markerUnits="strokeWidth">
    <path d="M0,0 L15,3.5 L0,7 z" stroke="context-stroke" fill="context-stroke"/>
  </marker>
</defs>
<g class="plotroot xscalable yscalable" id="img-646c1aeb-1">
  <g font-size="3.88" font-family="'PT Sans','Helvetica Neue','Helvetica',sans-serif" fill="#564A55" stroke="#000000" stroke-opacity="0.000" id="img-646c1aeb-2">
    <g transform="translate(78.86,88.39)">
      <g class="primitive">
        <text text-anchor="middle" dy="0.6em">time</text>
      </g>
    </g>
  </g>
  <g class="guide xlabels" font-size="2.82" font-family="'PT Sans Caption','Helvetica Neue','Helvetica',sans-serif" fill="#6C606B" id="img-646c1aeb-3">
    <g transform="translate(23.3,81.72)">
      <g class="primitive">
        <text text-anchor="middle" dy="0.6em">0</text>
      </g>
    </g>
    <g transform="translate(78.86,81.72)">
      <g class="primitive">
        <text text-anchor="middle" dy="0.6em">50</text>
      </g>
    </g>
    <g transform="translate(134.42,81.72)">
      <g class="primitive">
        <text text-anchor="middle" dy="0.6em">100</text>
      </g>
    </g>
  </g>
  <g clip-path="url(#img-646c1aeb-4)">
    <g id="img-646c1aeb-5">
      <g pointer-events="visible" stroke-width="0.3" fill="#000000" fill-opacity="0.000" stroke="#000000" stroke-opacity="0.000" class="guide background" id="img-646c1aeb-6">
        <g transform="translate(78.86,42.86)" id="img-646c1aeb-7">
          <path d="M-57.56,-37.86 L 57.56 -37.86 57.56 37.86 -57.56 37.86 z" class="primitive"/>
        </g>
      </g>
      <g class="guide ygridlines xfixed" stroke-dasharray="0.5,0.5" stroke-width="0.2" stroke="#D0D0E0" id="img-646c1aeb-8">
        <g transform="translate(78.86,78.71)" id="img-646c1aeb-9">
          <path fill="none" d="M-57.56,0 L 57.56 0" class="primitive"/>
        </g>
        <g transform="translate(78.86,64.37)" id="img-646c1aeb-10">
          <path fill="none" d="M-57.56,0 L 57.56 0" class="primitive"/>
        </g>
        <g transform="translate(78.86,50.03)" id="img-646c1aeb-11">
          <path fill="none" d="M-57.56,0 L 57.56 0" class="primitive"/>
        </g>
        <g transform="translate(78.86,35.69)" id="img-646c1aeb-12">
          <path fill="none" d="M-57.56,0 L 57.56 0" class="primitive"/>
        </g>
        <g transform="translate(78.86,21.34)" id="img-646c1aeb-13">
          <path fill="none" d="M-57.56,0 L 57.56 0" class="primitive"/>
        </g>
        <g transform="translate(78.86,7)" id="img-646c1aeb-14">
          <path fill="none" d="M-57.56,0 L 57.56 0" class="primitive"/>
        </g>
      </g>
      <g class="guide xgridlines yfixed" stroke-dasharray="0.5,0.5" stroke-width="0.2" stroke="#D0D0E0" id="img-646c1aeb-15">
        <g transform="translate(23.3,42.86)" id="img-646c1aeb-16">
          <path fill="none" d="M0,-37.86 L 0 37.86" class="primitive"/>
        </g>
        <g transform="translate(78.86,42.86)" id="img-646c1aeb-17">
          <path fill="none" d="M0,-37.86 L 0 37.86" class="primitive"/>
        </g>
        <g transform="translate(134.42,42.86)" id="img-646c1aeb-18">
          <path fill="none" d="M0,-37.86 L 0 37.86" class="primitive"/>
        </g>
      </g>
      <g class="plotpanel" id="img-646c1aeb-19">
        <metadata>
          <boundingbox value="21.304999999999993mm 5.0mm 115.11635623730952mm 75.715mm"/>
          <unitbox value="-1.7999150329665508 2569.7204211113435 103.59983006593309 -2639.4408422226875"/>
        </metadata>
        <g stroke-width="0.3" fill="#000000" fill-opacity="0.000" class="geometry" id="img-646c1aeb-20">
          <g class="color_RGB{N0f8}(0.502,0.502,0.502)" stroke-dasharray="none" stroke="#808080" id="img-646c1aeb-21">
            <g transform="translate(79.42,70.97)" id="img-646c1aeb-22">
              <path fill="none" d="M-55,7.75 L -53.89 7.75 -52.78 7.75 -51.67 7.72 -50.56 7.72 -49.45 7.69 -48.34 7.66 -47.22 7.63 -46.11 7.63 -45 7.6 -43.89 7.57 -42.78 7.57 -41.67 7.55 -40.56 7.55 -39.45 7.43 -38.34 7.4 -37.22 7.35 -36.11 7.26 -35 7.17 -33.89 7.12 -32.78 7 -31.67 6.89 -30.56 6.69 -29.45 6.6 -28.33 6.34 -27.22 6.25 -26.11 6.17 -25 6.08 -23.89 6 -22.78 5.88 -21.67 5.74 -20.56 5.6 -19.45 5.37 -18.33 5.14 -17.22 4.99 -16.11 4.88 -15 4.68 -13.89 4.42 -12.78 4.02 -11.67 3.82 -10.56 3.59 -9.44 3.44 -8.33 3.21 -7.22 2.93 -6.11 2.67 -5 2.61 -3.89 2.33 -2.78 2.27 -1.67 2.01 -0.56 1.61 0.56 1.35 1.67 0.86 2.78 0.69 3.89 0.52 5 0.29 6.11 0.12 7.22 -0.23 8.33 -0.43 9.44 -0.63 10.56 -1 11.67 -1.26 12.78 -1.43 13.89 -1.78 15 -2.04 16.11 -2.44 17.22 -2.75 18.33 -2.92 19.45 -3.21 20.56 -3.53 21.67 -3.7 22.78 -3.93 23.89 -4.22 25 -4.53 26.11 -4.79 27.22 -5.1 28.33 -5.65 29.45 -6.02 30.56 -6.45 31.67 -6.68 32.78 -7.03 33.89 -7.51 35 -7.8 36.11 -8.15 37.22 -8.52 38.34 -8.92 39.45 -9.29 40.56 -9.61 41.67 -9.95 42.78 -10.35 43.89 -10.78 45 -11.01 46.11 -11.24 47.22 -11.44 48.34 -11.79 49.45 -12.08 50.56 -12.3 51.67 -12.48 52.78 -12.68 53.89 -12.99 55 -13.22" class="primitive"/>
            </g>
          </g>
        </g>
        <g stroke-width="0.3" fill="#000000" fill-opacity="0.000" class="geometry" id="img-646c1aeb-23">
          <g class="color_RGB{N0f8}(0.0,0.0,1.0)" stroke-dasharray="none" stroke="#0000FF" id="img-646c1aeb-24">
            <g transform="translate(79.42,63.96)" id="img-646c1aeb-25">
              <path fill="none" d="M-55,14.76 L -53.89 14.73 -52.78 14.7 -51.67 14.7 -50.56 14.67 -49.45 14.61 -48.34 14.53 -47.22 14.5 -46.11 14.44 -45 14.38 -43.89 14.38 -42.78 14.3 -41.67 14.18 -40.56 14.12 -39.45 14.04 -38.34 13.98 -37.22 13.81 -36.11 13.78 -35 13.58 -33.89 13.41 -32.78 13.21 -31.67 12.98 -30.56 12.89 -29.45 12.72 -28.33 12.63 -27.22 12.4 -26.11 12.09 -25 11.89 -23.89 11.51 -22.78 11.31 -21.67 11.11 -20.56 10.97 -19.45 10.65 -18.33 10.37 -17.22 10.02 -16.11 9.71 -15 9.48 -13.89 9.1 -12.78 8.56 -11.67 8.27 -10.56 7.93 -9.44 7.58 -8.33 7.15 -7.22 6.9 -6.11 6.49 -5 6.03 -3.89 5.49 -2.78 5.32 -1.67 4.77 -0.56 4.03 0.56 3.71 1.67 3.05 2.78 2.56 3.89 2.16 5 1.76 6.11 1.1 7.22 0.58 8.33 0.1 9.44 -0.45 10.56 -0.99 11.67 -1.48 12.78 -2.14 13.89 -2.63 15 -3.03 16.11 -3.69 17.22 -4.03 18.33 -4.78 19.45 -5.44 20.56 -5.98 21.67 -6.64 22.78 -7.3 23.89 -7.99 25 -8.74 26.11 -9.48 27.22 -10.46 28.33 -10.95 29.45 -11.84 30.56 -12.73 31.67 -13.67 32.78 -14.56 33.89 -15.31 35 -15.88 36.11 -16.54 37.22 -17.23 38.34 -18.26 39.45 -19.15 40.56 -19.87 41.67 -20.53 42.78 -21.27 43.89 -21.99 45 -22.59 46.11 -23.28 47.22 -23.74 48.34 -24.17 49.45 -24.63 50.56 -25.09 51.67 -25.55 52.78 -26.18 53.89 -26.72 55 -27.16" class="primitive"/>
            </g>
          </g>
        </g>
        <g stroke-width="0.3" fill="#000000" fill-opacity="0.000" class="geometry" id="img-646c1aeb-26">
          <g class="color_RGB{N0f8}(0.0,0.502,0.0)" stroke-dasharray="none" stroke="#008000" id="img-646c1aeb-27">
            <g transform="translate(79.42,31.65)" id="img-646c1aeb-28">
              <path fill="none" d="M-55,-24.59 L -53.89 -24.56 -52.78 -24.48 -51.67 -24.39 -50.56 -24.36 -49.45 -24.33 -48.34 -24.22 -47.22 -24.11 -46.11 -24.08 -45 -23.99 -43.89 -23.82 -42.78 -23.68 -41.67 -23.39 -40.56 -23.3 -39.45 -23.1 -38.34 -22.87 -37.22 -22.64 -36.11 -22.33 -35 -22.13 -33.89 -21.98 -32.78 -21.52 -31.67 -21.18 -30.56 -20.84 -29.45 -20.32 -28.33 -19.89 -27.22 -19.6 -26.11 -19.2 -25 -18.68 -23.89 -18.51 -22.78 -18.17 -21.67 -17.77 -20.56 -17.31 -19.45 -16.7 -18.33 -15.87 -17.22 -15.27 -16.11 -14.81 -15 -14.07 -13.89 -13.46 -12.78 -12.77 -11.67 -12.29 -10.56 -12.03 -9.44 -11.6 -8.33 -10.94 -7.22 -10.22 -6.11 -9.5 -5 -8.61 -3.89 -7.75 -2.78 -6.64 -1.67 -5.83 -0.56 -5.2 0.56 -4.17 1.67 -3.45 2.78 -3.02 3.89 -2.33 5 -1.73 6.11 -1.04 7.22 0.02 8.33 0.82 9.44 1.57 10.56 2.4 11.67 3.2 12.78 4.18 13.89 5.13 15 5.67 16.11 6.56 17.22 7.82 18.33 8.37 19.45 9.23 20.56 10.03 21.67 11.32 22.78 12.41 23.89 13.76 25 15.19 26.11 16.26 27.22 17.55 28.33 18.44 29.45 19.5 30.56 21.16 31.67 22.25 32.78 23.48 33.89 24.43 35 25.41 36.11 26.67 37.22 27.73 38.34 29.05 39.45 30.4 40.56 31.17 41.67 32.69 42.78 33.07 43.89 34.07 45 34.84 46.11 35.19 47.22 35.82 48.34 36.48 49.45 37 50.56 37.68 51.67 38.32 52.78 38.92 53.89 39.58 55 39.84" class="primitive"/>
            </g>
          </g>
        </g>
        <g stroke-width="0.3" fill="#000000" fill-opacity="0.000" class="geometry" id="img-646c1aeb-29">
          <g class="color_RGB{N0f8}(1.0,0.0,0.0)" stroke-dasharray="none" stroke="#FF0000" id="img-646c1aeb-30">
            <g transform="translate(79.42,76.57)" id="img-646c1aeb-31">
              <path fill="none" d="M-55,2.09 L -53.89 2.09 -52.78 2.03 -51.67 1.98 -50.56 1.98 -49.45 2.03 -48.34 2.03 -47.22 1.98 -46.11 2.01 -45 2.01 -43.89 1.86 -42.78 1.8 -41.67 1.66 -40.56 1.63 -39.45 1.63 -38.34 1.49 -37.22 1.49 -36.11 1.29 -35 1.37 -33.89 1.46 -32.78 1.32 -31.67 1.32 -30.56 1.26 -29.45 1 -28.33 0.92 -27.22 0.94 -26.11 0.94 -25 0.71 -23.89 1 -22.78 0.97 -21.67 0.92 -20.56 0.74 -19.45 0.69 -18.33 0.37 -17.22 0.26 -16.11 0.23 -15 -0.09 -13.89 -0.06 -12.78 0.2 -11.67 0.2 -10.56 0.51 -9.44 0.57 -8.33 0.57 -7.22 0.4 -6.11 0.34 -5 -0.03 -3.89 -0.06 -2.78 -0.95 -1.67 -0.95 -0.56 -0.43 0.56 -0.89 1.67 -0.46 2.78 -0.23 3.89 -0.35 5 -0.32 6.11 -0.17 7.22 -0.38 8.33 -0.49 9.44 -0.49 10.56 -0.4 11.67 -0.46 12.78 -0.61 13.89 -0.72 15 -0.61 16.11 -0.43 17.22 -1.04 18.33 -0.66 19.45 -0.58 20.56 -0.52 21.67 -0.98 22.78 -1.18 23.89 -1.55 25 -1.92 26.11 -1.98 27.22 -1.98 28.33 -1.84 29.45 -1.64 30.56 -1.98 31.67 -1.9 32.78 -1.9 33.89 -1.61 35 -1.72 36.11 -1.98 37.22 -1.98 38.34 -1.87 39.45 -1.95 40.56 -1.7 41.67 -2.21 42.78 -1.44 43.89 -1.29 45 -1.24 46.11 -0.66 47.22 -0.63 48.34 -0.52 49.45 -0.29 50.56 -0.29 51.67 -0.29 52.78 -0.06 53.89 0.14 55 0.54" class="primitive"/>
            </g>
          </g>
        </g>
      </g>
    </g>
  </g>
  <g class="guide ylabels" font-size="2.82" font-family="'PT Sans Caption','Helvetica Neue','Helvetica',sans-serif" fill="#6C606B" id="img-646c1aeb-32">
    <g transform="translate(20.3,78.71)" id="img-646c1aeb-33">
      <g class="primitive">
        <text text-anchor="end" dy="0.35em">0</text>
      </g>
    </g>
    <g transform="translate(20.3,64.37)" id="img-646c1aeb-34">
      <g class="primitive">
        <text text-anchor="end" dy="0.35em">500</text>
      </g>
    </g>
    <g transform="translate(20.3,50.03)" id="img-646c1aeb-35">
      <g class="primitive">
        <text text-anchor="end" dy="0.35em">1000</text>
      </g>
    </g>
    <g transform="translate(20.3,35.69)" id="img-646c1aeb-36">
      <g class="primitive">
        <text text-anchor="end" dy="0.35em">1500</text>
      </g>
    </g>
    <g transform="translate(20.3,21.34)" id="img-646c1aeb-37">
      <g class="primitive">
        <text text-anchor="end" dy="0.35em">2000</text>
      </g>
    </g>
    <g transform="translate(20.3,7)" id="img-646c1aeb-38">
      <g class="primitive">
        <text text-anchor="end" dy="0.35em">2500</text>
      </g>
    </g>
  </g>
  <g font-size="3.88" font-family="'PT Sans','Helvetica Neue','Helvetica',sans-serif" fill="#564A55" stroke="#000000" stroke-opacity="0.000" id="img-646c1aeb-39">
    <g transform="translate(8.81,40.86)" id="img-646c1aeb-40">
      <g class="primitive">
        <text text-anchor="middle" dy="0.35em" transform="rotate(-90,0, 2)">inf</text>
      </g>
    </g>
  </g>
</g>
<defs>
  <clipPath id="img-646c1aeb-4">
    <path d="M21.3,5 L 136.42 5 136.42 80.72 21.3 80.72" />
  </clipPath>
</defs>
</svg>
