<?xml version="1.0" encoding="UTF-8"?>
<svg xmlns="http://www.w3.org/2000/svg"
     xmlns:xlink="http://www.w3.org/1999/xlink"
     xmlns:gadfly="http://www.gadflyjl.org/ns"
     version="1.2"
     width="141.42mm" height="100mm" viewBox="0 0 141.42 100"
     stroke="none"
     fill="#000000"
     stroke-width="0.3"
     font-size="3.88"
>
<defs>
  <marker id="arrow" markerWidth="15" markerHeight="7" refX="5" refY="3.5" orient="auto" markerUnits="strokeWidth">
    <path d="M0,0 L15,3.5 L0,7 z" stroke="context-stroke" fill="context-stroke"/>
  </marker>
</defs>
<g class="plotroot xscalable yscalable" id="img-c9343e78-1">
  <g font-size="3.88" font-family="'PT Sans','Helvetica Neue','Helvetica',sans-serif" fill="#564A55" stroke="#000000" stroke-opacity="0.000" id="img-c9343e78-2">
    <g transform="translate(78.86,88.39)">
      <g class="primitive">
        <text text-anchor="middle" dy="0.6em">time</text>
      </g>
    </g>
  </g>
  <g class="guide xlabels" font-size="2.82" font-family="'PT Sans Caption','Helvetica Neue','Helvetica',sans-serif" fill="#6C606B" id="img-c9343e78-3">
    <g transform="translate(23.3,81.72)">
      <g class="primitive">
        <text text-anchor="middle" dy="0.6em">0</text>
      </g>
    </g>
    <g transform="translate(78.86,81.72)">
      <g class="primitive">
        <text text-anchor="middle" dy="0.6em">50</text>
      </g>
    </g>
    <g transform="translate(134.42,81.72)">
      <g class="primitive">
        <text text-anchor="middle" dy="0.6em">100</text>
      </g>
    </g>
  </g>
  <g clip-path="url(#img-c9343e78-4)">
    <g id="img-c9343e78-5">
      <g pointer-events="visible" fill="#000000" fill-opacity="0.000" stroke="#000000" stroke-opacity="0.000" class="guide background" id="img-c9343e78-6">
        <g transform="translate(78.86,42.86)" id="img-c9343e78-7">
          <path d="M-57.56,-37.86 L 57.56 -37.86 57.56 37.86 -57.56 37.86 z" class="primitive"/>
        </g>
      </g>
      <g class="guide ygridlines xfixed" stroke-dasharray="0.5,0.5" stroke-width="0.2" stroke="#D0D0E0" id="img-c9343e78-8">
        <g transform="translate(78.86,78.71)" id="img-c9343e78-9">
          <path fill="none" d="M-57.56,0 L 57.56 0" class="primitive"/>
        </g>
        <g transform="translate(78.86,64.37)" id="img-c9343e78-10">
          <path fill="none" d="M-57.56,0 L 57.56 0" class="primitive"/>
        </g>
        <g transform="translate(78.86,50.03)" id="img-c9343e78-11">
          <path fill="none" d="M-57.56,0 L 57.56 0" class="primitive"/>
        </g>
        <g transform="translate(78.86,35.69)" id="img-c9343e78-12">
          <path fill="none" d="M-57.56,0 L 57.56 0" class="primitive"/>
        </g>
        <g transform="translate(78.86,21.34)" id="img-c9343e78-13">
          <path fill="none" d="M-57.56,0 L 57.56 0" class="primitive"/>
        </g>
        <g transform="translate(78.86,7)" id="img-c9343e78-14">
          <path fill="none" d="M-57.56,0 L 57.56 0" class="primitive"/>
        </g>
      </g>
      <g class="guide xgridlines yfixed" stroke-dasharray="0.5,0.5" stroke-width="0.2" stroke="#D0D0E0" id="img-c9343e78-15">
        <g transform="translate(23.3,42.86)" id="img-c9343e78-16">
          <path fill="none" d="M0,-37.86 L 0 37.86" class="primitive"/>
        </g>
        <g transform="translate(78.86,42.86)" id="img-c9343e78-17">
          <path fill="none" d="M0,-37.86 L 0 37.86" class="primitive"/>
        </g>
        <g transform="translate(134.42,42.86)" id="img-c9343e78-18">
          <path fill="none" d="M0,-37.86 L 0 37.86" class="primitive"/>
        </g>
      </g>
      <g class="plotpanel" id="img-c9343e78-19">
        <metadata>
          <boundingbox value="21.304999999999993mm 5.0mm 115.11635623730952mm 75.715mm"/>
          <unitbox value="-1.7999150329665508 2569.7204211113435 103.59983006593309 -2639.4408422226875"/>
        </metadata>
        <g stroke-width="0.3" fill="#000000" fill-opacity="0.000" class="geometry" id="img-c9343e78-20">
          <g class="color_RGB{N0f8}(0.502,0.502,0.502)" stroke-dasharray="none" stroke="#808080" id="img-c9343e78-21">
            <g transform="translate(79.42,72.25)" id="img-c9343e78-22">
              <path fill="none" d="M-55,6.47 L -53.89 6.47 -52.78 6.47 -51.67 6.47 -50.56 6.47 -49.45 6.47 -48.34 6.47 -47.22 6.47 -46.11 6.41 -45 6.38 -43.89 6.35 -42.78 6.32 -41.67 6.3 -40.56 6.21 -39.45 6.21 -38.34 6.18 -37.22 6.18 -36.11 6.12 -35 6.07 -33.89 6.04 -32.78 6.04 -31.67 5.98 -30.56 5.95 -29.45 5.87 -28.33 5.66 -27.22 5.55 -26.11 5.44 -25 5.35 -23.89 5.23 -22.78 5.06 -21.67 4.86 -20.56 4.78 -19.45 4.6 -18.33 4.52 -17.22 4.29 -16.11 4.12 -15 4.06 -13.89 3.91 -12.78 3.8 -11.67 3.63 -10.56 3.46 -9.44 3.28 -8.33 3.14 -7.22 2.97 -6.11 2.74 -5 2.62 -3.89 2.48 -2.78 2.25 -1.67 2.05 -0.56 1.91 0.56 1.59 1.67 1.45 2.78 1.33 3.89 1.19 5 0.85 6.11 0.67 7.22 0.39 8.33 0.21 9.44 -0.02 10.56 -0.24 11.67 -0.5 12.78 -0.67 13.89 -0.79 15 -0.96 16.11 -1.31 17.22 -1.71 18.33 -1.99 19.45 -2.25 20.56 -2.6 21.67 -3.03 22.78 -3.23 23.89 -3.69 25 -3.97 26.11 -4.17 27.22 -4.4 28.33 -4.72 29.45 -5.09 30.56 -5.44 31.67 -5.72 32.78 -6.1 33.89 -6.33 35 -6.84 36.11 -7.27 37.22 -7.5 38.34 -7.93 39.45 -8.22 40.56 -8.59 41.67 -9.02 42.78 -9.37 43.89 -9.68 45 -10.26 46.11 -10.54 47.22 -11.06 48.34 -11.32 49.45 -11.49 50.56 -11.83 51.67 -12.12 52.78 -12.41 53.89 -12.61 55 -12.78" class="primitive"/>
            </g>
          </g>
        </g>
        <g stroke-width="0.3" fill="#000000" fill-opacity="0.000" class="geometry" id="img-c9343e78-23">
          <g class="color_RGB{N0f8}(0.0,0.0,1.0)" stroke-dasharray="none" stroke="#0000FF" id="img-c9343e78-24">
            <g transform="translate(79.42,65.24)" id="img-c9343e78-25">
              <path fill="none" d="M-55,13.48 L -53.89 13.48 -52.78 13.48 -51.67 13.48 -50.56 13.48 -49.45 13.45 -48.34 13.39 -47.22 13.33 -46.11 13.3 -45 13.27 -43.89 13.27 -42.78 13.19 -41.67 13.07 -40.56 12.96 -39.45 12.9 -38.34 12.87 -37.22 12.84 -36.11 12.84 -35 12.73 -33.89 12.67 -32.78 12.5 -31.67 12.44 -30.56 12.27 -29.45 12.16 -28.33 12.01 -27.22 11.84 -26.11 11.61 -25 11.52 -23.89 11.44 -22.78 11.09 -21.67 10.84 -20.56 10.58 -19.45 10.29 -18.33 10 -17.22 9.66 -16.11 9.52 -15 9.26 -13.89 8.94 -12.78 8.74 -11.67 8.46 -10.56 8.11 -9.44 7.91 -8.33 7.65 -7.22 7.31 -6.11 6.88 -5 6.39 -3.89 6.02 -2.78 5.62 -1.67 5.07 -0.56 4.55 0.56 4.01 1.67 3.61 2.78 3.21 3.89 2.75 5 1.91 6.11 1.28 7.22 0.68 8.33 0.28 9.44 -0.32 10.56 -0.78 11.67 -1.27 12.78 -1.79 13.89 -2.1 15 -2.5 16.11 -3.02 17.22 -3.51 18.33 -3.97 19.45 -4.45 20.56 -4.86 21.67 -5.74 22.78 -6.6 23.89 -7.26 25 -7.92 26.11 -8.56 27.22 -9.53 28.33 -10.65 29.45 -11.42 30.56 -12.08 31.67 -13 32.78 -13.43 33.89 -14.49 35 -15.76 36.11 -16.62 37.22 -17.16 38.34 -18.05 39.45 -18.39 40.56 -19.05 41.67 -19.71 42.78 -20.52 43.89 -21.21 45 -21.75 46.11 -22.47 47.22 -23.21 48.34 -23.96 49.45 -24.68 50.56 -25.16 51.67 -25.48 52.78 -25.85 53.89 -26.57 55 -27" class="primitive"/>
            </g>
          </g>
        </g>
        <g stroke-width="0.3" fill="#000000" fill-opacity="0.000" class="geometry" id="img-c9343e78-26">
          <g class="color_RGB{N0f8}(0.0,0.502,0.0)" stroke-dasharray="none" stroke="#008000" id="img-c9343e78-27">
            <g transform="translate(79.42,28.96)" id="img-c9343e78-28">
              <path fill="none" d="M-55,-21.94 L -53.89 -21.94 -52.78 -21.96 -51.67 -21.94 -50.56 -21.85 -49.45 -21.82 -48.34 -21.82 -47.22 -21.73 -46.11 -21.62 -45 -21.51 -43.89 -21.3 -42.78 -21.25 -41.67 -21.16 -40.56 -20.93 -39.45 -20.87 -38.34 -20.82 -37.22 -20.53 -36.11 -20.36 -35 -20.16 -33.89 -19.98 -32.78 -19.7 -31.67 -19.58 -30.56 -19.41 -29.45 -19.04 -28.33 -18.72 -27.22 -18.44 -26.11 -18.18 -25 -17.8 -23.89 -17.35 -22.78 -16.83 -21.67 -16.31 -20.56 -15.83 -19.45 -15.4 -18.33 -15.17 -17.22 -14.76 -16.11 -14.36 -15 -14.02 -13.89 -13.56 -12.78 -13.1 -11.67 -12.78 -10.56 -12.47 -9.44 -12.07 -8.33 -11.21 -7.22 -10.52 -6.11 -9.89 -5 -9.31 -3.89 -8.48 -2.78 -7.85 -1.67 -7.02 -0.56 -6.3 0.56 -5.47 1.67 -4.67 2.78 -4.18 3.89 -2.95 5 -2.03 6.11 -1.31 7.22 -0.68 8.33 -0.34 9.44 0.35 10.56 1.21 11.67 1.85 12.78 2.56 13.89 3.37 15 3.97 16.11 4.86 17.22 5.83 18.33 6.64 19.45 7.7 20.56 8.84 21.67 9.65 22.78 10.91 23.89 11.89 25 13.18 26.11 14.67 27.22 16.07 28.33 17.57 29.45 18.57 30.56 19.52 31.67 20.72 32.78 21.72 33.89 22.93 35 24.39 36.11 25.37 37.22 26.4 38.34 27.63 39.45 28.44 40.56 29.18 41.67 30.56 42.78 31.74 43.89 32.63 45 33.72 46.11 34.63 47.22 35.49 48.34 36.3 49.45 37.19 50.56 37.76 51.67 38.36 52.78 38.85 53.89 39.42 55 39.94" class="primitive"/>
            </g>
          </g>
        </g>
        <g stroke-width="0.3" fill="#000000" fill-opacity="0.000" class="geometry" id="img-c9343e78-29">
          <g class="color_RGB{N0f8}(1.0,0.0,0.0)" stroke-dasharray="none" stroke="#FF0000" id="img-c9343e78-30">
            <g transform="translate(79.42,76.69)" id="img-c9343e78-31">
              <path fill="none" d="M-55,1.99 L -53.89 1.99 -52.78 2.02 -51.67 1.99 -50.56 1.91 -49.45 1.91 -48.34 1.96 -47.22 1.94 -46.11 1.91 -45 1.85 -43.89 1.68 -42.78 1.73 -41.67 1.79 -40.56 1.76 -39.45 1.76 -38.34 1.76 -37.22 1.5 -36.11 1.39 -35 1.36 -33.89 1.28 -32.78 1.16 -31.67 1.16 -30.56 1.19 -29.45 1.02 -28.33 1.05 -27.22 1.05 -26.11 1.13 -25 0.93 -23.89 0.67 -22.78 0.67 -21.67 0.62 -20.56 0.47 -19.45 0.5 -18.33 0.64 -17.22 0.82 -16.11 0.73 -15 0.7 -13.89 0.7 -12.78 0.56 -11.67 0.7 -10.56 0.9 -9.44 0.87 -8.33 0.41 -7.22 0.24 -6.11 0.27 -5 0.3 -3.89 -0.02 -2.78 -0.02 -1.67 -0.1 -0.56 -0.16 0.56 -0.13 1.67 -0.39 2.78 -0.36 3.89 -0.99 5 -0.73 6.11 -0.65 7.22 -0.39 8.33 -0.16 9.44 -0.02 10.56 -0.19 11.67 -0.07 12.78 -0.1 13.89 -0.47 15 -0.5 16.11 -0.53 17.22 -0.62 18.33 -0.68 19.45 -0.99 20.56 -1.39 21.67 -0.88 22.78 -1.08 23.89 -0.93 25 -1.28 26.11 -1.94 27.22 -2.14 28.33 -2.2 29.45 -2.05 30.56 -1.99 31.67 -1.99 32.78 -2.2 33.89 -2.11 35 -1.79 36.11 -1.48 37.22 -1.74 38.34 -1.65 39.45 -1.82 40.56 -1.54 41.67 -1.82 42.78 -1.85 43.89 -1.74 45 -1.71 46.11 -1.62 47.22 -1.22 48.34 -1.02 49.45 -1.02 50.56 -0.76 51.67 -0.76 52.78 -0.59 53.89 -0.24 55 -0.16" class="primitive"/>
            </g>
          </g>
        </g>
      </g>
    </g>
  </g>
  <g class="guide ylabels" font-size="2.82" font-family="'PT Sans Caption','Helvetica Neue','Helvetica',sans-serif" fill="#6C606B" id="img-c9343e78-32">
    <g transform="translate(20.3,78.71)" id="img-c9343e78-33">
      <g class="primitive">
        <text text-anchor="end" dy="0.35em">0</text>
      </g>
    </g>
    <g transform="translate(20.3,64.37)" id="img-c9343e78-34">
      <g class="primitive">
        <text text-anchor="end" dy="0.35em">500</text>
      </g>
    </g>
    <g transform="translate(20.3,50.03)" id="img-c9343e78-35">
      <g class="primitive">
        <text text-anchor="end" dy="0.35em">1000</text>
      </g>
    </g>
    <g transform="translate(20.3,35.69)" id="img-c9343e78-36">
      <g class="primitive">
        <text text-anchor="end" dy="0.35em">1500</text>
      </g>
    </g>
    <g transform="translate(20.3,21.34)" id="img-c9343e78-37">
      <g class="primitive">
        <text text-anchor="end" dy="0.35em">2000</text>
      </g>
    </g>
    <g transform="translate(20.3,7)" id="img-c9343e78-38">
      <g class="primitive">
        <text text-anchor="end" dy="0.35em">2500</text>
      </g>
    </g>
  </g>
  <g font-size="3.88" font-family="'PT Sans','Helvetica Neue','Helvetica',sans-serif" fill="#564A55" stroke="#000000" stroke-opacity="0.000" id="img-c9343e78-39">
    <g transform="translate(8.81,40.86)" id="img-c9343e78-40">
      <g class="primitive">
        <text text-anchor="middle" dy="0.35em" transform="rotate(-90,0, 2)">inf</text>
      </g>
    </g>
  </g>
</g>
<defs>
  <clipPath id="img-c9343e78-4">
    <path d="M21.3,5 L 136.42 5 136.42 80.72 21.3 80.72" />
  </clipPath>
</defs>
</svg>
