<?xml version="1.0" encoding="UTF-8"?>
<svg xmlns="http://www.w3.org/2000/svg"
     xmlns:xlink="http://www.w3.org/1999/xlink"
     xmlns:gadfly="http://www.gadflyjl.org/ns"
     version="1.2"
     width="141.42mm" height="100mm" viewBox="0 0 141.42 100"
     stroke="none"
     fill="#000000"
     stroke-width="0.3"
     font-size="3.88"
>
<defs>
  <marker id="arrow" markerWidth="15" markerHeight="7" refX="5" refY="3.5" orient="auto" markerUnits="strokeWidth">
    <path d="M0,0 L15,3.5 L0,7 z" stroke="context-stroke" fill="context-stroke"/>
  </marker>
</defs>
<g class="plotroot xscalable yscalable" id="img-0cfae8fe-1">
  <g font-size="3.88" font-family="'PT Sans','Helvetica Neue','Helvetica',sans-serif" fill="#564A55" stroke="#000000" stroke-opacity="0.000" id="img-0cfae8fe-2">
    <g transform="translate(78.86,88.39)">
      <g class="primitive">
        <text text-anchor="middle" dy="0.6em">time</text>
      </g>
    </g>
  </g>
  <g class="guide xlabels" font-size="2.82" font-family="'PT Sans Caption','Helvetica Neue','Helvetica',sans-serif" fill="#6C606B" id="img-0cfae8fe-3">
    <g transform="translate(23.3,81.72)">
      <g class="primitive">
        <text text-anchor="middle" dy="0.6em">0</text>
      </g>
    </g>
    <g transform="translate(60.34,81.72)">
      <g class="primitive">
        <text text-anchor="middle" dy="0.6em">50</text>
      </g>
    </g>
    <g transform="translate(97.38,81.72)">
      <g class="primitive">
        <text text-anchor="middle" dy="0.6em">100</text>
      </g>
    </g>
    <g transform="translate(134.42,81.72)">
      <g class="primitive">
        <text text-anchor="middle" dy="0.6em">150</text>
      </g>
    </g>
  </g>
  <g clip-path="url(#img-0cfae8fe-4)">
    <g id="img-0cfae8fe-5">
      <g pointer-events="visible" stroke-width="0.3" fill="#000000" fill-opacity="0.000" stroke="#000000" stroke-opacity="0.000" class="guide background" id="img-0cfae8fe-6">
        <g transform="translate(78.86,42.86)" id="img-0cfae8fe-7">
          <path d="M-57.56,-37.86 L 57.56 -37.86 57.56 37.86 -57.56 37.86 z" class="primitive"/>
        </g>
      </g>
      <g class="guide ygridlines xfixed" stroke-dasharray="0.5,0.5" stroke-width="0.2" stroke="#D0D0E0" id="img-0cfae8fe-8">
        <g transform="translate(78.86,78.71)" id="img-0cfae8fe-9">
          <path fill="none" d="M-57.56,0 L 57.56 0" class="primitive"/>
        </g>
        <g transform="translate(78.86,64.37)" id="img-0cfae8fe-10">
          <path fill="none" d="M-57.56,0 L 57.56 0" class="primitive"/>
        </g>
        <g transform="translate(78.86,50.03)" id="img-0cfae8fe-11">
          <path fill="none" d="M-57.56,0 L 57.56 0" class="primitive"/>
        </g>
        <g transform="translate(78.86,35.69)" id="img-0cfae8fe-12">
          <path fill="none" d="M-57.56,0 L 57.56 0" class="primitive"/>
        </g>
        <g transform="translate(78.86,21.34)" id="img-0cfae8fe-13">
          <path fill="none" d="M-57.56,0 L 57.56 0" class="primitive"/>
        </g>
        <g transform="translate(78.86,7)" id="img-0cfae8fe-14">
          <path fill="none" d="M-57.56,0 L 57.56 0" class="primitive"/>
        </g>
      </g>
      <g class="guide xgridlines yfixed" stroke-dasharray="0.5,0.5" stroke-width="0.2" stroke="#D0D0E0" id="img-0cfae8fe-15">
        <g transform="translate(23.3,42.86)" id="img-0cfae8fe-16">
          <path fill="none" d="M0,-37.86 L 0 37.86" class="primitive"/>
        </g>
        <g transform="translate(60.34,42.86)" id="img-0cfae8fe-17">
          <path fill="none" d="M0,-37.86 L 0 37.86" class="primitive"/>
        </g>
        <g transform="translate(97.38,42.86)" id="img-0cfae8fe-18">
          <path fill="none" d="M0,-37.86 L 0 37.86" class="primitive"/>
        </g>
        <g transform="translate(134.42,42.86)" id="img-0cfae8fe-19">
          <path fill="none" d="M0,-37.86 L 0 37.86" class="primitive"/>
        </g>
      </g>
      <g class="plotpanel" id="img-0cfae8fe-20">
        <metadata>
          <boundingbox value="21.304999999999993mm 5.0mm 115.11635623730952mm 75.715mm"/>
          <unitbox value="-2.6998725494498266 2569.7204211113435 155.39974509889964 -2639.4408422226875"/>
        </metadata>
        <g stroke-width="0.3" fill="#000000" fill-opacity="0.000" class="geometry" id="img-0cfae8fe-21">
          <g class="color_RGB{N0f8}(0.502,0.502,0.502)" stroke-dasharray="none" stroke="#808080" id="img-0cfae8fe-22">
            <g transform="translate(68.12,77.4)" id="img-0cfae8fe-23">
              <path fill="none" d="M-44.08,1.32 L -43.34 1.32 -42.59 1.32 -41.85 1.32 -41.11 1.2 -40.37 1.17 -39.63 1.17 -38.89 1.09 -38.15 1.03 -37.41 0.97 -36.67 0.89 -35.93 0.8 -35.19 0.71 -34.45 0.66 -33.71 0.63 -32.96 0.6 -32.22 0.51 -31.48 0.51 -30.74 0.46 -30 0.4 -29.26 0.37 -28.52 0.28 -27.78 0.28 -27.04 0.2 -26.3 0.17 -25.56 0.11 -24.82 0.08 -24.08 0.08 -23.33 0.06 -22.59 -0 -21.85 -0 -21.11 -0 -20.37 -0 -19.63 -0 -18.89 -0.03 -18.15 -0.06 -17.41 -0.06 -16.67 -0.06 -15.93 -0.12 -15.19 -0.12 -14.45 -0.12 -13.7 -0.15 -12.96 -0.15 -12.22 -0.2 -11.48 -0.2 -10.74 -0.2 -10 -0.2 -9.26 -0.2 -8.52 -0.2 -7.78 -0.2 -7.04 -0.2 -6.3 -0.23 -5.56 -0.23 -4.82 -0.23 -4.07 -0.23 -3.33 -0.23 -2.59 -0.23 -1.85 -0.23 -1.11 -0.23 -0.37 -0.23 0.37 -0.23 1.11 -0.23 1.85 -0.23 2.59 -0.23 3.33 -0.23 4.07 -0.23 4.82 -0.23 5.56 -0.23 6.3 -0.23 7.04 -0.23 7.78 -0.23 8.52 -0.23 9.26 -0.23 10 -0.23 10.74 -0.23 11.48 -0.23 12.22 -0.26 12.96 -0.26 13.7 -0.26 14.45 -0.26 15.19 -0.26 15.93 -0.26 16.67 -0.26 17.41 -0.26 18.15 -0.26 18.89 -0.26 19.63 -0.26 20.37 -0.26 21.11 -0.26 21.85 -0.26 22.59 -0.26 23.33 -0.26 24.08 -0.26 24.82 -0.26 25.56 -0.26 26.3 -0.26 27.04 -0.26 27.78 -0.26 28.52 -0.26 29.26 -0.26 30 -0.26 30.74 -0.26 31.48 -0.26 32.22 -0.26 32.96 -0.26 33.71 -0.26 34.45 -0.26 35.19 -0.26 35.93 -0.26 36.67 -0.26 37.41 -0.26 38.15 -0.26 38.89 -0.26 39.63 -0.26 40.37 -0.26 41.11 -0.26 41.85 -0.26 42.59 -0.26 43.34 -0.26 44.08 -0.26" class="primitive"/>
            </g>
          </g>
        </g>
        <g stroke-width="0.3" fill="#000000" fill-opacity="0.000" class="geometry" id="img-0cfae8fe-24">
          <g class="color_RGB{N0f8}(0.0,0.0,1.0)" stroke-dasharray="none" stroke="#0000FF" id="img-0cfae8fe-25">
            <g transform="translate(68.12,20.54)" id="img-0cfae8fe-26">
              <path fill="none" d="M-44.08,58.12 L -43.34 57.95 -42.59 57.37 -41.85 56.54 -41.11 54.91 -40.37 51.89 -39.63 49.17 -38.89 45.73 -38.15 42 -37.41 38.81 -36.67 35.6 -35.93 33.13 -35.19 30.55 -34.45 28.14 -33.71 25.73 -32.96 23.41 -32.22 21.54 -31.48 19.45 -30.74 17.5 -30 15.69 -29.26 13.97 -28.52 12.25 -27.78 10.81 -27.04 9.44 -26.3 8.15 -25.56 6.74 -24.82 5.48 -24.08 4.39 -23.33 3.16 -22.59 2.21 -21.85 1.26 -21.11 0.69 -20.37 -0.2 -19.63 -1.09 -18.89 -1.95 -18.15 -2.55 -17.41 -3.21 -16.67 -3.81 -15.93 -4.33 -15.19 -4.79 -14.45 -5.22 -13.7 -5.79 -12.96 -6.17 -12.22 -6.43 -11.48 -6.77 -10.74 -7 -10 -7.4 -9.26 -7.69 -8.52 -8.06 -7.78 -8.23 -7.04 -8.32 -6.3 -8.52 -5.56 -8.61 -4.82 -8.86 -4.07 -8.92 -3.33 -9.09 -2.59 -9.32 -1.85 -9.55 -1.11 -9.64 -0.37 -9.7 0.37 -9.87 1.11 -9.98 1.85 -10.01 2.59 -10.13 3.33 -10.18 4.07 -10.27 4.82 -10.3 5.56 -10.41 6.3 -10.53 7.04 -10.58 7.78 -10.67 8.52 -10.73 9.26 -10.76 10 -10.81 10.74 -10.81 11.48 -10.87 12.22 -10.87 12.96 -10.87 13.7 -10.9 14.45 -10.93 15.19 -10.96 15.93 -11.02 16.67 -11.02 17.41 -11.1 18.15 -11.13 18.89 -11.19 19.63 -11.22 20.37 -11.22 21.11 -11.22 21.85 -11.22 22.59 -11.22 23.33 -11.24 24.08 -11.27 24.82 -11.27 25.56 -11.27 26.3 -11.27 27.04 -11.27 27.78 -11.27 28.52 -11.27 29.26 -11.27 30 -11.27 30.74 -11.27 31.48 -11.27 32.22 -11.27 32.96 -11.27 33.71 -11.27 34.45 -11.27 35.19 -11.3 35.93 -11.3 36.67 -11.3 37.41 -11.33 38.15 -11.33 38.89 -11.33 39.63 -11.33 40.37 -11.33 41.11 -11.33 41.85 -11.33 42.59 -11.33 43.34 -11.33 44.08 -11.33" class="primitive"/>
            </g>
          </g>
        </g>
        <g stroke-width="0.3" fill="#000000" fill-opacity="0.000" class="geometry" id="img-0cfae8fe-27">
          <g class="color_RGB{N0f8}(0.0,0.502,0.0)" stroke-dasharray="none" stroke="#008000" id="img-0cfae8fe-28">
            <g transform="translate(68.12,75.72)" id="img-0cfae8fe-29">
              <path fill="none" d="M-44.08,-67.08 L -43.34 -62.69 -42.59 -57.7 -41.85 -46.09 -41.11 -30.68 -40.37 -16.28 -39.63 -3.86 -38.89 0.7 -38.15 2.39 -37.41 2.74 -36.67 2.74 -35.93 2.65 -35.19 2.77 -34.45 2.77 -33.71 2.85 -32.96 2.91 -32.22 2.85 -31.48 2.77 -30.74 2.82 -30 2.88 -29.26 2.85 -28.52 2.88 -27.78 2.85 -27.04 2.85 -26.3 2.85 -25.56 2.8 -24.82 2.82 -24.08 2.91 -23.33 2.91 -22.59 2.8 -21.85 2.77 -21.11 2.74 -20.37 2.71 -19.63 2.65 -18.89 2.71 -18.15 2.77 -17.41 2.71 -16.67 2.62 -15.93 2.59 -15.19 2.59 -14.45 2.57 -13.7 2.54 -12.96 2.51 -12.22 2.57 -11.48 2.54 -10.74 2.54 -10 2.59 -9.26 2.62 -8.52 2.59 -7.78 2.62 -7.04 2.59 -6.3 2.65 -5.56 2.51 -4.82 2.54 -4.07 2.48 -3.33 2.45 -2.59 2.42 -1.85 2.42 -1.11 2.48 -0.37 2.45 0.37 2.48 1.11 2.45 1.85 2.45 2.59 2.45 3.33 2.48 4.07 2.48 4.82 2.45 5.56 2.45 6.3 2.45 7.04 2.45 7.78 2.39 8.52 2.39 9.26 2.39 10 2.39 10.74 2.42 11.48 2.42 12.22 2.45 12.96 2.42 13.7 2.39 14.45 2.39 15.19 2.39 15.93 2.39 16.67 2.39 17.41 2.39 18.15 2.39 18.89 2.39 19.63 2.39 20.37 2.39 21.11 2.39 21.85 2.39 22.59 2.39 23.33 2.39 24.08 2.39 24.82 2.39 25.56 2.39 26.3 2.39 27.04 2.39 27.78 2.39 28.52 2.39 29.26 2.39 30 2.39 30.74 2.39 31.48 2.39 32.22 2.39 32.96 2.39 33.71 2.39 34.45 2.39 35.19 2.39 35.93 2.39 36.67 2.39 37.41 2.39 38.15 2.39 38.89 2.39 39.63 2.39 40.37 2.39 41.11 2.39 41.85 2.39 42.59 2.39 43.34 2.39 44.08 2.39" class="primitive"/>
            </g>
          </g>
        </g>
        <g stroke-width="0.3" fill="#000000" fill-opacity="0.000" class="geometry" id="img-0cfae8fe-30">
          <g class="color_RGB{N0f8}(1.0,0.0,0.0)" stroke-dasharray="none" stroke="#FF0000" id="img-0cfae8fe-31">
            <g transform="translate(68.12,69.49)" id="img-0cfae8fe-32">
              <path fill="none" d="M-44.08,7.65 L -43.34 3.43 -42.59 -0.99 -41.85 -11.77 -41.11 -25.43 -40.37 -36.79 -39.63 -46.48 -38.89 -47.52 -38.15 -45.42 -37.41 -42.52 -36.67 -39.22 -35.93 -36.59 -35.19 -34.03 -34.45 -31.57 -33.71 -29.21 -32.96 -26.92 -32.22 -24.91 -31.48 -22.73 -30.74 -20.78 -30 -18.97 -29.26 -17.19 -28.52 -15.42 -27.78 -13.95 -27.04 -12.49 -26.3 -11.17 -25.56 -9.65 -24.82 -8.39 -24.08 -7.38 -23.33 -6.12 -22.59 -5 -21.85 -4.03 -21.11 -3.42 -20.37 -2.51 -19.63 -1.56 -18.89 -0.73 -18.15 -0.15 -17.41 0.56 -16.67 1.25 -15.93 1.85 -15.19 2.31 -14.45 2.77 -13.7 3.4 -12.96 3.8 -12.22 4.06 -11.48 4.44 -10.74 4.66 -10 5.01 -9.26 5.27 -8.52 5.67 -7.78 5.81 -7.04 5.93 -6.3 6.1 -5.56 6.33 -4.82 6.56 -4.07 6.67 -3.33 6.87 -2.59 7.13 -1.85 7.36 -1.11 7.39 -0.37 7.48 0.37 7.62 1.11 7.76 1.85 7.79 2.59 7.91 3.33 7.93 4.07 8.02 4.82 8.08 5.56 8.19 6.3 8.31 7.04 8.37 7.78 8.51 8.52 8.57 9.26 8.59 10 8.65 10.74 8.62 11.48 8.68 12.22 8.68 12.96 8.71 13.7 8.77 14.45 8.8 15.19 8.82 15.93 8.88 16.67 8.88 17.41 8.97 18.15 9 18.89 9.05 19.63 9.08 20.37 9.08 21.11 9.08 21.85 9.08 22.59 9.08 23.33 9.11 24.08 9.14 24.82 9.14 25.56 9.14 26.3 9.14 27.04 9.14 27.78 9.14 28.52 9.14 29.26 9.14 30 9.14 30.74 9.14 31.48 9.14 32.22 9.14 32.96 9.14 33.71 9.14 34.45 9.14 35.19 9.17 35.93 9.17 36.67 9.17 37.41 9.2 38.15 9.2 38.89 9.2 39.63 9.2 40.37 9.2 41.11 9.2 41.85 9.2 42.59 9.2 43.34 9.2 44.08 9.2" class="primitive"/>
            </g>
          </g>
        </g>
      </g>
    </g>
  </g>
  <g class="guide ylabels" font-size="2.82" font-family="'PT Sans Caption','Helvetica Neue','Helvetica',sans-serif" fill="#6C606B" id="img-0cfae8fe-33">
    <g transform="translate(20.3,78.71)" id="img-0cfae8fe-34">
      <g class="primitive">
        <text text-anchor="end" dy="0.35em">0</text>
      </g>
    </g>
    <g transform="translate(20.3,64.37)" id="img-0cfae8fe-35">
      <g class="primitive">
        <text text-anchor="end" dy="0.35em">500</text>
      </g>
    </g>
    <g transform="translate(20.3,50.03)" id="img-0cfae8fe-36">
      <g class="primitive">
        <text text-anchor="end" dy="0.35em">1000</text>
      </g>
    </g>
    <g transform="translate(20.3,35.69)" id="img-0cfae8fe-37">
      <g class="primitive">
        <text text-anchor="end" dy="0.35em">1500</text>
      </g>
    </g>
    <g transform="translate(20.3,21.34)" id="img-0cfae8fe-38">
      <g class="primitive">
        <text text-anchor="end" dy="0.35em">2000</text>
      </g>
    </g>
    <g transform="translate(20.3,7)" id="img-0cfae8fe-39">
      <g class="primitive">
        <text text-anchor="end" dy="0.35em">2500</text>
      </g>
    </g>
  </g>
  <g font-size="3.88" font-family="'PT Sans','Helvetica Neue','Helvetica',sans-serif" fill="#564A55" stroke="#000000" stroke-opacity="0.000" id="img-0cfae8fe-40">
    <g transform="translate(8.81,40.86)" id="img-0cfae8fe-41">
      <g class="primitive">
        <text text-anchor="middle" dy="0.35em" transform="rotate(-90,0, 2)">inf</text>
      </g>
    </g>
  </g>
</g>
<defs>
  <clipPath id="img-0cfae8fe-4">
    <path d="M21.3,5 L 136.42 5 136.42 80.72 21.3 80.72" />
  </clipPath>
</defs>
</svg>
